<svg xmlns="http://www.w3.org/2000/svg" viewBox="0 0 830.41 348.64"><defs><style>.cls-1{fill:#fff;}.cls-2{fill:#cccccb;}.cls-3{font-size:14px;font-family:Roboto-Medium, Roboto;font-weight:500;}.cls-28,.cls-3,.cls-4{fill:gray;}.cls-28,.cls-4{font-size:10px;}.cls-29,.cls-4{font-family:Roboto-Regular, Roboto;}.cls-5{letter-spacing:-0.01em;}.cls-6{letter-spacing:0.06em;}.cls-7{letter-spacing:-0.02em;}.cls-8{letter-spacing:-0.01em;}.cls-9{letter-spacing:-0.01em;}.cls-10{letter-spacing:0.06em;}.cls-11{letter-spacing:-0.01em;}.cls-12{letter-spacing:-0.01em;}.cls-13{letter-spacing:0.13em;}.cls-14{letter-spacing:0.01em;}.cls-15{letter-spacing:-0.04em;}.cls-16{letter-spacing:-0.05em;}.cls-17{letter-spacing:-0.01em;}.cls-18{letter-spacing:0.12em;}.cls-19{letter-spacing:1.19em;}.cls-20{letter-spacing:1.19em;}.cls-21{letter-spacing:0.35em;}.cls-22{letter-spacing:0.35em;}.cls-23{letter-spacing:0.09em;}.cls-24{letter-spacing:-0.11em;}.cls-25{letter-spacing:-0.04em;}.cls-26{letter-spacing:-0.04em;}.cls-27{letter-spacing:-0.01em;}.cls-28{font-family:Roboto-Bold, Roboto;font-weight:700;}.cls-29{font-weight:400;}.cls-30{letter-spacing:-0.02em;}.cls-31{letter-spacing:0.13em;}.cls-32{letter-spacing:0.13em;}.cls-33{letter-spacing:0.21em;}.cls-34{letter-spacing:0.21em;}.cls-35{letter-spacing:0.25em;}.cls-36{letter-spacing:0.25em;}.cls-37{letter-spacing:-0.02em;}.cls-38{letter-spacing:-0.02em;}.cls-39{letter-spacing:3.35em;}.cls-40{letter-spacing:-0.01em;}.cls-41{letter-spacing:0.02em;}.cls-42{letter-spacing:-0.01em;}.cls-43{letter-spacing:-0.03em;}.cls-44,.cls-46{fill:#d59936;}.cls-45{font-size:22px;fill:#966d30;}.cls-45,.cls-46{font-family:Roboto-Black, Roboto;font-weight:800;}.cls-46{opacity:0.57;font-size:55.3px;}</style></defs><title>leanCanvas</title><g id="Layer_2" data-name="Layer 2"><g id="Layer_1-2" data-name="Layer 1"><rect class="cls-1" x="0.53" y="11.65" width="161.45" height="281.58"/><rect class="cls-1" x="378.8" y="11.65" width="235.37" height="281.58"/><rect class="cls-2" x="620.21" y="11.65" width="48.19" height="207.76"/><rect class="cls-1" x="674.45" y="11.65" width="155.97" height="281.58"/><rect class="cls-1" x="168.27" y="11.65" width="204.19" height="226.89"/><rect class="cls-2" y="300.45" width="420.4" height="48.19"/><rect class="cls-2" x="427.03" y="300.45" width="402.86" height="48.19"/><rect class="cls-2" x="620.21" y="226.63" width="48.19" height="66.6"/><rect class="cls-2" x="168.27" y="243.61" width="204.19" height="49.62"/><text class="cls-3" transform="translate(10.51 58.91)">PROBLEM</text><text class="cls-4" transform="translate(10.51 81.87)">G<tspan class="cls-5" x="6.81" y="0">r</tspan><tspan x="10.1" y="0">oup</tspan><tspan class="cls-6" x="26.92" y="0"> </tspan><tspan x="29.97" y="0">t</tspan><tspan class="cls-7" x="33.24" y="0">r</tspan><tspan class="cls-8" x="36.43" y="0">a</tspan><tspan class="cls-9" x="41.79" y="0">v</tspan><tspan x="46.57" y="0">eling</tspan><tspan class="cls-10" x="67.85" y="0"> </tspan><tspan x="70.9" y="0">is</tspan><tspan class="cls-6" x="78.48" y="0"> </tspan><tspan x="81.53" y="0">ha</tspan><tspan class="cls-11" x="92.48" y="0">r</tspan><tspan x="95.77" y="0">d</tspan><tspan class="cls-6" x="101.41" y="0"> </tspan><tspan x="104.46" y="0">because </tspan><tspan x="0" y="12">people h</tspan><tspan class="cls-8" x="37.93" y="12">a</tspan><tspan class="cls-9" x="43.3" y="12">v</tspan><tspan x="48.08" y="12">e dif</tspan><tspan class="cls-12" x="67.39" y="12">f</tspan><tspan x="70.74" y="12">e</tspan><tspan class="cls-11" x="76.04" y="12">r</tspan><tspan x="79.33" y="12">ent inte</tspan><tspan class="cls-11" x="112.4" y="12">r</tspan><tspan x="115.69" y="12">ests. </tspan><tspan x="0" y="36">Planning</tspan><tspan class="cls-13" x="38.76" y="36"> </tspan><tspan x="42.55" y="36">a</tspan><tspan class="cls-13" x="47.98" y="36"> </tspan><tspan x="51.77" y="36">trip</tspan><tspan class="cls-13" x="66.45" y="36"> </tspan><tspan class="cls-5" x="70.23" y="36">t</tspan><tspan x="73.4" y="36">o</tspan><tspan class="cls-13" x="79.11" y="36"> </tspan><tspan x="82.89" y="36">fit</tspan><tspan class="cls-13" x="92.05" y="36"> </tspan><tspan class="cls-9" x="95.83" y="36">ev</tspan><tspan x="105.85" y="36">e</tspan><tspan class="cls-14" x="111.15" y="36">r</tspan><tspan class="cls-8" x="114.62" y="36">y</tspan><tspan x="119.27" y="36">on</tspan><tspan class="cls-15" x="130.5" y="36">e</tspan><tspan class="cls-16" x="135.4" y="36">’</tspan><tspan x="136.85" y="36">s </tspan><tspan x="0" y="48">taste is time consuming.</tspan><tspan class="cls-17" x="0" y="72">E</tspan><tspan class="cls-9" x="5.56" y="72">v</tspan><tspan x="10.34" y="72">en</tspan><tspan class="cls-18" x="21.15" y="72"> </tspan><tspan x="24.8" y="72">with</tspan><tspan class="cls-18" x="43.51" y="72"> </tspan><tspan x="47.16" y="72">friends</tspan><tspan class="cls-18" x="78.05" y="72"> </tspan><tspan class="cls-8" x="81.7" y="72">y</tspan><tspan x="86.36" y="72">ou</tspan><tspan class="cls-18" x="97.57" y="72"> </tspan><tspan x="101.22" y="72">can</tspan><tspan class="cls-18" x="117.41" y="72"> </tspan><tspan x="121.06" y="72">h</tspan><tspan class="cls-8" x="126.56" y="72">a</tspan><tspan class="cls-9" x="131.93" y="72">v</tspan><tspan x="136.71" y="72">e </tspan><tspan x="0" y="84">misunderstanding</tspan><tspan class="cls-19" x="80.27" y="84"> </tspan><tspan x="94.67" y="84">on</tspan><tspan class="cls-20" x="105.89" y="84"> </tspan><tspan x="120.28" y="84">what </tspan><tspan class="cls-9" x="0" y="96">ev</tspan><tspan x="10.01" y="96">e</tspan><tspan class="cls-14" x="15.31" y="96">r</tspan><tspan class="cls-8" x="18.78" y="96">y</tspan><tspan x="23.44" y="96">one wants.</tspan></text><text class="cls-3" transform="translate(180.15 58.91)">SO<tspan class="cls-12" x="18.12" y="0">L</tspan><tspan x="25.53" y="0">UTION</tspan></text><text class="cls-4" transform="translate(180.15 81.87)">An<tspan class="cls-21" x="12.04" y="0"> </tspan><tspan x="18" y="0">adapti</tspan><tspan class="cls-9" x="45.82" y="0">v</tspan><tspan x="50.6" y="0">e</tspan><tspan class="cls-22" x="55.9" y="0"> </tspan><tspan x="61.85" y="0">system,</tspan><tspan class="cls-21" x="96.19" y="0"> </tspan><tspan x="102.14" y="0">based</tspan><tspan class="cls-22" x="129.29" y="0"> </tspan><tspan x="135.24" y="0">on</tspan><tspan class="cls-21" x="146.46" y="0"> </tspan><tspan x="152.42" y="0">Google </tspan><tspan x="0" y="12">accounts,</tspan><tspan class="cls-23" x="43.03" y="12"> </tspan><tspan x="46.36" y="12">whe</tspan><tspan class="cls-11" x="64.68" y="12">r</tspan><tspan x="67.98" y="12">e</tspan><tspan class="cls-23" x="73.27" y="12"> </tspan><tspan x="76.61" y="12">we</tspan><tspan class="cls-23" x="89.42" y="12"> </tspan><tspan x="92.76" y="12">a</tspan><tspan class="cls-11" x="98.2" y="12">r</tspan><tspan x="101.49" y="12">e</tspan><tspan class="cls-23" x="106.79" y="12"> </tspan><tspan x="110.12" y="12">adding</tspan><tspan class="cls-23" x="140.4" y="12"> </tspan><tspan x="143.73" y="12">a</tspan><tspan class="cls-23" x="149.17" y="12"> </tspan><tspan class="cls-12" x="152.51" y="12">f</tspan><tspan x="155.86" y="12">eatu</tspan><tspan class="cls-11" x="175.38" y="12">r</tspan><tspan x="178.67" y="12">e </tspan><tspan class="cls-5" x="0" y="24">t</tspan><tspan x="3.17" y="24">o Google trips for g</tspan><tspan class="cls-5" x="88.34" y="24">r</tspan><tspan x="91.63" y="24">oup management. </tspan><tspan x="0" y="36">https:</tspan><tspan class="cls-24" x="25.23" y="36">/</tspan><tspan x="28.26" y="36">/get.google.com/trips/</tspan><tspan x="0" y="72">Added </tspan><tspan class="cls-12" x="31.22" y="72">f</tspan><tspan x="34.57" y="72">eatu</tspan><tspan class="cls-11" x="54.09" y="72">r</tspan><tspan x="57.38" y="72">es:</tspan><tspan x="0" y="84" xml:space="preserve">•   invite members</tspan><tspan x="0" y="96">•</tspan><tspan class="cls-25" x="3.37" y="96" xml:space="preserve">   </tspan><tspan x="9.73" y="96">semi-au</tspan><tspan class="cls-5" x="45.09" y="96">t</tspan><tspan x="48.26" y="96">onomous</tspan><tspan class="cls-25" x="90.32" y="96"> </tspan><tspan x="92.44" y="96">adjustments</tspan><tspan class="cls-25" x="147.84" y="96"> </tspan><tspan x="149.96" y="96">on</tspan><tspan class="cls-25" x="161.18" y="96"> </tspan><tspan x="163.3" y="96">daily </tspan><tspan x="0" y="108">schedule</tspan><tspan x="0" y="120" xml:space="preserve">•   dismatching </tspan><tspan class="cls-11" x="68.26" y="120">r</tspan><tspan x="71.55" y="120">ecommendations</tspan></text><text class="cls-3" transform="translate(389.81 58.91)">UNIQUE <tspan class="cls-26" x="53.21" y="0">V</tspan><tspan x="61.76" y="0">A</tspan><tspan class="cls-12" x="71.07" y="0">L</tspan><tspan x="78.48" y="0">UE PROPOS</tspan><tspan class="cls-27" x="153.43" y="0">I</tspan><tspan x="157.18" y="0">TION</tspan></text><text class="cls-28" transform="translate(389.81 81.87)">See mo<tspan class="cls-11" x="33.76" y="0">r</tspan><tspan x="37.31" y="0">e, a</tspan><tspan class="cls-11" x="53.01" y="0">r</tspan><tspan x="56.57" y="0">egue less!</tspan><tspan class="cls-29"><tspan class="cls-30" x="0" y="24">W</tspan><tspan x="8.72" y="24">e</tspan><tspan class="cls-31" x="14.02" y="24"> </tspan><tspan x="17.84" y="24">a</tspan><tspan class="cls-11" x="23.28" y="24">r</tspan><tspan x="26.57" y="24">e</tspan><tspan class="cls-31" x="31.87" y="24"> </tspan><tspan x="35.69" y="24">giving</tspan><tspan class="cls-32" x="62.12" y="24"> </tspan><tspan x="65.94" y="24">adapti</tspan><tspan class="cls-9" x="93.77" y="24">v</tspan><tspan x="98.55" y="24">e</tspan><tspan class="cls-31" x="103.84" y="24"> </tspan><tspan x="107.66" y="24">t</tspan><tspan class="cls-7" x="110.93" y="24">r</tspan><tspan class="cls-8" x="114.12" y="24">a</tspan><tspan class="cls-9" x="119.49" y="24">v</tspan><tspan x="124.27" y="24">el</tspan><tspan class="cls-31" x="131.99" y="24"> </tspan><tspan class="cls-11" x="135.81" y="24">r</tspan><tspan x="139.1" y="24">ecommendations </tspan><tspan x="0" y="36">based</tspan><tspan class="cls-33" x="27.14" y="36"> </tspan><tspan x="31.75" y="36">on</tspan><tspan class="cls-34" x="42.97" y="36"> </tspan><tspan x="47.57" y="36">the</tspan><tspan class="cls-33" x="61.64" y="36"> </tspan><tspan x="66.24" y="36">common</tspan><tspan class="cls-33" x="105.93" y="36"> </tspan><tspan x="110.53" y="36">inte</tspan><tspan class="cls-11" x="127.04" y="36">r</tspan><tspan x="130.33" y="36">ests</tspan><tspan class="cls-34" x="149.21" y="36"> </tspan><tspan x="153.81" y="36">of</tspan><tspan class="cls-33" x="162.99" y="36"> </tspan><tspan x="167.59" y="36">a</tspan><tspan class="cls-34" x="173.03" y="36"> </tspan><tspan x="177.63" y="36">g</tspan><tspan class="cls-5" x="183.24" y="36">r</tspan><tspan x="186.53" y="36">oup</tspan><tspan class="cls-33" x="203.36" y="36"> </tspan><tspan class="cls-5" x="207.96" y="36">t</tspan><tspan x="211.13" y="36">o </tspan><tspan x="0" y="48">ma</tspan><tspan class="cls-5" x="14.2" y="48">k</tspan><tspan x="19.17" y="48">e trips easy </tspan><tspan class="cls-5" x="72.37" y="48">t</tspan><tspan x="75.54" y="48">o plan and mo</tspan><tspan class="cls-11" x="138.73" y="48">r</tspan><tspan x="142.02" y="48">e enj</tspan><tspan class="cls-8" x="162.99" y="48">oy</tspan><tspan x="173.28" y="48">able. </tspan><tspan x="0" y="72">Prioritised</tspan><tspan class="cls-35" x="45.42" y="72"> </tspan><tspan class="cls-11" x="50.36" y="72">r</tspan><tspan x="53.65" y="72">ecommendations</tspan><tspan class="cls-35" x="131.38" y="72"> </tspan><tspan x="136.31" y="72">list</tspan><tspan class="cls-36" x="149.59" y="72"> </tspan><tspan x="154.52" y="72">based</tspan><tspan class="cls-35" x="181.67" y="72"> </tspan><tspan x="186.6" y="72">on</tspan><tspan class="cls-35" x="197.82" y="72"> </tspan><tspan x="202.76" y="72">the </tspan><tspan x="0" y="84">matching l</tspan><tspan class="cls-9" x="46.67" y="84">ev</tspan><tspan x="56.68" y="84">el of the objecti</tspan><tspan class="cls-9" x="125.01" y="84">v</tspan><tspan x="129.79" y="84">e.</tspan><tspan class="cls-37" x="0" y="108">V</tspan><tspan x="6.14" y="108">alues: Connects, </tspan><tspan class="cls-38" x="81.51" y="108">A</tspan><tspan class="cls-8" x="87.79" y="108">v</tspan><tspan x="92.56" y="108">oid Hassles, </tspan><tspan class="cls-39" x="0" y="120">	</tspan><tspan class="cls-40" x="36" y="120">F</tspan><tspan x="41.42" y="120">un Ente</tspan><tspan class="cls-41" x="74.69" y="120">r</tspan><tspan x="78.32" y="120">tainment.</tspan></tspan></text><text class="cls-3" transform="translate(680.75 58.91)">CUS<tspan class="cls-42" x="26.71" y="0">T</tspan><tspan x="35.02" y="0">OMER SEGME</tspan><tspan class="cls-27" x="123.15" y="0">N</tspan><tspan class="cls-43" x="132.89" y="0">T</tspan></text><text class="cls-4" transform="translate(680.75 81.87)"><tspan class="cls-9">P</tspan><tspan x="6.25" y="0">eople who want </tspan><tspan class="cls-5" x="78.47" y="0">t</tspan><tspan x="81.64" y="0">o o</tspan><tspan class="cls-11" x="95.52" y="0">r</tspan><tspan x="98.81" y="0">ganise </tspan><tspan x="0" y="12">and go for a trip </tspan><tspan class="cls-5" x="72.97" y="12">t</tspan><tspan x="76.14" y="12">ogether</tspan><tspan x="0" y="36">G</tspan><tspan class="cls-5" x="6.81" y="36">r</tspan><tspan x="10.1" y="36">oups of friends that li</tspan><tspan class="cls-5" x="104.38" y="36">k</tspan><tspan x="109.36" y="36">e </tspan><tspan class="cls-5" x="117.13" y="36">t</tspan><tspan x="120.3" y="36">o </tspan><tspan x="0" y="48">t</tspan><tspan class="cls-7" x="3.27" y="48">r</tspan><tspan class="cls-8" x="6.46" y="48">a</tspan><tspan class="cls-9" x="11.82" y="48">v</tspan><tspan x="16.6" y="48">el independently (not </tspan><tspan x="0" y="60">th</tspan><tspan class="cls-5" x="8.77" y="60">r</tspan><tspan x="12.06" y="60">ough a t</tspan><tspan class="cls-7" x="48.05" y="60">r</tspan><tspan class="cls-8" x="51.24" y="60">a</tspan><tspan class="cls-9" x="56.61" y="60">v</tspan><tspan x="61.39" y="60">el agency).</tspan><tspan x="0" y="84">Age: 18-30</tspan></text><rect class="cls-44" x="0.53" y="11.65" width="829.36" height="7.17"/><text class="cls-45" transform="translate(6 18.82)">LEAN CAN<tspan class="cls-26" x="105.02" y="0">V</tspan><tspan x="118.74" y="0">AS</tspan></text><text class="cls-46" transform="translate(131.31 289.54)">1</text><text class="cls-46" transform="translate(680.75 289.54)">2</text><text class="cls-46" transform="translate(575.67 289.54)">3</text><text class="cls-46" transform="translate(337.35 232.56)">4</text></g></g></svg>