<svg xmlns="http://www.w3.org/2000/svg" xmlns:xlink="http://www.w3.org/1999/xlink" viewBox="0 0 1100 800"><defs><style>.cls-1{fill:none;}.cls-2{fill:#fff;}.cls-3{fill:#f1f2f2;}.cls-4{fill:#b97262;}.cls-5{fill:#484f5b;}.cls-6{fill:#8ec3cb;}.cls-7{fill:#3b455a;}.cls-8{fill:#ccd2d9;}.cls-9{fill:#7fc5a3;}.cls-10{fill:#eac5b0;}.cls-11{fill:#d79922;}.cls-12{fill:#474ebb;}.cls-13{clip-path:url(#clip-path);}.cls-14{font-size:33.39px;font-family:ProductSans-Bold, Product Sans;font-weight:700;}.cls-14,.cls-20{fill:#676767;}.cls-15{letter-spacing:-0.01em;}.cls-16,.cls-17,.cls-18,.cls-19,.cls-20{font-family:ProductSans-Regular, Product Sans;}.cls-16,.cls-17,.cls-18,.cls-19{font-weight:400;}.cls-16{letter-spacing:-0.06em;}.cls-17{letter-spacing:0em;}.cls-18{letter-spacing:0em;}.cls-20{font-size:18px;}.cls-21{letter-spacing:0em;}.cls-22{letter-spacing:0em;}.cls-23{letter-spacing:-0.01em;}.cls-24{letter-spacing:-0.03em;}.cls-25{letter-spacing:0em;}.cls-26{fill:#f17c30;}</style><clipPath id="clip-path"><circle class="cls-1" cx="557.17" cy="223.6" r="22.29"/></clipPath></defs><title>puzzle</title><g id="background"><rect class="cls-2" width="1100" height="800"/></g><g id="object"><path class="cls-3" d="M593.74,684.86q50.93.17,101.85-.24c72.73-.67,145.47-2.53,218.08-6.8,31.44-1.85,143.25-.2,90.31-66.49-17.89-22.38-56.07-31.16-81.14-31.57-27.48-.46-54.17,2-81.69,3.44-25.57,1.34-51.07,3.24-76.68,3.18-52.31-.14-104.63,0-156.84,4.2-49.06,3.94-98.24,2.59-147.4,2.59-50.42,0-100.5-.48-150.55-8.53-21.81-3.51-44-4.74-65.94-7.2-19.63-2.2-38.49,0-58,2.08a121,121,0,0,0-47.65,15.34c-11.8,6.79-32.85,27.86-36.47,44-10.15,45.39,143,44.3,166.57,44.19C376.68,682.62,485.21,684.51,593.74,684.86Z"/><path class="cls-1" d="M213.22,266.61a30,30,0,0,0-4.07-13.93,36.93,36.93,0,0,1,3.26,13c.3,6.9-2.23,14.2-7.76,18.4l-.09.07c.41,1.05.83,2.1,1.25,3.16l6.17-.25c.88.19,2.19.47,3.83.85a24.19,24.19,0,0,1-2.67-4.38C209.85,276.58,213.43,273.53,213.22,266.61Z"/><path class="cls-1" d="M170.33,272.49a9.08,9.08,0,0,0,.47,4.43,4.49,4.49,0,0,0,1.19,1.89,22.55,22.55,0,0,0,2.37,1.29c3.09,2.07,1.91,6.53,2.39,9.58a16.56,16.56,0,0,0,.62,2.52l2.74-3.83,11.72-.48,0-.09C183.16,287,174.76,280.53,170.33,272.49Z"/><path class="cls-4" d="M338.06,250.75l5.06-4.28,6.55,2.09,3.77,5.48-1.72,4.67-5.32,3.09,2,.54-.37,1.65-8.36,3.8c-2-2.09-8.79-3.7-9.87-4.82l5.59-4.81Z"/><polygon class="cls-5" points="173.44 635.34 173.24 637.25 172.59 643.58 185.22 651.29 192.5 645.63 186.51 638.61 185.96 638.27 185.66 639 173.44 635.34"/><path class="cls-6" d="M226,498.81c-14.31.94-27.59,1.33-38,1.47l.37,48.93-15.61,85.92.68.21L185.66,639l.3-.73L227,537l1.43-20.66Z"/><path class="cls-6" d="M220.57,498.81l7.82,17.5,3.67,26.86,4.18,96.93h.07l.05-1.4,12.48.38,19.69-102.91,1.06-42c-13.53,2.16-27.71,3.58-41.1,4.52Z"/><polygon class="cls-5" points="249.7 639.11 248.84 639.08 236.36 638.7 236.31 640.1 236.12 645.07 249.22 651.84 256.13 645.68 249.7 639.11"/><path class="cls-4" d="M205.81,287.33c-.42-1.06-.84-2.11-1.25-3.16l.09-.07c5.53-4.2,8.06-11.5,7.76-18.4a36.93,36.93,0,0,0-3.26-13,28.93,28.93,0,0,0-5.05-6.41c-3.56-3.38-8.38-6.06-13.08-5.89-1.91.06-1.12,1.56-3.43.38a4.2,4.2,0,0,1-1.05-.9c-.34.37-.57.64-.64.7-2.22,2.32-4.67,3.42-7.34,5.09-4.05,2.55-6.22,7.95-5.25,13,.4,2.11,1.29,4.28.78,6.3-.45,1.76-1.86,3-2.76,4.51a8.27,8.27,0,0,0-1,3c4.43,8,12.83,14.51,21.48,15.31,0,0,0,.06,0,.09.12.51.24,1,.38,1.52.63,2.22,2.14,4.56,4.45,4.73a7.06,7.06,0,0,0,3.06-.73l5.94-2.4a1.21,1.21,0,0,0,.86-1.89C206.28,288.52,206,287.93,205.81,287.33Z"/><path class="cls-7" d="M248.44,231.27c-4.69-.28-8.83,2.46-12.63,5.1-.68-4.61-5.11-7.78-9.36-9s-8.73-1.24-12.88-2.86c-5-2-9.93-6.28-14.89-4.87-4.47,1.26-7.26,6.7-10,11.52l-.22-.24a22.47,22.47,0,0,0-7.23-5.49c-8.9-3.68-7.88,7.44-14.73,6.85-1.65-.14-3.05-1.45-4.61-2.14-2.94-1.29-6.22-.27-8.85,1.34s-5,3.76-7.79,5c-2.52,1.06-5.37,1.33-7.71,2.73-3.53,2.12-2.8,5.95-3.43,9.43-.69,3.86-1.75,9.06-3.84,12.27-1.51,2.31-3.83,3.81-5.78,5.7s-3.64,4.51-3.22,7.39,2.56,5,3.19,7.66c.85,4,.41,6.21,2.21,10.22.93,2.06,2,4.25,3.76,5.5,2.39,1.66,5.43,1.22,8,.43s5.28-1.89,8-1.35c6,1.17,5.64,7.06,7.78,11.69a14.18,14.18,0,0,0,6.92,6.79,13,13,0,0,0,11.66,0c5.26-2.94,7.65-9.77,6.59-16.06a48.71,48.71,0,0,0-2.06-6.58,17.83,17.83,0,0,1-.62-2.52c-.48-3.05.7-7.51-2.39-9.58a22.55,22.55,0,0,1-2.37-1.29,4.49,4.49,0,0,1-1.19-1.89,9.08,9.08,0,0,1-.47-4.43,8.27,8.27,0,0,1,1-3c.9-1.53,2.31-2.75,2.76-4.51.51-2-.38-4.19-.78-6.3-1-5.1,1.2-10.5,5.25-13,2.67-1.67,5.12-2.77,7.34-5.09.07-.06.3-.33.64-.7a4.2,4.2,0,0,0,1.05.9c2.31,1.18,1.52-.32,3.43-.38,4.7-.17,9.52,2.51,13.08,5.89a28.93,28.93,0,0,1,5.05,6.41,30,30,0,0,1,4.07,13.93c.21,6.92-3.37,10-.08,16.94a24.19,24.19,0,0,0,2.67,4.38,22.46,22.46,0,0,0,10.92,7.95c.48,0,1,0,1.44-.05a18.56,18.56,0,0,0,6.85-2,20.45,20.45,0,0,0,10.73-14.06c.42-2,.62-4.28,1.95-5.75,1.08-1.18,2.71-1.64,3.81-2.79,4.57-4.8-4.15-13.52-2.19-20.12,1.24-4.17,6.38-5.8,7.49-10C258.06,236.42,253.12,231.55,248.44,231.27Z"/><path class="cls-8" d="M346.7,265.2c-1.53-.28-17.44-4.79-17.44-4.79.93.14-38.36,29-42.08,31.23-11.43,6.9-33-1.51-46.45-2.09a20.27,20.27,0,0,1-5.71,4.32,18.56,18.56,0,0,1-6.85,2c-.48,0-1,.06-1.44.05a22.46,22.46,0,0,1-10.92-7.95c-1.64-.38-2.95-.66-3.83-.85l-6.17.25c.23.6.47,1.19.71,1.79a1.21,1.21,0,0,1-.86,1.89l-5.94,2.4a7.06,7.06,0,0,1-3.06.73c-2.31-.17-3.82-2.51-4.45-4.73-.14-.5-.26-1-.38-1.52l-11.72.48-2.74,3.83a48.71,48.71,0,0,1,2.06,6.58c1.06,6.29-1.33,13.12-6.59,16.06a13,13,0,0,1-11.66,0l-2.44,137.53,11.5,51.92s8.27.23,21.06.06c9.87-.13,22.43-.5,36-1.39l2.34-.16c12.67-.88,26.08-2.23,38.88-4.27,4.93-.79,9.77-1.67,14.44-2.68,0,0,12-32.63-5.24-114.5-2.71-12.86-6.46-27.32-10.1-40.12,11.5-9.87,42.31-26.92,52.38-38.25,11-12.41,26.84-37.8,27.19-37.74Z"/><polygon class="cls-9" points="866.38 275.43 839.49 280.16 791.81 317.09 728.15 300.47 720.78 315.77 779.96 344.25 805.75 350.75 839.25 339.82 866.38 275.43"/><polygon class="cls-10" points="726.42 310.48 716.46 315.47 709.35 314.66 709.3 312.23 713.48 310.57 699.97 307.64 698.73 301.12 714.92 297.28 729.59 301.55 726.42 310.48"/><path class="cls-7" d="M836.58,626.36,824,635.25l-4.19,6.8a48.25,48.25,0,0,0,7.33,2.62c2.61.52,23-2.62,23-2.62V630Z"/><path class="cls-7" d="M934.14,630.15l-4.63,8.43s-2.9,10.64-.39,9.91,16.51-3.16,17.08-5,6.64-9,7.36-10.31-2.32-10-2.32-10Z"/><path class="cls-8" d="M848.27,431.8l40.54,121,45.33,77.33L951.72,625l-30.05-88.19s-3.63-88.6-9.57-114.66Z"/><polygon class="cls-8" points="816.18 450.06 831.88 630.02 850.71 630.02 856.46 537.95 867.27 456.44 826.12 408.21 816.18 450.06"/><path class="cls-9" d="M815.58,334.91c1.95-9.27,2.71-19.26,7.31-27.9s13.27-15.2,20-22.56c2.84-3.11,5.86-6.35,10.08-7.84a30,30,0,0,1,9.2-1.19l28.34-.71c3.44-.09,7-.15,10.17,1.09,4.7,1.87,7.36,6.2,9.68,10.25,5.94,10.32,7,21.77,7.57,33.44,0,.11,7.37,146.58,1.51,143.83-7.3-3.42-15.65-5.24-23.83-6.51a263.57,263.57,0,0,0-35.1-3.32l-20.71,1.4h-12.5c-7.5.73-6.88,3-14.59,2.51C807.75,457.1,813.34,345.54,815.58,334.91Z"/><path class="cls-10" d="M869.84,280.16l14.07-.61a71.11,71.11,0,0,0-.14-11.21c4-1.15,8.57-2.95,9.47-7a11.75,11.75,0,0,0,0-3.88l-1.86-16A14.09,14.09,0,0,0,890,236.1c-1.59-2.84-4.91-4.23-8.09-5-8.1-1.87-17.12-.59-23.77,4.42a12.74,12.74,0,0,0-4.25,5c-1.32,3.15-.66,6.73,0,10.08l1.89,9.26c.73,3.55,1.83,7.61,5.13,9.11,1.76.79,3.88.71,5.45,1.83C869.14,272.8,868.52,277,869.84,280.16Z"/><path class="cls-7" d="M843.87,212.34a13.3,13.3,0,0,0,3.17-.87c3.4-1.48,5.78-4.44,9.39-5.83a33,33,0,0,1,23.61.61c6.86,2.89,16.21,4,22.35,7.87a18.74,18.74,0,0,1,6.05,6.67,28.2,28.2,0,0,1-1.57,29.77,40.52,40.52,0,0,1-4.69,5.28c-3.5,3.4-7.69,7.6-12.31,8.67.12-4.06,4.53-16.67,1.6-20.17-3.9-4.64-11.53-4.52-17-4-6.52.61-11.89-1.48-18.39-1.16-3.31.17-7.06.83-9.6-1.3-2.94-2.47-9.14-10.3-10.62-13.74a8.68,8.68,0,0,1,1.81-9.1C839.6,213,841.69,212.73,843.87,212.34Z"/><path class="cls-2" d="M871.11,280.05a72.46,72.46,0,0,1-1.54,7.32S843.44,362.62,841,368.63a11.15,11.15,0,0,0-.83,4.23l6,17.62L858,375.76l16.15-84.32,3.92-3.37,1.38-8.55Z"/><path class="cls-11" d="M763.75,403.35,832,207.19l-1-.34L631.74,137.52,608,205.88a12.17,12.17,0,0,1-21,3.63c-12.46-15.46-31.36-24.58-48.59-9.95-14,11.87-15.45,34.3-3.11,47.87,10.14,11.16,23.11,9.42,36.52,6.93a12.17,12.17,0,0,1,13.73,16l-23.47,67.46,171.14,59.54,28.13,9.79,1,.34,1.42-4.1Z"/><path class="cls-12" d="M517.52,337.09c-2.73-8.14-11.2-10.42-18.55-5.2-11.12,7.9-21,14.93-35,9.38-17.05-6.76-26.43-27.09-19.11-43.89,9-20.72,30-20.85,48-12.44a12.17,12.17,0,0,0,17.21-9.49L504.71,231l-3.57-29.57-.13-1-23.95,2.9L299.58,224.7v0l-9.06,1.09.12,1,3.3,27.31,5.74,47.55c-.06.28-.15.55-.23.82l7,58.07c.14.23.28.46.41.71l9.06,75,1-.13.09.58,27.3-3.3,182.16-22-3.73-30.82h0Z"/><polygon class="cls-4" points="297.97 370.36 297.74 377.58 310.48 382.21 317.82 376.65 317.83 368.25 310.74 367.86 310.52 366.01 308.2 364.51 297.97 370.36"/><path class="cls-8" d="M260.68,354.41l39.3,7.77s-2.26,24-2.24,22-51.61-4.34-51.61-4.34Z"/><polygon class="cls-9" points="893.82 301.13 845.64 346.61 774.18 325.31 769.07 341.38 847.61 377.32 868.28 377.32 911.95 340.16 893.82 301.13"/><polygon class="cls-10" points="769.53 339.93 757.09 340.16 749.49 329.44 768.8 318.71 774.18 325.31 769.53 339.93"/><g class="cls-13"><image width="1024" height="686" transform="translate(508.26 167.39) rotate(14.13) scale(0.12)" xlink:href="../../Desktop/wpid-screenshot_2016-09-20-01-17-22_com.google.android.apps_.travel.onthego-e1474314491950-1024x686.png"/></g><text class="cls-14" transform="matrix(0.95, 0.3, -0.3, 0.95, 586.61, 246.33)"><tspan class="cls-15">G</tspan><tspan x="26.88" y="0">oog</tspan><tspan class="cls-15" x="85.29" y="0">l</tspan><tspan x="93.23" y="0">e </tspan><tspan class="cls-16" x="119.15" y="0">T</tspan><tspan class="cls-17" x="135.17" y="0">ri</tspan><tspan class="cls-18" x="154.64" y="0">p</tspan><tspan class="cls-19" x="173.58" y="0">s</tspan></text><text class="cls-20" transform="matrix(0.95, 0.3, -0.3, 0.95, 596.61, 280.33)">S<tspan class="cls-21" x="9.95" y="0">e</tspan><tspan class="cls-22" x="19.69" y="0">e m</tspan><tspan class="cls-23" x="48.63" y="0">o</tspan><tspan class="cls-24" x="58.54" y="0">r</tspan><tspan x="64.53" y="0">e, </tspan><tspan class="cls-23" x="82.31" y="0">p</tspan><tspan class="cls-25" x="92.43" y="0">l</tspan><tspan x="96.01" y="0">an </tspan><tspan class="cls-25" x="118.91" y="0">l</tspan><tspan class="cls-21" x="122.49" y="0">e</tspan><tspan class="cls-22" x="132.23" y="0">ss</tspan></text><rect class="cls-26" x="362.8" y="271.13" width="28.62" height="108.96" transform="translate(-39.64 52.56) rotate(-7.58)"/><rect class="cls-26" x="362.8" y="271.13" width="28.62" height="108.96" transform="translate(650.16 -91.14) rotate(82.42)"/></g></svg>