<svg xmlns="http://www.w3.org/2000/svg" xmlns:xlink="http://www.w3.org/1999/xlink" viewBox="0 0 886.59 338.7"><defs><style>.cls-1,.cls-7{fill:none;}.cls-2{clip-path:url(#clip-path);}.cls-3{fill:#dcdad9;}.cls-4,.cls-9{font-size:10.64px;}.cls-4,.cls-8,.cls-9{fill:#41423d;}.cls-4{font-family:Roboto-Regular, Roboto;}.cls-5{letter-spacing:-0.01em;}.cls-6{letter-spacing:-0.01em;}.cls-7{stroke:#41423d;stroke-miterlimit:10;stroke-width:0.41px;}.cls-9{font-family:Roboto-Light, Roboto;font-weight:300;}.cls-10{letter-spacing:-0.01em;}.cls-11{letter-spacing:-0.01em;}.cls-12{letter-spacing:-0.01em;}.cls-13{letter-spacing:0em;}.cls-14{letter-spacing:0em;}.cls-15{letter-spacing:-0.01em;}.cls-16{letter-spacing:-0.01em;}.cls-17{letter-spacing:-0.01em;}.cls-18{letter-spacing:-0.01em;}.cls-19{letter-spacing:-0.05em;}.cls-20{letter-spacing:-0.06em;}.cls-21{letter-spacing:-0.01em;}.cls-22{letter-spacing:-0.01em;}.cls-23{letter-spacing:-0.01em;}.cls-24{letter-spacing:-0.01em;}.cls-25{letter-spacing:-0.01em;}.cls-26{letter-spacing:-0.01em;}</style><clipPath id="clip-path" transform="translate(-4.14 0)"><rect class="cls-1" width="896" height="338.7"/></clipPath></defs><title>Asset 14</title><g id="Layer_2" data-name="Layer 2"><g id="Layer_9" data-name="Layer 9"><g class="cls-2"><path class="cls-3" d="M508.71,38H388.48a10.7,10.7,0,0,1-10.7-10.7V10.7A10.7,10.7,0,0,1,388.48,0H508.71a10.7,10.7,0,0,1,10.7,10.7V27.3A10.7,10.7,0,0,1,508.71,38" transform="translate(-4.14 0)"/></g><text class="cls-4" transform="translate(391.86 22.37)">Gi<tspan class="cls-5" x="9.83" y="0">v</tspan><tspan x="14.92" y="0">e ca</tspan><tspan class="cls-6" x="34.54" y="0">r</tspan><tspan x="38.04" y="0">d to student X</tspan></text><line class="cls-7" x1="444.45" y1="38.18" x2="444.45" y2="53.58"/><line class="cls-7" x1="136.61" y1="53.76" x2="752.3" y2="53.76"/><line class="cls-7" x1="136.61" y1="53.76" x2="136.61" y2="72.75"/><polygon class="cls-8" points="134.57 72.16 136.61 75.69 138.65 72.16 134.57 72.16"/><line class="cls-7" x1="444.45" y1="53.58" x2="444.45" y2="72.57"/><polygon class="cls-8" points="442.41 71.97 444.45 75.51 446.49 71.97 442.41 71.97"/><line class="cls-7" x1="752.3" y1="53.58" x2="752.3" y2="72.57"/><polygon class="cls-8" points="750.26 71.97 752.3 75.51 754.34 71.97 750.26 71.97"/><line class="cls-7" x1="290.53" y1="53.58" x2="290.53" y2="72.57"/><polygon class="cls-8" points="288.49 71.97 290.53 75.51 292.57 71.97 288.49 71.97"/><line class="cls-7" x1="598.38" y1="53.58" x2="598.38" y2="72.57"/><polygon class="cls-8" points="596.34 71.97 598.38 75.51 600.42 71.97 596.34 71.97"/><g class="cls-2"><path class="cls-3" d="M199.75,122h-118a11.8,11.8,0,0,1-11.8-11.81V87.5a11.8,11.8,0,0,1,11.8-11.81h118A11.81,11.81,0,0,1,211.56,87.5v22.67A11.8,11.8,0,0,1,199.75,122" transform="translate(-4.14 0)"/></g><text class="cls-9" transform="translate(89.82 89.88)">1. Manage package </text><text class="cls-9" transform="translate(84.77 102.65)"><tspan class="cls-10">r</tspan><tspan x="3.48" y="0">ecei</tspan><tspan class="cls-11" x="22.34" y="0">v</tspan><tspan x="27.38" y="0">ed f</tspan><tspan class="cls-12" x="44.89" y="0">r</tspan><tspan class="cls-13" x="48.36" y="0">om Sagio in</tspan></text><text class="cls-9" transform="translate(87.45 115.41)">Administration Ofﬁce</text><g class="cls-2"><path class="cls-3" d="M357.14,98.84H232.21a8.35,8.35,0,0,1-8.35-8.35V84a8.35,8.35,0,0,1,8.35-8.35H357.14A8.35,8.35,0,0,1,365.49,84v6.45a8.35,8.35,0,0,1-8.35,8.35" transform="translate(-4.14 0)"/></g><text class="cls-9" transform="translate(250.07 91.52)">2. O<tspan class="cls-10" x="18.22" y="0">r</tspan><tspan class="cls-14" x="21.7" y="0">gani</tspan><tspan class="cls-15" x="41.53" y="0">z</tspan><tspan x="46.62" y="0">e ca</tspan><tspan class="cls-16" x="65.88" y="0">r</tspan><tspan x="69.35" y="0">ds</tspan></text><g class="cls-2"><path class="cls-3" d="M511.06,98.84H386.13a8.35,8.35,0,0,1-8.35-8.35V84a8.35,8.35,0,0,1,8.35-8.35H511.06A8.35,8.35,0,0,1,519.41,84v6.45a8.35,8.35,0,0,1-8.35,8.35" transform="translate(-4.14 0)"/></g><text class="cls-9" transform="translate(405.48 91.52)">3. Mail student X</text><g class="cls-2"><path class="cls-3" d="M665,98.84H540.05a8.35,8.35,0,0,1-8.35-8.35V84a8.35,8.35,0,0,1,8.35-8.35H665A8.35,8.35,0,0,1,673.33,84v6.45A8.35,8.35,0,0,1,665,98.84" transform="translate(-4.14 0)"/></g><text class="cls-9" transform="translate(565.41 91.52)">4. Stack ca<tspan class="cls-17" x="50.89" y="0">r</tspan><tspan x="54.35" y="0">ds</tspan></text><g class="cls-2"><path class="cls-3" d="M818.9,98.84H694a8.35,8.35,0,0,1-8.35-8.35V84A8.35,8.35,0,0,1,694,75.69H818.9A8.35,8.35,0,0,1,827.25,84v6.45a8.35,8.35,0,0,1-8.35,8.35" transform="translate(-4.14 0)"/></g><text class="cls-9" transform="translate(695.43 91.52)">5. Gi<tspan class="cls-18" x="20.68" y="0">v</tspan><tspan x="25.74" y="0">e ca</tspan><tspan class="cls-16" x="45" y="0">r</tspan><tspan x="48.47" y="0">d to student X</tspan></text><line class="cls-7" x1="136.61" y1="121.98" x2="136.61" y2="131.32"/><line class="cls-7" x1="46.47" y1="131.32" x2="226.75" y2="131.32"/><line class="cls-7" x1="46.47" y1="131.32" x2="46.47" y2="139.35"/><polygon class="cls-8" points="44.43 138.75 46.47 142.28 48.51 138.75 44.43 138.75"/><line class="cls-7" x1="136.61" y1="130.26" x2="136.61" y2="163.5"/><polygon class="cls-8" points="134.57 162.9 136.61 166.43 138.65 162.9 134.57 162.9"/><line class="cls-7" x1="226.75" y1="131.32" x2="226.75" y2="139.35"/><polygon class="cls-8" points="224.71 138.75 226.75 142.28 228.79 138.75 224.71 138.75"/><g class="cls-2"><path class="cls-3" d="M90.32,165.43H10.91a6.77,6.77,0,0,1-6.77-6.76v-9.62a6.76,6.76,0,0,1,6.77-6.76H90.32a6.76,6.76,0,0,1,6.77,6.76v9.62a6.77,6.77,0,0,1-6.77,6.76" transform="translate(-4.14 0)"/></g><text class="cls-9" transform="translate(3.49 158.11)">1.1. Open package</text><g class="cls-2"><path class="cls-3" d="M180.46,189.58H101a6.77,6.77,0,0,1-6.76-6.77V173.2a6.77,6.77,0,0,1,6.76-6.77h79.42a6.77,6.77,0,0,1,6.76,6.77v9.61a6.77,6.77,0,0,1-6.76,6.77" transform="translate(-4.14 0)"/></g><text class="cls-9" transform="translate(101.51 182.26)">1.2. <tspan class="cls-19" x="19.46" y="0">T</tspan><tspan x="25.22" y="0">a</tspan><tspan class="cls-12" x="30.92" y="0">k</tspan><tspan x="36.02" y="0">e ca</tspan><tspan class="cls-16" x="55.28" y="0">r</tspan><tspan x="58.76" y="0">ds</tspan></text><g class="cls-2"><path class="cls-3" d="M270.59,165.43H191.18a6.77,6.77,0,0,1-6.77-6.76v-9.62a6.76,6.76,0,0,1,6.77-6.76h79.41a6.76,6.76,0,0,1,6.77,6.76v9.62a6.77,6.77,0,0,1-6.77,6.76" transform="translate(-4.14 0)"/></g><text class="cls-9" transform="translate(190.05 158.11)">1.3. <tspan class="cls-20" x="19.46" y="0">T</tspan><tspan x="25.22" y="0">a</tspan><tspan class="cls-21" x="30.92" y="0">k</tspan><tspan x="36.02" y="0">e letters</tspan></text><line class="cls-7" x1="598.38" y1="98.85" x2="598.38" y2="112.54"/><polygon class="cls-8" points="596.34 111.94 598.38 115.47 600.42 111.94 596.34 111.94"/><g class="cls-2"><path class="cls-3" d="M663.19,150.18H541.85A10.14,10.14,0,0,1,531.7,140V126.18A10.14,10.14,0,0,1,541.85,116H663.19a10.14,10.14,0,0,1,10.14,10.14V140a10.14,10.14,0,0,1-10.14,10.14" transform="translate(-4.14 0)"/></g><text class="cls-9" transform="translate(530.04 131.04)">4.1. Sto<tspan class="cls-16" x="35.13" y="0">r</tspan><tspan x="38.6" y="0">e in with other letters</tspan></text><text class="cls-9" transform="translate(547.42 143.81)">until student X comes</text><line class="cls-7" x1="752.49" y1="99.02" x2="752.49" y2="108.35"/><line class="cls-7" x1="752.49" y1="108.35" x2="829.39" y2="108.35"/><line class="cls-7" x1="752.49" y1="107.3" x2="752.49" y2="166.71"/><polygon class="cls-8" points="750.45 166.12 752.49 169.65 754.53 166.12 750.45 166.12"/><line class="cls-7" x1="829.39" y1="108.35" x2="829.39" y2="123.77"/><polygon class="cls-8" points="827.35 123.17 829.39 126.71 831.43 123.17 827.35 123.17"/><g class="cls-2"><path class="cls-3" d="M804.51,205.21H708.37a9.32,9.32,0,0,1-9.32-9.32V179a9.32,9.32,0,0,1,9.32-9.32h96.14a9.32,9.32,0,0,1,9.32,9.32v16.92a9.32,9.32,0,0,1-9.32,9.32" transform="translate(-4.14 0)"/></g><text class="cls-9" transform="translate(696.65 185.48)">5.1. Sea<tspan class="cls-16" x="36.95" y="0">r</tspan><tspan x="40.42" y="0">ch on the stack</tspan></text><text class="cls-9" transform="translate(717.99 198.24)">for en<tspan class="cls-22" x="26.98" y="0">v</tspan><tspan x="32.03" y="0">elope X </tspan></text><g class="cls-2"><path class="cls-3" d="M881.41,162.26H785.27A9.31,9.31,0,0,1,776,153V136a9.31,9.31,0,0,1,9.31-9.32h96.14a9.32,9.32,0,0,1,9.32,9.32V153a9.31,9.31,0,0,1-9.32,9.31" transform="translate(-4.14 0)"/></g><text class="cls-9" transform="translate(775.51 142.54)">5.2. Gi<tspan class="cls-23" x="29.11" y="0">v</tspan><tspan x="34.17" y="0">e en</tspan><tspan class="cls-24" x="53.59" y="0">v</tspan><tspan x="58.64" y="0">elope X to </tspan></text><text class="cls-9" transform="translate(807.08 155.3)">student X</text><line class="cls-7" x1="290.53" y1="99.02" x2="290.53" y2="272.81"/><polygon class="cls-8" points="288.49 272.21 290.53 275.74 292.57 272.21 288.49 272.21"/><line class="cls-7" x1="93.07" y1="262.43" x2="604.71" y2="262.43"/><line class="cls-7" x1="444.45" y1="99.02" x2="444.45" y2="216.54"/><polygon class="cls-8" points="442.41 215.94 444.45 219.47 446.49 215.94 442.41 215.94"/><g class="cls-2"><path class="cls-3" d="M432.31,197.38H311a10.14,10.14,0,0,1-10.14-10.14V173.38A10.14,10.14,0,0,1,311,163.24H432.31a10.14,10.14,0,0,1,10.14,10.14v13.86a10.14,10.14,0,0,1-10.14,10.14" transform="translate(-4.14 0)"/></g><text class="cls-9" transform="translate(304.79 178.25)">3.1. Manually co<tspan class="cls-5" x="75.59" y="0">p</tspan><tspan x="81.42" y="0">y student</tspan></text><text class="cls-9" transform="translate(307.88 191.01)">number f<tspan class="cls-16" x="42.19" y="0">r</tspan><tspan x="45.66" y="0">om ca</tspan><tspan class="cls-21" x="74.81" y="0">r</tspan><tspan class="cls-14" x="78.28" y="0">d to mail</tspan></text><line class="cls-7" x1="367.33" y1="144.26" x2="367.33" y2="159.68"/><polygon class="cls-8" points="365.29 159.08 367.33 162.62 369.37 159.08 365.29 159.08"/><line class="cls-7" x1="367.33" y1="144.26" x2="444.45" y2="144.26"/><g class="cls-2"><path class="cls-3" d="M511.06,242.65H386.13a8.35,8.35,0,0,1-8.35-8.35v-6.45a8.35,8.35,0,0,1,8.35-8.35H511.06a8.35,8.35,0,0,1,8.35,8.35v6.45a8.35,8.35,0,0,1-8.35,8.35" transform="translate(-4.14 0)"/></g><text class="cls-9" transform="translate(376.81 235.33)">3.2. <tspan class="cls-18" x="19.46" y="0">P</tspan><tspan x="25.95" y="0">aste template message</tspan></text><g class="cls-2"><path class="cls-3" d="M550.17,187.41H470.75a6.76,6.76,0,0,1-6.76-6.76V171a6.76,6.76,0,0,1,6.76-6.76h79.42a6.76,6.76,0,0,1,6.76,6.76v9.62a6.76,6.76,0,0,1-6.76,6.76" transform="translate(-4.14 0)"/></g><text class="cls-9" transform="translate(473.44 180.09)">3.3. Send mail</text><line class="cls-7" x1="444.45" y1="144.26" x2="506.32" y2="144.26"/><line class="cls-7" x1="506.32" y1="144.26" x2="506.32" y2="159.68"/><polygon class="cls-8" points="504.28 159.08 506.32 162.62 508.36 159.08 504.28 159.08"/><line class="cls-7" x1="93.07" y1="262.37" x2="93.07" y2="270.4"/><polygon class="cls-8" points="91.03 269.8 93.07 273.34 95.11 269.8 91.03 269.8"/><g class="cls-2"><path class="cls-3" d="M161,298.23H33.22a8.43,8.43,0,0,1-8.44-8.43v-6.27a8.44,8.44,0,0,1,8.44-8.44H161a8.44,8.44,0,0,1,8.44,8.44v6.27a8.43,8.43,0,0,1-8.44,8.43" transform="translate(-4.14 0)"/></g><text class="cls-9" transform="translate(23.22 290.92)">2.1. Match ca<tspan class="cls-16" x="62.86" y="0">r</tspan><tspan x="66.33" y="0">d X with letter X</tspan></text><line class="cls-7" x1="180.27" y1="262.06" x2="180.27" y2="312.98"/><polygon class="cls-8" points="178.23 312.39 180.27 315.92 182.31 312.39 178.23 312.39"/><g class="cls-2"><path class="cls-3" d="M248.28,338.7H120.55a8.43,8.43,0,0,1-8.44-8.43V324a8.44,8.44,0,0,1,8.44-8.44H248.28a8.44,8.44,0,0,1,8.44,8.44v6.27a8.43,8.43,0,0,1-8.44,8.43" transform="translate(-4.14 0)"/></g><text class="cls-9" transform="translate(115.4 331.39)">2.2. <tspan class="cls-21" x="19.46" y="0">F</tspan><tspan class="cls-14" x="25.33" y="0">old letter X with ca</tspan><tspan class="cls-17" x="111.06" y="0">r</tspan><tspan x="114.52" y="0">d X</tspan></text><g class="cls-2"><path class="cls-3" d="M355.34,309.89H234a10.14,10.14,0,0,1-10.14-10.15V285.89A10.14,10.14,0,0,1,234,275.74H355.34a10.14,10.14,0,0,1,10.15,10.15v13.85a10.14,10.14,0,0,1-10.15,10.15" transform="translate(-4.14 0)"/></g><text class="cls-9" transform="translate(227.55 290.75)">2.3. Put letter X with ca<tspan class="cls-25" x="106.74" y="0">r</tspan><tspan class="cls-14" x="110.21" y="0">d X</tspan></text><text class="cls-9" transform="translate(262.28 303.52)">on en<tspan class="cls-24" x="25.73" y="0">v</tspan><tspan x="30.77" y="0">elope</tspan></text><line class="cls-7" x1="451.66" y1="262.43" x2="451.66" y2="272.81"/><polygon class="cls-8" points="449.62 272.21 451.66 275.74 453.7 272.21 449.62 272.21"/><g class="cls-2"><path class="cls-3" d="M514.81,323.07h-118A11.81,11.81,0,0,1,385,311.26V288.58a11.8,11.8,0,0,1,11.81-11.8h118a11.8,11.8,0,0,1,11.81,11.8v22.68a11.81,11.81,0,0,1-11.81,11.81" transform="translate(-4.14 0)"/></g><text class="cls-9" transform="translate(399.03 290.97)">2.4. Bring International</text><text class="cls-9" transform="translate(402.58 303.73)">Student en<tspan class="cls-6" x="50.15" y="0">v</tspan><tspan x="55.17" y="0">elopes to</tspan></text><text class="cls-9" transform="translate(406.07 316.5)">International Ofﬁce </text><g class="cls-2"><path class="cls-3" d="M669.59,311.05H548.25a10.14,10.14,0,0,1-10.15-10.14V287.05a10.14,10.14,0,0,1,10.15-10.14H669.59a10.14,10.14,0,0,1,10.14,10.14v13.86a10.14,10.14,0,0,1-10.14,10.14" transform="translate(-4.14 0)"/></g><text class="cls-9" transform="translate(541.81 291.92)">2.5. Manually write student</text><text class="cls-9" transform="translate(557.09 304.68)">number on en<tspan class="cls-26" x="64.39" y="0">v</tspan><tspan x="69.42" y="0">elope</tspan></text><line class="cls-7" x1="604.71" y1="262.43" x2="604.71" y2="272.81"/><polygon class="cls-8" points="602.67 272.21 604.72 275.74 606.75 272.21 602.67 272.21"/></g></g></svg>