<svg xmlns="http://www.w3.org/2000/svg" xmlns:xlink="http://www.w3.org/1999/xlink" viewBox="0 0 989.65 394.34"><defs><style>.cls-1{fill:none;}.cls-2{clip-path:url(#clip-path);}.cls-3{fill:#d69929;}.cls-4{fill:#144923;}.cls-5{fill:#2a8c43;}.cls-6{fill:#fff;}.cls-7{fill:#43443e;}.cls-8{clip-path:url(#clip-path-2);}.cls-9{fill:#4557a6;}.cls-10{fill:#1d194c;}.cls-11{fill:#f5bbb1;}.cls-12{fill:#dbdad9;}.cls-13{clip-path:url(#clip-path-3);}.cls-14{fill:#f2bab0;}.cls-15{fill:#42423d;}</style><clipPath id="clip-path"><rect class="cls-1" y="71.56" width="954" height="329.47"/></clipPath><clipPath id="clip-path-2"><path class="cls-1" d="M350.33,238.52A126.68,126.68,0,1,0,477,111.85,126.68,126.68,0,0,0,350.33,238.52"/></clipPath><clipPath id="clip-path-3"><path class="cls-1" d="M702.53,241A125.74,125.74,0,1,0,828.26,115.24,125.73,125.73,0,0,0,702.53,241"/></clipPath></defs><title>Asset 7</title><g id="Layer_2" data-name="Layer 2"><g id="Layer_4" data-name="Layer 4"><g class="cls-2"><path class="cls-3" d="M125.75,113.13c-.63,0-1.26,0-1.9.05V238.67L145.9,363a125.75,125.75,0,0,0-20.15-249.87"/><path class="cls-4" d="M124.54,113.16a125.74,125.74,0,1,0,37,246.28l-37-119.75Z"/><path class="cls-5" d="M147.8,362.4a126.73,126.73,0,0,0,14-3.23L124.91,241Z"/></g><path class="cls-6" d="M35.7,214.74l3.83,9.17,3.85-9.17h1.17v10.39h-.88V220.6l.07-4.63-3.87,9.16H39.2L35.34,216l.08,4.58v4.55h-.88V214.74Z"/><path class="cls-6" d="M51.85,225.13a3.79,3.79,0,0,1-.16-1.08,3,3,0,0,1-1.15.9,3.5,3.5,0,0,1-1.47.32,2.61,2.61,0,0,1-1.8-.62,2,2,0,0,1-.69-1.57,2,2,0,0,1,.94-1.78,4.46,4.46,0,0,1,2.61-.66h1.55v-.88a1.69,1.69,0,0,0-.51-1.3,2.1,2.1,0,0,0-1.49-.47,2.32,2.32,0,0,0-1.47.45,1.37,1.37,0,0,0-.59,1.1h-.86a2,2,0,0,1,.86-1.59,3.29,3.29,0,0,1,2.11-.67,3,3,0,0,1,2,.64,2.33,2.33,0,0,1,.77,1.8v3.66a4.68,4.68,0,0,0,.23,1.67v.09Zm-2.68-.62a2.83,2.83,0,0,0,1.53-.41,2.39,2.39,0,0,0,1-1.11V221.3H50.15a3.83,3.83,0,0,0-2,.46,1.44,1.44,0,0,0-.24,2.33A1.84,1.84,0,0,0,49.17,224.51Z"/><path class="cls-6" d="M59.43,223.17a1.2,1.2,0,0,0-.51-1,4,4,0,0,0-1.54-.61,6.36,6.36,0,0,1-1.59-.5,2.05,2.05,0,0,1-.85-.69,1.71,1.71,0,0,1-.27-1,1.83,1.83,0,0,1,.76-1.51,3.07,3.07,0,0,1,2-.59,3.2,3.2,0,0,1,2.07.63,2.06,2.06,0,0,1,.78,1.67h-.86a1.41,1.41,0,0,0-.56-1.13,2.56,2.56,0,0,0-2.79-.07,1.15,1.15,0,0,0-.51,1,1.07,1.07,0,0,0,.43.9,4.59,4.59,0,0,0,1.55.58,6.91,6.91,0,0,1,1.68.56,2.2,2.2,0,0,1,.83.72,2,2,0,0,1-.51,2.58,3.4,3.4,0,0,1-2.06.59,3.5,3.5,0,0,1-2.19-.65,2,2,0,0,1-.84-1.65h.86a1.47,1.47,0,0,0,.63,1.16,2.58,2.58,0,0,0,1.54.42,2.45,2.45,0,0,0,1.44-.39A1.2,1.2,0,0,0,59.43,223.17Z"/><path class="cls-6" d="M63.53,215.43v2h1.6v.7h-1.6v5.15a1.62,1.62,0,0,0,.23,1,.9.9,0,0,0,.77.32,7,7,0,0,0,.7-.07l0,.69a2.78,2.78,0,0,1-.91.12,1.53,1.53,0,0,1-1.28-.51,2.44,2.44,0,0,1-.4-1.5v-5.15H61.25v-.7h1.42v-2Z"/><path class="cls-6" d="M69.88,225.27a3.31,3.31,0,0,1-1.78-.49,3.22,3.22,0,0,1-1.23-1.35,4.14,4.14,0,0,1-.45-1.94v-.31a4.49,4.49,0,0,1,.44-2,3.36,3.36,0,0,1,1.2-1.4,3,3,0,0,1,1.67-.51,2.78,2.78,0,0,1,2.23,1,3.88,3.88,0,0,1,.82,2.62v.48H67.27v.16a3.18,3.18,0,0,0,.76,2.18,2.37,2.37,0,0,0,1.89.88,2.73,2.73,0,0,0,1.21-.25,2.63,2.63,0,0,0,1-.8l.54.41A3.12,3.12,0,0,1,69.88,225.27ZM69.73,218a2.16,2.16,0,0,0-1.63.71,3.35,3.35,0,0,0-.8,1.9h4.63v-.1a2.81,2.81,0,0,0-.63-1.81A2,2,0,0,0,69.73,218Z"/><path class="cls-6" d="M78,218.14a2.67,2.67,0,0,0-.58,0,2.07,2.07,0,0,0-1.35.44,2.46,2.46,0,0,0-.79,1.3v5.3h-.85v-7.72h.84v1.23a2.26,2.26,0,0,1,2.18-1.37,1.42,1.42,0,0,1,.56.09Z"/><path class="cls-6" d="M79.3,217.29l-.51-.37a3.08,3.08,0,0,0,.66-1.82v-.93h.84v.72A3.11,3.11,0,0,1,79.3,217.29Z"/><path class="cls-6" d="M86.39,223.17a1.2,1.2,0,0,0-.51-1,4,4,0,0,0-1.54-.61,6.5,6.5,0,0,1-1.59-.5,2.05,2.05,0,0,1-.85-.69,1.71,1.71,0,0,1-.27-1,1.83,1.83,0,0,1,.76-1.51,3.07,3.07,0,0,1,2-.59,3.2,3.2,0,0,1,2.07.63,2.06,2.06,0,0,1,.78,1.67h-.86a1.38,1.38,0,0,0-.56-1.13,2.54,2.54,0,0,0-2.78-.07,1.15,1.15,0,0,0-.51,1,1.06,1.06,0,0,0,.42.9,4.59,4.59,0,0,0,1.55.58,6.91,6.91,0,0,1,1.68.56,2.2,2.2,0,0,1,.83.72,2,2,0,0,1-.52,2.58,3.35,3.35,0,0,1-2,.59,3.5,3.5,0,0,1-2.19-.65,2,2,0,0,1-.84-1.65h.86a1.47,1.47,0,0,0,.63,1.16,2.58,2.58,0,0,0,1.54.42,2.45,2.45,0,0,0,1.44-.39A1.2,1.2,0,0,0,86.39,223.17Z"/><path class="cls-6" d="M40,238.73a4.63,4.63,0,0,1,.81-2.87A2.57,2.57,0,0,1,43,234.8,2.69,2.69,0,0,1,45.38,236V231.7h.85v11h-.8l0-1A2.75,2.75,0,0,1,43,242.8a2.59,2.59,0,0,1-2.15-1.07,4.73,4.73,0,0,1-.82-2.9Zm.87.15a4.08,4.08,0,0,0,.59,2.33,1.93,1.93,0,0,0,1.67.85,2.29,2.29,0,0,0,2.24-1.39V237a2.29,2.29,0,0,0-2.23-1.5,1.93,1.93,0,0,0-1.67.84A4.33,4.33,0,0,0,40.88,238.88Z"/><path class="cls-6" d="M51.46,242.8a3.39,3.39,0,0,1-1.78-.48A3.31,3.31,0,0,1,48.45,241,4.11,4.11,0,0,1,48,239v-.31a4.49,4.49,0,0,1,.44-2,3.29,3.29,0,0,1,1.2-1.4,3,3,0,0,1,1.67-.51,2.8,2.8,0,0,1,2.23,1,3.88,3.88,0,0,1,.82,2.62v.48H48.85V239a3.21,3.21,0,0,0,.76,2.19,2.39,2.39,0,0,0,1.89.87,2.73,2.73,0,0,0,1.21-.25,2.63,2.63,0,0,0,.95-.8l.54.41A3.12,3.12,0,0,1,51.46,242.8Zm-.15-7.28a2.16,2.16,0,0,0-1.63.71,3.28,3.28,0,0,0-.8,1.9h4.63V238a2.82,2.82,0,0,0-.63-1.82A2,2,0,0,0,51.31,235.52Z"/><path class="cls-6" d="M55.68,238.73a4.66,4.66,0,0,1,.8-2.87,2.58,2.58,0,0,1,2.18-1.06,2.7,2.7,0,0,1,2.4,1.25l0-1.11h.8v7.56a3.28,3.28,0,0,1-.83,2.36,3,3,0,0,1-2.27.87,3.41,3.41,0,0,1-1.53-.36,3.06,3.06,0,0,1-1.16-1l.48-.51A2.73,2.73,0,0,0,58.75,245a2.2,2.2,0,0,0,1.67-.63,2.53,2.53,0,0,0,.62-1.75v-1a2.77,2.77,0,0,1-2.39,1.14,2.6,2.6,0,0,1-2.16-1.07,4.68,4.68,0,0,1-.81-2.89Zm.86.15a4.08,4.08,0,0,0,.59,2.33,2,2,0,0,0,1.67.85A2.29,2.29,0,0,0,61,240.65v-3.59a2.4,2.4,0,0,0-.87-1.13,2.29,2.29,0,0,0-1.35-.39,2,2,0,0,0-1.68.84A4.33,4.33,0,0,0,56.54,238.88Z"/><path class="cls-6" d="M67.69,235.67a2.67,2.67,0,0,0-.58,0,2.12,2.12,0,0,0-1.35.44,2.39,2.39,0,0,0-.78,1.3v5.3h-.85v-7.72H65l0,1.23a2.25,2.25,0,0,1,2.17-1.37,1.39,1.39,0,0,1,.56.09Z"/><path class="cls-6" d="M71.9,242.8a3.37,3.37,0,0,1-1.78-.48A3.33,3.33,0,0,1,68.88,241a4.23,4.23,0,0,1-.44-1.94v-.31a4.48,4.48,0,0,1,.43-2,3.43,3.43,0,0,1,1.2-1.4,3,3,0,0,1,1.67-.51,2.78,2.78,0,0,1,2.23,1,3.88,3.88,0,0,1,.82,2.62v.48h-5.5V239a3.25,3.25,0,0,0,.75,2.19,2.39,2.39,0,0,0,1.89.87,2.73,2.73,0,0,0,1.21-.25,2.63,2.63,0,0,0,1-.8l.54.41A3.11,3.11,0,0,1,71.9,242.8Zm-.16-7.28a2.14,2.14,0,0,0-1.62.71,3.22,3.22,0,0,0-.8,1.9H74V238a2.88,2.88,0,0,0-.64-1.82A2,2,0,0,0,71.74,235.52Z"/><path class="cls-6" d="M79.45,242.8a3.37,3.37,0,0,1-1.78-.48A3.33,3.33,0,0,1,76.43,241,4.11,4.11,0,0,1,76,239v-.31a4.48,4.48,0,0,1,.43-2,3.43,3.43,0,0,1,1.2-1.4,3,3,0,0,1,1.67-.51,2.78,2.78,0,0,1,2.23,1,3.88,3.88,0,0,1,.82,2.62v.48h-5.5V239a3.25,3.25,0,0,0,.75,2.19,2.39,2.39,0,0,0,1.89.87,2.73,2.73,0,0,0,1.21-.25,2.63,2.63,0,0,0,1-.8l.54.41A3.11,3.11,0,0,1,79.45,242.8Zm-.16-7.28a2.14,2.14,0,0,0-1.62.71,3.29,3.29,0,0,0-.81,1.9h4.63V238a2.82,2.82,0,0,0-.63-1.82A2,2,0,0,0,79.29,235.52Z"/><path class="cls-6" d="M49.14,254.87l.51-5.07h5.19v.79H50.38L50,254.1a3.39,3.39,0,0,1,1.95-.57,2.87,2.87,0,0,1,2.24.92,3.45,3.45,0,0,1,.84,2.43,3.67,3.67,0,0,1-.82,2.55,2.92,2.92,0,0,1-2.29.9,2.94,2.94,0,0,1-3.16-2.87h.82a2.53,2.53,0,0,0,.73,1.61,2.29,2.29,0,0,0,1.61.54,2,2,0,0,0,1.68-.7,3.17,3.17,0,0,0,.57-2,2.72,2.72,0,0,0-.63-1.86,2.21,2.21,0,0,0-1.74-.72,3.32,3.32,0,0,0-1,.15,3.1,3.1,0,0,0-1,.6Z"/><path class="cls-6" d="M58.56,254.53h.88a2.92,2.92,0,0,0,1.29-.26,1.94,1.94,0,0,0,.83-.71,1.84,1.84,0,0,0,.29-1.05,2.1,2.1,0,0,0-.56-1.56,2.23,2.23,0,0,0-1.62-.56A2.3,2.3,0,0,0,58,251a2,2,0,0,0-.64,1.55h-.85a2.73,2.73,0,0,1,.41-1.48,2.79,2.79,0,0,1,1.12-1,3.55,3.55,0,0,1,1.6-.36,3.15,3.15,0,0,1,2.23.77,2.77,2.77,0,0,1,.81,2.11,2.28,2.28,0,0,1-.47,1.38,2.92,2.92,0,0,1-1.31,1,2.65,2.65,0,0,1,1.47.93,2.48,2.48,0,0,1,.5,1.57,2.8,2.8,0,0,1-.87,2.15,3.26,3.26,0,0,1-2.32.81A3.89,3.89,0,0,1,58,260a2.81,2.81,0,0,1-1.19-1,2.76,2.76,0,0,1-.43-1.55h.86a2.09,2.09,0,0,0,.69,1.62,2.57,2.57,0,0,0,1.78.62,2.45,2.45,0,0,0,1.72-.57,2.1,2.1,0,0,0,.62-1.64,2,2,0,0,0-.67-1.59,3,3,0,0,0-2-.55h-.85Z"/><path class="cls-6" d="M64.56,251.8a2.17,2.17,0,0,1,.57-1.54,2.05,2.05,0,0,1,2.92,0,2.24,2.24,0,0,1,.57,1.58v.51a2.16,2.16,0,0,1-.56,1.52,1.9,1.9,0,0,1-1.46.61,2,2,0,0,1-1.46-.6,2.15,2.15,0,0,1-.58-1.58Zm.69.55a1.6,1.6,0,0,0,.37,1.09,1.32,1.32,0,0,0,1.95,0,1.69,1.69,0,0,0,.36-1.12v-.52a1.61,1.61,0,0,0-.37-1.1,1.21,1.21,0,0,0-1-.43,1.23,1.23,0,0,0-1,.43,1.65,1.65,0,0,0-.37,1.14Zm1.63,7-.54-.35,5.07-8.11.54.34Zm2.91-1.69a2.13,2.13,0,0,1,.57-1.53,2,2,0,0,1,2.91,0,2.17,2.17,0,0,1,.58,1.58v.51a2.13,2.13,0,0,1-.57,1.53,2.05,2.05,0,0,1-2.91,0,2.18,2.18,0,0,1-.58-1.58Zm.68.56a1.63,1.63,0,0,0,.37,1.1,1.24,1.24,0,0,0,1,.43,1.19,1.19,0,0,0,1-.44,1.7,1.7,0,0,0,.36-1.13v-.52a1.6,1.6,0,0,0-.37-1.11,1.25,1.25,0,0,0-1-.41,1.24,1.24,0,0,0-1,.42,1.64,1.64,0,0,0-.37,1.13Z"/><path class="cls-6" d="M153.52,207.79h-.86v-9.36l-2.82,1v-.79l3.54-1.32h.14Z"/><path class="cls-6" d="M166,205.82a1.22,1.22,0,0,0-.51-1,4.11,4.11,0,0,0-1.54-.6,6.65,6.65,0,0,1-1.59-.5,2.11,2.11,0,0,1-.84-.69,1.66,1.66,0,0,1-.28-1,1.84,1.84,0,0,1,.77-1.51,3.06,3.06,0,0,1,1.95-.6,3.2,3.2,0,0,1,2.07.64,2.06,2.06,0,0,1,.78,1.67h-.85a1.39,1.39,0,0,0-.57-1.13,2.54,2.54,0,0,0-2.78-.07,1.15,1.15,0,0,0-.51,1,1.08,1.08,0,0,0,.42.9,4.69,4.69,0,0,0,1.55.58,7.17,7.17,0,0,1,1.69.56,2.2,2.2,0,0,1,.83.72,2,2,0,0,1-.52,2.58,3.38,3.38,0,0,1-2.06.59,3.5,3.5,0,0,1-2.19-.65,2,2,0,0,1-.83-1.66h.85a1.53,1.53,0,0,0,.63,1.17,2.58,2.58,0,0,0,1.54.42,2.41,2.41,0,0,0,1.44-.39A1.19,1.19,0,0,0,166,205.82Z"/><path class="cls-6" d="M171.71,207.93a3.34,3.34,0,0,1-1.78-.49,3.29,3.29,0,0,1-1.23-1.35,4.14,4.14,0,0,1-.45-1.94v-.31a4.49,4.49,0,0,1,.44-2,3.39,3.39,0,0,1,1.2-1.41,3,3,0,0,1,1.67-.51,2.78,2.78,0,0,1,2.23,1,3.9,3.9,0,0,1,.82,2.62V204H169.1v.17a3.18,3.18,0,0,0,.76,2.18,2.37,2.37,0,0,0,1.89.88A2.87,2.87,0,0,0,173,207a2.63,2.63,0,0,0,.95-.8l.54.41A3.14,3.14,0,0,1,171.71,207.93Zm-.15-7.28a2.17,2.17,0,0,0-1.63.71,3.34,3.34,0,0,0-.8,1.89h4.63v-.09a2.81,2.81,0,0,0-.63-1.81A2,2,0,0,0,171.56,200.65Z"/><path class="cls-6" d="M177.05,200.07l0,1.25a2.91,2.91,0,0,1,1.07-1,3,3,0,0,1,1.43-.35,2.15,2.15,0,0,1,2.31,1.5,3,3,0,0,1,1.11-1.11,3.06,3.06,0,0,1,1.53-.39c1.65,0,2.5.91,2.53,2.71v5.16h-.86V202.7a2.27,2.27,0,0,0-.44-1.53,1.8,1.8,0,0,0-1.43-.5,2.27,2.27,0,0,0-1.56.59,2.09,2.09,0,0,0-.7,1.42v5.11h-.86v-5.16a2.09,2.09,0,0,0-.47-1.48,1.87,1.87,0,0,0-1.41-.48,2.16,2.16,0,0,0-1.39.46,2.66,2.66,0,0,0-.85,1.36v5.3h-.86v-7.72Z"/><path class="cls-6" d="M192.21,207.93a3.33,3.33,0,0,1-3-1.84,4.26,4.26,0,0,1-.44-1.94v-.31a4.48,4.48,0,0,1,.43-2,3.46,3.46,0,0,1,1.2-1.41,3,3,0,0,1,1.67-.51,2.78,2.78,0,0,1,2.23,1,3.9,3.9,0,0,1,.83,2.62V204H189.6v.17a3.23,3.23,0,0,0,.75,2.18,2.37,2.37,0,0,0,1.9.88,2.86,2.86,0,0,0,1.2-.25,2.74,2.74,0,0,0,1-.8l.53.41A3.13,3.13,0,0,1,192.21,207.93Zm-.16-7.28a2.14,2.14,0,0,0-1.62.71,3.21,3.21,0,0,0-.8,1.89h4.63v-.09a2.87,2.87,0,0,0-.64-1.81A2,2,0,0,0,192.05,200.65Z"/><path class="cls-6" d="M201.39,205.82a1.22,1.22,0,0,0-.51-1,4.11,4.11,0,0,0-1.54-.6,6.65,6.65,0,0,1-1.59-.5,2.11,2.11,0,0,1-.84-.69,1.66,1.66,0,0,1-.28-1,1.84,1.84,0,0,1,.77-1.51,3.06,3.06,0,0,1,1.95-.6,3.2,3.2,0,0,1,2.07.64,2.06,2.06,0,0,1,.78,1.67h-.85a1.39,1.39,0,0,0-.57-1.13A2.54,2.54,0,0,0,198,201a1.15,1.15,0,0,0-.51,1,1.08,1.08,0,0,0,.42.9,4.69,4.69,0,0,0,1.55.58,6.91,6.91,0,0,1,1.68.56,2.16,2.16,0,0,1,.84.72,2,2,0,0,1-.52,2.58,3.38,3.38,0,0,1-2.06.59,3.5,3.5,0,0,1-2.19-.65,2,2,0,0,1-.83-1.66h.85a1.5,1.5,0,0,0,.63,1.17,2.58,2.58,0,0,0,1.54.42,2.41,2.41,0,0,0,1.44-.39A1.19,1.19,0,0,0,201.39,205.82Z"/><path class="cls-6" d="M205.49,198.09v2h1.6v.7h-1.6v5.15a1.64,1.64,0,0,0,.23,1,.92.92,0,0,0,.78.32,5.34,5.34,0,0,0,.69-.08l0,.7a2.85,2.85,0,0,1-.92.12,1.51,1.51,0,0,1-1.27-.51,2.37,2.37,0,0,1-.4-1.5v-5.15h-1.42v-.7h1.42v-2Z"/><path class="cls-6" d="M211.85,207.93a3.33,3.33,0,0,1-3-1.84,4.26,4.26,0,0,1-.44-1.94v-.31a4.48,4.48,0,0,1,.43-2,3.46,3.46,0,0,1,1.2-1.41,3,3,0,0,1,1.67-.51,2.78,2.78,0,0,1,2.23,1,3.9,3.9,0,0,1,.83,2.62V204h-5.51v.17a3.23,3.23,0,0,0,.75,2.18,2.37,2.37,0,0,0,1.89.88,2.87,2.87,0,0,0,1.21-.25,2.74,2.74,0,0,0,1-.8l.53.41A3.13,3.13,0,0,1,211.85,207.93Zm-.16-7.28a2.14,2.14,0,0,0-1.62.71,3.21,3.21,0,0,0-.8,1.89h4.63v-.09a2.87,2.87,0,0,0-.64-1.81A2,2,0,0,0,211.69,200.65Z"/><path class="cls-6" d="M220,200.79a3.45,3.45,0,0,0-.57,0,2.08,2.08,0,0,0-1.36.45,2.39,2.39,0,0,0-.78,1.3v5.3h-.85v-7.72h.83l0,1.22a2.26,2.26,0,0,1,2.17-1.37,1.46,1.46,0,0,1,.57.1Z"/><path class="cls-6" d="M177.15,222h1.62v.72h-1.62v2.63h-.85v-2.63h-4.89v-.48l4.81-7.28h.93Zm-4.69,0h3.84V216l-.38.65Z"/><path class="cls-6" d="M180.59,220l.5-5.07h5.2v.79h-4.46l-.37,3.51a3.4,3.4,0,0,1,2-.57,2.9,2.9,0,0,1,2.24.91,3.5,3.5,0,0,1,.83,2.44,3.67,3.67,0,0,1-.81,2.54,2.9,2.9,0,0,1-2.29.91,3.15,3.15,0,0,1-2.2-.76,3.08,3.08,0,0,1-1-2.12h.82a2.45,2.45,0,0,0,.72,1.61,2.29,2.29,0,0,0,1.62.55,2,2,0,0,0,1.68-.71,3.12,3.12,0,0,0,.57-2,2.73,2.73,0,0,0-.64-1.86,2.18,2.18,0,0,0-1.73-.72,3.35,3.35,0,0,0-1.06.15,2.85,2.85,0,0,0-1,.6Z"/><path class="cls-6" d="M187.9,216.93a2.18,2.18,0,0,1,.58-1.54,2.05,2.05,0,0,1,2.92,0A2.22,2.22,0,0,1,192,217v.51a2.16,2.16,0,0,1-.57,1.52,1.87,1.87,0,0,1-1.45.61,2,2,0,0,1-1.46-.6,2.18,2.18,0,0,1-.59-1.58Zm.7.54a1.66,1.66,0,0,0,.36,1.1,1.27,1.27,0,0,0,1,.43,1.19,1.19,0,0,0,1-.44,1.66,1.66,0,0,0,.36-1.11v-.53a1.58,1.58,0,0,0-.37-1.09,1.22,1.22,0,0,0-1-.44,1.24,1.24,0,0,0-1,.43,1.69,1.69,0,0,0-.37,1.15Zm1.62,7-.53-.34,5.07-8.12.54.34Zm2.91-1.68a2.14,2.14,0,0,1,.58-1.53,1.88,1.88,0,0,1,1.45-.61,2,2,0,0,1,1.46.6,2.18,2.18,0,0,1,.58,1.59v.51a2.15,2.15,0,0,1-.57,1.53,2,2,0,0,1-1.46.61,1.93,1.93,0,0,1-1.46-.61,2.19,2.19,0,0,1-.58-1.57Zm.69.55a1.59,1.59,0,0,0,.37,1.1,1.33,1.33,0,0,0,2,0,1.72,1.72,0,0,0,.36-1.13v-.52a1.6,1.6,0,0,0-.37-1.11,1.23,1.23,0,0,0-1-.42,1.21,1.21,0,0,0-1,.43,1.61,1.61,0,0,0-.37,1.12Z"/><path class="cls-7" d="M152.34,376.66h-6.51V376l3.56-4a9.54,9.54,0,0,0,1.23-1.68A2.77,2.77,0,0,0,151,369a2.07,2.07,0,0,0-.58-1.56,2.15,2.15,0,0,0-1.59-.58,2.23,2.23,0,0,0-1.69.68,2.39,2.39,0,0,0-.65,1.74h-.85a3.3,3.3,0,0,1,.4-1.6,2.79,2.79,0,0,1,1.13-1.13,3.27,3.27,0,0,1,1.66-.41,3.12,3.12,0,0,1,2.23.75,2.64,2.64,0,0,1,.81,2,3.53,3.53,0,0,1-.46,1.59,11.87,11.87,0,0,1-1.59,2.15l-2.9,3.28h5.46Z"/><path class="cls-7" d="M162.24,374.69a1.22,1.22,0,0,0-.51-1,4.11,4.11,0,0,0-1.54-.6,6.65,6.65,0,0,1-1.59-.5,2,2,0,0,1-.84-.69,1.64,1.64,0,0,1-.28-1,1.84,1.84,0,0,1,.77-1.51,3,3,0,0,1,1.95-.6,3.2,3.2,0,0,1,2.07.64,2.06,2.06,0,0,1,.78,1.67h-.85a1.39,1.39,0,0,0-.57-1.13,2.54,2.54,0,0,0-2.78-.07,1.15,1.15,0,0,0-.51,1,1.07,1.07,0,0,0,.42.9,4.69,4.69,0,0,0,1.55.58,6.91,6.91,0,0,1,1.68.56,2.24,2.24,0,0,1,.84.72,2,2,0,0,1-.52,2.58,3.38,3.38,0,0,1-2.06.59,3.5,3.5,0,0,1-2.19-.65,2,2,0,0,1-.83-1.65h.85a1.5,1.5,0,0,0,.63,1.16,2.58,2.58,0,0,0,1.54.42,2.43,2.43,0,0,0,1.44-.39A1.19,1.19,0,0,0,162.24,374.69Z"/><path class="cls-7" d="M168,376.8a3.31,3.31,0,0,1-1.78-.49A3.22,3.22,0,0,1,165,375a4.14,4.14,0,0,1-.45-1.94v-.31a4.49,4.49,0,0,1,.44-2,3.45,3.45,0,0,1,1.2-1.41,3,3,0,0,1,1.67-.51,2.83,2.83,0,0,1,2.23,1,3.91,3.91,0,0,1,.82,2.63v.47h-5.51V373a3.18,3.18,0,0,0,.76,2.18,2.37,2.37,0,0,0,1.89.88,2.73,2.73,0,0,0,1.21-.25,2.63,2.63,0,0,0,.95-.8l.54.41A3.14,3.14,0,0,1,168,376.8Zm-.15-7.28a2.16,2.16,0,0,0-1.63.71,3.28,3.28,0,0,0-.8,1.9h4.63V372a2.81,2.81,0,0,0-.63-1.81A2,2,0,0,0,167.85,369.52Z"/><path class="cls-7" d="M173.34,368.94l0,1.25a2.91,2.91,0,0,1,1.07-1.05,3,3,0,0,1,1.43-.35,2.15,2.15,0,0,1,2.31,1.5,3,3,0,0,1,1.11-1.11,3.06,3.06,0,0,1,1.53-.39c1.65,0,2.5.91,2.53,2.72v5.15h-.86v-5.09a2.27,2.27,0,0,0-.44-1.53,1.8,1.8,0,0,0-1.43-.5,2.3,2.3,0,0,0-1.56.59,2.14,2.14,0,0,0-.71,1.42v5.11h-.85v-5.15A2.1,2.1,0,0,0,177,370a1.83,1.83,0,0,0-1.41-.49,2.16,2.16,0,0,0-1.39.46,2.66,2.66,0,0,0-.85,1.36v5.3h-.86v-7.72Z"/><path class="cls-7" d="M188.5,376.8a3.33,3.33,0,0,1-3-1.84A4.26,4.26,0,0,1,185,373v-.31a4.48,4.48,0,0,1,.43-2,3.53,3.53,0,0,1,1.2-1.41,3,3,0,0,1,1.67-.51,2.82,2.82,0,0,1,2.23,1,3.91,3.91,0,0,1,.83,2.63v.47h-5.51V373a3.23,3.23,0,0,0,.75,2.18,2.37,2.37,0,0,0,1.89.88A2.56,2.56,0,0,0,190.7,375l.53.41A3.13,3.13,0,0,1,188.5,376.8Zm-.16-7.28a2.14,2.14,0,0,0-1.62.71,3.22,3.22,0,0,0-.8,1.9h4.63V372a2.87,2.87,0,0,0-.64-1.81A2,2,0,0,0,188.34,369.52Z"/><path class="cls-7" d="M197.68,374.69a1.22,1.22,0,0,0-.51-1,4.11,4.11,0,0,0-1.54-.6,6.65,6.65,0,0,1-1.59-.5,2,2,0,0,1-.84-.69,1.64,1.64,0,0,1-.28-1,1.86,1.86,0,0,1,.76-1.51,3.07,3.07,0,0,1,2-.6,3.2,3.2,0,0,1,2.07.64,2.06,2.06,0,0,1,.78,1.67h-.85a1.39,1.39,0,0,0-.57-1.13,2.54,2.54,0,0,0-2.78-.07,1.15,1.15,0,0,0-.51,1,1.07,1.07,0,0,0,.42.9,4.69,4.69,0,0,0,1.55.58,6.91,6.91,0,0,1,1.68.56,2.13,2.13,0,0,1,.83.72,1.77,1.77,0,0,1,.28,1,1.86,1.86,0,0,1-.79,1.56,3.38,3.38,0,0,1-2.06.59,3.5,3.5,0,0,1-2.19-.65,2,2,0,0,1-.83-1.65h.85a1.47,1.47,0,0,0,.63,1.16,2.58,2.58,0,0,0,1.54.42,2.45,2.45,0,0,0,1.44-.39A1.19,1.19,0,0,0,197.68,374.69Z"/><path class="cls-7" d="M201.78,367v2h1.6v.7h-1.6v5.15a1.64,1.64,0,0,0,.23.95.92.92,0,0,0,.78.32c.14,0,.37,0,.69-.07l0,.69a2.74,2.74,0,0,1-.91.12,1.51,1.51,0,0,1-1.27-.51,2.37,2.37,0,0,1-.41-1.5v-5.15h-1.41v-.7h1.41v-2Z"/><path class="cls-7" d="M208.14,376.8a3.33,3.33,0,0,1-3-1.84,4.26,4.26,0,0,1-.44-1.94v-.31a4.48,4.48,0,0,1,.43-2,3.53,3.53,0,0,1,1.2-1.41,3,3,0,0,1,1.67-.51,2.82,2.82,0,0,1,2.23,1,3.91,3.91,0,0,1,.82,2.63v.47h-5.5V373a3.23,3.23,0,0,0,.75,2.18,2.37,2.37,0,0,0,1.89.88,2.56,2.56,0,0,0,2.17-1.05l.53.41A3.13,3.13,0,0,1,208.14,376.8Zm-.16-7.28a2.14,2.14,0,0,0-1.62.71,3.22,3.22,0,0,0-.8,1.9h4.62V372a2.81,2.81,0,0,0-.63-1.81A2,2,0,0,0,208,369.52Z"/><path class="cls-7" d="M216.26,369.67a2.67,2.67,0,0,0-.58-.05,2.07,2.07,0,0,0-1.35.44,2.39,2.39,0,0,0-.78,1.3v5.3h-.85v-7.72h.83l0,1.23a2.26,2.26,0,0,1,2.17-1.38,1.37,1.37,0,0,1,.56.1Z"/><path class="cls-7" d="M222.23,374.69a1.22,1.22,0,0,0-.51-1,4.12,4.12,0,0,0-1.53-.6,6.6,6.6,0,0,1-1.6-.5,2,2,0,0,1-.84-.69,1.71,1.71,0,0,1-.27-1,1.83,1.83,0,0,1,.76-1.51,3.06,3.06,0,0,1,1.95-.6,3.23,3.23,0,0,1,2.08.64,2.06,2.06,0,0,1,.78,1.67h-.86a1.39,1.39,0,0,0-.57-1.13,2.2,2.2,0,0,0-1.43-.45,2.23,2.23,0,0,0-1.35.38,1.15,1.15,0,0,0-.51,1,1.05,1.05,0,0,0,.43.9,4.52,4.52,0,0,0,1.54.58,7.17,7.17,0,0,1,1.69.56,2.2,2.2,0,0,1,.83.72,2,2,0,0,1-.52,2.58,3.36,3.36,0,0,1-2.06.59,3.47,3.47,0,0,1-2.18-.65,2,2,0,0,1-.84-1.65h.86a1.47,1.47,0,0,0,.63,1.16,2.54,2.54,0,0,0,1.53.42,2.41,2.41,0,0,0,1.44-.39A1.19,1.19,0,0,0,222.23,374.69Z"/><path class="cls-7" d="M182.46,394.19H176v-.66l3.56-4a9.54,9.54,0,0,0,1.23-1.68,2.89,2.89,0,0,0,.34-1.29,2.11,2.11,0,0,0-.58-1.56,2.18,2.18,0,0,0-1.59-.57,2.26,2.26,0,0,0-1.7.67,2.38,2.38,0,0,0-.64,1.74h-.85a3.19,3.19,0,0,1,.4-1.6,2.83,2.83,0,0,1,1.12-1.13,3.31,3.31,0,0,1,1.67-.41,3.15,3.15,0,0,1,2.23.75,2.67,2.67,0,0,1,.8,2,3.51,3.51,0,0,1-.45,1.59,12,12,0,0,1-1.6,2.15L177,393.47h5.45Z"/><path class="cls-7" d="M183.85,385.8a2.18,2.18,0,0,1,.58-1.54,2.05,2.05,0,0,1,2.92,0,2.22,2.22,0,0,1,.57,1.58v.51a2.14,2.14,0,0,1-.57,1.52,1.87,1.87,0,0,1-1.45.61,2,2,0,0,1-1.46-.6,2.18,2.18,0,0,1-.59-1.58Zm.7.54a1.61,1.61,0,0,0,.37,1.1,1.24,1.24,0,0,0,1,.43,1.19,1.19,0,0,0,1-.44,1.66,1.66,0,0,0,.36-1.11v-.53a1.6,1.6,0,0,0-.37-1.09,1.22,1.22,0,0,0-1-.44,1.24,1.24,0,0,0-1,.43,1.69,1.69,0,0,0-.37,1.15Zm1.62,7-.53-.34,5.07-8.12.54.35Zm2.91-1.68a2.14,2.14,0,0,1,.58-1.53,1.88,1.88,0,0,1,1.45-.61,2,2,0,0,1,1.46.6,2.19,2.19,0,0,1,.58,1.59v.51a2.13,2.13,0,0,1-.57,1.53,2,2,0,0,1-1.46.61,1.9,1.9,0,0,1-1.45-.61,2.15,2.15,0,0,1-.59-1.57Zm.69.55a1.59,1.59,0,0,0,.37,1.1,1.33,1.33,0,0,0,2,0,1.72,1.72,0,0,0,.36-1.13v-.52a1.6,1.6,0,0,0-.37-1.11,1.23,1.23,0,0,0-1-.42,1.21,1.21,0,0,0-1,.43,1.62,1.62,0,0,0-.37,1.13Z"/><g class="cls-8"><path class="cls-5" d="M476.94,238.59l17.07,138s-46.94,5.69-50.5,5.69-69-22-69-22l-4.27-49.79Z"/><path class="cls-4" d="M476.94,238.59l17.07,138L644.8,316.83s-.72-103.84,0-106-48.37-18.49-48.37-18.49Z"/><path class="cls-9" d="M476.94,238.59,370.25,166.76,323.31,170s-7.83,35.2-7.83,38.76,5,76.1,5,75.75,49.79,26,49.79,26Z"/><polygon class="cls-10" points="476.94 238.59 460.58 101.32 375.94 136.88 370.25 166.76 476.94 238.59"/><polygon class="cls-11" points="476.94 238.59 476.94 101.32 460.58 101.32 476.94 238.59"/><polygon class="cls-12" points="476.94 238.59 525.3 110.57 476.94 110.57 476.94 238.59"/><path class="cls-3" d="M476.94,238.59l46.23-120.2,17.07-7.82s38.41,20.62,40.54,22.05,22.05,4.26,24.9,11.38,7.11,30.58,7.11,30.58l-16.36,17.78Z"/></g><path class="cls-6" d="M375.74,226.77h-.85v-9.26l-2.79,1v-.79l3.5-1.3h.14Z"/><path class="cls-6" d="M384.23,219.13l0,1.25a2.85,2.85,0,0,1,1.06-1,2.89,2.89,0,0,1,1.41-.35,2.14,2.14,0,0,1,2.29,1.49,2.77,2.77,0,0,1,1.1-1.1,2.94,2.94,0,0,1,1.5-.39c1.64,0,2.48.9,2.51,2.68v5.1h-.85v-5a2.26,2.26,0,0,0-.44-1.52,1.79,1.79,0,0,0-1.41-.49,2.22,2.22,0,0,0-1.54.59,2.08,2.08,0,0,0-.7,1.4v5.05h-.85v-5.1a2,2,0,0,0-.46-1.46,1.84,1.84,0,0,0-1.4-.48,2.17,2.17,0,0,0-1.37.45,2.7,2.7,0,0,0-.84,1.35v5.24h-.85v-7.64Z"/><path class="cls-6" d="M395.8,222.84a4.37,4.37,0,0,1,.43-2,3.23,3.23,0,0,1,1.2-1.38,3.32,3.32,0,0,1,1.77-.49,3.14,3.14,0,0,1,2.47,1.07,4.14,4.14,0,0,1,.95,2.83v.18a4.58,4.58,0,0,1-.43,2,3.16,3.16,0,0,1-3,1.85,3.14,3.14,0,0,1-2.47-1.07,4.12,4.12,0,0,1-.95-2.83Zm.85.23a3.44,3.44,0,0,0,.71,2.25,2.4,2.4,0,0,0,3.71,0,3.61,3.61,0,0,0,.71-2.32v-.16a3.78,3.78,0,0,0-.33-1.6,2.57,2.57,0,0,0-.91-1.13,2.38,2.38,0,0,0-1.34-.4,2.27,2.27,0,0,0-1.84.89,3.55,3.55,0,0,0-.71,2.32Z"/><path class="cls-6" d="M405.16,219.13l0,1.31a3.16,3.16,0,0,1,1.07-1.08,2.86,2.86,0,0,1,1.42-.37,2.3,2.3,0,0,1,1.83.69,3.13,3.13,0,0,1,.6,2.08v5h-.84v-5a2.26,2.26,0,0,0-.43-1.52,1.67,1.67,0,0,0-1.36-.5,2.11,2.11,0,0,0-1.39.49,2.84,2.84,0,0,0-.89,1.32v5.23h-.84v-7.64Z"/><path class="cls-6" d="M413.61,217.18v1.95h1.58v.7h-1.58v5.09a1.52,1.52,0,0,0,.23.94.86.86,0,0,0,.76.31,4.65,4.65,0,0,0,.68-.07l0,.69a2.71,2.71,0,0,1-.9.12,1.52,1.52,0,0,1-1.27-.51,2.38,2.38,0,0,1-.39-1.48v-5.09h-1.4v-.7h1.4v-1.95Z"/><path class="cls-6" d="M417.78,220.43a2.91,2.91,0,0,1,1.06-1.06,2.8,2.8,0,0,1,1.42-.38,2.3,2.3,0,0,1,1.83.69,3.13,3.13,0,0,1,.6,2.08v5h-.84v-5a2.32,2.32,0,0,0-.43-1.52,1.69,1.69,0,0,0-1.37-.5,2.1,2.1,0,0,0-1.38.49,2.84,2.84,0,0,0-.89,1.32v5.23h-.84V215.93h.84Z"/><path class="cls-6" d="M388.94,244.1h-.84v-9.25l-2.8,1v-.79l3.5-1.3h.14Z"/><path class="cls-6" d="M398.29,239.35a3.24,3.24,0,0,1-1.12,1,3,3,0,0,1-1.45.36,2.71,2.71,0,0,1-1.55-.45,3,3,0,0,1-1-1.25,4.17,4.17,0,0,1-.36-1.74,4.29,4.29,0,0,1,.39-1.85,3,3,0,0,1,1.09-1.3,3,3,0,0,1,1.62-.46,2.9,2.9,0,0,1,2.41,1.09,4.84,4.84,0,0,1,.86,3.07v.76a6.35,6.35,0,0,1-1.19,4.18,4.48,4.48,0,0,1-3.62,1.39h-.15v-.73h.3a3.75,3.75,0,0,0,2.8-1A4.42,4.42,0,0,0,398.29,239.35Zm-2.47.66a2.44,2.44,0,0,0,1.52-.51,2.72,2.72,0,0,0,1-1.3v-.49a4,4,0,0,0-.65-2.42,2.09,2.09,0,0,0-1.76-.86,2,2,0,0,0-1.65.8,3.16,3.16,0,0,0-.64,2,3.08,3.08,0,0,0,.62,2A2,2,0,0,0,395.82,240Z"/><path class="cls-6" d="M400.83,235.81a2.12,2.12,0,0,1,.57-1.52,2,2,0,0,1,2.88,0,2.17,2.17,0,0,1,.57,1.56v.5a2.15,2.15,0,0,1-.56,1.51,1.87,1.87,0,0,1-1.44.6,2,2,0,0,1-1.44-.59,2.14,2.14,0,0,1-.58-1.57Zm.68.54a1.61,1.61,0,0,0,.37,1.08,1.22,1.22,0,0,0,1,.42,1.2,1.2,0,0,0,1-.42,1.68,1.68,0,0,0,.36-1.11v-.52a1.63,1.63,0,0,0-.37-1.08,1.18,1.18,0,0,0-1-.43,1.21,1.21,0,0,0-1,.43,1.69,1.69,0,0,0-.37,1.13Zm1.61,6.9-.53-.34,5-8,.53.34Zm2.88-1.66a2.11,2.11,0,0,1,.57-1.52,1.89,1.89,0,0,1,1.43-.6,1.94,1.94,0,0,1,1.45.6,2.16,2.16,0,0,1,.57,1.57v.5a2.1,2.1,0,0,1-.57,1.51,1.86,1.86,0,0,1-1.43.6,1.93,1.93,0,0,1-1.44-.59,2.14,2.14,0,0,1-.58-1.56Zm.68.54a1.61,1.61,0,0,0,.36,1.09,1.24,1.24,0,0,0,1,.43,1.21,1.21,0,0,0,1-.43,1.69,1.69,0,0,0,.36-1.12v-.52a1.57,1.57,0,0,0-.37-1.09,1.2,1.2,0,0,0-1-.41,1.22,1.22,0,0,0-.95.41,1.61,1.61,0,0,0-.37,1.12Z"/><path class="cls-6" d="M418.54,307.13h.88a3,3,0,0,0,1.27-.25,1.94,1.94,0,0,0,.83-.71,1.87,1.87,0,0,0,.28-1,2.1,2.1,0,0,0-.55-1.55,2.17,2.17,0,0,0-1.6-.55,2.28,2.28,0,0,0-1.62.58,2,2,0,0,0-.64,1.53h-.84a2.72,2.72,0,0,1,1.52-2.47,3.43,3.43,0,0,1,1.58-.36,3.07,3.07,0,0,1,2.2.76,2.76,2.76,0,0,1,.8,2.09,2.22,2.22,0,0,1-.47,1.36,2.79,2.79,0,0,1-1.29.94,2.59,2.59,0,0,1,1.46.92,2.47,2.47,0,0,1,.49,1.55,2.8,2.8,0,0,1-.86,2.13,3.25,3.25,0,0,1-2.3.8,3.76,3.76,0,0,1-1.68-.37,2.69,2.69,0,0,1-1.61-2.56h.85a2.06,2.06,0,0,0,.68,1.6,2.56,2.56,0,0,0,1.76.62,2.42,2.42,0,0,0,1.7-.56A2.11,2.11,0,0,0,422,310a1.93,1.93,0,0,0-.65-1.57,3,3,0,0,0-1.95-.55h-.85Z"/><path class="cls-6" d="M430.15,311l.13.66.16-.69,1.84-5.84H433l1.81,5.79.2.8.16-.74,1.57-5.85h.87l-2.22,7.63h-.72l-2-6.05-.09-.42-.09.42-1.93,6.05h-.72l-2.21-7.63h.86Z"/><path class="cls-6" d="M442.17,312.87a3.26,3.26,0,0,1-3-1.82,4.05,4.05,0,0,1-.44-1.92v-.3a4.57,4.57,0,0,1,.42-2,3.49,3.49,0,0,1,1.19-1.38A2.91,2.91,0,0,1,442,305a2.76,2.76,0,0,1,2.21.94,3.89,3.89,0,0,1,.81,2.6V309h-5.44v.16a3.2,3.2,0,0,0,.74,2.16,2.36,2.36,0,0,0,1.87.87,2.68,2.68,0,0,0,1.2-.25,2.57,2.57,0,0,0,.94-.79l.53.4A3.07,3.07,0,0,1,442.17,312.87Zm-.16-7.2a2.12,2.12,0,0,0-1.6.7,3.18,3.18,0,0,0-.79,1.88h4.57v-.09a2.79,2.79,0,0,0-.62-1.79A2,2,0,0,0,442,305.67Z"/><path class="cls-6" d="M449.63,312.87a3.26,3.26,0,0,1-3-1.82,4.18,4.18,0,0,1-.44-1.92v-.3a4.44,4.44,0,0,1,.43-2,3.34,3.34,0,0,1,1.19-1.38,2.91,2.91,0,0,1,1.65-.5,2.75,2.75,0,0,1,2.2.94,3.84,3.84,0,0,1,.82,2.6V309h-5.45v.16a3.16,3.16,0,0,0,.75,2.16,2.35,2.35,0,0,0,1.87.87,2.64,2.64,0,0,0,1.19-.25,2.68,2.68,0,0,0,.95-.79l.53.4A3.1,3.1,0,0,1,449.63,312.87Zm-.15-7.2a2.14,2.14,0,0,0-1.61.7,3.24,3.24,0,0,0-.79,1.88h4.58v-.09a2.85,2.85,0,0,0-.63-1.79A1.93,1.93,0,0,0,449.48,305.67Z"/><path class="cls-6" d="M456,308.88l-1,.94v2.91h-.85V301.89H455v6.94l.79-.86,2.92-2.87h1.07l-3.24,3.21,3.52,4.42h-1Z"/><path class="cls-6" d="M465.79,310.79a1.19,1.19,0,0,0-.51-1,4,4,0,0,0-1.52-.6,6.5,6.5,0,0,1-1.57-.49,2.1,2.1,0,0,1-.84-.68,1.7,1.7,0,0,1-.27-1,1.82,1.82,0,0,1,.76-1.5,3,3,0,0,1,1.93-.58,3.16,3.16,0,0,1,2.05.63,2,2,0,0,1,.77,1.64h-.84a1.37,1.37,0,0,0-.57-1.11,2.17,2.17,0,0,0-1.41-.45,2.26,2.26,0,0,0-1.34.37,1.16,1.16,0,0,0-.5,1,1,1,0,0,0,.42.88,4.54,4.54,0,0,0,1.53.58,6.85,6.85,0,0,1,1.66.56,2.1,2.1,0,0,1,.83.71,1.87,1.87,0,0,1,.26,1,1.82,1.82,0,0,1-.78,1.54,3.26,3.26,0,0,1-2,.58,3.41,3.41,0,0,1-2.16-.65,2,2,0,0,1-.83-1.63h.84a1.49,1.49,0,0,0,.63,1.15,2.51,2.51,0,0,0,1.52.42,2.36,2.36,0,0,0,1.42-.39A1.16,1.16,0,0,0,465.79,310.79Z"/><path class="cls-6" d="M433.14,330.07h-.85v-9.26l-2.79,1v-.79l3.5-1.3h.14Z"/><path class="cls-6" d="M443.54,320.28l-4.38,9.79h-.89l4.36-9.56h-5.84v-.72h6.75Z"/><path class="cls-6" d="M445,321.77a2.12,2.12,0,0,1,.57-1.52,2,2,0,0,1,2.89,0,2.17,2.17,0,0,1,.57,1.56v.5a2.1,2.1,0,0,1-.57,1.51,1.86,1.86,0,0,1-1.43.6,2,2,0,0,1-1.45-.59,2.19,2.19,0,0,1-.58-1.57Zm.69.54a1.6,1.6,0,0,0,.36,1.08,1.24,1.24,0,0,0,1,.43,1.17,1.17,0,0,0,.95-.43,1.68,1.68,0,0,0,.36-1.11v-.51a1.6,1.6,0,0,0-.37-1.09,1.21,1.21,0,0,0-1-.43,1.19,1.19,0,0,0-.95.43,1.64,1.64,0,0,0-.37,1.13Zm1.61,6.9-.53-.34,5-8,.53.33Zm2.88-1.66a2.12,2.12,0,0,1,.56-1.52,2,2,0,0,1,2.88,0,2.17,2.17,0,0,1,.58,1.57v.5a2.1,2.1,0,0,1-.57,1.51,1.9,1.9,0,0,1-1.44.6,1.93,1.93,0,0,1-1.44-.59,2.17,2.17,0,0,1-.57-1.56Zm.67.54a1.57,1.57,0,0,0,.37,1.09,1.19,1.19,0,0,0,1,.43,1.22,1.22,0,0,0,1-.43,1.74,1.74,0,0,0,.35-1.12v-.52a1.61,1.61,0,0,0-.36-1.09,1.34,1.34,0,0,0-1.93,0,1.66,1.66,0,0,0-.37,1.12Z"/><path class="cls-6" d="M521.91,274.15h-6.44v-.65l3.52-4a9,9,0,0,0,1.22-1.66,2.88,2.88,0,0,0,.34-1.28A2.08,2.08,0,0,0,520,265a2.12,2.12,0,0,0-1.57-.57,2.21,2.21,0,0,0-1.67.66,2.39,2.39,0,0,0-.64,1.73h-.84a3.22,3.22,0,0,1,.39-1.58,2.78,2.78,0,0,1,1.11-1.12,3.34,3.34,0,0,1,1.65-.41,3.14,3.14,0,0,1,2.21.74,2.67,2.67,0,0,1,.79,2,3.4,3.4,0,0,1-.45,1.57,11.38,11.38,0,0,1-1.58,2.13l-2.86,3.24h5.4Z"/><path class="cls-6" d="M529,272.4l.13.65.17-.69,1.84-5.84h.71l1.82,5.79.19.81.17-.74,1.56-5.86h.88l-2.22,7.63h-.72l-2-6-.09-.41-.09.42-1.92,6h-.72l-2.22-7.63h.87Z"/><path class="cls-6" d="M541,274.29a3.34,3.34,0,0,1-1.76-.47,3.3,3.3,0,0,1-1.22-1.34,4.18,4.18,0,0,1-.44-1.92v-.31a4.56,4.56,0,0,1,.43-2,3.37,3.37,0,0,1,1.19-1.39,3,3,0,0,1,1.65-.5,2.75,2.75,0,0,1,2.2.95,3.81,3.81,0,0,1,.82,2.59v.47h-5.45v.17a3.19,3.19,0,0,0,.75,2.16,2.37,2.37,0,0,0,1.87.86,2.86,2.86,0,0,0,1.2-.24,2.76,2.76,0,0,0,.94-.79l.53.4A3.07,3.07,0,0,1,541,274.29Zm-.15-7.19a2.11,2.11,0,0,0-1.61.7,3.21,3.21,0,0,0-.79,1.87H543v-.09a2.76,2.76,0,0,0-.63-1.79A1.94,1.94,0,0,0,540.82,267.1Z"/><path class="cls-6" d="M548.44,274.29a3.25,3.25,0,0,1-3-1.81,4.17,4.17,0,0,1-.43-1.92v-.31a4.56,4.56,0,0,1,.42-2,3.45,3.45,0,0,1,1.19-1.39,3,3,0,0,1,1.65-.5,2.78,2.78,0,0,1,2.21.95,3.86,3.86,0,0,1,.81,2.59v.47h-5.44v.17a3.18,3.18,0,0,0,.74,2.16,2.39,2.39,0,0,0,1.87.86,2.86,2.86,0,0,0,1.2-.24,2.76,2.76,0,0,0,.94-.79l.53.4A3.07,3.07,0,0,1,548.44,274.29Zm-.16-7.19a2.09,2.09,0,0,0-1.6.7,3.22,3.22,0,0,0-.8,1.87h4.58v-.09a2.81,2.81,0,0,0-.62-1.79A2,2,0,0,0,548.28,267.1Z"/><path class="cls-6" d="M554.76,270.31l-1,.93v2.91H553V263.32h.84v6.93l.8-.86,2.92-2.87h1.07l-3.24,3.22,3.52,4.41h-1Z"/><path class="cls-6" d="M564.59,272.21a1.2,1.2,0,0,0-.5-1,3.75,3.75,0,0,0-1.52-.6,7.09,7.09,0,0,1-1.58-.49,2.15,2.15,0,0,1-.83-.69,1.68,1.68,0,0,1-.27-1,1.82,1.82,0,0,1,.75-1.49,3.55,3.55,0,0,1,4,0,2,2,0,0,1,.78,1.65h-.85a1.39,1.39,0,0,0-.56-1.12,2.24,2.24,0,0,0-1.41-.44,2.17,2.17,0,0,0-1.34.37,1.14,1.14,0,0,0-.51,1,1.05,1.05,0,0,0,.42.89,4.36,4.36,0,0,0,1.53.57,7.43,7.43,0,0,1,1.67.56,2.24,2.24,0,0,1,.82.71,2,2,0,0,1-.51,2.56,3.38,3.38,0,0,1-2,.57,3.42,3.42,0,0,1-2.16-.64,2,2,0,0,1-.83-1.63h.85a1.46,1.46,0,0,0,.62,1.15,2.53,2.53,0,0,0,1.52.41,2.47,2.47,0,0,0,1.43-.38A1.18,1.18,0,0,0,564.59,272.21Z"/><path class="cls-6" d="M534.45,291.49H528v-.65l3.52-4a9,9,0,0,0,1.22-1.67,2.81,2.81,0,0,0,.34-1.27,2,2,0,0,0-.58-1.54,2.12,2.12,0,0,0-1.57-.57,2.21,2.21,0,0,0-1.67.66,2.36,2.36,0,0,0-.64,1.72h-.84a3.25,3.25,0,0,1,.39-1.58,2.85,2.85,0,0,1,1.11-1.12,3.36,3.36,0,0,1,1.65-.4,3.14,3.14,0,0,1,2.21.74,2.66,2.66,0,0,1,.79,2,3.4,3.4,0,0,1-.45,1.57,11.71,11.71,0,0,1-1.57,2.13l-2.87,3.24h5.4Z"/><path class="cls-6" d="M541.29,286.74a3.2,3.2,0,0,1-1.12,1,3,3,0,0,1-1.46.37,2.64,2.64,0,0,1-1.54-.46,3,3,0,0,1-1-1.24,4.49,4.49,0,0,1,0-3.59,3,3,0,0,1,1.09-1.3,2.87,2.87,0,0,1,1.62-.46,2.92,2.92,0,0,1,2.41,1.08,4.86,4.86,0,0,1,.86,3.07V286a6.31,6.31,0,0,1-1.19,4.17,4.49,4.49,0,0,1-3.62,1.4h-.15v-.74h.3a3.7,3.7,0,0,0,2.8-1A4.44,4.44,0,0,0,541.29,286.74Zm-2.47.65a2.5,2.5,0,0,0,1.52-.5,2.74,2.74,0,0,0,1-1.31v-.48a3.94,3.94,0,0,0-.66-2.43,2.09,2.09,0,0,0-1.76-.86,2,2,0,0,0-1.64.81,3.14,3.14,0,0,0-.64,2,3,3,0,0,0,.62,2A1.94,1.94,0,0,0,538.82,287.39Z"/><path class="cls-6" d="M543.83,283.2a2.15,2.15,0,0,1,.57-1.53,2,2,0,0,1,2.88,0,2.21,2.21,0,0,1,.57,1.57v.5a2.13,2.13,0,0,1-.56,1.5,1.85,1.85,0,0,1-1.44.61,1.9,1.9,0,0,1-1.44-.6,2.11,2.11,0,0,1-.58-1.56Zm.68.54a1.59,1.59,0,0,0,.37,1.08,1.21,1.21,0,0,0,1,.42,1.18,1.18,0,0,0,1-.43,1.64,1.64,0,0,0,.36-1.1v-.52a1.61,1.61,0,0,0-.37-1.08,1.21,1.21,0,0,0-1-.43,1.23,1.23,0,0,0-1,.42,1.71,1.71,0,0,0-.37,1.13Zm1.61,6.9-.53-.34,5-8,.53.34ZM549,289a2.1,2.1,0,0,1,.57-1.51,1.88,1.88,0,0,1,1.43-.6,2,2,0,0,1,1.45.59A2.18,2.18,0,0,1,553,289v.5a2.12,2.12,0,0,1-.57,1.52,1.88,1.88,0,0,1-1.43.6,1.9,1.9,0,0,1-1.44-.6,2.1,2.1,0,0,1-.58-1.55Zm.68.55a1.63,1.63,0,0,0,.36,1.09,1.23,1.23,0,0,0,1,.42,1.2,1.2,0,0,0,1-.42,1.7,1.7,0,0,0,.36-1.13V289a1.55,1.55,0,0,0-.37-1.09,1.21,1.21,0,0,0-1-.42,1.23,1.23,0,0,0-1,.42,1.66,1.66,0,0,0-.36,1.12Z"/><path class="cls-6" d="M523.07,176.59h-.84v-9.25l-2.8,1v-.79l3.5-1.29h.14Z"/><path class="cls-6" d="M532.62,174.83l.13.66.17-.69,1.83-5.84h.72l1.82,5.79.19.8.17-.74,1.56-5.85h.88l-2.23,7.63h-.71l-2-6.05-.09-.42-.09.43-1.92,6h-.72L530.14,169H531Z"/><path class="cls-6" d="M544.64,176.73a3.35,3.35,0,0,1-1.76-.48,3.27,3.27,0,0,1-1.22-1.33,4.25,4.25,0,0,1-.44-1.93v-.3a4.43,4.43,0,0,1,.43-2,3.37,3.37,0,0,1,1.19-1.39,3,3,0,0,1,1.65-.5,2.72,2.72,0,0,1,2.2,1,3.8,3.8,0,0,1,.82,2.59v.47h-5.45V173a3.2,3.2,0,0,0,.75,2.17,2.37,2.37,0,0,0,1.87.86,2.71,2.71,0,0,0,1.2-.25,2.63,2.63,0,0,0,.94-.79l.53.41A3.1,3.1,0,0,1,544.64,176.73Zm-.15-7.19a2.11,2.11,0,0,0-1.61.7,3.21,3.21,0,0,0-.79,1.87h4.58V172a2.76,2.76,0,0,0-.63-1.79A1.94,1.94,0,0,0,544.49,169.54Z"/><path class="cls-6" d="M552.11,176.73a3.3,3.3,0,0,1-3-1.81,4.24,4.24,0,0,1-.43-1.93v-.3a4.56,4.56,0,0,1,.42-2,3.45,3.45,0,0,1,1.19-1.39,3,3,0,0,1,1.65-.5,2.75,2.75,0,0,1,2.21,1,3.84,3.84,0,0,1,.81,2.59v.47h-5.44V173a3.19,3.19,0,0,0,.74,2.17,2.39,2.39,0,0,0,1.87.86,2.71,2.71,0,0,0,1.2-.25,2.55,2.55,0,0,0,.94-.79l.53.41A3.09,3.09,0,0,1,552.11,176.73Zm-.16-7.19a2.09,2.09,0,0,0-1.6.7,3.22,3.22,0,0,0-.8,1.87h4.58V172a2.76,2.76,0,0,0-.63-1.79A1.94,1.94,0,0,0,552,169.54Z"/><path class="cls-6" d="M558.43,172.75l-1,.93v2.91h-.84V165.76h.84v6.93l.8-.86,2.92-2.87h1.07L559,172.18l3.52,4.41h-1Z"/><path class="cls-6" d="M531.94,193.93h-.84v-9.26l-2.8,1v-.79l3.5-1.3h.14Z"/><path class="cls-6" d="M541.21,190.62h1.6v.71h-1.6v2.6h-.85v-2.6h-4.83v-.48l4.75-7.19h.93Zm-4.65,0h3.8v-5.87l-.37.65Z"/><path class="cls-6" d="M543.83,185.63a2.12,2.12,0,0,1,.57-1.52,2,2,0,0,1,2.88,0,2.19,2.19,0,0,1,.57,1.56v.51a2.13,2.13,0,0,1-.56,1.5,1.88,1.88,0,0,1-1.44.61,1.9,1.9,0,0,1-1.44-.6,2.11,2.11,0,0,1-.58-1.56Zm.68.54a1.56,1.56,0,0,0,.37,1.08,1.3,1.3,0,0,0,1.93,0,1.65,1.65,0,0,0,.36-1.11v-.51a1.65,1.65,0,0,0-.37-1.09,1.31,1.31,0,0,0-1.92,0,1.69,1.69,0,0,0-.37,1.13Zm1.61,6.91-.53-.34,5-8,.53.34Zm2.88-1.67a2.12,2.12,0,0,1,.57-1.52,1.88,1.88,0,0,1,1.43-.6,1.94,1.94,0,0,1,1.45.6,2.18,2.18,0,0,1,.57,1.57v.5a2.12,2.12,0,0,1-.57,1.52,1.88,1.88,0,0,1-1.43.6,1.9,1.9,0,0,1-1.44-.6,2.14,2.14,0,0,1-.58-1.56Zm.68.55a1.65,1.65,0,0,0,.36,1.09,1.23,1.23,0,0,0,1,.42,1.18,1.18,0,0,0,1-.43,1.67,1.67,0,0,0,.36-1.12v-.51a1.58,1.58,0,0,0-.37-1.1,1.33,1.33,0,0,0-1.93,0,1.65,1.65,0,0,0-.36,1.11Z"/><path class="cls-6" d="M401.89,162.88h-6.43v-.65l3.52-4a9.23,9.23,0,0,0,1.21-1.66,2.76,2.76,0,0,0,.34-1.28,2.08,2.08,0,0,0-.57-1.54,2.13,2.13,0,0,0-1.57-.57,2.24,2.24,0,0,0-1.68.66,2.41,2.41,0,0,0-.64,1.72h-.84a3.17,3.17,0,0,1,.4-1.58,2.82,2.82,0,0,1,1.11-1.11,3.21,3.21,0,0,1,1.65-.41,3.11,3.11,0,0,1,2.2.74,2.63,2.63,0,0,1,.8,2,3.4,3.4,0,0,1-.45,1.57,11.85,11.85,0,0,1-1.58,2.13l-2.86,3.24h5.39Z"/><path class="cls-6" d="M407.88,155.25l0,1.24a2.85,2.85,0,0,1,1.06-1,2.88,2.88,0,0,1,1.41-.34,2.13,2.13,0,0,1,2.29,1.48,2.84,2.84,0,0,1,1.1-1.1,3,3,0,0,1,1.5-.38c1.64,0,2.48.89,2.51,2.68v5.09h-.85v-5a2.28,2.28,0,0,0-.44-1.52,1.82,1.82,0,0,0-1.41-.49,2.27,2.27,0,0,0-1.54.59,2.08,2.08,0,0,0-.7,1.4v5H412v-5.09a2.06,2.06,0,0,0-.47-1.46,1.81,1.81,0,0,0-1.4-.49,2.12,2.12,0,0,0-1.37.46,2.62,2.62,0,0,0-.84,1.35v5.23h-.85v-7.63Z"/><path class="cls-6" d="M419.45,159a4.43,4.43,0,0,1,.43-2,3.11,3.11,0,0,1,1.21-1.37,3.17,3.17,0,0,1,1.76-.49,3.11,3.11,0,0,1,2.47,1.07,4.1,4.1,0,0,1,.95,2.83v.18a4.61,4.61,0,0,1-.43,2,3.25,3.25,0,0,1-1.2,1.36,3.31,3.31,0,0,1-1.77.48A3.11,3.11,0,0,1,420.4,162a4.1,4.1,0,0,1-.95-2.83Zm.85.24a3.4,3.4,0,0,0,.71,2.24,2.4,2.4,0,0,0,3.71,0,3.58,3.58,0,0,0,.71-2.31V159a3.85,3.85,0,0,0-.33-1.6,2.54,2.54,0,0,0-.91-1.12,2.3,2.3,0,0,0-1.34-.4,2.26,2.26,0,0,0-1.84.88,3.63,3.63,0,0,0-.71,2.32Z"/><path class="cls-6" d="M428.81,155.25l0,1.3a3.13,3.13,0,0,1,1.07-1.07,2.76,2.76,0,0,1,1.42-.37,2.3,2.3,0,0,1,1.83.69,3.08,3.08,0,0,1,.6,2.07v5h-.84v-5a2.29,2.29,0,0,0-.43-1.53,1.7,1.7,0,0,0-1.36-.5,2.11,2.11,0,0,0-1.39.49,2.9,2.9,0,0,0-.89,1.32v5.23H428v-7.63Z"/><path class="cls-6" d="M437.26,153.29v2h1.58v.69h-1.58V161a1.55,1.55,0,0,0,.23.95.86.86,0,0,0,.76.31,4.65,4.65,0,0,0,.68-.07l0,.68a2.71,2.71,0,0,1-.9.12,1.54,1.54,0,0,1-1.27-.5,2.41,2.41,0,0,1-.39-1.49v-5.09H435v-.69h1.4v-2Z"/><path class="cls-6" d="M441.43,156.54a2.91,2.91,0,0,1,1.06-1.06,2.79,2.79,0,0,1,1.42-.37,2.3,2.3,0,0,1,1.83.69,3.08,3.08,0,0,1,.6,2.07v5h-.84v-5a2.35,2.35,0,0,0-.43-1.53,1.73,1.73,0,0,0-1.37-.5,2.1,2.1,0,0,0-1.38.49,2.9,2.9,0,0,0-.89,1.32v5.23h-.84V152.05h.84Z"/><path class="cls-6" d="M453.09,160.94a1.21,1.21,0,0,0-.51-1,3.84,3.84,0,0,0-1.52-.59,6.76,6.76,0,0,1-1.57-.5,2,2,0,0,1-.84-.68,1.7,1.7,0,0,1-.27-1,1.8,1.8,0,0,1,.76-1.49,3,3,0,0,1,1.93-.59,3.16,3.16,0,0,1,2.05.63,2,2,0,0,1,.77,1.65H453a1.36,1.36,0,0,0-.56-1.12,2.22,2.22,0,0,0-1.41-.44,2.19,2.19,0,0,0-1.34.37,1.15,1.15,0,0,0-.5,1,1.05,1.05,0,0,0,.42.89,4.36,4.36,0,0,0,1.53.57,6.85,6.85,0,0,1,1.66.56,2.18,2.18,0,0,1,.83.71,1.9,1.9,0,0,1,.26,1,1.82,1.82,0,0,1-.78,1.54,3.28,3.28,0,0,1-2,.58,3.41,3.41,0,0,1-2.16-.64,2,2,0,0,1-.83-1.64H449a1.48,1.48,0,0,0,.63,1.16,2.58,2.58,0,0,0,1.52.41,2.36,2.36,0,0,0,1.42-.39A1.15,1.15,0,0,0,453.09,160.94Z"/><path class="cls-6" d="M416.26,180.22h-.84V171l-2.8,1v-.79l3.5-1.3h.14Z"/><path class="cls-6" d="M422.22,174.62h.87a2.94,2.94,0,0,0,1.27-.25,1.94,1.94,0,0,0,.83-.71,1.88,1.88,0,0,0,.29-1,2.12,2.12,0,0,0-.56-1.55,2.17,2.17,0,0,0-1.6-.55,2.28,2.28,0,0,0-1.62.58,2,2,0,0,0-.63,1.53h-.85a2.72,2.72,0,0,1,1.52-2.47,3.43,3.43,0,0,1,1.58-.36,3.07,3.07,0,0,1,2.2.76,2.72,2.72,0,0,1,.8,2.09,2.16,2.16,0,0,1-.47,1.36,2.81,2.81,0,0,1-1.28.94,2.56,2.56,0,0,1,1.45.92,2.47,2.47,0,0,1,.49,1.55,2.77,2.77,0,0,1-.86,2.13,3.25,3.25,0,0,1-2.3.8,3.76,3.76,0,0,1-1.68-.37,2.69,2.69,0,0,1-1.18-1,2.8,2.8,0,0,1-.42-1.54h.84a2,2,0,0,0,.69,1.6,2.51,2.51,0,0,0,1.75.62,2.46,2.46,0,0,0,1.71-.56,2.14,2.14,0,0,0,.61-1.63,1.91,1.91,0,0,0-.66-1.57,3,3,0,0,0-1.95-.55h-.84Z"/><path class="cls-6" d="M428.15,171.92a2.12,2.12,0,0,1,.57-1.52,2,2,0,0,1,2.88,0,2.19,2.19,0,0,1,.57,1.56v.51a2.13,2.13,0,0,1-.56,1.5,1.88,1.88,0,0,1-1.44.61,1.92,1.92,0,0,1-1.44-.6,2.11,2.11,0,0,1-.58-1.56Zm.68.54a1.61,1.61,0,0,0,.37,1.08,1.3,1.3,0,0,0,1.93,0,1.65,1.65,0,0,0,.36-1.11v-.51a1.65,1.65,0,0,0-.37-1.09,1.2,1.2,0,0,0-1-.42,1.23,1.23,0,0,0-1,.42,1.69,1.69,0,0,0-.37,1.13Zm1.61,6.91-.53-.34,5-8,.53.34Zm2.88-1.67a2.12,2.12,0,0,1,.57-1.52,1.89,1.89,0,0,1,1.43-.6,1.94,1.94,0,0,1,1.45.6,2.18,2.18,0,0,1,.57,1.57v.5a2.12,2.12,0,0,1-.57,1.52,1.86,1.86,0,0,1-1.43.6,1.9,1.9,0,0,1-1.44-.6,2.14,2.14,0,0,1-.58-1.56Zm.68.55a1.65,1.65,0,0,0,.36,1.09,1.23,1.23,0,0,0,1,.42,1.18,1.18,0,0,0,1-.43,1.67,1.67,0,0,0,.36-1.12v-.51a1.58,1.58,0,0,0-.37-1.1,1.33,1.33,0,0,0-1.93,0,1.65,1.65,0,0,0-.36,1.11Z"/><path class="cls-7" d="M505.08,93.24H506a3,3,0,0,0,1.27-.25,2,2,0,0,0,.83-.71,1.87,1.87,0,0,0,.28-1,2.1,2.1,0,0,0-.55-1.55,2.19,2.19,0,0,0-1.61-.56,2.28,2.28,0,0,0-1.61.59,2,2,0,0,0-.64,1.53h-.84a2.73,2.73,0,0,1,1.51-2.48,3.49,3.49,0,0,1,1.58-.36,3.08,3.08,0,0,1,2.21.77,2.73,2.73,0,0,1,.8,2.08,2.25,2.25,0,0,1-.47,1.37,2.7,2.7,0,0,1-1.29.93,2.65,2.65,0,0,1,1.46.93,2.47,2.47,0,0,1,.49,1.55,2.76,2.76,0,0,1-.86,2.12,3.21,3.21,0,0,1-2.3.81,3.76,3.76,0,0,1-1.68-.37,2.72,2.72,0,0,1-1.61-2.56h.85a2.08,2.08,0,0,0,.68,1.6,2.54,2.54,0,0,0,1.76.62,2.42,2.42,0,0,0,1.7-.56,2.11,2.11,0,0,0,.61-1.63,1.91,1.91,0,0,0-.66-1.57,2.93,2.93,0,0,0-1.94-.55h-.85Z"/><path class="cls-7" d="M514,94.66h-3.38V94H514Z"/><path class="cls-7" d="M515.92,93.57l.5-5h5.14v.78h-4.41l-.36,3.47a3.3,3.3,0,0,1,1.93-.57,2.87,2.87,0,0,1,2.22.91,3.41,3.41,0,0,1,.82,2.4,3.65,3.65,0,0,1-.8,2.52,2.89,2.89,0,0,1-2.27.9,3.11,3.11,0,0,1-2.17-.75,3,3,0,0,1-.95-2.1h.81a2.47,2.47,0,0,0,.71,1.6,2.3,2.3,0,0,0,1.6.54,2,2,0,0,0,1.66-.7,3.08,3.08,0,0,0,.56-2,2.66,2.66,0,0,0-.62-1.84,2.16,2.16,0,0,0-1.72-.72,3.2,3.2,0,0,0-1,.16,2.79,2.79,0,0,0-.94.58Z"/><path class="cls-7" d="M526.66,95a4.57,4.57,0,0,1,.8-2.83,2.56,2.56,0,0,1,2.15-1.06A2.67,2.67,0,0,1,532,92.28V88h.84V98.84H532l0-1A2.72,2.72,0,0,1,529.6,99a2.57,2.57,0,0,1-2.13-1.06,4.63,4.63,0,0,1-.81-2.87Zm.86.15a4,4,0,0,0,.58,2.3,1.89,1.89,0,0,0,1.65.84A2.27,2.27,0,0,0,532,96.87V93.29a2.25,2.25,0,0,0-2.2-1.49,1.93,1.93,0,0,0-1.66.83A4.23,4.23,0,0,0,527.52,95.1Z"/><path class="cls-7" d="M539.85,98.84a3.71,3.71,0,0,1-.16-1.07,2.86,2.86,0,0,1-1.14.89,3.45,3.45,0,0,1-1.45.32,2.54,2.54,0,0,1-1.78-.62,2,2,0,0,1-.69-1.55,2,2,0,0,1,.93-1.76,4.49,4.49,0,0,1,2.59-.65h1.53v-.87a1.69,1.69,0,0,0-.51-1.29,2.07,2.07,0,0,0-1.47-.46,2.33,2.33,0,0,0-1.46.45,1.34,1.34,0,0,0-.57,1.08h-.85a2,2,0,0,1,.85-1.58,3.26,3.26,0,0,1,2.08-.67,3,3,0,0,1,2,.64,2.32,2.32,0,0,1,.76,1.78v3.61a4.59,4.59,0,0,0,.23,1.66v.09Zm-2.65-.61a2.87,2.87,0,0,0,1.51-.41,2.43,2.43,0,0,0,1-1.09V95.05h-1.51a3.81,3.81,0,0,0-2,.46,1.4,1.4,0,0,0-.71,1.23,1.38,1.38,0,0,0,.48,1.07A1.79,1.79,0,0,0,537.2,98.23Z"/><path class="cls-7" d="M545.09,97.62l2.23-6.42h.91L545,100.13l-.17.4a2.05,2.05,0,0,1-1.94,1.39,2.24,2.24,0,0,1-.65-.1v-.7l.44,0a1.57,1.57,0,0,0,1-.31,2.36,2.36,0,0,0,.66-1.06l.37-1-2.88-7.57h.93Z"/><path class="cls-7" d="M554.1,96.9a1.21,1.21,0,0,0-.5-1,4,4,0,0,0-1.52-.6,7.09,7.09,0,0,1-1.58-.49,2.13,2.13,0,0,1-.83-.68,1.71,1.71,0,0,1-.27-1,1.82,1.82,0,0,1,.75-1.49,3.55,3.55,0,0,1,4,0,2,2,0,0,1,.78,1.65h-.85a1.36,1.36,0,0,0-.56-1.11,2.19,2.19,0,0,0-1.41-.45,2.24,2.24,0,0,0-1.34.37,1.15,1.15,0,0,0-.51,1,1,1,0,0,0,.42.88,4.54,4.54,0,0,0,1.53.58,7.51,7.51,0,0,1,1.67.55,2.17,2.17,0,0,1,.82.72,1.78,1.78,0,0,1,.27,1,1.84,1.84,0,0,1-.78,1.55,3.31,3.31,0,0,1-2,.58,3.43,3.43,0,0,1-2.16-.65,2,2,0,0,1-.83-1.63H550a1.46,1.46,0,0,0,.62,1.15,2.53,2.53,0,0,0,1.52.42,2.4,2.4,0,0,0,1.43-.39A1.17,1.17,0,0,0,554.1,96.9Z"/><path class="cls-7" d="M526.71,105.83v.73h-.1a3.88,3.88,0,0,0-2.9,1.08,4.61,4.61,0,0,0-1.17,3,2.81,2.81,0,0,1,1.08-.91,3.37,3.37,0,0,1,1.47-.32,2.69,2.69,0,0,1,2.15.93,3.62,3.62,0,0,1,.8,2.45,4.25,4.25,0,0,1-.37,1.81,3,3,0,0,1-1.07,1.25,2.89,2.89,0,0,1-1.6.44,3,3,0,0,1-2.4-1.06,4.13,4.13,0,0,1-.92-2.77v-.84a6.49,6.49,0,0,1,1.26-4.27,4.4,4.4,0,0,1,3.56-1.54ZM525,110.16a2.62,2.62,0,0,0-1.5.48,2.27,2.27,0,0,0-.92,1.21v.72a3.32,3.32,0,0,0,.68,2.18,2.22,2.22,0,0,0,1.79.85,2,2,0,0,0,1.6-.79,3.09,3.09,0,0,0,.61-2,2.89,2.89,0,0,0-.61-1.94A2,2,0,0,0,525,110.16Z"/><path class="cls-7" d="M529.54,107.88a2.12,2.12,0,0,1,.57-1.52,2,2,0,0,1,2.88,0,2.17,2.17,0,0,1,.57,1.56v.5a2.15,2.15,0,0,1-.56,1.51,1.89,1.89,0,0,1-1.44.6,1.93,1.93,0,0,1-1.44-.59,2.14,2.14,0,0,1-.58-1.57Zm.68.54a1.56,1.56,0,0,0,.37,1.08,1.32,1.32,0,0,0,1.93,0,1.68,1.68,0,0,0,.36-1.11v-.52a1.63,1.63,0,0,0-.37-1.08,1.29,1.29,0,0,0-1.92,0,1.69,1.69,0,0,0-.37,1.13Zm1.61,6.9-.53-.34,5-8,.53.34Zm2.88-1.66a2.11,2.11,0,0,1,.57-1.52,1.88,1.88,0,0,1,1.43-.6,2,2,0,0,1,1.45.59,2.2,2.2,0,0,1,.57,1.58v.5a2.1,2.1,0,0,1-.57,1.51,1.88,1.88,0,0,1-1.43.6,2,2,0,0,1-1.45-.59,2.17,2.17,0,0,1-.57-1.56Zm.68.54a1.61,1.61,0,0,0,.36,1.09,1.23,1.23,0,0,0,1,.42,1.2,1.2,0,0,0,1-.42,1.69,1.69,0,0,0,.36-1.12v-.52a1.6,1.6,0,0,0-.37-1.09,1.2,1.2,0,0,0-1-.41,1.25,1.25,0,0,0-1,.41,1.66,1.66,0,0,0-.36,1.12Z"/><path class="cls-7" d="M431.43,84h.88a3,3,0,0,0,1.27-.26,2,2,0,0,0,.83-.71,1.85,1.85,0,0,0,.28-1,2.08,2.08,0,0,0-.56-1.54,2.12,2.12,0,0,0-1.6-.56,2.28,2.28,0,0,0-1.62.58,2,2,0,0,0-.63,1.54h-.84A2.73,2.73,0,0,1,431,79.51a3.46,3.46,0,0,1,1.58-.36,3,3,0,0,1,2.2.76,2.74,2.74,0,0,1,.81,2.09,2.22,2.22,0,0,1-.47,1.36,2.84,2.84,0,0,1-1.29.94,2.58,2.58,0,0,1,1.45.92,2.49,2.49,0,0,1,.5,1.56,2.79,2.79,0,0,1-.86,2.12,3.27,3.27,0,0,1-2.3.8,3.9,3.9,0,0,1-1.68-.36,2.72,2.72,0,0,1-1.61-2.56h.85a2,2,0,0,0,.68,1.59,2.54,2.54,0,0,0,1.76.62,2.44,2.44,0,0,0,1.7-.56,2.09,2.09,0,0,0,.61-1.63,1.92,1.92,0,0,0-.66-1.57,3,3,0,0,0-1.94-.54h-.85Z"/><path class="cls-7" d="M441,84.34h3.13v.79H441v3.4h-.85v-3.4h-3.06v-.79h3.06V81.05H441Z"/><path class="cls-7" d="M450.13,81.93l0,1.24a2.85,2.85,0,0,1,1.06-1,2.88,2.88,0,0,1,1.41-.34,2.13,2.13,0,0,1,2.29,1.48,2.9,2.9,0,0,1,1.1-1.1,3.08,3.08,0,0,1,1.51-.38c1.63,0,2.47.89,2.5,2.68v5.09h-.85v-5a2.26,2.26,0,0,0-.44-1.52,1.82,1.82,0,0,0-1.41-.49,2.27,2.27,0,0,0-1.54.59,2.08,2.08,0,0,0-.7,1.4v5h-.84V84.47a2.11,2.11,0,0,0-.47-1.47,1.84,1.84,0,0,0-1.4-.48A2.12,2.12,0,0,0,451,83a2.62,2.62,0,0,0-.84,1.35v5.23h-.85V81.93Z"/><path class="cls-7" d="M461.7,85.63a4.43,4.43,0,0,1,.43-2,3.22,3.22,0,0,1,3-1.86,3.11,3.11,0,0,1,2.47,1.07,4.1,4.1,0,0,1,.95,2.83v.18a4.61,4.61,0,0,1-.43,2,3.25,3.25,0,0,1-1.2,1.36,3.31,3.31,0,0,1-1.77.48,3.11,3.11,0,0,1-2.47-1.07,4.1,4.1,0,0,1-.95-2.83Zm.85.24a3.4,3.4,0,0,0,.71,2.24,2.4,2.4,0,0,0,3.71,0,3.59,3.59,0,0,0,.71-2.32v-.16a3.85,3.85,0,0,0-.33-1.6,2.54,2.54,0,0,0-.91-1.12,2.3,2.3,0,0,0-1.34-.4,2.26,2.26,0,0,0-1.84.88,3.61,3.61,0,0,0-.71,2.32Z"/><path class="cls-7" d="M471.06,81.93l0,1.3a3.13,3.13,0,0,1,1.07-1.07,2.76,2.76,0,0,1,1.42-.37,2.3,2.3,0,0,1,1.83.69,3.08,3.08,0,0,1,.6,2.07v5h-.83v-5a2.35,2.35,0,0,0-.44-1.53,1.7,1.7,0,0,0-1.36-.5A2.11,2.11,0,0,0,472,83a2.9,2.9,0,0,0-.89,1.32v5.23h-.84V81.93Z"/><path class="cls-7" d="M479.51,80v2h1.58v.69h-1.58v5.09a1.55,1.55,0,0,0,.23,1,.86.86,0,0,0,.76.31,4.88,4.88,0,0,0,.69-.07l0,.68a2.71,2.71,0,0,1-.9.12,1.51,1.51,0,0,1-1.26-.5,2.34,2.34,0,0,1-.4-1.49V82.62h-1.4v-.69h1.4V80Z"/><path class="cls-7" d="M483.68,83.22a2.91,2.91,0,0,1,1.06-1.06,2.79,2.79,0,0,1,1.42-.37,2.3,2.3,0,0,1,1.83.69,3.08,3.08,0,0,1,.6,2.07v5h-.84v-5a2.35,2.35,0,0,0-.43-1.53,1.71,1.71,0,0,0-1.37-.5,2.1,2.1,0,0,0-1.38.49,2.9,2.9,0,0,0-.89,1.32v5.23h-.84V78.73h.84Z"/><path class="cls-7" d="M495.34,87.62a1.21,1.21,0,0,0-.51-1,3.84,3.84,0,0,0-1.52-.59,6.92,6.92,0,0,1-1.57-.5,2.08,2.08,0,0,1-.84-.68,1.7,1.7,0,0,1-.27-1,1.8,1.8,0,0,1,.76-1.49,3,3,0,0,1,1.93-.59,3.16,3.16,0,0,1,2.05.63,2,2,0,0,1,.77,1.65h-.84a1.37,1.37,0,0,0-.57-1.12,2.22,2.22,0,0,0-1.41-.44,2.19,2.19,0,0,0-1.34.37,1.15,1.15,0,0,0-.5,1,1.05,1.05,0,0,0,.42.89,4.36,4.36,0,0,0,1.53.57,6.85,6.85,0,0,1,1.66.56,2.18,2.18,0,0,1,.83.71,1.9,1.9,0,0,1,.26,1,1.82,1.82,0,0,1-.78,1.54,3.28,3.28,0,0,1-2,.58,3.41,3.41,0,0,1-2.16-.64,2,2,0,0,1-.83-1.64h.84a1.51,1.51,0,0,0,.63,1.16,2.58,2.58,0,0,0,1.52.41,2.36,2.36,0,0,0,1.42-.39A1.15,1.15,0,0,0,495.34,87.62Z"/><path class="cls-7" d="M461,106.9h-6.43v-.65l3.52-4a9.23,9.23,0,0,0,1.21-1.67,2.72,2.72,0,0,0,.34-1.27,2.1,2.1,0,0,0-.57-1.55,2.15,2.15,0,0,0-1.57-.56,2.24,2.24,0,0,0-1.68.66,2.39,2.39,0,0,0-.64,1.72h-.84a3.15,3.15,0,0,1,.4-1.58,2.85,2.85,0,0,1,1.11-1.12,3.3,3.3,0,0,1,1.65-.4,3.07,3.07,0,0,1,2.2.74,2.61,2.61,0,0,1,.8,2,3.44,3.44,0,0,1-.45,1.58,11.85,11.85,0,0,1-1.58,2.13l-2.86,3.24H461Z"/><path class="cls-7" d="M462.33,98.6a2.12,2.12,0,0,1,.57-1.52,2,2,0,0,1,2.88,0,2.17,2.17,0,0,1,.57,1.56v.51a2.13,2.13,0,0,1-.56,1.5,1.87,1.87,0,0,1-1.44.6,1.91,1.91,0,0,1-1.44-.59,2.11,2.11,0,0,1-.58-1.56Zm.68.54a1.56,1.56,0,0,0,.37,1.08,1.3,1.3,0,0,0,1.93,0,1.65,1.65,0,0,0,.36-1.11V98.6a1.65,1.65,0,0,0-.37-1.09,1.21,1.21,0,0,0-1-.42,1.23,1.23,0,0,0-1,.42,1.69,1.69,0,0,0-.37,1.13Zm1.61,6.9-.53-.33,5-8,.53.34Zm2.88-1.66a2.12,2.12,0,0,1,.57-1.52,1.88,1.88,0,0,1,1.43-.6,1.94,1.94,0,0,1,1.45.6,2.18,2.18,0,0,1,.57,1.57v.5a2.12,2.12,0,0,1-.57,1.52,1.86,1.86,0,0,1-1.43.6,1.9,1.9,0,0,1-1.44-.6,2.14,2.14,0,0,1-.58-1.56Zm.68.55a1.65,1.65,0,0,0,.36,1.09,1.23,1.23,0,0,0,1,.42,1.18,1.18,0,0,0,1-.43,1.67,1.67,0,0,0,.36-1.12v-.51a1.58,1.58,0,0,0-.37-1.1,1.33,1.33,0,0,0-1.93,0,1.65,1.65,0,0,0-.36,1.11Z"/><g class="cls-13"><polygon class="cls-4" points="828.26 239.17 828.26 109.07 939.13 126.5 937.34 179.71 828.26 239.17"/><polygon class="cls-3" points="828.26 239.17 937.34 179.71 989.65 204.3 989.65 295.95 954 345.58 854.63 391.18 733.03 366.71 730.79 319.64 828.26 239.17"/><path class="cls-14" d="M730.34,319.2l97.92-80V109.07L721.85,112.2l-45.6,27.72s-23.7,93-23.25,95.23,30.4,58.12,30.4,58.12l28.17,25.93Z"/></g><path class="cls-6" d="M760.73,210.82h-.88l-6-8.89v8.89H753V200.43h.88l6,8.9v-8.9h.87Z"/><path class="cls-6" d="M762.7,206.85a4.53,4.53,0,0,1,.43-2,3.37,3.37,0,0,1,1.22-1.39,3.3,3.3,0,0,1,1.79-.49,3.18,3.18,0,0,1,2.5,1.08,4.18,4.18,0,0,1,1,2.86v.18a4.57,4.57,0,0,1-.43,2,3.28,3.28,0,0,1-1.22,1.38,3.35,3.35,0,0,1-1.79.48,3.18,3.18,0,0,1-2.49-1.08,4.14,4.14,0,0,1-1-2.86Zm.86.23a3.54,3.54,0,0,0,.71,2.27,2.43,2.43,0,0,0,3.76,0,3.65,3.65,0,0,0,.71-2.34v-.16a3.91,3.91,0,0,0-.33-1.62,2.55,2.55,0,0,0-.92-1.14,2.31,2.31,0,0,0-1.35-.4,2.26,2.26,0,0,0-1.86.89,3.63,3.63,0,0,0-.72,2.34Z"/><path class="cls-6" d="M750.28,222.69h.89a2.9,2.9,0,0,0,1.28-.26,2,2,0,0,0,.84-.71,1.92,1.92,0,0,0,.29-1.05,2.11,2.11,0,0,0-.57-1.56,2.2,2.2,0,0,0-1.62-.56,2.31,2.31,0,0,0-1.63.59,2,2,0,0,0-.64,1.55h-.86a2.76,2.76,0,0,1,.41-1.47,2.63,2.63,0,0,1,1.13-1,3.39,3.39,0,0,1,1.59-.37,3.11,3.11,0,0,1,2.23.77,2.79,2.79,0,0,1,.81,2.11,2.28,2.28,0,0,1-.47,1.38,2.89,2.89,0,0,1-1.3.95,2.72,2.72,0,0,1,1.47.93,2.53,2.53,0,0,1,.49,1.57,2.77,2.77,0,0,1-.87,2.15,3.26,3.26,0,0,1-2.32.81,3.82,3.82,0,0,1-1.7-.37,2.72,2.72,0,0,1-1.2-1,2.84,2.84,0,0,1-.43-1.55H749a2.09,2.09,0,0,0,.69,1.62,2.59,2.59,0,0,0,1.78.62,2.47,2.47,0,0,0,1.72-.56,2.14,2.14,0,0,0,.62-1.65,1.94,1.94,0,0,0-.67-1.59,3,3,0,0,0-2-.55h-.86Z"/><path class="cls-6" d="M761.52,217.89v.74h-.1a3.92,3.92,0,0,0-2.94,1.09,4.64,4.64,0,0,0-1.18,3.05,2.91,2.91,0,0,1,1.09-.91,3.3,3.3,0,0,1,1.49-.33,2.71,2.71,0,0,1,2.17.95,3.66,3.66,0,0,1,.81,2.47,4.29,4.29,0,0,1-.37,1.82,2.88,2.88,0,0,1-2.7,1.72,3.08,3.08,0,0,1-2.43-1.08,4.12,4.12,0,0,1-.93-2.79v-.86a6.57,6.57,0,0,1,1.27-4.32,4.47,4.47,0,0,1,3.6-1.55Zm-1.78,4.38a2.66,2.66,0,0,0-1.52.48,2.25,2.25,0,0,0-.93,1.23v.72a3.41,3.41,0,0,0,.69,2.21,2.23,2.23,0,0,0,1.81.86,2,2,0,0,0,1.62-.8,3.13,3.13,0,0,0,.61-2,3,3,0,0,0-.61-2A2.09,2.09,0,0,0,759.74,222.27Z"/><path class="cls-6" d="M764.38,220a2.17,2.17,0,0,1,.57-1.54,2.05,2.05,0,0,1,2.92,0,2.24,2.24,0,0,1,.57,1.58v.51a2.16,2.16,0,0,1-.56,1.52,1.9,1.9,0,0,1-1.46.61A2,2,0,0,1,765,222a2.14,2.14,0,0,1-.58-1.58Zm.69.55a1.58,1.58,0,0,0,.37,1.09,1.21,1.21,0,0,0,1,.43,1.19,1.19,0,0,0,1-.43,1.69,1.69,0,0,0,.36-1.12V220a1.61,1.61,0,0,0-.37-1.1,1.31,1.31,0,0,0-1.94,0,1.65,1.65,0,0,0-.37,1.14Zm1.62,7-.53-.35,5.07-8.11.54.34Zm2.91-1.69a2.16,2.16,0,0,1,.58-1.53,1.93,1.93,0,0,1,1.45-.61,2,2,0,0,1,1.46.61,2.17,2.17,0,0,1,.58,1.58v.51a2.13,2.13,0,0,1-.57,1.53,2.05,2.05,0,0,1-2.91,0,2.18,2.18,0,0,1-.59-1.58Zm.69.56a1.61,1.61,0,0,0,.37,1.1,1.24,1.24,0,0,0,1,.43,1.21,1.21,0,0,0,1-.44,1.68,1.68,0,0,0,.36-1.13v-.52a1.56,1.56,0,0,0-.37-1.1,1.34,1.34,0,0,0-2,0,1.64,1.64,0,0,0-.37,1.13Z"/><path class="cls-6" d="M858.09,160.91l3.18-5.66h1l-3.75,6.47v3.91h-.88v-3.91l-3.74-6.47h1Z"/><path class="cls-6" d="M866.13,165.77a3.37,3.37,0,0,1-1.78-.48,3.31,3.31,0,0,1-1.24-1.35,4.3,4.3,0,0,1-.44-1.95v-.3a4.56,4.56,0,0,1,.43-2,3.5,3.5,0,0,1,1.2-1.4,3,3,0,0,1,1.67-.51,2.78,2.78,0,0,1,2.23,1,3.88,3.88,0,0,1,.82,2.62v.48h-5.5V162a3.23,3.23,0,0,0,.75,2.19,2.39,2.39,0,0,0,1.89.87,2.58,2.58,0,0,0,2.17-1l.53.4A3.11,3.11,0,0,1,866.13,165.77ZM866,158.5a2.13,2.13,0,0,0-1.62.7,3.27,3.27,0,0,0-.8,1.9h4.62V161a2.79,2.79,0,0,0-.63-1.81A2,2,0,0,0,866,158.5Z"/><path class="cls-6" d="M875.31,163.67a1.22,1.22,0,0,0-.51-1,3.8,3.8,0,0,0-1.54-.6,7.14,7.14,0,0,1-1.59-.5,2.11,2.11,0,0,1-.84-.69,1.66,1.66,0,0,1-.28-1,1.85,1.85,0,0,1,.76-1.51,3.07,3.07,0,0,1,2-.6,3.14,3.14,0,0,1,2.07.64,2,2,0,0,1,.78,1.67h-.85a1.37,1.37,0,0,0-.57-1.13,2.57,2.57,0,0,0-2.78-.08,1.17,1.17,0,0,0-.51,1,1.05,1.05,0,0,0,.42.89,4.39,4.39,0,0,0,1.55.58,7.3,7.3,0,0,1,1.68.57,2.13,2.13,0,0,1,.83.72,1.77,1.77,0,0,1,.28,1,1.86,1.86,0,0,1-.79,1.56,3.37,3.37,0,0,1-2.06.58,3.44,3.44,0,0,1-2.19-.65,2,2,0,0,1-.84-1.65h.86a1.48,1.48,0,0,0,.63,1.17,2.58,2.58,0,0,0,1.54.41,2.45,2.45,0,0,0,1.44-.39A1.16,1.16,0,0,0,875.31,163.67Z"/><path class="cls-6" d="M856.92,183.16h-.86V173.8l-2.82,1v-.8l3.53-1.31h.15Z"/><path class="cls-6" d="M867.44,173.27,863,183.16h-.89l4.41-9.66h-5.91v-.72h6.83Z"/><path class="cls-6" d="M868.94,174.78a2.16,2.16,0,0,1,.57-1.54,2.05,2.05,0,0,1,2.92,0,2.2,2.2,0,0,1,.57,1.58v.5a2.2,2.2,0,0,1-.56,1.53,1.94,1.94,0,0,1-1.46.61,2,2,0,0,1-1.46-.6,2.18,2.18,0,0,1-.58-1.59Zm.69.54a1.63,1.63,0,0,0,.37,1.1,1.23,1.23,0,0,0,1,.42,1.19,1.19,0,0,0,1-.43,1.69,1.69,0,0,0,.36-1.12v-.52a1.63,1.63,0,0,0-.37-1.1,1.24,1.24,0,0,0-1-.43,1.23,1.23,0,0,0-1,.43,1.68,1.68,0,0,0-.37,1.14Zm1.62,7-.53-.34,5.07-8.12.54.34Zm2.92-1.68a2.17,2.17,0,0,1,.57-1.54,1.92,1.92,0,0,1,1.45-.6,2,2,0,0,1,1.46.6,2.18,2.18,0,0,1,.58,1.59v.5a2.17,2.17,0,0,1-.57,1.54,2.06,2.06,0,0,1-2.91,0,2.14,2.14,0,0,1-.58-1.57Zm.68.55a1.59,1.59,0,0,0,.37,1.1,1.21,1.21,0,0,0,1,.43,1.2,1.2,0,0,0,1-.43,1.73,1.73,0,0,0,.36-1.14v-.52a1.59,1.59,0,0,0-.37-1.1,1.34,1.34,0,0,0-1.95,0,1.64,1.64,0,0,0-.37,1.13Z"/><path class="cls-6" d="M823.57,287.46l3.17-5.67h1L824,288.27v3.91h-.87v-3.91l-3.75-6.48h1Z"/><path class="cls-6" d="M831.61,292.32a3.3,3.3,0,0,1-3-1.83,4.18,4.18,0,0,1-.44-1.95v-.31a4.51,4.51,0,0,1,.43-2,3.5,3.5,0,0,1,1.2-1.4,3,3,0,0,1,1.67-.51,2.78,2.78,0,0,1,2.23,1,3.88,3.88,0,0,1,.82,2.62v.48H829v.16a3.23,3.23,0,0,0,.75,2.19,2.39,2.39,0,0,0,1.89.87,2.73,2.73,0,0,0,1.21-.25,2.53,2.53,0,0,0,.95-.8l.54.41A3.11,3.11,0,0,1,831.61,292.32Zm-.16-7.27a2.13,2.13,0,0,0-1.62.7,3.32,3.32,0,0,0-.81,1.9h4.63v-.09a2.79,2.79,0,0,0-.63-1.81A2,2,0,0,0,831.45,285.05Z"/><path class="cls-6" d="M840.79,290.22a1.21,1.21,0,0,0-.51-1,4,4,0,0,0-1.54-.61,6.87,6.87,0,0,1-1.59-.49,2.22,2.22,0,0,1-.85-.69,1.74,1.74,0,0,1-.27-1,1.83,1.83,0,0,1,.76-1.51,3.61,3.61,0,0,1,4,0,2,2,0,0,1,.78,1.66h-.86a1.37,1.37,0,0,0-.56-1.12,2.58,2.58,0,0,0-2.79-.08,1.16,1.16,0,0,0-.51,1,1.07,1.07,0,0,0,.43.9,4.39,4.39,0,0,0,1.55.58,7.37,7.37,0,0,1,1.68.56,2.22,2.22,0,0,1,.83.73,2,2,0,0,1-.52,2.58,3.34,3.34,0,0,1-2.05.58,3.5,3.5,0,0,1-2.19-.65,2,2,0,0,1-.84-1.65h.86a1.44,1.44,0,0,0,.63,1.16,2.58,2.58,0,0,0,1.54.42,2.45,2.45,0,0,0,1.44-.39A1.19,1.19,0,0,0,840.79,290.22Z"/><path class="cls-6" d="M843.38,294.12l-.5-.37a3.16,3.16,0,0,0,.67-1.81v-1.1h.83v.89A3.05,3.05,0,0,1,843.38,294.12Z"/><path class="cls-6" d="M854.53,290.22a1.21,1.21,0,0,0-.51-1,4,4,0,0,0-1.53-.61,7.14,7.14,0,0,1-1.6-.49,2.11,2.11,0,0,1-.84-.69,1.75,1.75,0,0,1-.28-1,1.84,1.84,0,0,1,.77-1.51,3.12,3.12,0,0,1,2-.59,3.19,3.19,0,0,1,2.08.64,2,2,0,0,1,.78,1.66h-.86a1.36,1.36,0,0,0-.57-1.12,2.57,2.57,0,0,0-2.78-.08,1.16,1.16,0,0,0-.51,1,1,1,0,0,0,.43.9,4.32,4.32,0,0,0,1.54.58,7.67,7.67,0,0,1,1.69.56,2.22,2.22,0,0,1,.83.73,2,2,0,0,1-.52,2.58,3.35,3.35,0,0,1-2.06.58,3.47,3.47,0,0,1-2.18-.65,2,2,0,0,1-.84-1.65h.85a1.5,1.5,0,0,0,.63,1.16,2.6,2.6,0,0,0,1.54.42,2.41,2.41,0,0,0,1.44-.39A1.16,1.16,0,0,0,854.53,290.22Z"/><path class="cls-6" d="M856.84,288.21a4.53,4.53,0,0,1,.43-2,3.22,3.22,0,0,1,3-1.88,3.18,3.18,0,0,1,2.49,1.08,4.14,4.14,0,0,1,1,2.86v.18a4.71,4.71,0,0,1-.43,2,3.2,3.2,0,0,1-3,1.86,3.18,3.18,0,0,1-2.49-1.08,4.14,4.14,0,0,1-1-2.86Zm.85.23a3.49,3.49,0,0,0,.72,2.27,2.42,2.42,0,0,0,3.75,0,3.59,3.59,0,0,0,.72-2.34v-.16a3.91,3.91,0,0,0-.33-1.62,2.62,2.62,0,0,0-.92-1.14,2.33,2.33,0,0,0-1.35-.4,2.27,2.27,0,0,0-1.87.89,3.64,3.64,0,0,0-.72,2.35Z"/><path class="cls-6" d="M866.27,284.46l0,1.26a2.76,2.76,0,0,1,1.07-1.05,2.93,2.93,0,0,1,1.42-.35,2.17,2.17,0,0,1,2.32,1.5,2.89,2.89,0,0,1,1.11-1.11,3,3,0,0,1,1.52-.39c1.66,0,2.5.9,2.54,2.71v5.15h-.86v-5.09a2.22,2.22,0,0,0-.45-1.53,1.82,1.82,0,0,0-1.43-.5,2.26,2.26,0,0,0-1.55.6,2.12,2.12,0,0,0-.71,1.41v5.11h-.85V287a2.13,2.13,0,0,0-.47-1.48,1.85,1.85,0,0,0-1.42-.49,2.11,2.11,0,0,0-1.38.46,2.7,2.7,0,0,0-.86,1.37v5.29h-.85v-7.72Z"/><path class="cls-6" d="M881.43,292.32a3.3,3.3,0,0,1-3-1.83,4.18,4.18,0,0,1-.44-1.95v-.31a4.51,4.51,0,0,1,.43-2,3.5,3.5,0,0,1,1.2-1.4,3,3,0,0,1,1.67-.51,2.78,2.78,0,0,1,2.23,1,3.88,3.88,0,0,1,.82,2.62v.48h-5.5v.16a3.23,3.23,0,0,0,.75,2.19,2.39,2.39,0,0,0,1.89.87,2.73,2.73,0,0,0,1.21-.25,2.53,2.53,0,0,0,1-.8l.54.41A3.11,3.11,0,0,1,881.43,292.32Zm-.16-7.27a2.13,2.13,0,0,0-1.62.7,3.32,3.32,0,0,0-.81,1.9h4.63v-.09a2.79,2.79,0,0,0-.63-1.81A2,2,0,0,0,881.27,285.05Z"/><path class="cls-6" d="M887.83,290.4l.13.67.17-.7,1.86-5.91h.72l1.84,5.86.2.81.16-.75,1.59-5.92h.88l-2.25,7.72h-.72l-2-6.12-.09-.42-.09.43-2,6.11h-.73l-2.24-7.72h.88Z"/><path class="cls-6" d="M897.85,285.77a3,3,0,0,1,1.07-1.07,2.77,2.77,0,0,1,1.44-.38,2.31,2.31,0,0,1,1.85.7,3.13,3.13,0,0,1,.61,2.1v5.06H902v-5.07a2.3,2.3,0,0,0-.44-1.54,1.72,1.72,0,0,0-1.38-.51,2.16,2.16,0,0,0-1.4.5,2.82,2.82,0,0,0-.9,1.33v5.29H897v-11h.85Z"/><path class="cls-6" d="M909.89,292.18a4,4,0,0,1-.17-1.08,3,3,0,0,1-1.14.9,3.36,3.36,0,0,1-1.47.32,2.53,2.53,0,0,1-1.8-.62,2,2,0,0,1-.69-1.57,2.06,2.06,0,0,1,.94-1.78,4.46,4.46,0,0,1,2.61-.66h1.55v-.87a1.7,1.7,0,0,0-.51-1.31,2.15,2.15,0,0,0-1.49-.47,2.31,2.31,0,0,0-1.48.46,1.34,1.34,0,0,0-.58,1.09h-.86a2,2,0,0,1,.86-1.6,3.28,3.28,0,0,1,2.1-.67,3,3,0,0,1,2,.64,2.35,2.35,0,0,1,.77,1.81v3.65a4.68,4.68,0,0,0,.23,1.67v.09Zm-2.68-.61a2.84,2.84,0,0,0,1.53-.42,2.42,2.42,0,0,0,1-1.1v-1.7h-1.53a3.76,3.76,0,0,0-2,.47,1.44,1.44,0,0,0-.24,2.32A1.87,1.87,0,0,0,907.21,291.57Z"/><path class="cls-6" d="M914.17,282.49v2h1.6v.7h-1.6v5.15a1.66,1.66,0,0,0,.23,1,.9.9,0,0,0,.77.31,4.86,4.86,0,0,0,.7-.07l0,.69a2.78,2.78,0,0,1-.91.12,1.54,1.54,0,0,1-1.28-.51,2.44,2.44,0,0,1-.4-1.5v-5.15h-1.42v-.7h1.42v-2Z"/><path class="cls-6" d="M860.73,306.37h1.62v.72h-1.62v2.62h-.86v-2.62H855v-.49l4.8-7.28h.94Zm-4.7,0h3.84v-5.94l-.38.66Z"/><path class="cls-6" d="M870,299.82l-4.44,9.89h-.89l4.41-9.66h-5.91v-.73H870Z"/><path class="cls-6" d="M871.48,301.32a2.17,2.17,0,0,1,.57-1.54,2.05,2.05,0,0,1,2.92,0,2.24,2.24,0,0,1,.58,1.58v.51a2.12,2.12,0,0,1-.57,1.52,1.88,1.88,0,0,1-1.45.61,2,2,0,0,1-1.47-.59,2.18,2.18,0,0,1-.58-1.59Zm.69.55a1.58,1.58,0,0,0,.37,1.09,1.21,1.21,0,0,0,1,.43,1.18,1.18,0,0,0,1-.43,1.69,1.69,0,0,0,.36-1.12v-.52a1.63,1.63,0,0,0-.37-1.1,1.3,1.3,0,0,0-1.93,0,1.65,1.65,0,0,0-.38,1.14Zm1.63,7-.54-.35,5.07-8.11.54.34Zm2.91-1.69a2.16,2.16,0,0,1,.57-1.53,2,2,0,0,1,2.91,0,2.17,2.17,0,0,1,.58,1.58v.51a2.13,2.13,0,0,1-.57,1.53,1.9,1.9,0,0,1-1.45.61,2,2,0,0,1-1.46-.6,2.17,2.17,0,0,1-.58-1.58Zm.68.56a1.61,1.61,0,0,0,.37,1.1,1.24,1.24,0,0,0,1,.43,1.19,1.19,0,0,0,1-.44,1.68,1.68,0,0,0,.36-1.13v-.52a1.56,1.56,0,0,0-.37-1.1,1.34,1.34,0,0,0-2,0,1.69,1.69,0,0,0-.37,1.13Z"/><path class="cls-15" d="M13.38,17.53H12V10H3.11v7.5H1.78V1.89H3.11v7H12v-7h1.34Z"/><path class="cls-15" d="M16.34,11.55a6.87,6.87,0,0,1,.65-3,4.9,4.9,0,0,1,4.53-2.84,4.8,4.8,0,0,1,3.76,1.63,6.27,6.27,0,0,1,1.44,4.31v.27a7,7,0,0,1-.65,3A5,5,0,0,1,24.24,17a5.1,5.1,0,0,1-2.7.73,4.79,4.79,0,0,1-3.75-1.63,6.23,6.23,0,0,1-1.45-4.31Zm1.29.35a5.26,5.26,0,0,0,1.08,3.42,3.65,3.65,0,0,0,5.65,0,5.43,5.43,0,0,0,1.08-3.53v-.24a5.91,5.91,0,0,0-.5-2.44A3.87,3.87,0,0,0,23.56,7.4a3.53,3.53,0,0,0-2-.61,3.45,3.45,0,0,0-2.81,1.35,5.47,5.47,0,0,0-1.08,3.53Z"/><path class="cls-15" d="M32.15,14.86l.2,1,.25-1.06,2.8-8.89h1.09l2.76,8.82.3,1.22.25-1.13,2.39-8.91h1.33L40.13,17.53H39l-3-9.22-.14-.63-.14.65-2.93,9.2H31.75L28.37,5.91h1.32Z"/><path class="cls-15" d="M52.75,17.53H51.46V1h1.29Z"/><path class="cls-15" d="M55.53,11.55a6.73,6.73,0,0,1,.65-3A4.91,4.91,0,0,1,58,6.44a5,5,0,0,1,2.7-.75,4.82,4.82,0,0,1,3.76,1.63,6.32,6.32,0,0,1,1.44,4.31v.27a6.82,6.82,0,0,1-.66,3A4.83,4.83,0,0,1,63.42,17a5,5,0,0,1-2.69.73A4.82,4.82,0,0,1,57,16.12a6.27,6.27,0,0,1-1.44-4.31Zm1.29.35a5.26,5.26,0,0,0,1.08,3.42,3.65,3.65,0,0,0,5.65,0,5.43,5.43,0,0,0,1.08-3.53v-.24a5.91,5.91,0,0,0-.5-2.44A3.94,3.94,0,0,0,62.75,7.4a3.53,3.53,0,0,0-2-.61A3.45,3.45,0,0,0,57.9,8.14a5.47,5.47,0,0,0-1.08,3.53Z"/><path class="cls-15" d="M69.78,5.91l0,2a4.5,4.5,0,0,1,1.63-1.64,4.2,4.2,0,0,1,2.16-.57A3.47,3.47,0,0,1,76.4,6.75a4.68,4.68,0,0,1,.92,3.15v7.63H76.05V9.89a3.55,3.55,0,0,0-.67-2.32,2.56,2.56,0,0,0-2.07-.76,3.23,3.23,0,0,0-2.11.75,4.27,4.27,0,0,0-1.36,2v8H68.56V5.91Z"/><path class="cls-15" d="M80.13,11.61a7,7,0,0,1,1.21-4.32,3.88,3.88,0,0,1,3.28-1.6,4.05,4.05,0,0,1,3.61,1.89l.06-1.67H89.5V17.29a4.91,4.91,0,0,1-1.26,3.56,4.53,4.53,0,0,1-3.41,1.31,5.16,5.16,0,0,1-2.31-.54,4.45,4.45,0,0,1-1.74-1.45l.72-.77a4.07,4.07,0,0,0,3.25,1.68,3.28,3.28,0,0,0,2.51-1,3.77,3.77,0,0,0,.93-2.63V16a4.16,4.16,0,0,1-3.59,1.72,3.88,3.88,0,0,1-3.25-1.62,7,7,0,0,1-1.22-4.35Zm1.3.23a6,6,0,0,0,.89,3.51,2.88,2.88,0,0,0,2.51,1.28,3.42,3.42,0,0,0,3.36-2.13V9.1A3.65,3.65,0,0,0,86.9,7.4a3.54,3.54,0,0,0-2.05-.59,2.9,2.9,0,0,0-2.52,1.27A6.5,6.5,0,0,0,81.43,11.84Z"/><path class="cls-15" d="M105.53,17.53a5.84,5.84,0,0,1-.24-1.62,4.47,4.47,0,0,1-1.73,1.36,5.28,5.28,0,0,1-2.22.48,3.92,3.92,0,0,1-2.71-.94,3,3,0,0,1-1-2.36A3.13,3.13,0,0,1,99,11.76a6.76,6.76,0,0,1,3.93-1h2.33V9.45a2.55,2.55,0,0,0-.76-2,3.2,3.2,0,0,0-2.24-.71,3.51,3.51,0,0,0-2.23.69,2,2,0,0,0-.88,1.65H97.87a3,3,0,0,1,1.29-2.4,5,5,0,0,1,3.17-1,4.53,4.53,0,0,1,3.07,1,3.46,3.46,0,0,1,1.15,2.71v5.5a6.72,6.72,0,0,0,.36,2.52v.13Zm-4-.92A4.31,4.31,0,0,0,103.8,16a3.63,3.63,0,0,0,1.47-1.66V11.76H103a5.74,5.74,0,0,0-3,.71,2.12,2.12,0,0,0-1.09,1.87A2.09,2.09,0,0,0,99.61,16,2.72,2.72,0,0,0,101.49,16.61Z"/><path class="cls-15" d="M115.35,7a4.79,4.79,0,0,0-.87-.07,3.1,3.1,0,0,0-2,.67,3.69,3.69,0,0,0-1.19,2v8H110V5.91h1.26l0,1.85a3.41,3.41,0,0,1,3.27-2.07,2.18,2.18,0,0,1,.85.14Z"/><path class="cls-15" d="M121.64,17.75A5.11,5.11,0,0,1,119,17a5,5,0,0,1-1.86-2,6.29,6.29,0,0,1-.67-2.93v-.46a6.9,6.9,0,0,1,.65-3,5.19,5.19,0,0,1,1.81-2.11,4.47,4.47,0,0,1,2.51-.77,4.19,4.19,0,0,1,3.36,1.45,5.84,5.84,0,0,1,1.24,4v.72h-8.29v.24a4.91,4.91,0,0,0,1.13,3.3,3.63,3.63,0,0,0,2.85,1.31A3.79,3.79,0,0,0,125,15.08l.8.61A4.68,4.68,0,0,1,121.64,17.75Zm-.24-11A3.21,3.21,0,0,0,119,7.85a4.91,4.91,0,0,0-1.21,2.86h7v-.14a4.23,4.23,0,0,0-1-2.73A3,3,0,0,0,121.4,6.79Z"/><path class="cls-15" d="M137.54,15.68l3.39-9.77h1.39l-5,13.6-.26.6a3.13,3.13,0,0,1-3,2.12,3.6,3.6,0,0,1-1-.15V21l.66.07a2.39,2.39,0,0,0,1.53-.47,3.62,3.62,0,0,0,1-1.61l.57-1.57L132.52,5.91h1.41Z"/><path class="cls-15" d="M143.44,11.55a6.87,6.87,0,0,1,.65-3,5,5,0,0,1,1.84-2.09,4.93,4.93,0,0,1,2.69-.75,4.8,4.8,0,0,1,3.76,1.63,6.27,6.27,0,0,1,1.44,4.31v.27a7,7,0,0,1-.65,3A4.83,4.83,0,0,1,151.34,17a5.1,5.1,0,0,1-2.7.73,4.79,4.79,0,0,1-3.75-1.63,6.23,6.23,0,0,1-1.45-4.31Zm1.29.35a5.26,5.26,0,0,0,1.08,3.42,3.65,3.65,0,0,0,5.65,0,5.43,5.43,0,0,0,1.08-3.53v-.24a5.91,5.91,0,0,0-.49-2.44,3.89,3.89,0,0,0-1.39-1.71,3.48,3.48,0,0,0-2-.61,3.43,3.43,0,0,0-2.8,1.35,5.41,5.41,0,0,0-1.09,3.53Z"/><path class="cls-15" d="M164,16.06a4.19,4.19,0,0,1-3.71,1.69,3.58,3.58,0,0,1-2.82-1.08,4.69,4.69,0,0,1-1-3.2V5.91h1.28v7.4c0,2.21.89,3.32,2.68,3.32a3.3,3.3,0,0,0,3.54-2.31V5.91h1.29V17.53H164Z"/><path class="cls-15" d="M183.25,11.84a7,7,0,0,1-1.2,4.31,3.85,3.85,0,0,1-3.22,1.6,4.29,4.29,0,0,1-3.65-1.68V22H173.9V5.91h1.19l.06,1.64a4.14,4.14,0,0,1,3.65-1.86,3.88,3.88,0,0,1,3.27,1.58,7.2,7.2,0,0,1,1.18,4.39ZM182,11.61a6,6,0,0,0-.91-3.51,3,3,0,0,0-2.54-1.29A3.4,3.4,0,0,0,175.18,9v5.58a3.28,3.28,0,0,0,1.32,1.52,3.73,3.73,0,0,0,2,.53,2.93,2.93,0,0,0,2.53-1.29A6.59,6.59,0,0,0,182,11.61Z"/><path class="cls-15" d="M187.54,17.53h-1.29V1h1.29Z"/><path class="cls-15" d="M198.37,17.53a6.18,6.18,0,0,1-.25-1.62,4.51,4.51,0,0,1-1.72,1.36,5.28,5.28,0,0,1-2.22.48,3.9,3.9,0,0,1-2.71-.94,3,3,0,0,1-1-2.36,3.12,3.12,0,0,1,1.41-2.69,6.79,6.79,0,0,1,3.94-1h2.33V9.45a2.56,2.56,0,0,0-.77-2,3.2,3.2,0,0,0-2.24-.71,3.5,3.5,0,0,0-2.22.69A2,2,0,0,0,192,9.12h-1.29A3,3,0,0,1,192,6.71a4.94,4.94,0,0,1,3.17-1,4.5,4.5,0,0,1,3.06,1,3.46,3.46,0,0,1,1.16,2.71v5.5a7,7,0,0,0,.35,2.52v.13Zm-4-.92a4.25,4.25,0,0,0,2.3-.63,3.65,3.65,0,0,0,1.48-1.66V11.76h-2.3a5.79,5.79,0,0,0-3,.71,2.11,2.11,0,0,0-1.08,1.87,2.08,2.08,0,0,0,.72,1.62A2.76,2.76,0,0,0,194.33,16.61Z"/><path class="cls-15" d="M204,5.91l0,2a4.52,4.52,0,0,1,1.64-1.64,4.2,4.2,0,0,1,2.16-.57,3.47,3.47,0,0,1,2.78,1.06,4.74,4.74,0,0,1,.92,3.15v7.63H210.3V9.89a3.49,3.49,0,0,0-.66-2.32,2.57,2.57,0,0,0-2.08-.76,3.26,3.26,0,0,0-2.11.75,4.41,4.41,0,0,0-1.36,2v8h-1.27V5.91Z"/><path class="cls-15" d="M216.13,5.91l0,2a4.5,4.5,0,0,1,1.63-1.64A4.2,4.2,0,0,1,220,5.69a3.45,3.45,0,0,1,2.78,1.06,4.74,4.74,0,0,1,.93,3.15v7.63h-1.28V9.89a3.6,3.6,0,0,0-.66-2.32,2.6,2.6,0,0,0-2.08-.76,3.23,3.23,0,0,0-2.11.75,4.27,4.27,0,0,0-1.36,2v8H214.9V5.91Z"/><path class="cls-15" d="M226.91,2.55a.84.84,0,0,1,.24-.61.81.81,0,0,1,.64-.25.85.85,0,0,1,.65.25.84.84,0,0,1,.24.61.84.84,0,0,1-.24.61.89.89,0,0,1-.65.25.85.85,0,0,1-.64-.25A.84.84,0,0,1,226.91,2.55Zm1.51,15h-1.28V5.91h1.28Z"/><path class="cls-15" d="M233.14,5.91l0,2a4.6,4.6,0,0,1,1.64-1.64A4.2,4.2,0,0,1,237,5.69a3.47,3.47,0,0,1,2.78,1.06,4.74,4.74,0,0,1,.92,3.15v7.63H239.4V9.89a3.49,3.49,0,0,0-.66-2.32,2.57,2.57,0,0,0-2.08-.76,3.26,3.26,0,0,0-2.11.75,4.41,4.41,0,0,0-1.36,2v8h-1.27V5.91Z"/><path class="cls-15" d="M243.49,11.61a7,7,0,0,1,1.2-4.32A3.9,3.9,0,0,1,248,5.69a4.05,4.05,0,0,1,3.61,1.89l.06-1.67h1.2V17.29a5,5,0,0,1-1.25,3.56,4.53,4.53,0,0,1-3.41,1.31,5.16,5.16,0,0,1-2.31-.54,4.38,4.38,0,0,1-1.74-1.45l.72-.77a4.07,4.07,0,0,0,3.24,1.68,3.29,3.29,0,0,0,2.52-1,3.77,3.77,0,0,0,.93-2.63V16a4.16,4.16,0,0,1-3.6,1.72,3.87,3.87,0,0,1-3.24-1.62,7,7,0,0,1-1.22-4.35Zm1.3.23a6,6,0,0,0,.89,3.51,2.88,2.88,0,0,0,2.51,1.28,3.44,3.44,0,0,0,3.36-2.13V9.1a3.6,3.6,0,0,0-1.3-1.7,3.48,3.48,0,0,0-2-.59,2.9,2.9,0,0,0-2.52,1.27A6.5,6.5,0,0,0,244.79,11.84Z"/><path class="cls-15" d="M51.4,35.93v3h2.4V40H51.4v7.75a2.4,2.4,0,0,0,.35,1.45,1.36,1.36,0,0,0,1.16.47,8.32,8.32,0,0,0,1-.11l.06,1a4.27,4.27,0,0,1-1.38.18A2.29,2.29,0,0,1,50.71,50a3.63,3.63,0,0,1-.6-2.26V40H48V38.91h2.14v-3Z"/><path class="cls-15" d="M55.76,44.55a6.87,6.87,0,0,1,.65-3,4.9,4.9,0,0,1,4.53-2.84,4.81,4.81,0,0,1,3.76,1.63,6.27,6.27,0,0,1,1.44,4.31v.27a7,7,0,0,1-.65,3A5,5,0,0,1,63.66,50a5.1,5.1,0,0,1-2.7.73,4.82,4.82,0,0,1-3.76-1.63,6.27,6.27,0,0,1-1.44-4.31Zm1.29.35a5.26,5.26,0,0,0,1.08,3.42,3.65,3.65,0,0,0,5.65,0,5.43,5.43,0,0,0,1.08-3.53v-.24a5.91,5.91,0,0,0-.5-2.44A3.94,3.94,0,0,0,63,40.4a3.53,3.53,0,0,0-2-.61,3.45,3.45,0,0,0-2.81,1.35,5.47,5.47,0,0,0-1.08,3.53Z"/><path class="cls-15" d="M81.1,47.58A1.85,1.85,0,0,0,80.33,46,5.86,5.86,0,0,0,78,45.13a10.21,10.21,0,0,1-2.4-.75,3.13,3.13,0,0,1-1.27-1,2.53,2.53,0,0,1-.42-1.48,2.77,2.77,0,0,1,1.16-2.27,4.6,4.6,0,0,1,2.94-.9,4.8,4.8,0,0,1,3.12,1,3.12,3.12,0,0,1,1.18,2.51H81a2.07,2.07,0,0,0-.86-1.69A3.31,3.31,0,0,0,78,39.79a3.4,3.4,0,0,0-2,.56,1.76,1.76,0,0,0-.77,1.47,1.61,1.61,0,0,0,.64,1.35,6.74,6.74,0,0,0,2.33.87,11.21,11.21,0,0,1,2.54.85A3.22,3.22,0,0,1,82,46a2.77,2.77,0,0,1,.41,1.53,2.81,2.81,0,0,1-1.19,2.36,5.11,5.11,0,0,1-3.1.88,5.18,5.18,0,0,1-3.29-1,3,3,0,0,1-1.26-2.48h1.29a2.21,2.21,0,0,0,1,1.75,3.85,3.85,0,0,0,2.31.63,3.67,3.67,0,0,0,2.17-.59A1.77,1.77,0,0,0,81.1,47.58Z"/><path class="cls-15" d="M87.28,35.93v3h2.4V40h-2.4v7.75a2.4,2.4,0,0,0,.35,1.45,1.36,1.36,0,0,0,1.16.47,8.32,8.32,0,0,0,1-.11l.06,1a4.27,4.27,0,0,1-1.38.18A2.29,2.29,0,0,1,86.59,50a3.63,3.63,0,0,1-.6-2.26V40H83.85V38.91H86v-3Z"/><path class="cls-15" d="M99.82,49.06a4.17,4.17,0,0,1-3.7,1.69,3.61,3.61,0,0,1-2.83-1.08,4.8,4.8,0,0,1-1-3.2V38.91h1.28v7.4c0,2.21.9,3.32,2.69,3.32a3.29,3.29,0,0,0,3.53-2.31V38.91h1.29V50.53H99.84Z"/><path class="cls-15" d="M103.92,44.61a7,7,0,0,1,1.21-4.31,3.87,3.87,0,0,1,3.28-1.61A4,4,0,0,1,112,40.55V34h1.27v16.5h-1.2L112,49a4.16,4.16,0,0,1-3.63,1.77,3.87,3.87,0,0,1-3.24-1.62,7,7,0,0,1-1.23-4.37Zm1.3.23a6,6,0,0,0,.89,3.51,2.88,2.88,0,0,0,2.51,1.28,3.47,3.47,0,0,0,3.38-2.1V42.08a3.45,3.45,0,0,0-3.36-2.27,2.9,2.9,0,0,0-2.52,1.27A6.5,6.5,0,0,0,105.22,44.84Z"/><path class="cls-15" d="M120.34,48.68l3.4-9.77h1.38l-5,13.6-.26.6a3.13,3.13,0,0,1-3,2.12,3.61,3.61,0,0,1-1-.15V54l.66.07a2.39,2.39,0,0,0,1.53-.47,3.54,3.54,0,0,0,1-1.61l.57-1.57-4.38-11.52h1.4Z"/><path class="cls-15" d="M139.8,50.53a5.78,5.78,0,0,1-.25-1.62,4.47,4.47,0,0,1-1.73,1.36,5.2,5.2,0,0,1-2.21.48,3.94,3.94,0,0,1-2.72-.94,3,3,0,0,1-1-2.36,3.12,3.12,0,0,1,1.41-2.69,6.77,6.77,0,0,1,3.94-1h2.33V42.45a2.56,2.56,0,0,0-.77-2,3.2,3.2,0,0,0-2.24-.71,3.46,3.46,0,0,0-2.22.69,2,2,0,0,0-.89,1.65h-1.28a3,3,0,0,1,1.28-2.4,5,5,0,0,1,3.17-1,4.53,4.53,0,0,1,3.07,1,3.5,3.5,0,0,1,1.16,2.71v5.5a6.75,6.75,0,0,0,.35,2.52v.13Zm-4-.92a4.27,4.27,0,0,0,2.3-.63,3.65,3.65,0,0,0,1.48-1.66V44.76h-2.3a5.77,5.77,0,0,0-3,.71,2.11,2.11,0,0,0-1.08,1.87,2.08,2.08,0,0,0,.72,1.62A2.73,2.73,0,0,0,135.76,49.61Z"/><path class="cls-15" d="M146.24,35.93v3h2.41V40h-2.41v7.75a2.48,2.48,0,0,0,.35,1.45,1.36,1.36,0,0,0,1.16.47,8.43,8.43,0,0,0,1.05-.11l0,1a4.2,4.2,0,0,1-1.37.18,2.3,2.3,0,0,1-1.93-.77,3.63,3.63,0,0,1-.6-2.26V40h-2.14V38.91H145v-3Z"/><path class="cls-15" d="M157,50.53V34.89h4.37a6.73,6.73,0,0,1,3.45.88,6,6,0,0,1,2.38,2.5A7.91,7.91,0,0,1,168,42v1.44a8,8,0,0,1-.84,3.72,6.13,6.13,0,0,1-2.39,2.5,7,7,0,0,1-3.54.88ZM158.28,36v13.4h3a5.07,5.07,0,0,0,4-1.64,6.3,6.3,0,0,0,1.49-4.43V42a6.2,6.2,0,0,0-1.47-4.32A5,5,0,0,0,161.35,36Z"/><path class="cls-15" d="M181.67,36h-5.36V50.53H175V36h-5.35V34.89h12Z"/><path class="cls-15" d="M195,34.89V45.57a5.43,5.43,0,0,1-.7,2.75,4.57,4.57,0,0,1-1.94,1.8,6.28,6.28,0,0,1-2.87.63,5.66,5.66,0,0,1-4-1.35A5,5,0,0,1,184,45.67V34.89h1.31V45.47a4.08,4.08,0,0,0,1.13,3.07,4.82,4.82,0,0,0,6.12,0,4.09,4.09,0,0,0,1.12-3.05V34.89Z"/><path class="cls-15" d="M200.72,46.18a5.69,5.69,0,0,1,.34-2,6.29,6.29,0,0,1,1.39-1.82,14.48,14.48,0,0,0,1.37-1.48,3.66,3.66,0,0,0,.47-1,4,4,0,0,0,.17-1.19,3,3,0,0,0-.72-2.11,2.59,2.59,0,0,0-2-.76,2.93,2.93,0,0,0-2.08.73,2.63,2.63,0,0,0-.81,2h-1.28a3.68,3.68,0,0,1,1.19-2.82,4.3,4.3,0,0,1,3-1,3.68,3.68,0,0,1,4,4,4.63,4.63,0,0,1-.52,2.17,9.32,9.32,0,0,1-2,2.37,3.65,3.65,0,0,0-1.21,3Zm-.17,3.59a.87.87,0,0,1,.23-.62.82.82,0,0,1,.65-.25.85.85,0,0,1,.65.25.88.88,0,0,1,.24.62.81.81,0,0,1-.24.6.85.85,0,0,1-.65.25.82.82,0,0,1-.65-.25A.81.81,0,0,1,200.55,49.77Z"/><path class="cls-15" d="M694.06,27.54V11.9h4.77a6.38,6.38,0,0,1,4.74,1.91,6.72,6.72,0,0,1,1.87,4.91v2a6.68,6.68,0,0,1-1.87,4.9,6.34,6.34,0,0,1-4.74,1.91ZM695.35,13V26.46h3.48a5,5,0,0,0,3.82-1.63,5.81,5.81,0,0,0,1.51-4.1v-2a5.77,5.77,0,0,0-1.51-4.07A5,5,0,0,0,698.83,13ZM710,12.59h-1.28V10.78H710Zm0,15h-1.28V15.92H710Zm3-5.71a7.57,7.57,0,0,1,1.18-4.46,3.79,3.79,0,0,1,3.28-1.67,4.06,4.06,0,0,1,3.58,1.94V10.78h1.29V27.54h-1.06l-.18-1.69a4,4,0,0,1-1.5,1.42,4.46,4.46,0,0,1-2.15.5,3.85,3.85,0,0,1-3.26-1.56,6.67,6.67,0,0,1-1.18-4.16Zm1.29.22a5.81,5.81,0,0,0,.85,3.35,2.85,2.85,0,0,0,2.54,1.25,3.63,3.63,0,0,0,2.07-.55,3.73,3.73,0,0,0,1.29-1.53V19.05a4.25,4.25,0,0,0-1.25-1.61,3.35,3.35,0,0,0-2.09-.62,2.8,2.8,0,0,0-2.55,1.39,6.83,6.83,0,0,0-.86,3.62Zm20.12,2.34.4,1.39h.07l3.51-9.86h1.44l-5,13.48a6.57,6.57,0,0,1-1.17,2,2.64,2.64,0,0,1-2.1.83,4,4,0,0,1-.55-.05,2.93,2.93,0,0,1-.48-.11l.16-1.07a4.11,4.11,0,0,0,.41,0l.41,0a1.68,1.68,0,0,0,1.35-.6,5.27,5.27,0,0,0,.85-1.53l.62-1.57-4.49-11.47h1.43ZM741,21.56a6.23,6.23,0,0,1,1.41-4.21,5.05,5.05,0,0,1,7.47,0,6.27,6.27,0,0,1,1.4,4.21v.35a6.23,6.23,0,0,1-1.4,4.22,4.65,4.65,0,0,1-3.72,1.64,4.71,4.71,0,0,1-3.75-1.64A6.24,6.24,0,0,1,741,21.91Zm1.29.35a5.55,5.55,0,0,0,1,3.4,3.62,3.62,0,0,0,5.67,0,5.56,5.56,0,0,0,1-3.4v-.35a5.5,5.5,0,0,0-1-3.38,3.59,3.59,0,0,0-5.66,0,5.56,5.56,0,0,0-1,3.38Zm19.29,3.74a4,4,0,0,1-1.5,1.57,4.39,4.39,0,0,1-2.23.55A3.54,3.54,0,0,1,755,26.52a5.92,5.92,0,0,1-1-3.87V15.92h1.29v6.75a5,5,0,0,0,.73,3.06,2.48,2.48,0,0,0,2.06.92,3.79,3.79,0,0,0,2.31-.65,3.45,3.45,0,0,0,1.22-1.78v-8.3h1.29V27.54h-1.14Zm10.75,1.89V17h-1.93v-1h1.93V14.44a3.87,3.87,0,0,1,1-2.87,3.88,3.88,0,0,1,2.84-1,6.73,6.73,0,0,1,1.46.16,9.22,9.22,0,0,1,1.5.47L779,12.3a9,9,0,0,0-1.27-.42,6,6,0,0,0-1.4-.15,2.61,2.61,0,0,0-2,.7,2.76,2.76,0,0,0-.67,2v1.48h2.72v1h-2.72V27.54Zm7.52,0h-1.29V15.92h1.29Zm4.68-11.62.12,2a4.24,4.24,0,0,1,1.51-1.65,4.19,4.19,0,0,1,2.25-.59,3.59,3.59,0,0,1,2.88,1.16,5.45,5.45,0,0,1,1,3.6v7.08H791V20.47a4.18,4.18,0,0,0-.75-2.82,2.73,2.73,0,0,0-2.12-.83,3.44,3.44,0,0,0-2.22.68,3.77,3.77,0,0,0-1.22,1.81v8.23h-1.29V15.92Zm10.61,5.91a7.57,7.57,0,0,1,1.18-4.46,3.78,3.78,0,0,1,3.28-1.67,4.06,4.06,0,0,1,3.58,1.94V10.78h1.28V27.54h-1l-.18-1.69a4.07,4.07,0,0,1-1.5,1.42,4.46,4.46,0,0,1-2.15.5,3.85,3.85,0,0,1-3.26-1.56,6.67,6.67,0,0,1-1.18-4.16Zm1.29.22a5.89,5.89,0,0,0,.84,3.35,2.86,2.86,0,0,0,2.54,1.25,3.66,3.66,0,0,0,2.08-.55,3.73,3.73,0,0,0,1.29-1.53V19.05A4.25,4.25,0,0,0,802,17.44a3.38,3.38,0,0,0-2.1-.62,2.8,2.8,0,0,0-2.55,1.39,6.83,6.83,0,0,0-.85,3.62Zm18.82-9.11v3h2.56v1h-2.56v7.57a2.46,2.46,0,0,0,.42,1.62,1.37,1.37,0,0,0,1.1.48,3.44,3.44,0,0,0,.46,0l.52-.09.19,1a3.43,3.43,0,0,1-.64.21,3.92,3.92,0,0,1-.76.08,2.39,2.39,0,0,1-1.9-.78,3.6,3.6,0,0,1-.69-2.45V17h-2v-1h2v-3Zm6.37,5a4.29,4.29,0,0,1,1.55-1.61,4.24,4.24,0,0,1,2.25-.58,3.51,3.51,0,0,1,2.82,1.14,5.31,5.31,0,0,1,1,3.54v7.16H828V20.35a4,4,0,0,0-.74-2.71,2.65,2.65,0,0,0-2.06-.82,3.62,3.62,0,0,0-2.23.66,3.8,3.8,0,0,0-1.28,1.77v8.29h-1.29V10.78h1.29ZM837,27.77a4.64,4.64,0,0,1-3.66-1.6,6,6,0,0,1-1.41-4.1v-.59a6.05,6.05,0,0,1,1.42-4.14,4.51,4.51,0,0,1,3.53-1.64,4.08,4.08,0,0,1,3.27,1.36,5.48,5.48,0,0,1,1.16,3.66v1h-8.09v.35a5.25,5.25,0,0,0,1,3.3A3.32,3.32,0,0,0,837,26.68a5.13,5.13,0,0,0,2-.35,4.17,4.17,0,0,0,1.49-.94l.54.88a4.63,4.63,0,0,1-1.6,1.07A5.92,5.92,0,0,1,837,27.77Zm-.12-11a3.13,3.13,0,0,0-2.44,1.06,4.6,4.6,0,0,0-1.12,2.7l0,.06h6.66v-.27a3.93,3.93,0,0,0-.81-2.55A2.82,2.82,0,0,0,836.91,16.8Zm19.34,7.77a1.87,1.87,0,0,0-.67-1.43,5.63,5.63,0,0,0-2.42-1A7.94,7.94,0,0,1,850.09,21a2.45,2.45,0,0,1-1-2.09,2.79,2.79,0,0,1,1.12-2.25,4.51,4.51,0,0,1,3-.93,4.61,4.61,0,0,1,3.1,1,2.89,2.89,0,0,1,1.11,2.42l0,.06h-1.19a2.14,2.14,0,0,0-.83-1.66,3.2,3.2,0,0,0-2.17-.71,3.16,3.16,0,0,0-2.11.61,1.86,1.86,0,0,0-.71,1.43,1.69,1.69,0,0,0,.61,1.32,6.05,6.05,0,0,0,2.42.91,8,8,0,0,1,3.09,1.26,2.6,2.6,0,0,1,1,2.17,2.84,2.84,0,0,1-1.18,2.36,5.87,5.87,0,0,1-6.43-.1,2.88,2.88,0,0,1-1.15-2.41l0-.06H850a2.13,2.13,0,0,0,1,1.82,4.29,4.29,0,0,0,2.24.57,3.53,3.53,0,0,0,2.2-.62A1.84,1.84,0,0,0,856.25,24.57Zm6.25-11.63v3h2.55v1H862.5v7.57a2.46,2.46,0,0,0,.41,1.62,1.38,1.38,0,0,0,1.1.48,3.44,3.44,0,0,0,.46,0l.52-.09.19,1a3.2,3.2,0,0,1-.64.21,3.82,3.82,0,0,1-.75.08,2.39,2.39,0,0,1-1.91-.78,3.6,3.6,0,0,1-.68-2.45V17h-2v-1h2v-3Zm12.68,12.71a4.05,4.05,0,0,1-1.5,1.57,4.41,4.41,0,0,1-2.23.55,3.57,3.57,0,0,1-2.88-1.25,6,6,0,0,1-1-3.87V15.92h1.29v6.75a5.06,5.06,0,0,0,.72,3.06,2.49,2.49,0,0,0,2.06.92,3.8,3.8,0,0,0,2.32-.65,3.43,3.43,0,0,0,1.21-1.78v-8.3h1.29V27.54h-1.14Zm4.14-3.82a7.57,7.57,0,0,1,1.18-4.46,3.79,3.79,0,0,1,3.28-1.67,4.06,4.06,0,0,1,3.58,1.94V10.78h1.29V27.54h-1.06l-.18-1.69a4.07,4.07,0,0,1-1.5,1.42,4.46,4.46,0,0,1-2.15.5,3.85,3.85,0,0,1-3.26-1.56,6.67,6.67,0,0,1-1.18-4.16Zm1.29.22a5.89,5.89,0,0,0,.84,3.35A2.88,2.88,0,0,0,884,26.65a3.66,3.66,0,0,0,2.08-.55,3.73,3.73,0,0,0,1.29-1.53V19.05a4.25,4.25,0,0,0-1.25-1.61,3.37,3.37,0,0,0-2.09-.62,2.8,2.8,0,0,0-2.56,1.39,6.83,6.83,0,0,0-.85,3.62Zm15.89,5.72a4.68,4.68,0,0,1-3.67-1.6,6,6,0,0,1-1.41-4.1v-.59a6.06,6.06,0,0,1,1.43-4.14,4.49,4.49,0,0,1,3.53-1.64,4.08,4.08,0,0,1,3.27,1.36,5.48,5.48,0,0,1,1.15,3.66v1h-8.09v.35a5.25,5.25,0,0,0,1,3.3,3.31,3.31,0,0,0,2.78,1.31,5.16,5.16,0,0,0,2-.35,4.13,4.13,0,0,0,1.48-.94l.55.88a4.67,4.67,0,0,1-1.61,1.07A5.87,5.87,0,0,1,896.5,27.77Zm-.12-11a3.13,3.13,0,0,0-2.44,1.06,4.6,4.6,0,0,0-1.12,2.7l0,.06h6.66v-.27a3.93,3.93,0,0,0-.81-2.55A2.8,2.8,0,0,0,896.38,16.8Zm8.17-.88.12,2a4.24,4.24,0,0,1,1.51-1.65,4.19,4.19,0,0,1,2.25-.59,3.59,3.59,0,0,1,2.88,1.16,5.51,5.51,0,0,1,1,3.6v7.08H911V20.47a4.18,4.18,0,0,0-.74-2.82,2.73,2.73,0,0,0-2.12-.83,3.44,3.44,0,0,0-2.22.68,3.77,3.77,0,0,0-1.22,1.81v8.23h-1.29V15.92Zm13.12-3v3h2.56v1h-2.56v7.57a2.46,2.46,0,0,0,.42,1.62,1.37,1.37,0,0,0,1.1.48,3.19,3.19,0,0,0,.45,0l.53-.09.19,1a3.43,3.43,0,0,1-.64.21,3.92,3.92,0,0,1-.76.08,2.39,2.39,0,0,1-1.9-.78,3.6,3.6,0,0,1-.69-2.45V17h-2v-1h2v-3Zm14.68,13.74a3.45,3.45,0,0,0,2.18-.73,2.4,2.4,0,0,0,1-2h1.15l0,.07a3.27,3.27,0,0,1-1.27,2.69,4.61,4.61,0,0,1-3,1.09,4.37,4.37,0,0,1-3.62-1.64A6.51,6.51,0,0,1,927.44,22V21.5a6.48,6.48,0,0,1,1.29-4.16,4.34,4.34,0,0,1,3.61-1.64,4.47,4.47,0,0,1,3.11,1.13,3.72,3.72,0,0,1,1.21,3l0,.06h-1.15a2.87,2.87,0,0,0-.91-2.23,3.21,3.21,0,0,0-2.23-.83,3,3,0,0,0-2.72,1.34,6,6,0,0,0-.89,3.36V22a6,6,0,0,0,.89,3.38A3,3,0,0,0,932.35,26.68Zm14.43.86c-.08-.41-.14-.76-.17-1.05a6.8,6.8,0,0,1-.06-.9,4.72,4.72,0,0,1-1.69,1.56,5,5,0,0,1-2.49.62,3.69,3.69,0,0,1-2.65-.91,3.27,3.27,0,0,1-.94-2.47,3,3,0,0,1,1.36-2.52,6,6,0,0,1,3.55-1h2.86V19.46a2.5,2.5,0,0,0-.79-1.95,3.24,3.24,0,0,0-2.23-.71,3.32,3.32,0,0,0-2.13.64,2,2,0,0,0-.82,1.63h-1.19l0-.07a2.75,2.75,0,0,1,1.12-2.3,5.3,5.3,0,0,1,6.17,0,3.44,3.44,0,0,1,1.16,2.8V25.2a11.53,11.53,0,0,0,.07,1.19,7.58,7.58,0,0,0,.24,1.15Zm-4.27-.91a4.57,4.57,0,0,0,2.56-.71,3.47,3.47,0,0,0,1.48-1.81V21.89h-2.87a4.25,4.25,0,0,0-2.59.75,2.18,2.18,0,0,0-1,1.8,2.07,2.07,0,0,0,.65,1.59A2.53,2.53,0,0,0,942.51,26.63ZM956.57,17l-.92-.06a2.93,2.93,0,0,0-2,.68,3.76,3.76,0,0,0-1.11,1.88v8h-1.29V15.92h1.13l.16,1.93V18a4.3,4.3,0,0,1,1.35-1.68,3.42,3.42,0,0,1,2-.6,3.14,3.14,0,0,1,.45,0l.36.08Zm1.4,4.81a7.65,7.65,0,0,1,1.18-4.46,3.79,3.79,0,0,1,3.28-1.67A4.06,4.06,0,0,1,966,17.64V10.78h1.29V27.54h-1l-.19-1.69a4,4,0,0,1-1.5,1.42,4.46,4.46,0,0,1-2.15.5,3.85,3.85,0,0,1-3.26-1.56A6.74,6.74,0,0,1,958,22.05Zm1.29.22a5.81,5.81,0,0,0,.85,3.35,2.85,2.85,0,0,0,2.54,1.25,3.63,3.63,0,0,0,2.07-.55A3.73,3.73,0,0,0,966,24.57V19.05a4.15,4.15,0,0,0-1.25-1.61,3.33,3.33,0,0,0-2.09-.62,2.8,2.8,0,0,0-2.55,1.39,6.83,6.83,0,0,0-.86,3.62Z"/><path class="cls-15" d="M696.49,55.05a6.67,6.67,0,0,1-1.18,4.16,3.85,3.85,0,0,1-3.25,1.56,4.71,4.71,0,0,1-2.14-.47,3.86,3.86,0,0,1-1.5-1.31v6h-1.28V48.92h1l.24,1.81a4,4,0,0,1,3.67-2,3.8,3.8,0,0,1,3.28,1.67,7.57,7.57,0,0,1,1.18,4.46Zm-1.29-.22a6.63,6.63,0,0,0-.88-3.61,2.86,2.86,0,0,0-2.58-1.4,3.39,3.39,0,0,0-2.09.61A3.89,3.89,0,0,0,688.42,52v5.63a3.66,3.66,0,0,0,1.28,1.49,3.71,3.71,0,0,0,2.07.54,2.92,2.92,0,0,0,2.56-1.27,5.81,5.81,0,0,0,.87-3.36ZM704.7,50l-.92-.06a2.93,2.93,0,0,0-2,.68,3.76,3.76,0,0,0-1.11,1.88v8h-1.29V48.92h1.13l.16,1.93V51A4.3,4.3,0,0,1,702,49.3a3.42,3.42,0,0,1,2-.6,3.14,3.14,0,0,1,.45,0l.36.08ZM706,54.56a6.27,6.27,0,0,1,1.4-4.21,5.05,5.05,0,0,1,7.47,0,6.23,6.23,0,0,1,1.41,4.21v.35a6.24,6.24,0,0,1-1.41,4.22,4.65,4.65,0,0,1-3.72,1.64,4.71,4.71,0,0,1-3.75-1.64,6.28,6.28,0,0,1-1.4-4.22Zm1.29.35a5.55,5.55,0,0,0,1,3.4,3.61,3.61,0,0,0,5.66,0,5.5,5.5,0,0,0,1-3.4v-.35a5.56,5.56,0,0,0-1-3.38,3.36,3.36,0,0,0-2.84-1.38,3.31,3.31,0,0,0-2.82,1.38,5.56,5.56,0,0,0-1,3.38Zm15.93,4.77a3.46,3.46,0,0,0,2.19-.73,2.42,2.42,0,0,0,1-2h1.15l0,.07a3.22,3.22,0,0,1-1.27,2.69,4.58,4.58,0,0,1-3,1.09,4.35,4.35,0,0,1-3.61-1.64A6.51,6.51,0,0,1,718.28,55V54.5a6.47,6.47,0,0,1,1.28-4.16,4.35,4.35,0,0,1,3.61-1.64,4.48,4.48,0,0,1,3.12,1.13,3.68,3.68,0,0,1,1.2,3l0,.06h-1.15a2.87,2.87,0,0,0-.91-2.23,3.23,3.23,0,0,0-2.24-.83,3,3,0,0,0-2.71,1.34,5.93,5.93,0,0,0-.9,3.36V55a5.93,5.93,0,0,0,.9,3.38A3,3,0,0,0,723.18,59.68Zm11.5,1.09a4.68,4.68,0,0,1-3.67-1.6,6,6,0,0,1-1.4-4.1v-.59A6.05,6.05,0,0,1,731,50.34a4.49,4.49,0,0,1,3.53-1.64,4.08,4.08,0,0,1,3.27,1.36A5.48,5.48,0,0,1,739,53.72v1h-8.09v.35a5.25,5.25,0,0,0,1,3.3,3.31,3.31,0,0,0,2.78,1.31,5.16,5.16,0,0,0,2-.35,4.13,4.13,0,0,0,1.48-.94l.55.88a4.67,4.67,0,0,1-1.61,1.07A5.87,5.87,0,0,1,734.68,60.77Zm-.12-11a3.13,3.13,0,0,0-2.44,1.06,4.6,4.6,0,0,0-1.12,2.7l0,.06h6.66v-.27a3.93,3.93,0,0,0-.81-2.55A2.8,2.8,0,0,0,734.56,49.8Zm14,7.77a1.87,1.87,0,0,0-.67-1.43,5.63,5.63,0,0,0-2.42-1A7.94,7.94,0,0,1,742.39,54a2.45,2.45,0,0,1-1-2.09,2.79,2.79,0,0,1,1.12-2.25,4.51,4.51,0,0,1,3-.93,4.6,4.6,0,0,1,3.1,1,2.86,2.86,0,0,1,1.11,2.42l0,.06h-1.19a2.14,2.14,0,0,0-.83-1.66,3.2,3.2,0,0,0-2.17-.71,3.16,3.16,0,0,0-2.11.61,1.86,1.86,0,0,0-.71,1.43,1.69,1.69,0,0,0,.61,1.32,6.05,6.05,0,0,0,2.42.91,8,8,0,0,1,3.09,1.26,2.6,2.6,0,0,1,1.05,2.17,2.84,2.84,0,0,1-1.18,2.36,5.87,5.87,0,0,1-6.43-.1,2.88,2.88,0,0,1-1.15-2.41l0-.06h1.18a2.13,2.13,0,0,0,1,1.82,4.29,4.29,0,0,0,2.24.57,3.58,3.58,0,0,0,2.21-.62A1.85,1.85,0,0,0,748.55,57.57Zm11.2,0a1.87,1.87,0,0,0-.67-1.43,5.63,5.63,0,0,0-2.42-1A7.94,7.94,0,0,1,753.59,54a2.46,2.46,0,0,1-1-2.09,2.8,2.8,0,0,1,1.13-2.25,4.51,4.51,0,0,1,3-.93,4.61,4.61,0,0,1,3.1,1,2.92,2.92,0,0,1,1.11,2.42l0,.06h-1.2a2.13,2.13,0,0,0-.82-1.66,3.22,3.22,0,0,0-2.17-.71,3.14,3.14,0,0,0-2.11.61,1.86,1.86,0,0,0-.71,1.43,1.66,1.66,0,0,0,.61,1.32,6,6,0,0,0,2.42.91A8,8,0,0,1,760,55.33a2.6,2.6,0,0,1,1,2.17,2.84,2.84,0,0,1-1.18,2.36,5.87,5.87,0,0,1-6.43-.1,2.88,2.88,0,0,1-1.15-2.41l0-.06h1.19a2.13,2.13,0,0,0,1,1.82,4.29,4.29,0,0,0,2.24.57,3.53,3.53,0,0,0,2.2-.62A1.84,1.84,0,0,0,759.75,57.57Zm9.08-2.74A7.65,7.65,0,0,1,770,50.37a3.81,3.81,0,0,1,3.29-1.67,4.06,4.06,0,0,1,3.57,1.94V43.78h1.29V60.54h-1l-.18-1.69a4.1,4.1,0,0,1-1.51,1.42,4.43,4.43,0,0,1-2.15.5A3.86,3.86,0,0,1,770,59.21a6.74,6.74,0,0,1-1.17-4.16Zm1.29.22A5.89,5.89,0,0,0,771,58.4a2.86,2.86,0,0,0,2.54,1.25,3.63,3.63,0,0,0,2.07-.55,3.73,3.73,0,0,0,1.29-1.53V52.05a4.23,4.23,0,0,0-1.24-1.61,3.38,3.38,0,0,0-2.1-.62A2.8,2.8,0,0,0,771,51.21a6.83,6.83,0,0,0-.85,3.62ZM783,45.59h-1.28V43.78H783Zm0,14.95h-1.28V48.92H783Zm4.43,0V50h-1.92v-1h1.92v-1.7a3.89,3.89,0,0,1,.88-2.71,3.21,3.21,0,0,1,2.46-.95,5.78,5.78,0,0,1,.71,0l.75.15-.17,1.07a4.52,4.52,0,0,0-.53-.11,5.66,5.66,0,0,0-.63,0,2,2,0,0,0-1.62.66,2.86,2.86,0,0,0-.56,1.87v1.7h2.63v1h-2.63V60.54Zm6.93,0V50h-1.93v-1h1.93V47.44a3.54,3.54,0,0,1,3.86-3.88,6.66,6.66,0,0,1,1.46.16,9,9,0,0,1,1.51.47L801,45.3a9,9,0,0,0-1.27-.42,5.8,5.8,0,0,0-1.39-.15,2.62,2.62,0,0,0-2,.7,2.8,2.8,0,0,0-.67,2v1.48h2.72v1h-2.72V60.54Zm7.52,0h-1.29V48.92h1.29Zm7.8-.86A3.5,3.5,0,0,0,811.9,59a2.42,2.42,0,0,0,1-2H814l0,.07a3.24,3.24,0,0,1-1.27,2.69,4.59,4.59,0,0,1-3,1.09,4.34,4.34,0,0,1-3.61-1.64A6.45,6.45,0,0,1,804.8,55V54.5a6.48,6.48,0,0,1,1.29-4.16,4.34,4.34,0,0,1,3.61-1.64,4.5,4.5,0,0,1,3.12,1.13,3.68,3.68,0,0,1,1.2,3l0,.06h-1.15a2.88,2.88,0,0,0-.92-2.23,3.19,3.19,0,0,0-2.23-.83A3.05,3.05,0,0,0,807,51.14a6,6,0,0,0-.89,3.36V55a6,6,0,0,0,.89,3.38A3.05,3.05,0,0,0,809.71,59.68Zm14.68-1a4,4,0,0,1-1.5,1.57,4.39,4.39,0,0,1-2.23.55,3.54,3.54,0,0,1-2.87-1.25,5.92,5.92,0,0,1-1-3.87V48.92H818v6.75a5,5,0,0,0,.73,3.06,2.47,2.47,0,0,0,2,.92,3.8,3.8,0,0,0,2.32-.65,3.45,3.45,0,0,0,1.22-1.78v-8.3h1.29V60.54H824.5Zm6.09,1.89H829.2V43.78h1.28ZM836,45.94v3h2.56v1H836v7.57a2.46,2.46,0,0,0,.42,1.62,1.37,1.37,0,0,0,1.1.48,3.19,3.19,0,0,0,.45,0l.53-.09.19,1a3.43,3.43,0,0,1-.64.21,3.92,3.92,0,0,1-.76.08,2.39,2.39,0,0,1-1.9-.78,3.6,3.6,0,0,1-.69-2.45V50h-2v-1h2v-3Zm9.71,8.62a6.22,6.22,0,0,1,1.4-4.21,5.05,5.05,0,0,1,7.47,0A6.23,6.23,0,0,1,856,54.56v.35a6.24,6.24,0,0,1-1.41,4.22,4.65,4.65,0,0,1-3.72,1.64,4.71,4.71,0,0,1-3.75-1.64,6.23,6.23,0,0,1-1.4-4.22Zm1.28.35a5.55,5.55,0,0,0,1,3.4,3.37,3.37,0,0,0,2.85,1.37,3.33,3.33,0,0,0,2.82-1.37,5.5,5.5,0,0,0,1-3.4v-.35a5.56,5.56,0,0,0-1-3.38,3.6,3.6,0,0,0-5.67,0,5.56,5.56,0,0,0-1,3.38ZM864,50l-.92-.06a2.93,2.93,0,0,0-2,.68A3.76,3.76,0,0,0,860,52.52v8h-1.29V48.92h1.13l.16,1.93V51a4.21,4.21,0,0,1,1.35-1.68,3.42,3.42,0,0,1,2-.6,3.14,3.14,0,0,1,.45,0l.36.08Zm11.79,9.66A3.5,3.5,0,0,0,878,59a2.42,2.42,0,0,0,1-2h1.15l0,.07a3.24,3.24,0,0,1-1.27,2.69,4.59,4.59,0,0,1-3,1.09,4.34,4.34,0,0,1-3.61-1.64,6.45,6.45,0,0,1-1.3-4.17V54.5a6.48,6.48,0,0,1,1.29-4.16,4.34,4.34,0,0,1,3.61-1.64,4.5,4.5,0,0,1,3.12,1.13,3.68,3.68,0,0,1,1.2,3l0,.06H879a2.88,2.88,0,0,0-.92-2.23,3.19,3.19,0,0,0-2.23-.83,3.05,3.05,0,0,0-2.72,1.34,6,6,0,0,0-.89,3.36V55a6,6,0,0,0,.89,3.38A3.05,3.05,0,0,0,875.82,59.68Zm6.36-5.12a6.27,6.27,0,0,1,1.4-4.21,5.05,5.05,0,0,1,7.47,0,6.23,6.23,0,0,1,1.41,4.21v.35a6.28,6.28,0,0,1-1.4,4.22,5.08,5.08,0,0,1-7.48,0,6.28,6.28,0,0,1-1.4-4.22Zm1.29.35a5.55,5.55,0,0,0,1,3.4,3.61,3.61,0,0,0,5.66,0,5.5,5.5,0,0,0,1-3.4v-.35a5.5,5.5,0,0,0-1-3.38,3.35,3.35,0,0,0-2.84-1.38,3.31,3.31,0,0,0-2.82,1.38,5.56,5.56,0,0,0-1,3.38Zm12.82-6,.12,2a4.24,4.24,0,0,1,1.51-1.65,4.19,4.19,0,0,1,2.25-.59,3.59,3.59,0,0,1,2.88,1.16,5.45,5.45,0,0,1,1,3.6v7.08h-1.29V53.47a4.18,4.18,0,0,0-.75-2.82,2.73,2.73,0,0,0-2.12-.83,3.44,3.44,0,0,0-2.22.68,3.77,3.77,0,0,0-1.22,1.81v8.23h-1.29V48.92Zm12,11.62V50h-1.93v-1h1.93v-1.7a3.84,3.84,0,0,1,.88-2.71,3.18,3.18,0,0,1,2.46-.95,5.92,5.92,0,0,1,.71,0l.75.15-.17,1.07a5,5,0,0,0-.53-.11,5.78,5.78,0,0,0-.63,0,2,2,0,0,0-1.62.66,2.8,2.8,0,0,0-.56,1.87v1.7h2.63v1h-2.63V60.54Zm13.78-1.89a4,4,0,0,1-1.5,1.57,4.38,4.38,0,0,1-2.22.55,3.54,3.54,0,0,1-2.88-1.25,5.92,5.92,0,0,1-1.05-3.87V48.92h1.29v6.75a5.06,5.06,0,0,0,.73,3.06,2.48,2.48,0,0,0,2.06.92,3.79,3.79,0,0,0,2.31-.65A3.45,3.45,0,0,0,922,57.22v-8.3h1.29V60.54h-1.14Zm11.61-1.08a1.87,1.87,0,0,0-.67-1.43,5.57,5.57,0,0,0-2.42-1A7.94,7.94,0,0,1,927.52,54a2.45,2.45,0,0,1-1-2.09,2.79,2.79,0,0,1,1.12-2.25,4.51,4.51,0,0,1,3-.93,4.6,4.6,0,0,1,3.1,1,2.86,2.86,0,0,1,1.11,2.42l0,.06h-1.19a2.16,2.16,0,0,0-.82-1.66,3.25,3.25,0,0,0-2.18-.71,3.16,3.16,0,0,0-2.11.61,1.85,1.85,0,0,0-.7,1.43,1.68,1.68,0,0,0,.6,1.32,6,6,0,0,0,2.43.91,7.89,7.89,0,0,1,3.08,1.26A2.6,2.6,0,0,1,935,57.5a2.84,2.84,0,0,1-1.18,2.36,5,5,0,0,1-3.11.91,5,5,0,0,1-3.32-1,2.84,2.84,0,0,1-1.14-2.41l0-.06h1.18a2.13,2.13,0,0,0,1,1.82,4.31,4.31,0,0,0,2.24.57,3.56,3.56,0,0,0,2.21-.62A1.85,1.85,0,0,0,933.68,57.57Zm5.68-12h-1.28V43.78h1.28Zm0,14.95h-1.28V48.92h1.28Zm4.69-11.62.12,2a4.06,4.06,0,0,1,3.76-2.24,3.59,3.59,0,0,1,2.88,1.16,5.45,5.45,0,0,1,1,3.6v7.08h-1.29V53.47a4.18,4.18,0,0,0-.75-2.82,2.71,2.71,0,0,0-2.12-.83,3.44,3.44,0,0,0-2.22.68,3.77,3.77,0,0,0-1.22,1.81v8.23h-1.29V48.92Zm10.66,5.91a7.65,7.65,0,0,1,1.17-4.46,3.8,3.8,0,0,1,3.28-1.67,4.23,4.23,0,0,1,2.15.53,4.36,4.36,0,0,1,1.51,1.51l.18-1.82h1V60.61A4.6,4.6,0,0,1,962.82,64a4.77,4.77,0,0,1-3.47,1.21,8.29,8.29,0,0,1-1.79-.21,6.46,6.46,0,0,1-1.66-.56l.25-1.08a6.66,6.66,0,0,0,1.48.52,7.64,7.64,0,0,0,1.7.18,3.42,3.42,0,0,0,2.56-.88,3.6,3.6,0,0,0,.85-2.6V59a3.94,3.94,0,0,1-1.5,1.34,4.52,4.52,0,0,1-2.1.47,3.86,3.86,0,0,1-3.26-1.56,6.78,6.78,0,0,1-1.17-4.16Zm1.28.22a5.89,5.89,0,0,0,.85,3.35,2.89,2.89,0,0,0,2.55,1.25,3.64,3.64,0,0,0,2.06-.55,3.77,3.77,0,0,0,1.29-1.52V52a4,4,0,0,0-1.25-1.59,3.34,3.34,0,0,0-2.08-.62,2.83,2.83,0,0,0-2.56,1.4,6.82,6.82,0,0,0-.86,3.61Zm13.78,1.15a6,6,0,0,1,.24-2,4.85,4.85,0,0,1,1.23-1.47,15.45,15.45,0,0,0,1.69-2,3.73,3.73,0,0,0,.53-2.06,2.9,2.9,0,0,0-.73-2.12,2.79,2.79,0,0,0-2.09-.76,2.86,2.86,0,0,0-2,.74,2.67,2.67,0,0,0-.78,2h-1.2l0-.06a3.48,3.48,0,0,1,1.12-2.79,4.28,4.28,0,0,1,2.93-1,4.11,4.11,0,0,1,3,1.09,4,4,0,0,1,1.09,2.93,4.68,4.68,0,0,1-.72,2.58,12.37,12.37,0,0,1-2,2.34,2.34,2.34,0,0,0-.81,1.07,5.62,5.62,0,0,0-.15,1.52Zm1.45,4.34h-1.49V58.89h1.49Z"/><path class="cls-15" d="M376.2,17.53h-1.33V10h-8.94v7.5h-1.32V1.89h1.32v7h8.94v-7h1.33Z"/><path class="cls-15" d="M379.16,11.55a6.87,6.87,0,0,1,.65-3,5,5,0,0,1,1.84-2.09,4.93,4.93,0,0,1,2.69-.75,4.8,4.8,0,0,1,3.76,1.63,6.27,6.27,0,0,1,1.44,4.31v.27a7,7,0,0,1-.65,3A4.83,4.83,0,0,1,387.06,17a5.1,5.1,0,0,1-2.7.73,4.79,4.79,0,0,1-3.75-1.63,6.28,6.28,0,0,1-1.45-4.31Zm1.29.35a5.26,5.26,0,0,0,1.08,3.42,3.65,3.65,0,0,0,5.65,0,5.43,5.43,0,0,0,1.08-3.53v-.24a5.91,5.91,0,0,0-.49-2.44,3.89,3.89,0,0,0-1.39-1.71,3.48,3.48,0,0,0-2-.61,3.43,3.43,0,0,0-2.8,1.35,5.41,5.41,0,0,0-1.09,3.53Z"/><path class="cls-15" d="M395,14.86l.19,1,.26-1.06,2.79-8.89h1.1l2.76,8.82.3,1.22.25-1.13L405,5.91h1.33L403,17.53h-1.1l-3-9.22-.14-.63-.14.65-2.94,9.2h-1.09L391.2,5.91h1.32Z"/><path class="cls-15" d="M415.57,17.53h-1.29V1h1.29Z"/><path class="cls-15" d="M418.35,11.55a6.87,6.87,0,0,1,.65-3,4.9,4.9,0,0,1,4.53-2.84,4.8,4.8,0,0,1,3.76,1.63,6.27,6.27,0,0,1,1.44,4.31v.27a7,7,0,0,1-.65,3A4.89,4.89,0,0,1,426.25,17a5.1,5.1,0,0,1-2.7.73,4.79,4.79,0,0,1-3.75-1.63,6.23,6.23,0,0,1-1.45-4.31Zm1.29.35a5.26,5.26,0,0,0,1.08,3.42,3.65,3.65,0,0,0,5.65,0,5.43,5.43,0,0,0,1.08-3.53v-.24A5.91,5.91,0,0,0,427,9.11a3.89,3.89,0,0,0-1.39-1.71,3.48,3.48,0,0,0-2-.61,3.42,3.42,0,0,0-2.8,1.35,5.41,5.41,0,0,0-1.09,3.53Z"/><path class="cls-15" d="M432.61,5.91l0,2a4.57,4.57,0,0,1,1.63-1.64,4.2,4.2,0,0,1,2.16-.57,3.45,3.45,0,0,1,2.78,1.06,4.74,4.74,0,0,1,.93,3.15v7.63h-1.28V9.89a3.6,3.6,0,0,0-.66-2.32,2.6,2.6,0,0,0-2.08-.76,3.25,3.25,0,0,0-2.11.75,4.34,4.34,0,0,0-1.36,2v8h-1.28V5.91Z"/><path class="cls-15" d="M443,11.61a7,7,0,0,1,1.21-4.32,3.89,3.89,0,0,1,3.28-1.6,4,4,0,0,1,3.61,1.89l.07-1.67h1.2V17.29a4.91,4.91,0,0,1-1.26,3.56,4.5,4.5,0,0,1-3.4,1.31,5.23,5.23,0,0,1-2.32-.54,4.42,4.42,0,0,1-1.73-1.45l.72-.77a4.07,4.07,0,0,0,3.24,1.68,3.28,3.28,0,0,0,2.51-1,3.73,3.73,0,0,0,.94-2.63V16a4.17,4.17,0,0,1-3.6,1.72,3.85,3.85,0,0,1-3.24-1.62A7,7,0,0,1,443,11.78Zm1.3.23a6.12,6.12,0,0,0,.89,3.51,2.91,2.91,0,0,0,2.52,1.28A3.44,3.44,0,0,0,451,14.5V9.1a3.66,3.66,0,0,0-1.3-1.7,3.53,3.53,0,0,0-2-.59,2.92,2.92,0,0,0-2.53,1.27A6.5,6.5,0,0,0,444.25,11.84Z"/><path class="cls-15" d="M460.5,11.61a7,7,0,0,1,1.21-4.31A3.9,3.9,0,0,1,465,5.69a4,4,0,0,1,3.59,1.86V1h1.28v16.5h-1.2L468.6,16A4.14,4.14,0,0,1,465,17.75a3.87,3.87,0,0,1-3.24-1.62,7,7,0,0,1-1.23-4.37Zm1.3.23a6,6,0,0,0,.9,3.51,2.88,2.88,0,0,0,2.51,1.28,3.45,3.45,0,0,0,3.37-2.1V9.08a3.43,3.43,0,0,0-3.35-2.27,2.9,2.9,0,0,0-2.52,1.27A6.42,6.42,0,0,0,461.8,11.84Z"/><path class="cls-15" d="M473.17,2.55a.84.84,0,0,1,.24-.61.81.81,0,0,1,.64-.25.85.85,0,0,1,.65.25.84.84,0,0,1,.24.61.84.84,0,0,1-.24.61.89.89,0,0,1-.65.25.85.85,0,0,1-.64-.25A.84.84,0,0,1,473.17,2.55Zm1.51,15h-1.29V5.91h1.29Z"/><path class="cls-15" d="M477.66,11.61a7,7,0,0,1,1.21-4.31,3.89,3.89,0,0,1,3.28-1.61,4,4,0,0,1,3.59,1.86V1H487v16.5h-1.21L485.76,16a4.16,4.16,0,0,1-3.63,1.77,3.87,3.87,0,0,1-3.24-1.62,7,7,0,0,1-1.23-4.37Zm1.3.23a6.12,6.12,0,0,0,.89,3.51,2.88,2.88,0,0,0,2.51,1.28,3.47,3.47,0,0,0,3.38-2.1V9.08a3.45,3.45,0,0,0-3.35-2.27,2.91,2.91,0,0,0-2.53,1.27A6.5,6.5,0,0,0,479,11.84Z"/><path class="cls-15" d="M495.67,2.55a.91.91,0,0,1,1.53-.61.81.81,0,0,1,.25.61.81.81,0,0,1-.25.61,1,1,0,0,1-1.29,0A.84.84,0,0,1,495.67,2.55Zm1.52,15H495.9V5.91h1.29Z"/><path class="cls-15" d="M502.68,2.93v3h2.4V7h-2.4v7.75a2.4,2.4,0,0,0,.35,1.45,1.36,1.36,0,0,0,1.16.47,8.32,8.32,0,0,0,1-.11l.06,1.05a4.27,4.27,0,0,1-1.38.18A2.29,2.29,0,0,1,502,17a3.63,3.63,0,0,1-.6-2.26V7h-2.14v-1h2.14v-3Z"/><path class="cls-15" d="M512.93,11.21a17.2,17.2,0,0,1,.6-4.54,14.69,14.69,0,0,1,1.76-4A7.83,7.83,0,0,1,517.78,0l.31.87a6.42,6.42,0,0,0-1.4,1.47,10.83,10.83,0,0,0-1.25,2.3,16.73,16.73,0,0,0-.89,3,19.4,19.4,0,0,0-.34,3.77,17.62,17.62,0,0,0,.52,4.32,14.16,14.16,0,0,0,1.4,3.65,7.41,7.41,0,0,0,2,2.38l-.31.83a7.84,7.84,0,0,1-2.52-2.64,14.09,14.09,0,0,1-1.75-4A18.24,18.24,0,0,1,512.93,11.21Z"/><path class="cls-15" d="M527.07,14.58a1.84,1.84,0,0,0-.76-1.54,6,6,0,0,0-2.32-.91,10.21,10.21,0,0,1-2.4-.75,3.2,3.2,0,0,1-1.27-1,2.6,2.6,0,0,1-.41-1.48,2.76,2.76,0,0,1,1.15-2.27,4.6,4.6,0,0,1,2.94-.9,4.77,4.77,0,0,1,3.12,1,3.09,3.09,0,0,1,1.18,2.51H527a2.09,2.09,0,0,0-.85-1.69A3.32,3.32,0,0,0,524,6.79a3.39,3.39,0,0,0-2,.56,1.74,1.74,0,0,0-.77,1.47,1.58,1.58,0,0,0,.64,1.35,6.58,6.58,0,0,0,2.33.87,11.1,11.1,0,0,1,2.53.85A3.22,3.22,0,0,1,528,13a2.69,2.69,0,0,1,.41,1.53,2.78,2.78,0,0,1-1.19,2.36,5.1,5.1,0,0,1-3.09.88,5.21,5.21,0,0,1-3.3-1,3,3,0,0,1-1.26-2.48h1.29a2.24,2.24,0,0,0,1,1.75,3.89,3.89,0,0,0,2.32.63,3.71,3.71,0,0,0,2.17-.59A1.76,1.76,0,0,0,527.07,14.58Z"/><path class="cls-15" d="M533.25,2.93v3h2.41V7h-2.41v7.75a2.48,2.48,0,0,0,.35,1.45,1.36,1.36,0,0,0,1.16.47,8.43,8.43,0,0,0,1-.11l.05,1.05a4.2,4.2,0,0,1-1.37.18,2.3,2.3,0,0,1-1.93-.77,3.63,3.63,0,0,1-.6-2.26V7h-2.14v-1H532v-3Z"/><path class="cls-15" d="M545.8,16.06a4.2,4.2,0,0,1-3.71,1.69,3.58,3.58,0,0,1-2.82-1.08,4.69,4.69,0,0,1-1-3.2V5.91h1.28v7.4q0,3.31,2.68,3.32a3.3,3.3,0,0,0,3.54-2.31V5.91h1.28V17.53h-1.24Z"/><path class="cls-15" d="M549.89,11.61A7,7,0,0,1,551.1,7.3a3.89,3.89,0,0,1,3.28-1.61A4,4,0,0,1,558,7.55V1h1.28v16.5H558L558,16a4.14,4.14,0,0,1-3.63,1.77,3.87,3.87,0,0,1-3.24-1.62,7,7,0,0,1-1.23-4.37Zm1.3.23a6.12,6.12,0,0,0,.89,3.51,2.88,2.88,0,0,0,2.51,1.28,3.47,3.47,0,0,0,3.38-2.1V9.08a3.45,3.45,0,0,0-3.35-2.27,2.91,2.91,0,0,0-2.53,1.27A6.5,6.5,0,0,0,551.19,11.84Z"/><path class="cls-15" d="M567.13,17.75a5.11,5.11,0,0,1-2.68-.73,5,5,0,0,1-1.86-2,6.29,6.29,0,0,1-.67-2.93v-.46a6.9,6.9,0,0,1,.65-3,5.19,5.19,0,0,1,1.81-2.11,4.47,4.47,0,0,1,2.51-.77,4.18,4.18,0,0,1,3.36,1.45,5.84,5.84,0,0,1,1.24,4v.72H563.2v.24a4.91,4.91,0,0,0,1.13,3.3,3.63,3.63,0,0,0,2.85,1.31,3.79,3.79,0,0,0,3.26-1.58l.81.61A4.7,4.7,0,0,1,567.13,17.75Zm-.24-11a3.21,3.21,0,0,0-2.44,1.06,5,5,0,0,0-1.21,2.86h7v-.14a4.23,4.23,0,0,0-1-2.73A3,3,0,0,0,566.89,6.79Z"/><path class="cls-15" d="M575.22,5.91l0,2a4.52,4.52,0,0,1,1.64-1.64,4.19,4.19,0,0,1,2.15-.57,3.48,3.48,0,0,1,2.79,1.06,4.74,4.74,0,0,1,.92,3.15v7.63h-1.28V9.89a3.55,3.55,0,0,0-.66-2.32,2.57,2.57,0,0,0-2.08-.76,3.26,3.26,0,0,0-2.11.75,4.41,4.41,0,0,0-1.36,2v8H574V5.91Z"/><path class="cls-15" d="M588.08,2.93v3h2.4V7h-2.4v7.75a2.4,2.4,0,0,0,.35,1.45,1.36,1.36,0,0,0,1.16.47,8.14,8.14,0,0,0,1-.11l.06,1.05a4.27,4.27,0,0,1-1.38.18,2.29,2.29,0,0,1-1.92-.77,3.63,3.63,0,0,1-.6-2.26V7h-2.14v-1h2.14v-3Z"/><path class="cls-15" d="M397,50.53H395.7V34.89H397Z"/><path class="cls-15" d="M401.26,50.53V34.89h4.38a6.7,6.7,0,0,1,3.44.88,6,6,0,0,1,2.38,2.5,7.91,7.91,0,0,1,.86,3.72v1.44a8,8,0,0,1-.85,3.72,6.07,6.07,0,0,1-2.39,2.5,7,7,0,0,1-3.54.88ZM402.59,36v13.4h3a5.06,5.06,0,0,0,4-1.64,6.31,6.31,0,0,0,1.5-4.43V42a6.16,6.16,0,0,0-1.48-4.32A5,5,0,0,0,405.66,36Z"/><path class="cls-15" d="M419.21,44.38a17.57,17.57,0,0,1-.58,4.55,14.36,14.36,0,0,1-1.74,4,8,8,0,0,1-2.53,2.65l-.31-.83A7.19,7.19,0,0,0,416,52.42a14.47,14.47,0,0,0,1.41-3.68,19.3,19.3,0,0,0,.51-4.56,17.87,17.87,0,0,0-.51-4.29A14.92,14.92,0,0,0,416,36.2a7.21,7.21,0,0,0-1.94-2.37l.31-.83a8.09,8.09,0,0,1,2.5,2.64,14.61,14.61,0,0,1,1.75,4A17.93,17.93,0,0,1,419.21,44.38Z"/><path class="cls-15" d="M429.88,35.93v3h2.41V40h-2.41v7.75a2.48,2.48,0,0,0,.35,1.45,1.37,1.37,0,0,0,1.17.47,8.51,8.51,0,0,0,1-.11l.05,1a4.2,4.2,0,0,1-1.37.18,2.31,2.31,0,0,1-1.93-.77,3.63,3.63,0,0,1-.6-2.26V40h-2.14V38.91h2.14v-3Z"/><path class="cls-15" d="M442.29,50.53a6.18,6.18,0,0,1-.25-1.62,4.51,4.51,0,0,1-1.72,1.36,5.28,5.28,0,0,1-2.22.48,3.9,3.9,0,0,1-2.71-.94,3,3,0,0,1-1-2.36,3.12,3.12,0,0,1,1.41-2.69,6.79,6.79,0,0,1,3.94-1H442V42.45a2.56,2.56,0,0,0-.77-2,3.2,3.2,0,0,0-2.24-.71,3.5,3.5,0,0,0-2.22.69,2,2,0,0,0-.88,1.65h-1.29a3,3,0,0,1,1.29-2.4,4.94,4.94,0,0,1,3.17-1,4.5,4.5,0,0,1,3.06,1,3.46,3.46,0,0,1,1.16,2.71v5.5a7,7,0,0,0,.35,2.52v.13Zm-4-.92a4.25,4.25,0,0,0,2.3-.63A3.65,3.65,0,0,0,442,47.32V44.76h-2.3a5.79,5.79,0,0,0-3,.71,2.11,2.11,0,0,0-1.08,1.87,2.08,2.08,0,0,0,.72,1.62A2.76,2.76,0,0,0,438.25,49.61Z"/><path class="cls-15" d="M449.5,44.68,448,46.09v4.44h-1.28V34H448V44.59l1.22-1.31,4.44-4.37h1.63l-4.93,4.9,5.36,6.72H454.2Z"/><path class="cls-15" d="M461.79,50.75a5.11,5.11,0,0,1-2.68-.73,5,5,0,0,1-1.86-2,6.29,6.29,0,0,1-.67-2.93v-.46a6.9,6.9,0,0,1,.65-3A5.19,5.19,0,0,1,459,39.46a4.47,4.47,0,0,1,2.51-.77,4.19,4.19,0,0,1,3.36,1.45,5.84,5.84,0,0,1,1.24,4v.72h-8.29v.24a4.91,4.91,0,0,0,1.13,3.3,3.63,3.63,0,0,0,2.85,1.31,3.76,3.76,0,0,0,3.26-1.58l.8.61A4.68,4.68,0,0,1,461.79,50.75Zm-.24-11a3.21,3.21,0,0,0-2.44,1.06,4.91,4.91,0,0,0-1.21,2.86h7v-.14a4.23,4.23,0,0,0-.95-2.73A3,3,0,0,0,461.55,39.79Z"/><path class="cls-15" d="M476,35.93v3h2.41V40H476v7.75a2.48,2.48,0,0,0,.35,1.45,1.37,1.37,0,0,0,1.17.47,8.51,8.51,0,0,0,1-.11l.05,1a4.16,4.16,0,0,1-1.37.18,2.33,2.33,0,0,1-1.93-.77,3.63,3.63,0,0,1-.6-2.26V40h-2.13V38.91h2.13v-3Z"/><path class="cls-15" d="M480.36,44.55a6.87,6.87,0,0,1,.65-3,5,5,0,0,1,1.84-2.09,4.93,4.93,0,0,1,2.69-.75,4.8,4.8,0,0,1,3.76,1.63,6.27,6.27,0,0,1,1.44,4.31v.27a7,7,0,0,1-.65,3A4.83,4.83,0,0,1,488.26,50a5.1,5.1,0,0,1-2.7.73,4.79,4.79,0,0,1-3.75-1.63,6.23,6.23,0,0,1-1.45-4.31Zm1.29.35a5.26,5.26,0,0,0,1.08,3.42,3.65,3.65,0,0,0,5.65,0,5.43,5.43,0,0,0,1.08-3.53v-.24a5.91,5.91,0,0,0-.49-2.44,3.89,3.89,0,0,0-1.39-1.71,3.48,3.48,0,0,0-2-.61,3.43,3.43,0,0,0-2.8,1.35,5.41,5.41,0,0,0-1.09,3.53Z"/><path class="cls-15" d="M506.08,50.53a6.18,6.18,0,0,1-.25-1.62,4.44,4.44,0,0,1-1.72,1.36,5.28,5.28,0,0,1-2.22.48,3.9,3.9,0,0,1-2.71-.94,3,3,0,0,1-1-2.36,3.12,3.12,0,0,1,1.41-2.69,6.81,6.81,0,0,1,3.94-1h2.33V42.45a2.53,2.53,0,0,0-.77-2,3.19,3.19,0,0,0-2.24-.71,3.5,3.5,0,0,0-2.22.69,2,2,0,0,0-.88,1.65h-1.29a3,3,0,0,1,1.29-2.4,5,5,0,0,1,3.17-1,4.54,4.54,0,0,1,3.07,1,3.49,3.49,0,0,1,1.15,2.71v5.5a6.72,6.72,0,0,0,.36,2.52v.13Zm-4-.92a4.25,4.25,0,0,0,2.3-.63,3.65,3.65,0,0,0,1.48-1.66V44.76h-2.3a5.73,5.73,0,0,0-3,.71,2.1,2.1,0,0,0-1.09,1.87,2.06,2.06,0,0,0,.73,1.62A2.72,2.72,0,0,0,502,49.61Z"/><path class="cls-15" d="M515.9,40a4.79,4.79,0,0,0-.87-.07,3.15,3.15,0,0,0-2,.67,3.68,3.68,0,0,0-1.18,1.95v8h-1.28V38.91h1.25l0,1.85a3.41,3.41,0,0,1,3.27-2.07,2.18,2.18,0,0,1,.85.14Z"/><path class="cls-15" d="M523.3,40a4.79,4.79,0,0,0-.87-.07,3.15,3.15,0,0,0-2,.67,3.68,3.68,0,0,0-1.18,1.95v8h-1.28V38.91h1.26l0,1.85a3.41,3.41,0,0,1,3.27-2.07,2.18,2.18,0,0,1,.85.14Z"/><path class="cls-15" d="M525.25,35.55a.84.84,0,0,1,.89-.86.87.87,0,0,1,.65.25.9.9,0,0,1,0,1.22.91.91,0,0,1-.65.25.87.87,0,0,1-.65-.25A.84.84,0,0,1,525.25,35.55Zm1.52,15h-1.29V38.91h1.29Z"/><path class="cls-15" d="M533.88,48.76l3.54-9.85h1.32L534.4,50.53h-1L529,38.91h1.32Z"/><path class="cls-15" d="M545.21,50.75a5.11,5.11,0,0,1-2.68-.73,5,5,0,0,1-1.86-2,6.29,6.29,0,0,1-.67-2.93v-.46a6.9,6.9,0,0,1,.65-3,5.19,5.19,0,0,1,1.81-2.11,4.47,4.47,0,0,1,2.51-.77,4.18,4.18,0,0,1,3.36,1.45,5.84,5.84,0,0,1,1.24,4v.72h-8.29v.24a4.91,4.91,0,0,0,1.13,3.3,3.63,3.63,0,0,0,2.85,1.31,3.76,3.76,0,0,0,3.26-1.58l.81.61A4.7,4.7,0,0,1,545.21,50.75Zm-.24-11a3.21,3.21,0,0,0-2.44,1.06,5,5,0,0,0-1.21,2.86h7v-.14a4.23,4.23,0,0,0-.95-2.73A3,3,0,0,0,545,39.79Z"/><path class="cls-15" d="M554.44,46.18a5.69,5.69,0,0,1,.34-2,6.29,6.29,0,0,1,1.39-1.82,14.48,14.48,0,0,0,1.37-1.48,3.66,3.66,0,0,0,.47-1,4,4,0,0,0,.17-1.19,3,3,0,0,0-.72-2.11,2.58,2.58,0,0,0-2-.76,2.93,2.93,0,0,0-2.08.73,2.63,2.63,0,0,0-.81,2H551.3a3.71,3.71,0,0,1,1.19-2.82,4.3,4.3,0,0,1,3-1,3.7,3.7,0,0,1,4,4,4.64,4.64,0,0,1-.53,2.17,9.32,9.32,0,0,1-2,2.37,3.65,3.65,0,0,0-1.21,3Zm-.17,3.59a.87.87,0,0,1,.23-.62.82.82,0,0,1,.65-.25.85.85,0,0,1,.65.25.88.88,0,0,1,.24.62.81.81,0,0,1-.24.6.85.85,0,0,1-.65.25.82.82,0,0,1-.65-.25A.81.81,0,0,1,554.27,49.77Z"/></g></g></svg>