<svg xmlns="http://www.w3.org/2000/svg" xmlns:xlink="http://www.w3.org/1999/xlink" viewBox="0 0 678.36 923.45"><defs><style>.cls-1,.cls-11{fill:#d69929;}.cls-2{fill:url(#linear-gradient);}.cls-3{fill:url(#linear-gradient-2);}.cls-4{fill:url(#linear-gradient-3);}.cls-5{fill:url(#linear-gradient-4);}.cls-6{fill:url(#linear-gradient-5);}.cls-7{fill:url(#linear-gradient-6);}.cls-8{fill:url(#linear-gradient-7);}.cls-9{fill:url(#linear-gradient-8);}.cls-10{fill:url(#linear-gradient-9);}.cls-11{stroke:#231f20;stroke-miterlimit:10;}</style><linearGradient id="linear-gradient" x1="228.57" y1="172.95" x2="495.74" y2="172.95" gradientUnits="userSpaceOnUse"><stop offset="0.19" stop-color="#d29629"/><stop offset="0.98" stop-color="#f15a29"/></linearGradient><linearGradient id="linear-gradient-2" x1="417.73" y1="138.36" x2="634.88" y2="138.36" gradientUnits="userSpaceOnUse"><stop offset="0.02" stop-color="#f15a29"/><stop offset="0.57" stop-color="#d79629"/><stop offset="0.72" stop-color="#d69929"/></linearGradient><linearGradient id="linear-gradient-3" x1="432.53" y1="313.21" x2="64.92" y2="525.44" gradientUnits="userSpaceOnUse"><stop offset="0.02" stop-color="#f15a29"/><stop offset="0.2" stop-color="#d79629"/><stop offset="0.72" stop-color="#d69929"/></linearGradient><linearGradient id="linear-gradient-4" x1="437.05" y1="385.6" x2="569.61" y2="518.16" xlink:href="#linear-gradient-2"/><linearGradient id="linear-gradient-5" x1="89.76" y1="473.36" x2="255.08" y2="759.69" gradientUnits="userSpaceOnUse"><stop offset="0.19" stop-color="#d29629"/><stop offset="0.7" stop-color="#d79629"/><stop offset="0.98" stop-color="#f15a29"/></linearGradient><linearGradient id="linear-gradient-6" x1="361.18" y1="752.83" x2="439.45" y2="617.27" xlink:href="#linear-gradient-2"/><linearGradient id="linear-gradient-7" x1="327.57" y1="794.74" x2="0" y2="794.74" gradientUnits="userSpaceOnUse"><stop offset="0.02" stop-color="#f15a29"/><stop offset="0.84" stop-color="#d69929"/></linearGradient><linearGradient id="linear-gradient-8" x1="381.34" y1="789.5" x2="296.88" y2="838.27" gradientUnits="userSpaceOnUse"><stop offset="0.14" stop-color="#f15a29"/><stop offset="0.31" stop-color="#ef5d29"/><stop offset="0.49" stop-color="#ed6129"/><stop offset="1" stop-color="#d69929"/></linearGradient><linearGradient id="linear-gradient-9" x1="408.53" y1="767.59" x2="483.47" y2="842.53" gradientUnits="userSpaceOnUse"><stop offset="0.02" stop-color="#f15a29"/><stop offset="0.45" stop-color="#ef5e29"/><stop offset="0.84" stop-color="#d69929"/></linearGradient></defs><title>Asset 1</title><g id="Layer_2" data-name="Layer 2"><g id="Layer_1-2" data-name="Layer 1"><path class="cls-1" d="M45.74,175.74c9.68-7.62,11.92-4.25,33.58-11.47,2.79-.93,40.22-13.9,60.1-44.63,13-20,7.27-24,16.24-47.94,10-26.66,35.93-47.71,64.4-48.09s56.43,22.77,57.86,51.2c1.32,26.19-17.74,49.1-38.8,64.72C223.61,151,205,162.16,200.49,180.93c-4.18,17.4,5.53,34.91,15.87,49.5s22.21,29.7,23.09,47.57c1.23,25.05-20.83,46.5-45,53S144.49,332.58,120,327c-22.3-5.13-45.66-11.46-61.79-27.7-7.7-7.76-11.94-18.63-21.38-39.48-7.62-16.81-11.42-25.22-12-33.87C23.61,207.89,30.93,187.39,45.74,175.74Z"/><path class="cls-2" d="M283.15,144.09c-16.29,18.5-45.8,26-53.34,49.48a20.14,20.14,0,0,0-.59,11.89c2.39,8,10.85,12.22,18.3,16a231,231,0,0,1,40.3,25.82c5.31,4.24,10.6,8.93,13.39,15.13,4.58,10.17,1.5,22.17-3.34,32.22S286.46,314,283.72,324.83c-.94,3.71-1.37,7.78.23,11.26,2.43,5.29,8.68,7.55,14.41,8.61a75.83,75.83,0,0,0,57.53-13c14.51-10.54,24.78-25.92,38.43-37.56s33.64-19.3,49.41-10.75c6.42,3.49,11.48,9.34,18.32,11.94,15.1,5.73,32.37-8.71,33.59-24.81s-9.6-31.11-23.1-40c-12.17-8-22.59-11.93-44.86-17.83-12.93-3.43-46.45-11.4-62.86-22.44-2.55-1.72-6.59-4.79-7.84-9.84-1.68-6.8,2.64-13,3.39-13.73,3.65-3.52,8.48-5.48,12.86-8,19.26-11.15,29.37-32.94,37.2-53.76C416.54,88.65,422,71.8,422,54.46S415.6,19,401.78,8.52c-24.91-18.88-81.94-4.09-99.31,21.93C280.21,63.78,313.45,109.68,283.15,144.09Z"/><path class="cls-3" d="M489.71,5.14c-9.45,3.24-16.27,11.73-25.59,23.34A71.32,71.32,0,0,0,457.27,39a37.74,37.74,0,0,0-4.79,13.72c-1.79,14.52,3,28.91,2.48,41.71C453.68,123.33,418,148.68,417.73,165a16.86,16.86,0,0,0,2.13,8.54c2.21,3.5,5.8,5.43,9.38,6.6,13.09,4.28,35.88,1.72,49.43,2.73,2.28.17,31.22,2.23,46.4,21.86,9.63,12.45,11.52,29.06,17.65,43.56s20.83,28.39,35.86,23.73c10.91-3.39,16.77-14.88,21.75-25.16,10.59-21.88,22.6-43.29,29.4-66.63s7.9-49.43-3-71.16c-8.63-17.2-23.82-30-38.6-42.35-34.52-28.78-44.24-46-68-56.66C504.48,3,496.21,2.91,489.71,5.14Z"/><path class="cls-4" d="M114.14,384.91c24.45,15.54,58.22,14.84,82-1.71,9.78-6.8,17.78-15.87,25-25.37a247.3,247.3,0,0,0,30.63-52.89c1.34-3.17-10.37,29.23,2.12,50.94,11,19.16,36.8,23.41,46.45,25,5.3.87,34.08,5.11,61.81-11.64,25.27-15.26,23-35.3,42.71-36.85,20.65-1.62,43.18,6.89,53.19,25,8.58,15.57,6.24,35.95-4.1,50.41s-27.75,23.07-45.46,24.64c-19.62,1.75-39.1-4.43-58.79-4.74-6.74-.11-14.34.92-18.4,6.29-2.86,3.78-3.24,9-2.16,13.6,5.67,24.27,40.68,26.73,56.3,46.16A35.2,35.2,0,0,1,358.26,551c-26.29.19-43.4-26.94-66.32-39.83-37.42-21-83.84-1.66-126.76-2.87-24.7-.69-48.61-8.4-72-16.31S45.3,475.28,28,457.48c-13.15-13.54-20.56-33-17.54-51.85,2.08-13,5-34.56,10.15-46.73C40,312.68,94,372.13,114.14,384.91Z"/><path class="cls-5" d="M547.8,327.51c-3.19-3.34-7.26-5.16-11-6.49-9.57-3.35-20.25-4.34-29.81-1s-17.7,11.59-19.31,21.59c-1.92,12,5.23,23.25,8.78,34.84,6.38,20.83.62,44.39-12.8,61.57s-33.75,28.19-55.07,32.66c-3.88.81-8.24,1.7-10.4,5-3.07,4.69.26,11,4.31,14.83s9.15,7.37,10.43,12.82c2.28,9.71-8.86,17.56-10.23,27.44-1.63,11.7,10.38,20.36,21.1,25.32,21.84,10.11,47,17.15,69.81,9.53,30-10,47.38-44.35,44.1-75.76-1.72-16.43-5.93-16-10.09-45.08a229,229,0,0,1-1.51-60C549.41,355.34,557.79,338,547.8,327.51Z"/><path class="cls-6" d="M45.63,509.53c29.8,11.24,50.52,39.93,80.49,50.71,40,14.38,84-6.65,126.31-3.16,8.56.7,17.55,2.68,23.74,8.64,11.41,11,8.06,31-2.32,43-7.08,8.16-17.38,15.14-18.39,25.91-.77,8.16,4.25,15.61,9,22.26l30,41.78c5.62,7.81,11.49,17.58,7.69,26.42-1.86,4.31-5.72,7.38-9.43,10.27-18.3,14.23-40.11,29.31-62.68,24-14.58-3.43-25.73-14.72-37.85-23.52a125.8,125.8,0,0,0-47.73-21.23c-15.74-3.34-32.38-3.72-46.93-10.58S71,680.64,76.34,665.45c3.45-9.89,13-16.18,19.19-24.6,12.31-16.65,7.7-44.78-11.43-52.7-11.22-4.65-24.83-1.43-35.62-7-10.24-5.27-16.62-17.94-22.88-27.35C14.22,536.67,14.7,497.85,45.63,509.53Z"/><path class="cls-7" d="M288.83,636.05C287,649.58,303,657.51,312,667.79c13.78,15.77,11.32,39.94,20.44,58.79C342.88,748.2,370,760.18,393,753.32c8.13-2.42,16.19-6.92,24.57-5.54s14.6,8.28,22,12.53C452,767.48,467.26,767,481.44,765c16.5-2.3,35.15-8.2,41.32-23.68,2.63-6.61,2.47-14.06,1-21a61.86,61.86,0,0,0-37.23-44.19c-23.51-9.25-52.33-3-74.22-16.69-23.66-14.78-29.19-52.06-44.14-74.56-12.24-18.41-36.67-38.05-56.32-14.77-10.7,12.68.53,25.14-4.39,39C303.77,619.63,290.4,624.34,288.83,636.05Z"/><path class="cls-1" d="M420.45,627c7.17,13.08,23.35,18.28,38.22,19.47s30.2-.38,44.39,4.2c10.08,3.25,20.77,9.55,30.49,5.32,6.71-2.91,10.54-10.19,12.06-17.35,7.78-36.69-42.36-43.33-67.66-52.1C452.41,577.73,399.43,588.76,420.45,627Z"/><path class="cls-1" d="M576.64,705c1.39,9.73-3.41,19.1-6.94,28.27s-5.64,20.34.3,28.17c7.45,9.82,22.63,8.37,34.19,4.09,4.35-1.61,8.75-3.58,11.86-7,4.82-5.36,5.58-13.13,6.11-20.32,2.49-33.83,12.46-82.5-31.69-94.57-13.66-3.74-26.07,2.61-29.31,17.19C557.24,678.42,574.31,688.79,576.64,705Z"/><path class="cls-1" d="M554.89,556.9c-4.16,5.42-7,12.43-5.41,19.07a25.82,25.82,0,0,0,4.33,8.52,75.58,75.58,0,0,0,25.78,22.86c4.09,2.21,8.66,4.07,13.27,3.44,3.41-.47,6.49-2.27,9.26-4.32,15.38-11.35,30.7-41.29,14.23-57.59C599.73,532.42,567.74,540.13,554.89,556.9Z"/><path class="cls-8" d="M35.65,676.3c13.52,18.47,2.94,37.76,13.55,49.61,2.58,2.89,4,4.6,26.85,7.78a276.49,276.49,0,0,1,52.71,12.72c13.82,4.82,27.72,11.07,37.35,22.08,3.54,4,6.44,8.66,10.44,12.23,6.86,6.11,16.27,8.53,25.43,9.26,30.45,2.42,59.87-11.62,85.06-28.91,5.46-3.75,10.94-7.73,17.3-9.62s13.91-1.26,18.65,3.38c6.44,6.29,5.26,17.09,1.53,25.29a55.22,55.22,0,0,1-25.66,26.42c-8.57,4.21-19.35,7.26-22.54,16.26-2.44,6.88.87,14.49,5.21,20.36s9.83,11.05,12.68,17.77c5.62,13.29-1,29.29-12.08,38.56s-25.55,13.19-39.67,16.18c-45.88,9.69-94.46,11.93-139-2.61S18.79,865.26,4.19,820.7C-1.59,803-2.66,781.84,9.24,767.55c5.06-6.08,12.45-11,13.88-18.81,1.28-6.88-2.6-13.5-5.73-19.75A105.3,105.3,0,0,1,7.15,695.41c-1.21-9.34-3.2-22.66,3.94-27.56,5.57-3.82,14-.67,17.13.71A40.42,40.42,0,0,1,35.65,676.3Z"/><path class="cls-9" d="M312.07,815.34c-4.77,2.5-9.94,4.65-13.51,8.69s-4.88,10.75-1.19,14.68c2.8,3,7.32,3.34,11.4,3.52,18.76.83,38.25,1.53,55.51-5.87,6.49-2.78,13.23-7.86,13.31-14.93.09-7.37-6.86-12.38-7.57-19.47-.73-7.29,6.26-12.23,6.09-18.79-.21-8.42-9-12.36-16.44-13.32-11.3-1.45-14.29,2.28-17.62,11.39C336.15,797.34,328.13,806.94,312.07,815.34Z"/><path class="cls-10" d="M393.86,785.53c2.48-7,8.38-12.43,15.11-15.58,4.94-2.31,11-3.42,15.65-.51,4,2.5,5.77,7.29,9,10.64,8.21,8.39,22,5.41,33.46,2.82,7-1.58,14.18-2.78,21.29-1.88s14.18,4.14,18.33,10c6.6,9.27,4,22.86-3.41,31.51s-18.45,13.27-29.41,16.37a156.4,156.4,0,0,1-47.73,5.79c-7.1-.24-16-1.4-21.65-6.12-2-1.66-6.3-5.47-6.05-8.58.43-5.31,4.82-2.56,6.86-6.46C413.32,808.23,387.3,804.05,393.86,785.53Z"/><path class="cls-1" d="M620.69,778.88c-12,6.13-33.58,17.17-48.22,12.24-4.49-1.52-1.94-2.38-20.79-15.71-8.51-6-11.65-7.69-15.77-7.48-6.88.35-15.25,5.74-15.58,12.39-.39,7.73,7,13.62,9,21.09,2.86,10.69-5.65,20.83-13.81,28.3S498.08,846.06,499,857.09c.63,7.66,6.39,14.16,13.22,17.67s14.65,4.5,22.3,5.16c10.16.86,21.16,1,29.57-4.76,12.57-8.59,17.28-28.77,32.4-30.54,9.63-1.13,18.18,6.41,27.82,7.5,10.79,1.22,21.23-6.27,26.06-16s4.94-21.16,3.26-31.89c-1.11-7.06-1.93-13.2-6.81-18.91-1.09-1.28-7.89-9-17.25-8.88A19.14,19.14,0,0,0,620.69,778.88Z"/><path class="cls-11" d="M675.89,689.48a4.55,4.55,0,0,1,2,3.17"/><path class="cls-1" d="M51.57,42.64c-8.33,1.91-17,6.34-21.49,14a35.76,35.76,0,0,0-3.9,11.53,91.59,91.59,0,0,0,1.5,42.06c1.5,5.31,3.71,10.68,8.16,13.69,3.29,2.23,7.5,2.92,11.65,3.14,23.06,1.23,62.56-15.33,63.11-43.82C111.16,54.45,77.3,36.72,51.57,42.64Z"/></g></g></svg>