<svg version="1.1" viewBox="0.0 0.0 407.0 318.0" fill="none" stroke="none" stroke-linecap="square" stroke-miterlimit="10" width="407" height="318" xmlns:xlink="http://www.w3.org/1999/xlink" xmlns="http://www.w3.org/2000/svg"><path fill="#ffffff" fill-opacity="0.0" d="M0 0L407.0 0L407.0 318.0L0 318.0L0 0Z" fill-rule="nonzero"/><path stroke="#333333" stroke-width="1.0" stroke-linecap="butt" d="M42.5 235.5L391.5 235.5" fill-rule="nonzero"/><path stroke="#cccccc" stroke-width="1.0" stroke-linecap="butt" d="M42.5 165.5L391.5 165.5" fill-rule="nonzero"/><path stroke="#cccccc" stroke-width="1.0" stroke-linecap="butt" d="M42.5 94.5L391.5 94.5" fill-rule="nonzero"/><path stroke="#cccccc" stroke-width="1.0" stroke-linecap="butt" d="M42.5 23.5L391.5 23.5" fill-rule="nonzero"/><clipPath id="id_0"><path d="M42.9 23.4L391.1 23.4L391.1 235.87639L42.9 235.87639L42.9 23.4Z" clip-rule="nonzero"/></clipPath><path stroke="#000000" stroke-width="0.0" stroke-linecap="butt" stroke-opacity="0.0" clip-path="url(#id_0)" d="M76.0 236.0L43.0 236.0L43.0 231.0C43.0 229.89543 43.89543 229.0 45.0 229.0L74.0 229.0C75.10457 229.0 76.0 229.89543 76.0 231.0Z" fill-rule="nonzero"/><path fill="#976b18" clip-path="url(#id_0)" d="M76.0 236.0L43.0 236.0L43.0 231.0C43.0 229.89543 43.89543 229.0 45.0 229.0L74.0 229.0C75.10457 229.0 76.0 229.89543 76.0 231.0Z" fill-rule="nonzero"/><path stroke="#000000" stroke-width="0.0" stroke-linecap="butt" stroke-opacity="0.0" clip-path="url(#id_0)" d="M111.0 236.0L78.0 236.0L78.0 153.0C78.0 151.89543 78.89543 151.0 80.0 151.0L109.0 151.0C110.10457 151.0 111.0 151.89543 111.0 153.0Z" fill-rule="nonzero"/><path fill="#976b18" clip-path="url(#id_0)" d="M111.0 236.0L78.0 236.0L78.0 153.0C78.0 151.89543 78.89543 151.0 80.0 151.0L109.0 151.0C110.10457 151.0 111.0 151.89543 111.0 153.0Z" fill-rule="nonzero"/><path stroke="#000000" stroke-width="0.0" stroke-linecap="butt" stroke-opacity="0.0" clip-path="url(#id_0)" d="M146.0 236.0L113.0 236.0L113.0 36.0C113.0 34.89543 113.89543 34.0 115.0 34.0L144.0 34.0C145.10457 34.0 146.0 34.89543 146.0 36.0Z" fill-rule="nonzero"/><path fill="#976b18" clip-path="url(#id_0)" d="M146.0 236.0L113.0 236.0L113.0 36.0C113.0 34.89543 113.89543 34.0 115.0 34.0L144.0 34.0C145.10457 34.0 146.0 34.89543 146.0 36.0Z" fill-rule="nonzero"/><path stroke="#000000" stroke-width="0.0" stroke-linecap="butt" stroke-opacity="0.0" clip-path="url(#id_0)" d="M181.0 236.0L148.0 236.0L148.0 202.0C148.0 200.89543 148.89543 200.0 150.0 200.0L179.0 200.0C180.10457 200.0 181.0 200.89543 181.0 202.0Z" fill-rule="nonzero"/><path fill="#976b18" clip-path="url(#id_0)" d="M181.0 236.0L148.0 236.0L148.0 202.0C148.0 200.89543 148.89543 200.0 150.0 200.0L179.0 200.0C180.10457 200.0 181.0 200.89543 181.0 202.0Z" fill-rule="nonzero"/><path stroke="#000000" stroke-width="0.0" stroke-linecap="butt" stroke-opacity="0.0" clip-path="url(#id_0)" d="M216.0 236.0L183.0 236.0L183.0 220.0C183.0 218.89543 183.89543 218.0 185.0 218.0L214.0 218.0C215.10457 218.0 216.0 218.89543 216.0 220.0Z" fill-rule="nonzero"/><path fill="#976b18" clip-path="url(#id_0)" d="M216.0 236.0L183.0 236.0L183.0 220.0C183.0 218.89543 183.89543 218.0 185.0 218.0L214.0 218.0C215.10457 218.0 216.0 218.89543 216.0 220.0Z" fill-rule="nonzero"/><path stroke="#000000" stroke-width="0.0" stroke-linecap="butt" stroke-opacity="0.0" clip-path="url(#id_0)" d="M250.0 236.0L217.0 236.0L217.0 224.0C217.0 222.89543 217.89543 222.0 219.0 222.0L248.0 222.0C249.10457 222.0 250.0 222.89543 250.0 224.0Z" fill-rule="nonzero"/><path fill="#976b18" clip-path="url(#id_0)" d="M250.0 236.0L217.0 236.0L217.0 224.0C217.0 222.89543 217.89543 222.0 219.0 222.0L248.0 222.0C249.10457 222.0 250.0 222.89543 250.0 224.0Z" fill-rule="nonzero"/><path stroke="#000000" stroke-width="0.0" stroke-linecap="butt" stroke-opacity="0.0" clip-path="url(#id_0)" d="M285.0 236.0L252.0 236.0L252.0 236.0L285.0 236.0Z" fill-rule="nonzero"/><path fill="#976b18" clip-path="url(#id_0)" d="M285.0 236.0L252.0 236.0L252.0 236.0L285.0 236.0Z" fill-rule="nonzero"/><path stroke="#000000" stroke-width="0.0" stroke-linecap="butt" stroke-opacity="0.0" clip-path="url(#id_0)" d="M320.0 236.0L287.0 236.0L287.0 236.0L320.0 236.0Z" fill-rule="nonzero"/><path fill="#976b18" clip-path="url(#id_0)" d="M320.0 236.0L287.0 236.0L287.0 236.0L320.0 236.0Z" fill-rule="nonzero"/><path stroke="#000000" stroke-width="0.0" stroke-linecap="butt" stroke-opacity="0.0" clip-path="url(#id_0)" d="M355.0 236.0L322.0 236.0L322.0 234.0C322.0 232.89543 322.89542 232.0 324.0 232.0L353.0 232.0C354.10458 232.0 355.0 232.89543 355.0 234.0Z" fill-rule="nonzero"/><path fill="#976b18" clip-path="url(#id_0)" d="M355.0 236.0L322.0 236.0L322.0 234.0C322.0 232.89543 322.89542 232.0 324.0 232.0L353.0 232.0C354.10458 232.0 355.0 232.89543 355.0 234.0Z" fill-rule="nonzero"/><path stroke="#000000" stroke-width="0.0" stroke-linecap="butt" stroke-opacity="0.0" clip-path="url(#id_0)" d="M390.0 236.0L357.0 236.0L357.0 234.0C357.0 232.89543 357.89542 232.0 359.0 232.0L388.0 232.0C389.10458 232.0 390.0 232.89543 390.0 234.0Z" fill-rule="nonzero"/><path fill="#976b18" clip-path="url(#id_0)" d="M390.0 236.0L357.0 236.0L357.0 234.0C357.0 232.89543 357.89542 232.0 359.0 232.0L388.0 232.0C389.10458 232.0 390.0 232.89543 390.0 234.0Z" fill-rule="nonzero"/><path fill="#424242" d="M212.20312 296.86563L208.625 296.86563L207.82812 299.1L206.67188 299.1L209.92188 290.56876L210.90625 290.56876L214.17188 299.1L213.01562 299.1L212.20312 296.86563ZM208.96875 295.94376L211.875 295.94376L210.42188 291.95938L208.96875 295.94376ZM215.0625 295.88126Q215.0625 294.39688 215.75 293.52188Q216.4375 292.64688 217.5625 292.64688Q218.71875 292.64688 219.375 293.45938L219.42188 292.75626L220.42188 292.75626L220.42188 298.94376Q220.42188 300.17813 219.6875 300.88126Q218.95312 301.6 217.73438 301.6Q217.04688 301.6 216.39062 301.30313Q215.73438 301.00626 215.39062 300.50626L215.95312 299.85Q216.64062 300.70938 217.65625 300.70938Q218.4375 300.70938 218.875 300.25626Q219.32812 299.81876 219.32812 299.00626L219.32812 298.45938Q218.67188 299.225 217.54688 299.225Q216.4375 299.225 215.75 298.33438Q215.0625 297.42813 215.0625 295.88126ZM216.15625 296.00626Q216.15625 297.06876 216.59375 297.69376Q217.03125 298.30313 217.82812 298.30313Q218.84375 298.30313 219.32812 297.36563L219.32812 294.475Q218.82812 293.56876 217.82812 293.56876Q217.04688 293.56876 216.59375 294.17813Q216.15625 294.7875 216.15625 296.00626ZM224.95312 299.225Q223.65625 299.225 222.84375 298.38126Q222.04688 297.52188 222.04688 296.1L222.04688 295.9125Q222.04688 294.95938 222.40625 294.225Q222.76562 293.475 223.40625 293.06876Q224.0625 292.64688 224.8125 292.64688Q226.04688 292.64688 226.73438 293.45938Q227.42188 294.27188 227.42188 295.7875L227.42188 296.24063L223.125 296.24063Q223.15625 297.17813 223.67188 297.75626Q224.20312 298.33438 225.01562 298.33438Q225.57812 298.33438 225.96875 298.1Q226.375 297.86563 226.6875 297.475L227.34375 297.99063Q226.54688 299.225 224.95312 299.225ZM224.8125 293.5375Q224.15625 293.5375 223.70312 294.02188Q223.26562 294.49063 223.17188 295.35L226.34375 295.35L226.34375 295.27188Q226.29688 294.44376 225.89062 293.99063Q225.5 293.5375 224.8125 293.5375Z" fill-rule="nonzero"/><path fill="#757575" d="M35.9625 236.73576Q35.9625 238.64201 35.30625 239.57951Q34.665627 240.50139 33.275 240.50139Q31.915625 240.50139 31.259375 239.59514Q30.603125 238.68889 30.571875 236.87639L30.571875 235.43889Q30.571875 233.54826 31.2125 232.64201Q31.86875 231.72014 33.259377 231.72014Q34.634377 231.72014 35.290627 232.61076Q35.946877 233.48576 35.9625 235.32951L35.9625 236.73576ZM34.86875 235.25139Q34.86875 233.87639 34.478127 233.25139Q34.103127 232.61076 33.259377 232.61076Q32.43125 232.61076 32.040627 233.25139Q31.665625 233.87639 31.665625 235.17326L31.665625 236.90764Q31.665625 238.28264 32.05625 238.95451Q32.4625 239.61076 33.275 239.61076Q34.071877 239.61076 34.4625 238.98576Q34.853127 238.36076 34.86875 237.03264L34.86875 235.25139Z" fill-rule="nonzero"/><path fill="#757575" d="M29.196875 169.55092L23.603125 169.55092L23.603125 168.76967L26.55625 165.48842Q27.2125 164.73842 27.4625 164.2853Q27.7125 163.81654 27.7125 163.31654Q27.7125 162.64467 27.30625 162.2228Q26.915625 161.7853 26.228125 161.7853Q25.43125 161.7853 24.978125 162.25404Q24.525 162.70717 24.525 163.5353L23.446875 163.5353Q23.446875 162.3478 24.196875 161.62904Q24.9625 160.89467 26.228125 160.89467Q27.43125 160.89467 28.11875 161.51967Q28.80625 162.14467 28.80625 163.19154Q28.80625 164.44154 27.196875 166.19154L24.915625 168.6603L29.196875 168.6603L29.196875 169.55092ZM35.9625 165.9103Q35.9625 167.81654 35.30625 168.75404Q34.665627 169.67592 33.275 169.67592Q31.915625 169.67592 31.259375 168.76967Q30.603125 167.86342 30.571875 166.05092L30.571875 164.61342Q30.571875 162.7228 31.2125 161.81654Q31.86875 160.89467 33.259377 160.89467Q34.634377 160.89467 35.290627 161.7853Q35.946877 162.6603 35.9625 164.50404L35.9625 165.9103ZM34.86875 164.42592Q34.86875 163.05092 34.478127 162.42592Q34.103127 161.7853 33.259377 161.7853Q32.43125 161.7853 32.040627 162.42592Q31.665625 163.05092 31.665625 164.3478L31.665625 166.08217Q31.665625 167.45717 32.05625 168.12904Q32.4625 168.7853 33.275 168.7853Q34.071877 168.7853 34.4625 168.1603Q34.853127 167.5353 34.86875 166.20717L34.86875 164.42592Z" fill-rule="nonzero"/><path fill="#757575" d="M28.18125 95.86609L29.36875 95.86609L29.36875 96.74109L28.18125 96.74109L28.18125 98.725464L27.103125 98.725464L27.103125 96.74109L23.2125 96.74109L23.2125 96.100464L27.025 90.194214L28.18125 90.194214L28.18125 95.86609ZM24.446875 95.86609L27.103125 95.86609L27.103125 91.67859L26.9625 91.912964L24.446875 95.86609ZM35.9625 95.08484Q35.9625 96.99109 35.30625 97.92859Q34.665627 98.850464 33.275 98.850464Q31.915625 98.850464 31.259375 97.944214Q30.603125 97.037964 30.571875 95.225464L30.571875 93.787964Q30.571875 91.89734 31.2125 90.99109Q31.86875 90.069214 33.259377 90.069214Q34.634377 90.069214 35.290627 90.95984Q35.946877 91.83484 35.9625 93.67859L35.9625 95.08484ZM34.86875 93.600464Q34.86875 92.225464 34.478127 91.600464Q34.103127 90.95984 33.259377 90.95984Q32.43125 90.95984 32.040627 91.600464Q31.665625 92.225464 31.665625 93.52234L31.665625 95.256714Q31.665625 96.631714 32.05625 97.30359Q32.4625 97.95984 33.275 97.95984Q34.071877 97.95984 34.4625 97.33484Q34.853127 96.70984 34.86875 95.381714L34.86875 93.600464Z" fill-rule="nonzero"/><path fill="#757575" d="M27.86875 19.36875L27.86875 20.275L27.665625 20.275Q26.4 20.30625 25.65 21.040625Q24.9 21.759375 24.775 23.071875Q25.4625 22.30625 26.61875 22.30625Q27.728125 22.30625 28.4 23.0875Q29.071875 23.86875 29.071875 25.11875Q29.071875 26.43125 28.353125 27.228125Q27.634375 28.025 26.415625 28.025Q25.196875 28.025 24.43125 27.0875Q23.68125 26.134375 23.68125 24.65L23.68125 24.24375Q23.68125 21.884375 24.68125 20.634375Q25.68125 19.384375 27.665625 19.36875L27.86875 19.36875ZM26.446875 23.2125Q25.884375 23.2125 25.415625 23.540625Q24.946875 23.86875 24.759375 24.384375L24.759375 24.775Q24.759375 25.8375 25.228125 26.478125Q25.7125 27.11875 26.415625 27.11875Q27.15 27.11875 27.571875 26.5875Q27.99375 26.040625 27.99375 25.165625Q27.99375 24.290625 27.571875 23.759375Q27.15 23.2125 26.446875 23.2125ZM35.9625 24.259375Q35.9625 26.165625 35.30625 27.103125Q34.665627 28.025 33.275 28.025Q31.915625 28.025 31.259375 27.11875Q30.603125 26.2125 30.571875 24.4L30.571875 22.9625Q30.571875 21.071875 31.2125 20.165625Q31.86875 19.24375 33.259377 19.24375Q34.634377 19.24375 35.290627 20.134375Q35.946877 21.009375 35.9625 22.853125L35.9625 24.259375ZM34.86875 22.775Q34.86875 21.4 34.478127 20.775Q34.103127 20.134375 33.259377 20.134375Q32.43125 20.134375 32.040627 20.775Q31.665625 21.4 31.665625 22.696875L31.665625 24.43125Q31.665625 25.80625 32.05625 26.478125Q32.4625 27.134375 33.275 27.134375Q34.071877 27.134375 34.4625 26.509375Q34.853127 25.884375 34.86875 24.55625L34.86875 22.775Z" fill-rule="nonzero"/><path fill="#757575" d="M32.481216 269.26572L31.718866 270.02808L26.614439 264.92365L25.631119 267.0339L24.93506 266.33786L26.30508 263.31055L26.415565 263.20007L32.481216 269.26572ZM32.238148 263.4542L29.542303 260.13962L32.635895 257.04602L33.343002 257.75314L30.901274 260.19485L32.35968 262.02893Q32.54751 261.31076 33.110985 260.74728Q33.928574 259.9297 34.967136 259.996Q35.99465 260.05124 36.92273 260.9793Q37.850807 261.90738 37.883953 262.957Q37.928146 263.99557 37.022167 264.90155Q36.226673 265.69705 35.276497 265.76334Q34.315273 265.81857 33.464535 265.10043L34.182693 264.38226Q34.779312 264.82422 35.34279 264.79105Q35.906265 264.7579 36.3924 264.2718Q36.92273 263.74146 36.86749 263.06747Q36.812244 262.39352 36.17143 261.75272Q35.56376 261.14505 34.867702 261.1119Q34.171642 261.07874 33.619217 261.63116Q33.122032 262.12836 33.044693 262.62555L33.011547 262.99014L32.238148 263.4542ZM39.56333 261.38812Q39.36446 261.18924 39.34236 260.94617Q39.331314 260.69205 39.56333 260.46002Q39.8064 260.21695 40.060516 260.228Q40.314632 260.23907 40.513508 260.43793Q40.701332 260.62576 40.71238 260.87988Q40.71238 261.12296 40.469315 261.366Q40.237293 261.59802 39.994225 261.59802Q39.751156 261.57593 39.56333 261.38812ZM43.198303 253.40001Q44.546227 254.74794 44.7451 255.8749Q44.943974 256.97974 43.96065 257.96307Q42.999428 258.9243 41.894573 258.7475Q40.789722 258.57074 39.485992 257.3112L38.46953 256.29474Q37.132652 254.95786 36.944828 253.86404Q36.757004 252.74815 37.740322 251.76483Q38.712593 250.79256 39.8064 250.95828Q40.889156 251.11296 42.203934 252.40564L43.198303 253.40001ZM41.375294 253.1238Q40.403023 252.15152 39.684868 251.9858Q38.96671 251.79797 38.37009 252.39459Q37.784515 252.98016 37.961292 253.70937Q38.13807 254.41647 39.0551 255.33351L40.281487 256.5599Q41.25376 257.53217 42.005062 257.73105Q42.756363 257.9078 43.330887 257.33328Q43.89436 256.7698 43.728634 256.05167Q43.562904 255.33351 42.634827 254.38333L41.375294 253.1238ZM48.148052 248.45027Q49.49597 249.79819 49.694847 250.92514Q49.89372 252.03 48.9104 253.0133Q47.949177 253.97453 46.844322 253.79776Q45.739468 253.62099 44.43574 252.36145L43.419273 251.34499Q42.0824 250.0081 41.894573 248.9143Q41.70675 247.7984 42.69007 246.81508Q43.662342 245.8428 44.75615 246.00853Q45.838905 246.16322 47.153683 247.4559L48.148052 248.45027ZM46.325043 248.17406Q45.352768 247.20178 44.634613 247.03606Q43.91646 246.84822 43.319836 247.44485Q42.734264 248.03043 42.91104 248.75963Q43.08782 249.46674 44.00485 250.38376L45.231236 251.61015Q46.203506 252.58241 46.954807 252.7813Q47.70611 252.95807 48.280632 252.38354Q48.84411 251.82007 48.67838 251.10191Q48.512653 250.38376 47.584576 249.43358L46.325043 248.17406Z" fill-rule="nonzero"/><path fill="#757575" d="M67.301216 269.26572L66.538864 270.02808L61.43444 264.92365L60.45112 267.0339L59.755062 266.33786L61.12508 263.31055L61.235565 263.20007L67.301216 269.26572ZM70.01916 261.24448Q70.0744 261.76376 69.90867 262.28305Q69.74294 262.7802 69.3452 263.17798Q68.82591 263.69727 68.1851 263.82983Q67.54428 263.96243 66.87032 263.7083Q66.18531 263.44315 65.62183 262.87967Q65.025215 262.28305 64.76005 261.57593Q64.505936 260.8578 64.67166 260.1838Q64.83739 259.48776 65.40086 258.9243Q66.2958 258.02936 67.47799 258.19507Q68.671234 258.34976 69.82028 259.4988L70.04125 259.7198Q71.80902 261.48755 71.91951 262.99014Q72.02999 264.49274 70.648926 265.918L70.49425 266.0727L69.85343 265.4319L70.01916 265.26614Q70.947235 264.29388 70.98038 263.31055Q71.01353 262.32724 70.01916 261.24448ZM68.83696 262.42667Q69.22366 262.03998 69.31205 261.48755Q69.40044 260.91302 69.212616 260.41583L68.90325 260.10648Q68.151955 259.35516 67.34541 259.21155Q66.538864 259.0679 66.04168 259.5651Q65.53345 260.07333 65.61079 260.76938Q65.69918 261.4544 66.33999 262.0952Q66.95871 262.71393 67.64372 262.82443Q68.339775 262.92386 68.83696 262.42667ZM74.38333 261.38812Q74.184456 261.18924 74.16236 260.94617Q74.15131 260.69205 74.38333 260.46002Q74.6264 260.21695 74.880516 260.22803Q75.134636 260.23907 75.3335 260.43793Q75.52133 260.62576 75.53238 260.87988Q75.53238 261.12296 75.289314 261.366Q75.0573 261.59802 74.814224 261.59802Q74.57116 261.57593 74.38333 261.38812ZM78.0183 253.40001Q79.36623 254.74794 79.5651 255.8749Q79.76397 256.97974 78.780655 257.96307Q77.81943 258.9243 76.71458 258.7475Q75.60972 258.57074 74.30599 257.3112L73.28953 256.29474Q71.95265 254.95786 71.764824 253.86404Q71.577 252.74815 72.560326 251.76483Q73.53259 250.79256 74.6264 250.95828Q75.70916 251.11296 77.02393 252.40564L78.0183 253.40001ZM76.19529 253.1238Q75.22302 252.15152 74.50487 251.9858Q73.78671 251.79797 73.19009 252.39459Q72.604515 252.98016 72.781296 253.70937Q72.95807 254.41647 73.8751 255.33351L75.10149 256.5599Q76.07376 257.53217 76.82506 257.73105Q77.57636 257.9078 78.15089 257.33328Q78.71436 256.7698 78.54863 256.05167Q78.382904 255.33351 77.45483 254.38333L76.19529 253.1238ZM82.96805 248.45027Q84.31597 249.79819 84.51485 250.92514Q84.71372 252.03 83.7304 253.01332Q82.76918 253.97453 81.66432 253.79776Q80.55947 253.62099 79.25574 252.36145L78.23927 251.34499Q76.9024 250.0081 76.71458 248.9143Q76.52675 247.7984 77.51007 246.81508Q78.482346 245.8428 79.57615 246.00853Q80.658905 246.16322 81.97368 247.4559L82.96805 248.45027ZM81.14504 248.17406Q80.17277 247.20178 79.45461 247.03606Q78.73646 246.84822 78.13984 247.44485Q77.55427 248.03043 77.73104 248.75963Q77.907814 249.46674 78.824844 250.38376L80.05123 251.61015Q81.023506 252.58241 81.77481 252.7813Q82.52611 252.95807 83.10063 252.38354Q83.66411 251.82007 83.49838 251.10191Q83.33265 250.38376 82.40457 249.43358L81.14504 248.17406Z" fill-rule="nonzero"/><path fill="#757575" d="M103.557526 267.8294L99.60215 271.7848L99.04972 271.23236L98.8177 266.824Q98.75141 265.82962 98.60778 265.33243Q98.4531 264.82422 98.09955 264.47064Q97.62446 263.99557 97.03889 263.98453Q96.453316 263.9514 95.96718 264.4375Q95.4037 265.00098 95.41475 265.65283Q95.41475 266.29367 96.00032 266.87924L95.237976 267.64157Q94.398285 266.8019 94.42038 265.76334Q94.442474 264.70267 95.33741 263.80774Q96.18815 262.957 97.11623 262.9128Q98.044304 262.86862 98.78455 263.60886Q99.66844 264.49274 99.767876 266.8682L99.90046 270.22696L102.92776 267.19965L103.557526 267.8294ZM102.275894 262.32724L102.85042 261.75272Q103.3918 261.18924 103.42494 260.60367Q103.45809 260.0181 102.983 259.543Q101.92234 258.48233 100.86168 259.543Q100.364494 260.0402 100.35345 260.62576Q100.35345 261.2003 100.81749 261.66434L100.04409 262.4377Q99.325935 261.71957 99.370125 260.7252Q99.42537 259.7198 100.23192 258.91324Q101.08265 258.0625 102.02178 258.02936Q102.96091 257.99622 103.76745 258.80276Q104.1652 259.2005 104.27568 259.8192Q104.38617 260.43793 104.13205 261.0677Q104.78391 260.7252 105.41368 260.82465Q106.0545 260.91302 106.58482 261.44336Q107.39137 262.2499 107.347176 263.26636Q107.29193 264.2718 106.44119 265.12253Q105.60151 265.96222 104.59609 266.03955Q103.60172 266.10583 102.85042 265.35452L103.62382 264.58115Q104.09891 265.0562 104.695526 265.03412Q105.292145 265.01202 105.82248 264.4817Q106.37491 263.92926 106.37491 263.35474Q106.37491 262.75812 105.83353 262.21674Q105.31425 261.69748 104.71762 261.74167Q104.109955 261.7748 103.48019 262.38248L102.90566 262.957L102.275894 262.32724ZM109.20333 261.38812Q109.004456 261.18924 108.98236 260.94617Q108.97131 260.69205 109.20333 260.46002Q109.4464 260.21695 109.700516 260.22803Q109.954636 260.23907 110.1535 260.43793Q110.34133 260.62576 110.35238 260.87988Q110.35238 261.12296 110.109314 261.366Q109.8773 261.59802 109.634224 261.59802Q109.39116 261.57593 109.20333 261.38812ZM112.8383 253.40001Q114.186226 254.74794 114.3851 255.8749Q114.58397 256.97974 113.600655 257.96307Q112.63943 258.9243 111.53458 258.7475Q110.42972 258.57074 109.12599 257.3112L108.10953 256.29474Q106.77265 254.95786 106.58482 253.86404Q106.397 252.74815 107.380325 251.76483Q108.35259 250.79256 109.4464 250.95828Q110.52916 251.11296 111.84393 252.40564L112.8383 253.40001ZM111.01529 253.1238Q110.04302 252.15152 109.32487 251.9858Q108.60671 251.79797 108.010086 252.39459Q107.424515 252.98016 107.601295 253.70937Q107.77807 254.41647 108.6951 255.33351L109.921486 256.5599Q110.89376 257.53217 111.64506 257.73105Q112.39636 257.9078 112.97089 257.33328Q113.53436 256.7698 113.36863 256.05167Q113.2029 255.33351 112.274826 254.38333L111.01529 253.1238ZM117.78805 248.45027Q119.13597 249.79819 119.33485 250.92514Q119.53372 252.03 118.5504 253.01332Q117.58918 253.97453 116.48432 253.79776Q115.37947 253.62099 114.07574 252.36145L113.05927 251.34499Q111.7224 250.0081 111.53458 248.9143Q111.34675 247.7984 112.33007 246.81508Q113.302345 245.8428 114.39615 246.00853Q115.478905 246.16322 116.79368 247.4559L117.78805 248.45027ZM115.96504 248.17406Q114.99277 247.20178 114.27461 247.03606Q113.55646 246.84822 112.95984 247.44485Q112.37427 248.03043 112.55104 248.75963Q112.72781 249.46674 113.644844 250.38376L114.87123 251.61015Q115.843506 252.58243 116.59481 252.7813Q117.34611 252.95807 117.92063 252.38354Q118.48411 251.82007 118.31838 251.10191Q118.15265 250.38376 117.22457 249.43358L115.96504 248.17406Z" fill-rule="nonzero"/><path fill="#757575" d="M138.37753 267.8294L134.42215 271.7848L133.86972 271.23236L133.63771 266.82397Q133.57141 265.82962 133.42778 265.33243Q133.2731 264.8242 132.91956 264.47064Q132.44446 263.99557 131.85889 263.9845Q131.27332 263.95135 130.78719 264.4375Q130.22371 265.00098 130.23476 265.65283Q130.23476 266.29367 130.82033 266.87924L130.05798 267.64157Q129.21829 266.80188 129.24039 265.76334Q129.26248 264.70267 130.15741 263.80774Q131.00815 262.957 131.93623 262.9128Q132.8643 262.86862 133.60455 263.60886Q134.48845 264.49274 134.58788 266.8682L134.72046 270.22693L137.74776 267.19965L138.37753 267.8294ZM137.67043 257.33328L140.77507 265.4319L139.96852 266.2384L137.05171 258.34976L133.79239 261.60907L133.16261 260.9793L137.23953 256.9024L137.67043 257.33328ZM144.02333 261.3881Q143.82446 261.18924 143.80237 260.94617Q143.79132 260.69205 144.02333 260.46002Q144.2664 260.21695 144.52052 260.228Q144.77464 260.23904 144.97351 260.43793Q145.16133 260.62576 145.17238 260.87988Q145.17238 261.12292 144.92932 261.366Q144.6973 261.59802 144.45422 261.59802Q144.21117 261.57593 144.02333 261.3881ZM147.65831 253.40001Q149.00623 254.74792 149.20511 255.87488Q149.40398 256.97974 148.42065 257.96304Q147.45943 258.9243 146.35458 258.7475Q145.24973 258.57074 143.946 257.3112L142.92953 256.29474Q141.59265 254.95786 141.40483 253.86404Q141.21701 252.74814 142.20033 251.76482Q143.17259 250.79256 144.2664 250.95828Q145.34917 251.11296 146.66394 252.40564L147.65831 253.40001ZM145.8353 253.1238Q144.86302 252.15152 144.14487 251.9858Q143.42671 251.79797 142.8301 252.39459Q142.24452 252.98016 142.4213 253.70937Q142.59807 254.41647 143.5151 255.3335L144.74149 256.5599Q145.71376 257.53217 146.46507 257.73105Q147.21637 257.9078 147.7909 257.33328Q148.35437 256.7698 148.18864 256.05167Q148.0229 255.3335 147.09483 254.38333L145.8353 253.1238ZM152.60806 248.45026Q153.95598 249.79819 154.15485 250.92514Q154.35373 252.02998 153.3704 253.0133Q152.40918 253.97453 151.30432 253.79776Q150.19948 253.62097 148.89575 252.36145L147.87927 251.34499Q146.5424 250.0081 146.35458 248.91429Q146.16675 247.7984 147.15007 246.81508Q148.12234 245.8428 149.21616 246.00853Q150.2989 246.16321 151.6137 247.45589L152.60806 248.45026ZM150.78505 248.17404Q149.81277 247.20177 149.09462 247.03604Q148.37646 246.84822 147.77985 247.44484Q147.19427 248.03041 147.37105 248.75961Q147.54782 249.46672 148.46486 250.38376L149.69124 251.61014Q150.66351 252.58241 151.41481 252.7813Q152.1661 252.95807 152.74063 252.38354Q153.30411 251.82007 153.13838 251.10191Q152.97266 250.38376 152.04459 249.43358L150.78505 248.17404Z" fill-rule="nonzero"/><path fill="#757575" d="M166.96614 267.27698L167.54066 266.70245Q168.08205 266.13898 168.11519 265.5534Q168.14835 264.96783 167.67325 264.49274Q166.6126 263.4321 165.55194 264.49274Q165.05475 264.98993 165.0437 265.5755Q165.0437 266.15002 165.50774 266.61407L164.73434 267.38748Q164.01619 266.6693 164.06038 265.67496Q164.11562 264.66953 164.92216 263.86298Q165.7729 263.01224 166.71204 262.9791Q167.65115 262.94595 168.4577 263.7525Q168.85545 264.15024 168.96593 264.76895Q169.07642 265.3877 168.8223 266.01746Q169.47417 265.67496 170.10393 265.77438Q170.74475 265.86276 171.27509 266.3931Q172.08162 267.19965 172.03743 268.2161Q171.9822 269.22153 171.13145 270.07227Q170.29176 270.91196 169.28635 270.9893Q168.29198 271.05557 167.54066 270.3043L168.31407 269.53088Q168.78915 270.00598 169.38577 269.9839Q169.9824 269.9618 170.51273 269.43146Q171.06516 268.87903 171.06516 268.3045Q171.06516 267.7079 170.52377 267.1665Q170.0045 266.64722 169.40788 266.6914Q168.8002 266.72455 168.17044 267.3322L167.59592 267.90674L166.96614 267.27698ZM176.71097 264.31598L175.94861 265.07834L170.8442 259.9739L169.86087 262.08417L169.16481 261.38812L170.53482 258.3608L170.64531 258.25034L176.71097 264.31598ZM178.84334 261.38812Q178.64445 261.18924 178.62236 260.94617Q178.61131 260.69205 178.84334 260.46002Q179.0864 260.21695 179.34052 260.22803Q179.59464 260.23907 179.7935 260.43793Q179.98134 260.62576 179.99239 260.87988Q179.99239 261.12296 179.74931 261.36603Q179.51729 261.59802 179.27423 261.59802Q179.03116 261.57593 178.84334 261.38812ZM182.4783 253.40001Q183.82622 254.74794 184.0251 255.8749Q184.22397 256.97974 183.24065 257.96307Q182.27943 258.9243 181.17458 258.7475Q180.06972 258.57074 178.76599 257.3112L177.74953 256.29474Q176.41266 254.95786 176.22482 253.86406Q176.037 252.74815 177.02032 251.76483Q177.9926 250.79256 179.0864 250.95828Q180.16916 251.11296 181.48393 252.40564L182.4783 253.40001ZM180.65529 253.1238Q179.68301 252.15154 178.96486 251.9858Q178.2467 251.79797 177.65009 252.39459Q177.06451 252.98016 177.24129 253.70937Q177.41808 254.41647 178.3351 255.33351L179.5615 256.5599Q180.53375 257.53217 181.28506 257.73105Q182.03636 257.9078 182.61089 257.33328Q183.17436 256.7698 183.00864 256.05167Q182.84291 255.33351 181.91483 254.38333L180.65529 253.1238ZM187.42805 248.45027Q188.77597 249.79819 188.97484 250.92514Q189.17372 252.03 188.1904 253.01332Q187.22917 253.97453 186.12433 253.79776Q185.01947 253.62099 183.71574 252.36145L182.69928 251.34499Q181.3624 250.00812 181.17458 248.9143Q180.98676 247.7984 181.97006 246.81508Q182.94234 245.8428 184.03615 246.00854Q185.11891 246.16322 186.43369 247.4559L187.42805 248.45027ZM185.60504 248.17406Q184.63277 247.20178 183.91461 247.03606Q183.19646 246.84822 182.59984 247.44485Q182.01427 248.03043 182.19104 248.75963Q182.36781 249.46674 183.28485 250.38376L184.51123 251.61015Q185.4835 252.58243 186.2348 252.7813Q186.98611 252.95807 187.56064 252.38354Q188.12411 251.82007 187.95837 251.10191Q187.79265 250.38376 186.86458 249.43358L185.60504 248.17406Z" fill-rule="nonzero"/><path fill="#757575" d="M201.78615 267.27698L202.36067 266.70245Q202.90205 266.13898 202.9352 265.5534Q202.96835 264.96783 202.49326 264.49274Q201.4326 263.4321 200.37193 264.49274Q199.87476 264.98993 199.86371 265.5755Q199.86371 266.15002 200.32774 266.61407L199.55435 267.38745Q198.8362 266.6693 198.88039 265.67493Q198.93562 264.66953 199.74217 263.86298Q200.59291 263.01224 201.53204 262.9791Q202.47116 262.94595 203.27771 263.7525Q203.67546 264.15024 203.78593 264.76895Q203.89642 265.38766 203.6423 266.01746Q204.29417 265.67493 204.92393 265.77438Q205.56476 265.86276 206.09508 266.3931Q206.90163 267.19965 206.85744 268.2161Q206.80219 269.22153 205.95145 270.07227Q205.11177 270.91196 204.10635 270.9893Q203.11198 271.05557 202.36067 270.3043L203.13408 269.53088Q203.60916 270.00598 204.20578 269.9839Q204.8024 269.96176 205.33273 269.43146Q205.88516 268.87903 205.88516 268.3045Q205.88516 267.7079 205.34378 267.1665Q204.82451 266.64722 204.22787 266.6914Q203.62021 266.72455 202.99045 267.3322L202.41592 267.90674L201.78615 267.27698ZM206.33815 263.4542L203.6423 260.13962L206.7359 257.04602L207.44301 257.75314L205.00128 260.19485L206.45969 262.02893Q206.6475 261.31076 207.21098 260.74728Q208.02858 259.9297 209.06714 259.996Q210.09465 260.05124 211.02274 260.9793Q211.9508 261.90738 211.98396 262.957Q212.02815 263.99557 211.12218 264.90155Q210.32668 265.69702 209.3765 265.76334Q208.41528 265.81857 207.56454 265.1004L208.2827 264.38226Q208.87932 264.8242 209.4428 264.79105Q210.00627 264.7579 210.4924 264.2718Q211.02274 263.74146 210.9675 263.06747Q210.91225 262.39352 210.27144 261.75272Q209.66376 261.14505 208.96771 261.11188Q208.27165 261.07874 207.71922 261.63116Q207.22203 262.12836 207.1447 262.62555L207.11156 262.99014L206.33815 263.4542ZM213.66333 261.3881Q213.46446 261.18924 213.44237 260.94617Q213.43132 260.69205 213.66333 260.46002Q213.9064 260.21695 214.16052 260.228Q214.41464 260.23904 214.61351 260.43793Q214.80133 260.62576 214.81238 260.87988Q214.81238 261.12292 214.56932 261.366Q214.3373 261.59802 214.09422 261.59802Q213.85117 261.57593 213.66333 261.3881ZM217.29831 253.40001Q218.64622 254.74792 218.84511 255.87488Q219.04398 256.97974 218.06065 257.96304Q217.09943 258.9243 215.99458 258.7475Q214.88972 258.57074 213.586 257.3112L212.56953 256.29474Q211.23265 254.95786 211.04483 253.86404Q210.85701 252.74814 211.84033 251.76482Q212.81259 250.79256 213.9064 250.95828Q214.98917 251.11296 216.30394 252.40564L217.29831 253.40001ZM215.4753 253.1238Q214.50302 252.15152 213.78487 251.9858Q213.06671 251.79797 212.4701 252.39459Q211.88452 252.98016 212.0613 253.70937Q212.23807 254.41647 213.1551 255.3335L214.38148 256.5599Q215.35376 257.53217 216.10507 257.73105Q216.85637 257.9078 217.4309 257.33328Q217.99437 256.7698 217.82864 256.05167Q217.6629 255.3335 216.73483 254.38333L215.4753 253.1238ZM222.24806 248.45026Q223.59598 249.79819 223.79485 250.92514Q223.99373 252.02998 223.0104 253.0133Q222.04918 253.97453 220.94432 253.79776Q219.83948 253.62097 218.53575 252.36145L217.51927 251.34499Q216.1824 250.0081 215.99458 248.9143Q215.80675 247.7984 216.79007 246.81508Q217.76234 245.8428 218.85616 246.00853Q219.9389 246.16321 221.2537 247.45589L222.24806 248.45026ZM220.42505 248.17404Q219.45277 247.20178 218.73462 247.03604Q218.01646 246.84822 217.41985 247.44484Q216.83427 248.03041 217.01105 248.75961Q217.18782 249.46672 218.10486 250.38376L219.33124 251.61014Q220.30351 252.58241 221.05481 252.7813Q221.8061 252.95807 222.38063 252.38354Q222.9441 251.82007 222.77838 251.10191Q222.61266 250.38376 221.68459 249.43358L220.42505 248.17404Z" fill-rule="nonzero"/><path fill="#757575" d="M236.60614 267.27698L237.18066 266.70245Q237.72205 266.13898 237.75519 265.5534Q237.78835 264.96783 237.31325 264.49274Q236.2526 263.4321 235.19194 264.49274Q234.69475 264.98993 234.6837 265.5755Q234.6837 266.15002 235.14774 266.61407L234.37434 267.38748Q233.65619 266.6693 233.70038 265.67496Q233.75562 264.66953 234.56216 263.86298Q235.4129 263.01224 236.35204 262.9791Q237.29115 262.94595 238.0977 263.7525Q238.49545 264.15024 238.60593 264.76895Q238.71642 265.3877 238.4623 266.01746Q239.11417 265.67496 239.74393 265.77438Q240.38475 265.86276 240.91508 266.3931Q241.72162 267.19965 241.67743 268.21613Q241.6222 269.22153 240.77145 270.07227Q239.93176 270.91196 238.92635 270.9893Q237.93198 271.05557 237.18066 270.3043L237.95407 269.53088Q238.42915 270.00598 239.02577 269.9839Q239.6224 269.9618 240.15273 269.43146Q240.70515 268.87903 240.70515 268.3045Q240.70515 267.7079 240.16377 267.1665Q239.6445 266.64722 239.04788 266.6914Q238.4402 266.72455 237.81044 267.3322L237.23592 267.90674L236.60614 267.27698ZM244.11916 261.24448Q244.1744 261.76376 244.00867 262.28305Q243.84294 262.7802 243.44519 263.17798Q242.92592 263.69727 242.2851 263.82983Q241.64429 263.96243 240.97032 263.7083Q240.28531 263.44315 239.72183 262.87967Q239.12521 262.28305 238.86005 261.57593Q238.60593 260.8578 238.77167 260.1838Q238.9374 259.48776 239.50087 258.9243Q240.3958 258.02936 241.57799 258.19507Q242.77124 258.34976 243.92029 259.4988L244.14125 259.7198Q245.90903 261.48755 246.0195 262.99014Q246.12999 264.49274 244.74892 265.918L244.59424 266.0727L243.95343 265.4319L244.11916 265.26614Q245.04724 264.29388 245.08038 263.31055Q245.11353 262.32724 244.11916 261.24448ZM242.93697 262.42667Q243.32365 262.03998 243.41205 261.48755Q243.50044 260.91302 243.3126 260.41583L243.00325 260.10648Q242.25195 259.35516 241.4454 259.21155Q240.63887 259.0679 240.14168 259.5651Q239.63345 260.07333 239.71078 260.76938Q239.79918 261.4544 240.43999 262.0952Q241.05872 262.71393 241.74371 262.82443Q242.43977 262.92386 242.93697 262.42667ZM248.48334 261.38812Q248.28445 261.18924 248.26236 260.94617Q248.25131 260.69205 248.48334 260.46002Q248.7264 260.21698 248.98051 260.22803Q249.23463 260.23907 249.4335 260.43793Q249.62134 260.62576 249.63239 260.87988Q249.63239 261.12296 249.38931 261.36603Q249.15729 261.59802 248.91423 261.59802Q248.67116 261.57593 248.48334 261.38812ZM252.1183 253.40001Q253.46622 254.74794 253.6651 255.8749Q253.86397 256.97974 252.88065 257.96307Q251.91943 258.9243 250.81458 258.7475Q249.70972 258.57074 248.40599 257.3112L247.38953 256.29474Q246.05266 254.95786 245.86482 253.86406Q245.677 252.74815 246.66032 251.76483Q247.6326 250.79256 248.7264 250.95828Q249.80916 251.11296 251.12393 252.40564L252.1183 253.40001ZM250.29529 253.1238Q249.32301 252.15154 248.60486 251.9858Q247.8867 251.79797 247.29008 252.39459Q246.70451 252.98016 246.88129 253.70937Q247.05807 254.41647 247.9751 255.33351L249.20149 256.5599Q250.17375 257.53217 250.92506 257.73105Q251.67636 257.9078 252.25089 257.33328Q252.81436 256.7698 252.64864 256.05167Q252.48291 255.33351 251.55482 254.38333L250.29529 253.1238ZM257.06805 248.45027Q258.416 249.79819 258.61484 250.92514Q258.81372 252.03 257.8304 253.01332Q256.86917 253.97453 255.76433 253.79776Q254.65947 253.62099 253.35574 252.36145L252.33928 251.34499Q251.0024 250.00812 250.81458 248.9143Q250.62675 247.7984 251.61006 246.81508Q252.58234 245.8428 253.67615 246.00854Q254.75891 246.16322 256.07367 247.4559L257.06805 248.45027ZM255.24504 248.17406Q254.27277 247.20178 253.55461 247.03606Q252.83646 246.84822 252.23984 247.44485Q251.65427 248.03043 251.83104 248.75963Q252.00781 249.46674 252.92485 250.38376L254.15123 251.61015Q255.1235 252.58243 255.8748 252.7813Q256.6261 252.95807 257.20062 252.38354Q257.7641 251.82007 257.5984 251.10191Q257.43265 250.38376 256.50458 249.4336L255.24504 248.17406Z" fill-rule="nonzero"/><path fill="#757575" d="M274.91748 266.52567L275.75717 265.68597L276.3759 266.30472L275.53622 267.1444L276.93936 268.54755L276.17703 269.3099L274.77386 267.90674L272.02277 270.65784L271.5698 270.20483L270.08926 263.33264L270.90686 262.51505L274.91748 266.52567ZM272.2769 269.1663L274.15515 267.28802L271.19412 264.32703L271.26044 264.5922L272.2769 269.1663ZM276.3759 262.32724L276.9504 261.75272Q277.4918 261.18924 277.52493 260.60367Q277.5581 260.0181 277.083 259.543Q276.02234 258.48233 274.9617 259.543Q274.4645 260.0402 274.45346 260.62576Q274.45346 261.2003 274.91748 261.6643L274.1441 262.4377Q273.42593 261.71957 273.47012 260.7252Q273.52536 259.7198 274.3319 258.91324Q275.18265 258.0625 276.1218 258.02936Q277.0609 257.99622 277.86746 258.80273Q278.2652 259.2005 278.37567 259.8192Q278.48618 260.43793 278.23206 261.0677Q278.8839 260.7252 279.51367 260.82462Q280.1545 260.91302 280.68484 261.44336Q281.49136 262.24988 281.44717 263.26636Q281.39194 264.2718 280.5412 265.12253Q279.7015 265.9622 278.6961 266.03955Q277.70172 266.10583 276.9504 265.35452L277.72382 264.58115Q278.1989 265.0562 278.79553 265.03412Q279.39215 265.01202 279.9225 264.4817Q280.4749 263.92926 280.4749 263.35474Q280.4749 262.75812 279.93353 262.21674Q279.41425 261.69748 278.81763 261.74167Q278.20996 261.7748 277.5802 262.38248L277.00568 262.957L276.3759 262.32724ZM283.30334 261.3881Q283.10446 261.18924 283.08237 260.94617Q283.07132 260.69205 283.30334 260.46002Q283.54642 260.21695 283.8005 260.228Q284.05463 260.23904 284.2535 260.43793Q284.44135 260.62576 284.4524 260.87988Q284.4524 261.12296 284.20932 261.366Q283.9773 261.59802 283.73422 261.59802Q283.49115 261.57593 283.30334 261.3881ZM286.9383 253.40001Q288.28622 254.74792 288.4851 255.87488Q288.684 256.97974 287.70065 257.96304Q286.73944 258.9243 285.63458 258.7475Q284.52972 258.57074 283.22598 257.3112L282.20953 256.29474Q280.87265 254.95786 280.68484 253.86404Q280.497 252.74814 281.48032 251.76482Q282.4526 250.79256 283.54642 250.95828Q284.62915 251.11296 285.94394 252.40564L286.9383 253.40001ZM285.1153 253.1238Q284.14304 252.15152 283.42487 251.9858Q282.70673 251.79797 282.1101 252.39459Q281.5245 252.98016 281.7013 253.70937Q281.87808 254.41647 282.7951 255.3335L284.02148 256.5599Q284.99377 257.53217 285.74506 257.73105Q286.49637 257.9078 287.0709 257.33328Q287.63437 256.7698 287.46863 256.05167Q287.30292 255.3335 286.37482 254.38333L285.1153 253.1238ZM291.88806 248.45026Q293.23596 249.79819 293.43484 250.92514Q293.63373 252.02998 292.6504 253.0133Q291.68918 253.97453 290.58432 253.79776Q289.47946 253.62097 288.17575 252.36145L287.15927 251.34499Q285.82242 250.0081 285.63458 248.9143Q285.44675 247.7984 286.43008 246.81508Q287.40234 245.8428 288.49615 246.00853Q289.57892 246.16321 290.89368 247.45589L291.88806 248.45026ZM290.06503 248.17404Q289.09277 247.20178 288.3746 247.03604Q287.65646 246.84822 287.05984 247.44484Q286.47427 248.03041 286.65103 248.75961Q286.82782 249.46672 287.74484 250.38376L288.97125 251.61014Q289.9435 252.58241 290.69482 252.7813Q291.4461 252.95807 292.02063 252.38354Q292.5841 251.82007 292.4184 251.10191Q292.25266 250.38376 291.3246 249.43358L290.06503 248.17404Z" fill-rule="nonzero"/><path fill="#757575" d="M309.7375 266.52567L310.57718 265.68597L311.1959 266.3047L310.3562 267.14438L311.75937 268.54755L310.99704 269.3099L309.59387 267.90674L306.84277 270.65784L306.3898 270.20483L304.90927 263.33264L305.72687 262.51505L309.7375 266.52567ZM307.0969 269.16626L308.97516 267.28802L306.01413 264.32703L306.0804 264.59216L307.0969 269.16626ZM311.77042 257.33328L314.87506 265.43185L314.0685 266.2384L311.1517 258.34976L307.8924 261.60907L307.26263 260.9793L311.33954 256.9024L311.77042 257.33328ZM318.12335 261.3881Q317.92447 261.18924 317.90237 260.94617Q317.89133 260.69205 318.12335 260.46002Q318.36642 260.21695 318.6205 260.228Q318.87463 260.23904 319.07352 260.43793Q319.26135 260.62576 319.2724 260.87985Q319.2724 261.12292 319.02933 261.366Q318.7973 261.59802 318.55423 261.59802Q318.31116 261.57593 318.12335 261.3881ZM321.7583 253.40001Q323.10623 254.74792 323.3051 255.87488Q323.50397 256.97974 322.52066 257.96304Q321.55945 258.9243 320.4546 258.7475Q319.34973 258.5707 318.046 257.3112L317.02954 256.2947Q315.69266 254.95786 315.50482 253.86404Q315.31702 252.74814 316.30032 251.76482Q317.2726 250.79254 318.36642 250.95828Q319.44916 251.11296 320.76395 252.40564L321.7583 253.40001ZM319.9353 253.1238Q318.96304 252.15152 318.24487 251.9858Q317.52673 251.79796 316.93008 252.39459Q316.3445 252.98016 316.5213 253.70937Q316.6981 254.41647 317.6151 255.3335L318.8415 256.55988Q319.81378 257.53217 320.56506 257.73102Q321.31638 257.9078 321.8909 257.33328Q322.45438 256.7698 322.28864 256.05167Q322.12292 255.3335 321.19482 254.38332L319.9353 253.1238ZM326.70807 248.45026Q328.05597 249.79817 328.25485 250.92513Q328.45374 252.02998 327.4704 253.0133Q326.5092 253.97453 325.40433 253.79774Q324.29947 253.62097 322.99576 252.36143L321.97928 251.34497Q320.6424 250.0081 320.4546 248.91429Q320.26675 247.79839 321.2501 246.81508Q322.22235 245.8428 323.31616 246.00853Q324.39893 246.16321 325.71368 247.45589L326.70807 248.45026ZM324.88504 248.17404Q323.91278 247.20177 323.1946 247.03604Q322.47647 246.84822 321.87985 247.44484Q321.29428 248.03041 321.47104 248.75961Q321.64783 249.46672 322.56485 250.38374L323.79123 251.61014Q324.76352 252.58241 325.51483 252.78128Q326.2661 252.95807 326.84064 252.38353Q327.4041 251.82007 327.2384 251.10191Q327.07266 250.38374 326.1446 249.43358L324.88504 248.17404Z" fill-rule="nonzero"/><path fill="#757575" d="M340.6684 268.40393L337.97253 265.0894L341.06613 261.9958L341.77325 262.70288L339.3315 265.14462L340.78992 266.97867Q340.97775 266.26053 341.54123 265.69705Q342.35883 264.87946 343.39737 264.94574Q344.4249 265.00098 345.35297 265.92908Q346.28107 266.85715 346.3142 267.90677Q346.3584 268.9453 345.45242 269.8513Q344.65692 270.6468 343.70676 270.71307Q342.7455 270.76834 341.89478 270.05017L342.61295 269.33203Q343.20956 269.77396 343.77304 269.7408Q344.33652 269.70767 344.82263 269.22153Q345.35297 268.6912 345.29773 268.01724Q345.2425 267.3433 344.60168 266.70245Q343.99402 266.0948 343.29794 266.06165Q342.6019 266.0285 342.04947 266.58093Q341.55228 267.07812 341.47495 267.5753L341.4418 267.9399L340.6684 268.40393ZM350.81094 264.31598L350.0486 265.07834L344.94418 259.9739L343.96085 262.08417L343.2648 261.38812L344.63483 258.3608L344.7453 258.25034L350.81094 264.31598ZM352.94333 261.38812Q352.74445 261.18924 352.72235 260.94617Q352.7113 260.69205 352.94333 260.46005Q353.1864 260.21698 353.44052 260.22803Q353.69464 260.23907 353.8935 260.43793Q354.08133 260.62576 354.09238 260.87988Q354.09238 261.12296 353.8493 261.36603Q353.61728 261.59805 353.3742 261.59805Q353.13116 261.57593 352.94333 261.38812ZM356.5783 253.40002Q357.9262 254.74794 358.1251 255.8749Q358.32397 256.97974 357.34064 257.96307Q356.37943 258.9243 355.27457 258.74753Q354.1697 258.57074 352.866 257.31122L351.84952 256.29474Q350.51263 254.95787 350.32483 253.86406Q350.137 252.74815 351.1203 251.76483Q352.0926 250.79256 353.1864 250.9583Q354.26917 251.11298 355.58392 252.40565L356.5783 253.40002ZM354.75528 253.12381Q353.78302 252.15154 353.06485 251.98581Q352.3467 251.79797 351.7501 252.3946Q351.16452 252.98018 351.34128 253.70938Q351.51807 254.41649 352.4351 255.33351L353.66147 256.5599Q354.63376 257.53217 355.38504 257.73105Q356.13635 257.90784 356.71088 257.3333Q357.27435 256.76984 357.1086 256.05167Q356.9429 255.33351 356.01483 254.38335L354.75528 253.12381ZM361.52805 248.45027Q362.87598 249.79819 363.07483 250.92514Q363.2737 252.03 362.2904 253.01332Q361.32916 253.97455 360.2243 253.79776Q359.11945 253.62099 357.81573 252.36145L356.79926 251.34499Q355.4624 250.00812 355.27457 248.9143Q355.08673 247.7984 356.07007 246.8151Q357.04233 245.84282 358.13614 246.00854Q359.2189 246.16322 360.53366 247.4559L361.52805 248.45027ZM359.70505 248.17406Q358.73276 247.20178 358.01462 247.03606Q357.29645 246.84824 356.69983 247.44485Q356.11426 248.03043 356.29105 248.75963Q356.4678 249.46674 357.38483 250.38377L358.61124 251.61015Q359.5835 252.58243 360.3348 252.7813Q361.0861 252.95808 361.6606 252.38356Q362.2241 251.82008 362.05838 251.10193Q361.89264 250.38377 360.96457 249.4336L359.70505 248.17406Z" fill-rule="nonzero"/><path fill="#757575" d="M375.4884 268.40393L372.79254 265.0894L375.88614 261.9958L376.59326 262.70288L374.15152 265.14462L375.60992 266.97867Q375.79776 266.26053 376.36124 265.69705Q377.17883 264.87946 378.21738 264.94574Q379.2449 265.00098 380.17297 265.92908Q381.10104 266.85715 381.13422 267.90674Q381.1784 268.9453 380.27243 269.8513Q379.47693 270.6468 378.52673 270.71307Q377.56552 270.7683 376.71478 270.05017L377.43295 269.332Q378.02957 269.77396 378.59305 269.7408Q379.15652 269.70767 379.64264 269.22153Q380.17297 268.6912 380.11774 268.01724Q380.0625 267.34326 379.4217 266.70245Q378.814 266.0948 378.11795 266.06165Q377.4219 266.0285 376.86948 266.58093Q376.37228 267.07812 376.29495 267.5753L376.2618 267.9399L375.4884 268.40393ZM380.43814 263.4542L377.7423 260.13962L380.8359 257.04602L381.543 257.75314L379.10126 260.19485L380.5597 262.02893Q380.7475 261.31076 381.31097 260.74728Q382.12857 259.92972 383.16714 259.996Q384.19464 260.05124 385.12274 260.9793Q386.0508 261.90738 386.08395 262.957Q386.12814 263.99557 385.22217 264.90155Q384.42667 265.69705 383.4765 265.76334Q382.51526 265.81857 381.66452 265.10043L382.3827 264.38226Q382.9793 264.82422 383.5428 264.79108Q384.10626 264.7579 384.5924 264.2718Q385.12274 263.74146 385.06747 263.0675Q385.01224 262.39352 384.37143 261.75272Q383.76376 261.14505 383.0677 261.1119Q382.37164 261.07877 381.8192 261.63116Q381.32202 262.12836 381.2447 262.62555L381.21155 262.99014L380.43814 263.4542ZM387.76334 261.38812Q387.56445 261.18924 387.54236 260.94617Q387.5313 260.69205 387.76334 260.46002Q388.0064 260.21698 388.26053 260.22803Q388.51462 260.23907 388.7135 260.43793Q388.90134 260.62576 388.91238 260.87988Q388.91238 261.12296 388.6693 261.36603Q388.4373 261.59802 388.1942 261.59802Q387.95114 261.57593 387.76334 261.38812ZM391.39832 253.40001Q392.74622 254.74794 392.9451 255.8749Q393.14398 256.97974 392.16064 257.96307Q391.19943 258.9243 390.09457 258.7475Q388.98972 258.57074 387.686 257.3112L386.66953 256.29474Q385.33264 254.95786 385.14484 253.86406Q384.957 252.74815 385.9403 251.76483Q386.9126 250.79256 388.0064 250.95828Q389.08914 251.11296 390.40393 252.40564L391.39832 253.40001ZM389.5753 253.1238Q388.60303 252.15154 387.88486 251.9858Q387.16672 251.79797 386.5701 252.39459Q385.98453 252.98016 386.1613 253.70938Q386.33807 254.41647 387.2551 255.33351L388.48148 256.5599Q389.45377 257.53217 390.20505 257.73105Q390.95636 257.9078 391.53088 257.33328Q392.09436 256.7698 391.92862 256.05167Q391.7629 255.33351 390.83484 254.38333L389.5753 253.1238ZM396.34805 248.45027Q397.69598 249.79819 397.89484 250.92514Q398.09372 252.03 397.1104 253.01332Q396.14917 253.97453 395.0443 253.79776Q393.93945 253.62099 392.63574 252.36145L391.61926 251.34499Q390.2824 250.00812 390.09457 248.9143Q389.90674 247.7984 390.89008 246.81508Q391.86234 245.8428 392.95615 246.00854Q394.0389 246.16322 395.35367 247.4559L396.34805 248.45027ZM394.52502 248.17406Q393.55276 247.20178 392.83463 247.03606Q392.11646 246.84822 391.51984 247.44485Q390.93427 248.03043 391.11105 248.75963Q391.2878 249.46674 392.20483 250.38376L393.43124 251.61015Q394.4035 252.58243 395.15482 252.7813Q395.9061 252.95807 396.48062 252.38354Q397.0441 251.82007 396.8784 251.10191Q396.71265 250.38376 395.78458 249.4336L394.52502 248.17406Z" fill-rule="nonzero"/></svg>