<svg version="1.1" viewBox="0.0 0.0 431.0 207.0" fill="none" stroke="none" stroke-linecap="square" stroke-miterlimit="10" width="431" height="207" xmlns:xlink="http://www.w3.org/1999/xlink" xmlns="http://www.w3.org/2000/svg"><path fill="#ffffff" fill-opacity="0.0" d="M0 0L431.0 0L431.0 207.0L0 207.0L0 0Z" fill-rule="nonzero"/><path stroke="#333333" stroke-width="1.0" stroke-linecap="butt" d="M98.5 10.5L98.5 175.5" fill-rule="nonzero"/><path stroke="#cccccc" stroke-width="1.0" stroke-linecap="butt" d="M205.5 10.5L205.5 175.5" fill-rule="nonzero"/><path stroke="#cccccc" stroke-width="1.0" stroke-linecap="butt" d="M313.5 10.5L313.5 175.5" fill-rule="nonzero"/><path stroke="#cccccc" stroke-width="1.0" stroke-linecap="butt" d="M420.5 10.5L420.5 175.5" fill-rule="nonzero"/><clipPath id="id_0"><path d="M98.41 10.35L420.65 10.35L420.65 175.65L98.41 175.65L98.41 10.35Z" clip-rule="nonzero"/></clipPath><path stroke="#000000" stroke-width="0.0" stroke-linecap="butt" stroke-opacity="0.0" clip-path="url(#id_0)" d="M98.0 49.0L98.0 24.0L381.0 24.0C382.10458 24.0 383.0 24.89543 383.0 26.0L383.0 47.0C383.0 48.10457 382.10458 49.0 381.0 49.0Z" fill-rule="nonzero"/><path fill="#976b18" clip-path="url(#id_0)" d="M98.0 49.0L98.0 24.0L381.0 24.0C382.10458 24.0 383.0 24.89543 383.0 26.0L383.0 47.0C383.0 48.10457 382.10458 49.0 381.0 49.0Z" fill-rule="nonzero"/><path stroke="#000000" stroke-width="0.0" stroke-linecap="butt" stroke-opacity="0.0" clip-path="url(#id_0)" d="M98.0 87.0L98.0 62.0L284.0 62.0C285.10458 62.0 286.0 62.89543 286.0 64.0L286.0 85.0C286.0 86.10457 285.10458 87.0 284.0 87.0Z" fill-rule="nonzero"/><path fill="#976b18" clip-path="url(#id_0)" d="M98.0 87.0L98.0 62.0L284.0 62.0C285.10458 62.0 286.0 62.89543 286.0 64.0L286.0 85.0C286.0 86.10457 285.10458 87.0 284.0 87.0Z" fill-rule="nonzero"/><path stroke="#000000" stroke-width="0.0" stroke-linecap="butt" stroke-opacity="0.0" clip-path="url(#id_0)" d="M98.0 125.0L98.0 100.0L177.0 100.0C178.10457 100.0 179.0 100.89543 179.0 102.0L179.0 123.0C179.0 124.10457 178.10457 125.0 177.0 125.0Z" fill-rule="nonzero"/><path fill="#976b18" clip-path="url(#id_0)" d="M98.0 125.0L98.0 100.0L177.0 100.0C178.10457 100.0 179.0 100.89543 179.0 102.0L179.0 123.0C179.0 124.10457 178.10457 125.0 177.0 125.0Z" fill-rule="nonzero"/><path stroke="#000000" stroke-width="0.0" stroke-linecap="butt" stroke-opacity="0.0" clip-path="url(#id_0)" d="M98.0 163.0L98.0 138.0L102.0 138.0C103.10457 138.0 104.0 138.89543 104.0 140.0L104.0 161.0C104.0 162.10457 103.10457 163.0 102.0 163.0Z" fill-rule="nonzero"/><path fill="#976b18" clip-path="url(#id_0)" d="M98.0 163.0L98.0 138.0L102.0 138.0C103.10457 138.0 104.0 138.89543 104.0 140.0L104.0 161.0C104.0 162.10457 103.10457 163.0 102.0 163.0Z" fill-rule="nonzero"/><path stroke="#976b18" stroke-width="3.0" stroke-linejoin="round" stroke-linecap="round" d="M365.45847 36.21875L365.89597 31.96875L370.27097 31.96875L370.27097 32.96875L366.81784 32.96875L366.55222 35.296875Q367.19284 34.921875 367.98972 34.921875Q369.14597 34.921875 369.83347 35.703125Q370.52097 36.46875 370.52097 37.78125Q370.52097 39.09375 369.80222 39.859375Q369.0991 40.625 367.81784 40.625Q366.69284 40.625 365.9741 40.0Q365.25534 39.359375 365.1616 38.25L366.17722 38.25Q366.2866 38.984375 366.70847 39.359375Q367.13034 39.734375 367.81784 39.734375Q368.56784 39.734375 369.00534 39.21875Q369.44284 38.703125 369.44284 37.796875Q369.44284 36.9375 368.9741 36.421875Q368.50534 35.90625 367.7241 35.90625Q367.02097 35.90625 366.61472 36.203125L366.33347 36.4375L365.45847 36.21875ZM373.5366 35.703125L374.3491 35.703125Q375.13034 35.6875 375.56784 35.296875Q376.00534 34.90625 376.00534 34.234375Q376.00534 32.734375 374.50534 32.734375Q373.80222 32.734375 373.38034 33.140625Q372.9741 33.546875 372.9741 34.203125L371.88034 34.203125Q371.88034 33.1875 372.61472 32.515625Q373.36472 31.84375 374.50534 31.84375Q375.70847 31.84375 376.39597 32.484375Q377.08347 33.125 377.08347 34.265625Q377.08347 34.828125 376.7241 35.34375Q376.36472 35.859375 375.73972 36.125Q376.44284 36.34375 376.81784 36.859375Q377.20847 37.375 377.20847 38.125Q377.20847 39.265625 376.45847 39.953125Q375.70847 40.625 374.50534 40.625Q373.31784 40.625 372.55222 39.96875Q371.80222 39.3125 371.80222 38.25L372.89597 38.25Q372.89597 38.921875 373.33347 39.328125Q373.77097 39.734375 374.52097 39.734375Q375.30222 39.734375 375.70847 39.328125Q376.13034 38.90625 376.13034 38.140625Q376.13034 37.40625 375.67722 37.015625Q375.2241 36.609375 374.3491 36.59375L373.5366 36.59375L373.5366 35.703125Z" fill-rule="nonzero"/><path fill="#ffffff" d="M365.45847 36.21875L365.89597 31.96875L370.27097 31.96875L370.27097 32.96875L366.81784 32.96875L366.55222 35.296875Q367.19284 34.921875 367.98972 34.921875Q369.14597 34.921875 369.83347 35.703125Q370.52097 36.46875 370.52097 37.78125Q370.52097 39.09375 369.80222 39.859375Q369.0991 40.625 367.81784 40.625Q366.69284 40.625 365.9741 40.0Q365.25534 39.359375 365.1616 38.25L366.17722 38.25Q366.2866 38.984375 366.70847 39.359375Q367.13034 39.734375 367.81784 39.734375Q368.56784 39.734375 369.00534 39.21875Q369.44284 38.703125 369.44284 37.796875Q369.44284 36.9375 368.9741 36.421875Q368.50534 35.90625 367.7241 35.90625Q367.02097 35.90625 366.61472 36.203125L366.33347 36.4375L365.45847 36.21875ZM373.5366 35.703125L374.3491 35.703125Q375.13034 35.6875 375.56784 35.296875Q376.00534 34.90625 376.00534 34.234375Q376.00534 32.734375 374.50534 32.734375Q373.80222 32.734375 373.38034 33.140625Q372.9741 33.546875 372.9741 34.203125L371.88034 34.203125Q371.88034 33.1875 372.61472 32.515625Q373.36472 31.84375 374.50534 31.84375Q375.70847 31.84375 376.39597 32.484375Q377.08347 33.125 377.08347 34.265625Q377.08347 34.828125 376.7241 35.34375Q376.36472 35.859375 375.73972 36.125Q376.44284 36.34375 376.81784 36.859375Q377.20847 37.375 377.20847 38.125Q377.20847 39.265625 376.45847 39.953125Q375.70847 40.625 374.50534 40.625Q373.31784 40.625 372.55222 39.96875Q371.80222 39.3125 371.80222 38.25L372.89597 38.25Q372.89597 38.921875 373.33347 39.328125Q373.77097 39.734375 374.52097 39.734375Q375.30222 39.734375 375.70847 39.328125Q376.13034 38.90625 376.13034 38.140625Q376.13034 37.40625 375.67722 37.015625Q375.2241 36.609375 374.3491 36.59375L373.5366 36.59375L373.5366 35.703125Z" fill-rule="nonzero"/><path stroke="#976b18" stroke-width="3.0" stroke-linejoin="round" stroke-linecap="round" d="M269.8646 73.703125L270.6771 73.703125Q271.45834 73.6875 271.89584 73.296875Q272.33334 72.90625 272.33334 72.234375Q272.33334 70.734375 270.83334 70.734375Q270.13022 70.734375 269.70834 71.140625Q269.3021 71.546875 269.3021 72.203125L268.20834 72.203125Q268.20834 71.1875 268.94272 70.515625Q269.69272 69.84375 270.83334 69.84375Q272.03647 69.84375 272.72397 70.484375Q273.41147 71.125 273.41147 72.265625Q273.41147 72.828125 273.0521 73.34375Q272.69272 73.859375 272.06772 74.125Q272.77084 74.34375 273.14584 74.859375Q273.53647 75.375 273.53647 76.125Q273.53647 77.265625 272.78647 77.953125Q272.03647 78.625 270.83334 78.625Q269.64584 78.625 268.88022 77.96875Q268.13022 77.3125 268.13022 76.25L269.22397 76.25Q269.22397 76.921875 269.66147 77.328125Q270.09897 77.734375 270.84897 77.734375Q271.63022 77.734375 272.03647 77.328125Q272.45834 76.90625 272.45834 76.140625Q272.45834 75.40625 272.00522 75.015625Q271.5521 74.609375 270.6771 74.59375L269.8646 74.59375L269.8646 73.703125ZM275.78647 74.21875L276.22397 69.96875L280.59897 69.96875L280.59897 70.96875L277.14584 70.96875L276.88022 73.296875Q277.52084 72.921875 278.31772 72.921875Q279.47397 72.921875 280.16147 73.703125Q280.84897 74.46875 280.84897 75.78125Q280.84897 77.09375 280.13022 77.859375Q279.4271 78.625 278.14584 78.625Q277.02084 78.625 276.3021 78.0Q275.58334 77.359375 275.4896 76.25L276.50522 76.25Q276.6146 76.984375 277.03647 77.359375Q277.45834 77.734375 278.14584 77.734375Q278.89584 77.734375 279.33334 77.21875Q279.77084 76.703125 279.77084 75.796875Q279.77084 74.9375 279.3021 74.421875Q278.83334 73.90625 278.0521 73.90625Q277.34897 73.90625 276.94272 74.203125L276.66147 74.4375L275.78647 74.21875Z" fill-rule="nonzero"/><path fill="#ffffff" d="M269.8646 73.703125L270.6771 73.703125Q271.45834 73.6875 271.89584 73.296875Q272.33334 72.90625 272.33334 72.234375Q272.33334 70.734375 270.83334 70.734375Q270.13022 70.734375 269.70834 71.140625Q269.3021 71.546875 269.3021 72.203125L268.20834 72.203125Q268.20834 71.1875 268.94272 70.515625Q269.69272 69.84375 270.83334 69.84375Q272.03647 69.84375 272.72397 70.484375Q273.41147 71.125 273.41147 72.265625Q273.41147 72.828125 273.0521 73.34375Q272.69272 73.859375 272.06772 74.125Q272.77084 74.34375 273.14584 74.859375Q273.53647 75.375 273.53647 76.125Q273.53647 77.265625 272.78647 77.953125Q272.03647 78.625 270.83334 78.625Q269.64584 78.625 268.88022 77.96875Q268.13022 77.3125 268.13022 76.25L269.22397 76.25Q269.22397 76.921875 269.66147 77.328125Q270.09897 77.734375 270.84897 77.734375Q271.63022 77.734375 272.03647 77.328125Q272.45834 76.90625 272.45834 76.140625Q272.45834 75.40625 272.00522 75.015625Q271.5521 74.609375 270.6771 74.59375L269.8646 74.59375L269.8646 73.703125ZM275.78647 74.21875L276.22397 69.96875L280.59897 69.96875L280.59897 70.96875L277.14584 70.96875L276.88022 73.296875Q277.52084 72.921875 278.31772 72.921875Q279.47397 72.921875 280.16147 73.703125Q280.84897 74.46875 280.84897 75.78125Q280.84897 77.09375 280.13022 77.859375Q279.4271 78.625 278.14584 78.625Q277.02084 78.625 276.3021 78.0Q275.58334 77.359375 275.4896 76.25L276.50522 76.25Q276.6146 76.984375 277.03647 77.359375Q277.45834 77.734375 278.14584 77.734375Q278.89584 77.734375 279.33334 77.21875Q279.77084 76.703125 279.77084 75.796875Q279.77084 74.9375 279.3021 74.421875Q278.83334 73.90625 278.0521 73.90625Q277.34897 73.90625 276.94272 74.203125L276.66147 74.4375L275.78647 74.21875Z" fill-rule="nonzero"/><path stroke="#976b18" stroke-width="3.0" stroke-linejoin="round" stroke-linecap="round" d="M164.43562 116.5L163.3575 116.5L163.3575 109.28125L161.17 110.078125L161.17 109.09375L164.27937 107.921875L164.43562 107.921875L164.43562 116.5ZM168.37312 112.21875L168.81062 107.96875L173.18562 107.96875L173.18562 108.96875L169.7325 108.96875L169.46687 111.296875Q170.1075 110.921875 170.90437 110.921875Q172.06062 110.921875 172.74812 111.703125Q173.43562 112.46875 173.43562 113.78125Q173.43562 115.09375 172.71687 115.859375Q172.01375 116.625 170.7325 116.625Q169.6075 116.625 168.88875 116.0Q168.17 115.359375 168.07625 114.25L169.09187 114.25Q169.20125 114.984375 169.62312 115.359375Q170.045 115.734375 170.7325 115.734375Q171.4825 115.734375 171.92 115.21875Q172.3575 114.703125 172.3575 113.796875Q172.3575 112.9375 171.88875 112.421875Q171.42 111.90625 170.63875 111.90625Q169.93562 111.90625 169.52937 112.203125L169.24812 112.4375L168.37312 112.21875Z" fill-rule="nonzero"/><path fill="#ffffff" d="M164.43562 116.5L163.3575 116.5L163.3575 109.28125L161.17 110.078125L161.17 109.09375L164.27937 107.921875L164.43562 107.921875L164.43562 116.5ZM168.37312 112.21875L168.81062 107.96875L173.18562 107.96875L173.18562 108.96875L169.7325 108.96875L169.46687 111.296875Q170.1075 110.921875 170.90437 110.921875Q172.06062 110.921875 172.74812 111.703125Q173.43562 112.46875 173.43562 113.78125Q173.43562 115.09375 172.71687 115.859375Q172.01375 116.625 170.7325 116.625Q169.6075 116.625 168.88875 116.0Q168.17 115.359375 168.07625 114.25L169.09187 114.25Q169.20125 114.984375 169.62312 115.359375Q170.045 115.734375 170.7325 115.734375Q171.4825 115.734375 171.92 115.21875Q172.3575 114.703125 172.3575 113.796875Q172.3575 112.9375 171.88875 112.421875Q171.42 111.90625 170.63875 111.90625Q169.93562 111.90625 169.52937 112.203125L169.24812 112.4375L168.37312 112.21875Z" fill-rule="nonzero"/><path stroke="#ffffff" stroke-width="3.0" stroke-linejoin="round" stroke-linecap="round" d="M120.046295 154.5L118.96817 154.5L118.96817 147.28125L116.78067 148.07812L116.78067 147.09375L119.890045 145.92188L120.046295 145.92188L120.046295 154.5Z" fill-rule="nonzero"/><path fill="#976b18" d="M120.046295 154.5L118.96817 154.5L118.96817 147.28125L116.78067 148.07812L116.78067 147.09375L119.890045 145.92188L120.046295 145.92188L120.046295 154.5Z" fill-rule="nonzero"/><path fill="#757575" d="M40.394375 33.0L40.394375 24.46875L43.19125 24.46875Q44.581875 24.46875 45.269375 25.046875Q45.9725 25.609375 45.9725 26.734375Q45.9725 27.34375 45.62875 27.8125Q45.300625 28.265625 44.706875 28.515625Q45.41 28.703125 45.800625 29.25Q46.206875 29.78125 46.206875 30.53125Q46.206875 31.6875 45.456875 32.34375Q44.7225 33.0 43.363125 33.0L40.394375 33.0ZM41.519375 29.015625L41.519375 32.078125L43.37875 32.078125Q44.175625 32.078125 44.62875 31.671875Q45.081875 31.265625 45.081875 30.546875Q45.081875 29.015625 43.394375 29.015625L41.519375 29.015625ZM41.519375 28.109375L43.2225 28.109375Q43.956875 28.109375 44.394375 27.75Q44.8475 27.375 44.8475 26.734375Q44.8475 26.03125 44.44125 25.71875Q44.035 25.390625 43.19125 25.390625L41.519375 25.390625L41.519375 28.109375ZM51.144375 33.0Q51.050625 32.8125 50.988125 32.328125Q50.238125 33.125 49.19125 33.125Q48.25375 33.125 47.644375 32.59375Q47.050625 32.0625 47.050625 31.234375Q47.050625 30.25 47.800625 29.703125Q48.550625 29.15625 49.925625 29.15625L50.9725 29.15625L50.9725 28.65625Q50.9725 28.09375 50.62875 27.765625Q50.300625 27.421875 49.62875 27.421875Q49.050625 27.421875 48.66 27.71875Q48.269375 28.0 48.269375 28.421875L47.175625 28.421875Q47.175625 27.9375 47.50375 27.5Q47.8475 27.0625 48.425625 26.8125Q49.00375 26.546875 49.69125 26.546875Q50.800625 26.546875 51.41 27.09375Q52.035 27.640625 52.06625 28.59375L52.06625 31.515625Q52.06625 32.390625 52.285 32.90625L52.285 33.0L51.144375 33.0ZM49.3475 32.171875Q49.863125 32.171875 50.31625 31.90625Q50.769375 31.640625 50.9725 31.21875L50.9725 29.921875L50.12875 29.921875Q48.12875 29.921875 48.12875 31.09375Q48.12875 31.59375 48.4725 31.890625Q48.81625 32.171875 49.3475 32.171875ZM56.769375 32.234375Q57.3475 32.234375 57.785 31.890625Q58.2225 31.53125 58.269375 31.0L59.300625 31.0Q59.269375 31.546875 58.91 32.046875Q58.56625 32.53125 57.988125 32.828125Q57.425625 33.125 56.769375 33.125Q55.4725 33.125 54.706875 32.265625Q53.956875 31.390625 53.956875 29.890625L53.956875 29.703125Q53.956875 28.78125 54.285 28.0625Q54.62875 27.34375 55.25375 26.953125Q55.894375 26.546875 56.769375 26.546875Q57.831875 26.546875 58.535 27.1875Q59.25375 27.8125 59.300625 28.84375L58.269375 28.84375Q58.2225 28.21875 57.800625 27.828125Q57.37875 27.4375 56.769375 27.4375Q55.94125 27.4375 55.488125 28.03125Q55.035 28.625 55.035 29.75L55.035 29.953125Q55.035 31.046875 55.488125 31.640625Q55.94125 32.234375 56.769375 32.234375ZM61.31625 27.421875Q62.035 26.546875 63.19125 26.546875Q65.20688 26.546875 65.2225 28.8125L65.2225 33.0L64.12875 33.0L64.12875 28.796875Q64.12875 28.125 63.81625 27.796875Q63.519375 27.46875 62.863125 27.46875Q62.331875 27.46875 61.925625 27.75Q61.535 28.03125 61.31625 28.484375L61.31625 33.0L60.238125 33.0L60.238125 24.0L61.31625 24.0L61.31625 27.421875ZM69.86313 33.125Q68.56625 33.125 67.75375 32.28125Q66.95688 31.421875 66.95688 30.0L66.95688 29.8125Q66.95688 28.859375 67.31625 28.125Q67.67563 27.375 68.31625 26.96875Q68.9725 26.546875 69.7225 26.546875Q70.95688 26.546875 71.64438 27.359375Q72.33188 28.171875 72.33188 29.6875L72.33188 30.140625L68.035 30.140625Q68.06625 31.078125 68.58188 31.65625Q69.11313 32.234375 69.92563 32.234375Q70.48813 32.234375 70.87875 32.0Q71.285 31.765625 71.5975 31.375L72.25375 31.890625Q71.45688 33.125 69.86313 33.125ZM69.7225 27.4375Q69.06625 27.4375 68.61313 27.921875Q68.17563 28.390625 68.08188 29.25L71.25375 29.25L71.25375 29.171875Q71.20688 28.34375 70.80063 27.890625Q70.41 27.4375 69.7225 27.4375ZM74.41 33.0L73.33188 33.0L73.33188 24.0L74.41 24.0L74.41 33.0ZM75.94125 29.765625Q75.94125 28.84375 76.30063 28.09375Q76.67563 27.34375 77.33188 26.953125Q77.98813 26.546875 78.81625 26.546875Q80.11313 26.546875 80.91 27.4375Q81.7225 28.328125 81.7225 29.828125L81.7225 29.90625Q81.7225 30.828125 81.36313 31.5625Q81.00375 32.296875 80.3475 32.71875Q79.69125 33.125 78.83188 33.125Q77.55063 33.125 76.73813 32.234375Q75.94125 31.328125 75.94125 29.84375L75.94125 29.765625ZM77.035 29.90625Q77.035 30.953125 77.51938 31.59375Q78.01938 32.234375 78.83188 32.234375Q79.66 32.234375 80.14438 31.59375Q80.62875 30.9375 80.62875 29.765625Q80.62875 28.734375 80.12875 28.09375Q79.64438 27.4375 78.81625 27.4375Q78.01938 27.4375 77.51938 28.078125Q77.035 28.703125 77.035 29.90625ZM86.30063 27.625Q86.05063 27.59375 85.76938 27.59375Q84.69125 27.59375 84.31625 28.5L84.31625 33.0L83.23813 33.0L83.23813 26.65625L84.285 26.65625L84.30063 27.390625Q84.83188 26.546875 85.81625 26.546875Q86.12875 26.546875 86.30063 26.625L86.30063 27.625ZM90.92563 31.3125Q90.92563 30.875 90.58188 30.640625Q90.25375 30.390625 89.42563 30.21875Q88.61313 30.046875 88.12875 29.796875Q87.64438 29.546875 87.41 29.21875Q87.19125 28.875 87.19125 28.40625Q87.19125 27.625 87.8475 27.09375Q88.50375 26.546875 89.535 26.546875Q90.61313 26.546875 91.26938 27.109375Q91.94125 27.65625 91.94125 28.515625L90.86313 28.515625Q90.86313 28.078125 90.4725 27.765625Q90.0975 27.4375 89.535 27.4375Q88.94125 27.4375 88.5975 27.703125Q88.26938 27.953125 88.26938 28.359375Q88.26938 28.75 88.58188 28.953125Q88.89438 29.15625 89.70688 29.34375Q90.51938 29.515625 91.01938 29.765625Q91.51938 30.015625 91.75375 30.375Q92.00375 30.734375 92.00375 31.234375Q92.00375 32.09375 91.31625 32.609375Q90.64438 33.125 89.56625 33.125Q88.80063 33.125 88.20688 32.859375Q87.62875 32.578125 87.30063 32.09375Q86.9725 31.609375 86.9725 31.046875L88.05063 31.046875Q88.08188 31.59375 88.48813 31.921875Q88.89438 32.234375 89.56625 32.234375Q90.17563 32.234375 90.55063 31.984375Q90.92563 31.734375 90.92563 31.3125Z" fill-rule="nonzero"/><path fill="#757575" d="M11.9725 44.78125Q11.9725 43.3125 12.66 42.4375Q13.3475 41.546875 14.4725 41.546875Q15.581875 41.546875 16.238125 42.296875L16.238125 39.0L17.31625 39.0L17.31625 48.0L16.31625 48.0L16.269375 47.3125Q15.613125 48.125 14.456875 48.125Q13.363125 48.125 12.66 47.21875Q11.9725 46.3125 11.9725 44.859375L11.9725 44.78125ZM13.050625 44.90625Q13.050625 45.984375 13.488125 46.59375Q13.94125 47.203125 14.7225 47.203125Q15.75375 47.203125 16.238125 46.265625L16.238125 43.359375Q15.75375 42.46875 14.738125 42.46875Q13.94125 42.46875 13.488125 43.078125Q13.050625 43.6875 13.050625 44.90625ZM21.863125 48.125Q20.56625 48.125 19.75375 47.28125Q18.956875 46.421875 18.956875 45.0L18.956875 44.8125Q18.956875 43.859375 19.31625 43.125Q19.675625 42.375 20.31625 41.96875Q20.9725 41.546875 21.7225 41.546875Q22.956875 41.546875 23.644375 42.359375Q24.331875 43.171875 24.331875 44.6875L24.331875 45.140625L20.035 45.140625Q20.06625 46.078125 20.581875 46.65625Q21.113125 47.234375 21.925625 47.234375Q22.488125 47.234375 22.87875 47.0Q23.285 46.765625 23.5975 46.375L24.25375 46.890625Q23.456875 48.125 21.863125 48.125ZM21.7225 42.4375Q21.06625 42.4375 20.613125 42.921875Q20.175625 43.390625 20.081875 44.25L23.25375 44.25L23.25375 44.171875Q23.206875 43.34375 22.800625 42.890625Q22.41 42.4375 21.7225 42.4375ZM24.9725 44.78125Q24.9725 43.296875 25.66 42.421875Q26.3475 41.546875 27.4725 41.546875Q28.62875 41.546875 29.285 42.359375L29.331875 41.65625L30.331875 41.65625L30.331875 47.84375Q30.331875 49.078125 29.5975 49.78125Q28.863125 50.5 27.644375 50.5Q26.956875 50.5 26.300625 50.203125Q25.644375 49.90625 25.300625 49.40625L25.863125 48.75Q26.550625 49.609375 27.56625 49.609375Q28.3475 49.609375 28.785 49.15625Q29.238125 48.71875 29.238125 47.90625L29.238125 47.359375Q28.581875 48.125 27.456875 48.125Q26.3475 48.125 25.66 47.234375Q24.9725 46.328125 24.9725 44.78125ZM26.06625 44.90625Q26.06625 45.96875 26.50375 46.59375Q26.94125 47.203125 27.738125 47.203125Q28.75375 47.203125 29.238125 46.265625L29.238125 43.375Q28.738125 42.46875 27.738125 42.46875Q26.956875 42.46875 26.50375 43.078125Q26.06625 43.6875 26.06625 44.90625ZM35.300625 42.625Q35.050625 42.59375 34.769375 42.59375Q33.69125 42.59375 33.31625 43.5L33.31625 48.0L32.238125 48.0L32.238125 41.65625L33.285 41.65625L33.300625 42.390625Q33.831875 41.546875 34.81625 41.546875Q35.12875 41.546875 35.300625 41.625L35.300625 42.625ZM38.863125 48.125Q37.56625 48.125 36.75375 47.28125Q35.956875 46.421875 35.956875 45.0L35.956875 44.8125Q35.956875 43.859375 36.31625 43.125Q36.675625 42.375 37.31625 41.96875Q37.9725 41.546875 38.7225 41.546875Q39.956875 41.546875 40.644375 42.359375Q41.331875 43.171875 41.331875 44.6875L41.331875 45.140625L37.035 45.140625Q37.06625 46.078125 37.581875 46.65625Q38.113125 47.234375 38.925625 47.234375Q39.488125 47.234375 39.87875 47.0Q40.285 46.765625 40.5975 46.375L41.25375 46.890625Q40.456875 48.125 38.863125 48.125ZM38.7225 42.4375Q38.06625 42.4375 37.613125 42.921875Q37.175625 43.390625 37.081875 44.25L40.25375 44.25L40.25375 44.171875Q40.206875 43.34375 39.800625 42.890625Q39.41 42.4375 38.7225 42.4375ZM44.863125 48.125Q43.56625 48.125 42.75375 47.28125Q41.956875 46.421875 41.956875 45.0L41.956875 44.8125Q41.956875 43.859375 42.31625 43.125Q42.675625 42.375 43.31625 41.96875Q43.9725 41.546875 44.7225 41.546875Q45.956875 41.546875 46.644375 42.359375Q47.331875 43.171875 47.331875 44.6875L47.331875 45.140625L43.035 45.140625Q43.06625 46.078125 43.581875 46.65625Q44.113125 47.234375 44.925625 47.234375Q45.488125 47.234375 45.87875 47.0Q46.285 46.765625 46.5975 46.375L47.25375 46.890625Q46.456875 48.125 44.863125 48.125ZM44.7225 42.4375Q44.06625 42.4375 43.613125 42.921875Q43.175625 43.390625 43.081875 44.25L46.25375 44.25L46.25375 44.171875Q46.206875 43.34375 45.800625 42.890625Q45.41 42.4375 44.7225 42.4375ZM51.44125 48.734375L50.519375 48.734375L54.081875 39.46875L55.00375 39.46875L51.44125 48.734375ZM59.925625 46.3125Q59.925625 45.875 59.581875 45.640625Q59.25375 45.390625 58.425625 45.21875Q57.613125 45.046875 57.12875 44.796875Q56.644375 44.546875 56.41 44.21875Q56.19125 43.875 56.19125 43.40625Q56.19125 42.625 56.8475 42.09375Q57.50375 41.546875 58.535 41.546875Q59.613125 41.546875 60.269375 42.109375Q60.94125 42.65625 60.94125 43.515625L59.863125 43.515625Q59.863125 43.078125 59.4725 42.765625Q59.0975 42.4375 58.535 42.4375Q57.94125 42.4375 57.5975 42.703125Q57.269375 42.953125 57.269375 43.359375Q57.269375 43.75 57.581875 43.953125Q57.894375 44.15625 58.706875 44.34375Q59.519375 44.515625 60.019375 44.765625Q60.519375 45.015625 60.75375 45.375Q61.00375 45.734375 61.00375 46.234375Q61.00375 47.09375 60.31625 47.609375Q59.644375 48.125 58.56625 48.125Q57.800625 48.125 57.206875 47.859375Q56.62875 47.578125 56.300625 47.09375Q55.9725 46.609375 55.9725 46.046875L57.050625 46.046875Q57.081875 46.59375 57.488125 46.921875Q57.894375 47.234375 58.56625 47.234375Q59.175625 47.234375 59.550625 46.984375Q59.925625 46.734375 59.925625 46.3125ZM63.41 48.0L62.331875 48.0L62.331875 41.65625L63.41 41.65625L63.41 48.0ZM62.238125 39.984375Q62.238125 39.71875 62.394375 39.53125Q62.56625 39.34375 62.87875 39.34375Q63.19125 39.34375 63.3475 39.53125Q63.519375 39.71875 63.519375 39.984375Q63.519375 40.234375 63.3475 40.421875Q63.19125 40.59375 62.87875 40.59375Q62.56625 40.59375 62.394375 40.421875Q62.238125 40.234375 62.238125 39.984375ZM66.25375 41.65625L66.285 42.359375Q66.9725 41.546875 68.16 41.546875Q69.48813 41.546875 69.9725 42.5625Q70.285 42.109375 70.785 41.828125Q71.30063 41.546875 71.98813 41.546875Q74.08188 41.546875 74.11313 43.75L74.11313 48.0L73.035 48.0L73.035 43.8125Q73.035 43.140625 72.7225 42.8125Q72.41 42.46875 71.67563 42.46875Q71.06625 42.46875 70.66 42.828125Q70.26938 43.1875 70.20688 43.796875L70.20688 48.0L69.12875 48.0L69.12875 43.84375Q69.12875 42.46875 67.76938 42.46875Q66.70688 42.46875 66.31625 43.375L66.31625 48.0L65.2225 48.0L65.2225 41.65625L66.25375 41.65625ZM77.41 48.0L76.33188 48.0L76.33188 41.65625L77.41 41.65625L77.41 48.0ZM76.23813 39.984375Q76.23813 39.71875 76.39438 39.53125Q76.56625 39.34375 76.87875 39.34375Q77.19125 39.34375 77.3475 39.53125Q77.51938 39.71875 77.51938 39.984375Q77.51938 40.234375 77.3475 40.421875Q77.19125 40.59375 76.87875 40.59375Q76.56625 40.59375 76.39438 40.421875Q76.23813 40.234375 76.23813 39.984375ZM80.41 48.0L79.33188 48.0L79.33188 39.0L80.41 39.0L80.41 48.0ZM86.14438 48.0Q86.05063 47.8125 85.98813 47.328125Q85.23813 48.125 84.19125 48.125Q83.25375 48.125 82.64438 47.59375Q82.05063 47.0625 82.05063 46.234375Q82.05063 45.25 82.80063 44.703125Q83.55063 44.15625 84.92563 44.15625L85.9725 44.15625L85.9725 43.65625Q85.9725 43.09375 85.62875 42.765625Q85.30063 42.421875 84.62875 42.421875Q84.05063 42.421875 83.66 42.71875Q83.26938 43.0 83.26938 43.421875L82.17563 43.421875Q82.17563 42.9375 82.50375 42.5Q82.8475 42.0625 83.42563 41.8125Q84.00375 41.546875 84.69125 41.546875Q85.80063 41.546875 86.41 42.09375Q87.035 42.640625 87.06625 43.59375L87.06625 46.515625Q87.06625 47.390625 87.285 47.90625L87.285 48.0L86.14438 48.0ZM84.3475 47.171875Q84.86313 47.171875 85.31625 46.90625Q85.76938 46.640625 85.9725 46.21875L85.9725 44.921875L85.12875 44.921875Q83.12875 44.921875 83.12875 46.09375Q83.12875 46.59375 83.4725 46.890625Q83.81625 47.171875 84.3475 47.171875ZM92.30063 42.625Q92.05063 42.59375 91.76938 42.59375Q90.69125 42.59375 90.31625 43.5L90.31625 48.0L89.23813 48.0L89.23813 41.65625L90.285 41.65625L90.30063 42.390625Q90.83188 41.546875 91.81625 41.546875Q92.12875 41.546875 92.30063 41.625L92.30063 42.625Z" fill-rule="nonzero"/><path fill="#757575" d="M19.706875 69.875Q19.269375 70.5 18.488125 70.8125Q17.706875 71.125 16.675625 71.125Q15.644375 71.125 14.831875 70.640625Q14.019375 70.140625 13.581875 69.234375Q13.144375 68.328125 13.12875 67.140625L13.12875 66.40625Q13.12875 64.46875 14.019375 63.40625Q14.925625 62.34375 16.550625 62.34375Q17.894375 62.34375 18.706875 63.03125Q19.519375 63.71875 19.706875 64.96875L18.581875 64.96875Q18.25375 63.28125 16.56625 63.28125Q15.425625 63.28125 14.8475 64.078125Q14.269375 64.859375 14.25375 66.375L14.25375 67.0625Q14.25375 68.5 14.91 69.359375Q15.56625 70.203125 16.69125 70.203125Q17.31625 70.203125 17.785 70.0625Q18.269375 69.921875 18.581875 69.578125L18.581875 67.671875L16.613125 67.671875L16.613125 66.75L19.706875 66.75L19.706875 69.875ZM23.300625 69.40625L24.785 64.65625L25.94125 64.65625L23.394375 71.984375Q22.800625 73.5625 21.519375 73.5625L21.300625 73.546875L20.91 73.46875L20.91 72.59375L21.19125 72.609375Q21.75375 72.609375 22.050625 72.390625Q22.363125 72.171875 22.56625 71.578125L22.800625 70.921875L20.535 64.65625L21.7225 64.65625L23.300625 69.40625ZM28.25375 64.65625L28.285 65.359375Q28.9725 64.546875 30.16 64.546875Q31.488125 64.546875 31.9725 65.5625Q32.285 65.109375 32.785 64.828125Q33.300625 64.546875 33.988125 64.546875Q36.081875 64.546875 36.113125 66.75L36.113125 71.0L35.035 71.0L35.035 66.8125Q35.035 66.140625 34.7225 65.8125Q34.41 65.46875 33.675625 65.46875Q33.06625 65.46875 32.66 65.828125Q32.269375 66.1875 32.206875 66.796875L32.206875 71.0L31.12875 71.0L31.12875 66.84375Q31.12875 65.46875 29.769375 65.46875Q28.706875 65.46875 28.31625 66.375L28.31625 71.0L27.2225 71.0L27.2225 64.65625L28.25375 64.65625ZM39.25375 64.65625L39.285 65.453125Q40.019375 64.546875 41.19125 64.546875Q43.206875 64.546875 43.2225 66.8125L43.2225 71.0L42.12875 71.0L42.12875 66.796875Q42.12875 66.125 41.81625 65.796875Q41.519375 65.46875 40.863125 65.46875Q40.331875 65.46875 39.925625 65.75Q39.535 66.03125 39.31625 66.484375L39.31625 71.0L38.238125 71.0L38.238125 64.65625L39.25375 64.65625ZM49.144375 71.0Q49.050625 70.8125 48.988125 70.328125Q48.238125 71.125 47.19125 71.125Q46.25375 71.125 45.644375 70.59375Q45.050625 70.0625 45.050625 69.234375Q45.050625 68.25 45.800625 67.703125Q46.550625 67.15625 47.925625 67.15625L48.9725 67.15625L48.9725 66.65625Q48.9725 66.09375 48.62875 65.765625Q48.300625 65.421875 47.62875 65.421875Q47.050625 65.421875 46.66 65.71875Q46.269375 66.0 46.269375 66.421875L45.175625 66.421875Q45.175625 65.9375 45.50375 65.5Q45.8475 65.0625 46.425625 64.8125Q47.00375 64.546875 47.69125 64.546875Q48.800625 64.546875 49.41 65.09375Q50.035 65.640625 50.06625 66.59375L50.06625 69.515625Q50.06625 70.390625 50.285 70.90625L50.285 71.0L49.144375 71.0ZM47.3475 70.171875Q47.863125 70.171875 48.31625 69.90625Q48.769375 69.640625 48.9725 69.21875L48.9725 67.921875L48.12875 67.921875Q46.12875 67.921875 46.12875 69.09375Q46.12875 69.59375 46.4725 69.890625Q46.81625 70.171875 47.3475 70.171875ZM55.925625 69.3125Q55.925625 68.875 55.581875 68.640625Q55.25375 68.390625 54.425625 68.21875Q53.613125 68.046875 53.12875 67.796875Q52.644375 67.546875 52.41 67.21875Q52.19125 66.875 52.19125 66.40625Q52.19125 65.625 52.8475 65.09375Q53.50375 64.546875 54.535 64.546875Q55.613125 64.546875 56.269375 65.109375Q56.94125 65.65625 56.94125 66.515625L55.863125 66.515625Q55.863125 66.078125 55.4725 65.765625Q55.0975 65.4375 54.535 65.4375Q53.94125 65.4375 53.5975 65.703125Q53.269375 65.953125 53.269375 66.359375Q53.269375 66.75 53.581875 66.953125Q53.894375 67.15625 54.706875 67.34375Q55.519375 67.515625 56.019375 67.765625Q56.519375 68.015625 56.75375 68.375Q57.00375 68.734375 57.00375 69.234375Q57.00375 70.09375 56.31625 70.609375Q55.644375 71.125 54.56625 71.125Q53.800625 71.125 53.206875 70.859375Q52.62875 70.578125 52.300625 70.09375Q51.9725 69.609375 51.9725 69.046875L53.050625 69.046875Q53.081875 69.59375 53.488125 69.921875Q53.894375 70.234375 54.56625 70.234375Q55.175625 70.234375 55.550625 69.984375Q55.925625 69.734375 55.925625 69.3125ZM59.41 71.0L58.331875 71.0L58.331875 64.65625L59.41 64.65625L59.41 71.0ZM58.238125 62.984375Q58.238125 62.71875 58.394375 62.53125Q58.56625 62.34375 58.87875 62.34375Q59.19125 62.34375 59.3475 62.53125Q59.519375 62.71875 59.519375 62.984375Q59.519375 63.234375 59.3475 63.421875Q59.19125 63.59375 58.87875 63.59375Q58.56625 63.59375 58.394375 63.421875Q58.238125 63.234375 58.238125 62.984375ZM65.14438 70.375Q64.51938 71.125 63.285 71.125Q62.269375 71.125 61.738125 70.53125Q61.206875 69.9375 61.206875 68.78125L61.206875 64.65625L62.285 64.65625L62.285 68.75Q62.285 70.203125 63.456875 70.203125Q64.70688 70.203125 65.11313 69.265625L65.11313 64.65625L66.20688 64.65625L66.20688 71.0L65.17563 71.0L65.14438 70.375ZM69.25375 64.65625L69.285 65.359375Q69.9725 64.546875 71.16 64.546875Q72.48813 64.546875 72.9725 65.5625Q73.285 65.109375 73.785 64.828125Q74.30063 64.546875 74.98813 64.546875Q77.08188 64.546875 77.11313 66.75L77.11313 71.0L76.035 71.0L76.035 66.8125Q76.035 66.140625 75.7225 65.8125Q75.41 65.46875 74.67563 65.46875Q74.06625 65.46875 73.66 65.828125Q73.26938 66.1875 73.20688 66.796875L73.20688 71.0L72.12875 71.0L72.12875 66.84375Q72.12875 65.46875 70.76938 65.46875Q69.70688 65.46875 69.31625 66.375L69.31625 71.0L68.2225 71.0L68.2225 64.65625L69.25375 64.65625ZM79.44125 71.734375L78.51938 71.734375L82.08188 62.46875L83.00375 62.46875L79.44125 71.734375ZM90.95688 71.0L89.83188 71.0L89.83188 67.0625L85.51938 67.0625L85.51938 71.0L84.39438 71.0L84.39438 62.46875L85.51938 62.46875L85.51938 66.140625L89.83188 66.140625L89.83188 62.46875L90.95688 62.46875L90.95688 71.0Z" fill-rule="nonzero"/><path fill="#757575" d="M38.41 86.0L37.331875 86.0L37.331875 79.65625L38.41 79.65625L38.41 86.0ZM37.238125 77.984375Q37.238125 77.71875 37.394375 77.53125Q37.56625 77.34375 37.87875 77.34375Q38.19125 77.34375 38.3475 77.53125Q38.519375 77.71875 38.519375 77.984375Q38.519375 78.234375 38.3475 78.421875Q38.19125 78.59375 37.87875 78.59375Q37.56625 78.59375 37.394375 78.421875Q37.238125 78.234375 37.238125 77.984375ZM39.9725 82.78125Q39.9725 81.296875 40.66 80.421875Q41.3475 79.546875 42.4725 79.546875Q43.62875 79.546875 44.285 80.359375L44.331875 79.65625L45.331875 79.65625L45.331875 85.84375Q45.331875 87.078125 44.5975 87.78125Q43.863125 88.5 42.644375 88.5Q41.956875 88.5 41.300625 88.203125Q40.644375 87.90625 40.300625 87.40625L40.863125 86.75Q41.550625 87.609375 42.56625 87.609375Q43.3475 87.609375 43.785 87.15625Q44.238125 86.71875 44.238125 85.90625L44.238125 85.359375Q43.581875 86.125 42.456875 86.125Q41.3475 86.125 40.66 85.234375Q39.9725 84.328125 39.9725 82.78125ZM41.06625 82.90625Q41.06625 83.96875 41.50375 84.59375Q41.94125 85.203125 42.738125 85.203125Q43.75375 85.203125 44.238125 84.265625L44.238125 81.375Q43.738125 80.46875 42.738125 80.46875Q41.956875 80.46875 41.50375 81.078125Q41.06625 81.6875 41.06625 82.90625ZM48.31625 80.421875Q49.035 79.546875 50.19125 79.546875Q52.206875 79.546875 52.2225 81.8125L52.2225 86.0L51.12875 86.0L51.12875 81.796875Q51.12875 81.125 50.81625 80.796875Q50.519375 80.46875 49.863125 80.46875Q49.331875 80.46875 48.925625 80.75Q48.535 81.03125 48.31625 81.484375L48.31625 86.0L47.238125 86.0L47.238125 77.0L48.31625 77.0L48.31625 80.421875ZM60.925625 84.3125Q60.925625 83.875 60.581875 83.640625Q60.25375 83.390625 59.425625 83.21875Q58.613125 83.046875 58.12875 82.796875Q57.644375 82.546875 57.41 82.21875Q57.19125 81.875 57.19125 81.40625Q57.19125 80.625 57.8475 80.09375Q58.50375 79.546875 59.535 79.546875Q60.613125 79.546875 61.269375 80.109375Q61.94125 80.65625 61.94125 81.515625L60.863125 81.515625Q60.863125 81.078125 60.4725 80.765625Q60.0975 80.4375 59.535 80.4375Q58.94125 80.4375 58.5975 80.703125Q58.269375 80.953125 58.269375 81.359375Q58.269375 81.75 58.581875 81.953125Q58.894375 82.15625 59.706875 82.34375Q60.519375 82.515625 61.019375 82.765625Q61.519375 83.015625 61.75375 83.375Q62.00375 83.734375 62.00375 84.234375Q62.00375 85.09375 61.31625 85.609375Q60.644375 86.125 59.56625 86.125Q58.800625 86.125 58.206875 85.859375Q57.62875 85.578125 57.300625 85.09375Q56.9725 84.609375 56.9725 84.046875L58.050625 84.046875Q58.081875 84.59375 58.488125 84.921875Q58.894375 85.234375 59.56625 85.234375Q60.175625 85.234375 60.550625 84.984375Q60.925625 84.734375 60.925625 84.3125ZM65.76938 85.234375Q66.3475 85.234375 66.785 84.890625Q67.2225 84.53125 67.26938 84.0L68.30063 84.0Q68.26938 84.546875 67.91 85.046875Q67.56625 85.53125 66.98813 85.828125Q66.42563 86.125 65.76938 86.125Q64.4725 86.125 63.706875 85.265625Q62.956875 84.390625 62.956875 82.890625L62.956875 82.703125Q62.956875 81.78125 63.285 81.0625Q63.62875 80.34375 64.25375 79.953125Q64.89438 79.546875 65.76938 79.546875Q66.83188 79.546875 67.535 80.1875Q68.25375 80.8125 68.30063 81.84375L67.26938 81.84375Q67.2225 81.21875 66.80063 80.828125Q66.37875 80.4375 65.76938 80.4375Q64.94125 80.4375 64.48813 81.03125Q64.035 81.625 64.035 82.75L64.035 82.953125Q64.035 84.046875 64.48813 84.640625Q64.94125 85.234375 65.76938 85.234375ZM70.31625 80.421875Q71.035 79.546875 72.19125 79.546875Q74.20688 79.546875 74.2225 81.8125L74.2225 86.0L73.12875 86.0L73.12875 81.796875Q73.12875 81.125 72.81625 80.796875Q72.51938 80.46875 71.86313 80.46875Q71.33188 80.46875 70.92563 80.75Q70.535 81.03125 70.31625 81.484375L70.31625 86.0L69.23813 86.0L69.23813 77.0L70.31625 77.0L70.31625 80.421875ZM75.94125 82.765625Q75.94125 81.84375 76.30063 81.09375Q76.67563 80.34375 77.33188 79.953125Q77.98813 79.546875 78.81625 79.546875Q80.11313 79.546875 80.91 80.4375Q81.7225 81.328125 81.7225 82.828125L81.7225 82.90625Q81.7225 83.828125 81.36313 84.5625Q81.00375 85.296875 80.3475 85.71875Q79.69125 86.125 78.83188 86.125Q77.55063 86.125 76.73813 85.234375Q75.94125 84.328125 75.94125 82.84375L75.94125 82.765625ZM77.035 82.90625Q77.035 83.953125 77.51938 84.59375Q78.01938 85.234375 78.83188 85.234375Q79.66 85.234375 80.14438 84.59375Q80.62875 83.9375 80.62875 82.765625Q80.62875 81.734375 80.12875 81.09375Q79.64438 80.4375 78.81625 80.4375Q78.01938 80.4375 77.51938 81.078125Q77.035 81.703125 77.035 82.90625ZM82.94125 82.765625Q82.94125 81.84375 83.30063 81.09375Q83.67563 80.34375 84.33188 79.953125Q84.98813 79.546875 85.81625 79.546875Q87.11313 79.546875 87.91 80.4375Q88.7225 81.328125 88.7225 82.828125L88.7225 82.90625Q88.7225 83.828125 88.36313 84.5625Q88.00375 85.296875 87.3475 85.71875Q86.69125 86.125 85.83188 86.125Q84.55063 86.125 83.73813 85.234375Q82.94125 84.328125 82.94125 82.84375L82.94125 82.765625ZM84.035 82.90625Q84.035 83.953125 84.51938 84.59375Q85.01938 85.234375 85.83188 85.234375Q86.66 85.234375 87.14438 84.59375Q87.62875 83.9375 87.62875 82.765625Q87.62875 81.734375 87.12875 81.09375Q86.64438 80.4375 85.81625 80.4375Q85.01938 80.4375 84.51938 81.078125Q84.035 81.703125 84.035 82.90625ZM91.41 86.0L90.33188 86.0L90.33188 77.0L91.41 77.0L91.41 86.0Z" fill-rule="nonzero"/><path fill="#757575" d="M12.8475 100.46875L15.644375 107.421875L18.425625 100.46875L19.894375 100.46875L19.894375 109.0L18.769375 109.0L18.769375 105.671875L18.87875 102.09375L16.06625 109.0L15.206875 109.0L12.41 102.109375L12.519375 105.671875L12.519375 109.0L11.394375 109.0L11.394375 100.46875L12.8475 100.46875ZM25.144375 109.0Q25.050625 108.8125 24.988125 108.328125Q24.238125 109.125 23.19125 109.125Q22.25375 109.125 21.644375 108.59375Q21.050625 108.0625 21.050625 107.234375Q21.050625 106.25 21.800625 105.703125Q22.550625 105.15625 23.925625 105.15625L24.9725 105.15625L24.9725 104.65625Q24.9725 104.09375 24.62875 103.765625Q24.300625 103.421875 23.62875 103.421875Q23.050625 103.421875 22.66 103.71875Q22.269375 104.0 22.269375 104.421875L21.175625 104.421875Q21.175625 103.9375 21.50375 103.5Q21.8475 103.0625 22.425625 102.8125Q23.00375 102.546875 23.69125 102.546875Q24.800625 102.546875 25.41 103.09375Q26.035 103.640625 26.06625 104.59375L26.06625 107.515625Q26.06625 108.390625 26.285 108.90625L26.285 109.0L25.144375 109.0ZM23.3475 108.171875Q23.863125 108.171875 24.31625 107.90625Q24.769375 107.640625 24.9725 107.21875L24.9725 105.921875L24.12875 105.921875Q22.12875 105.921875 22.12875 107.09375Q22.12875 107.59375 22.4725 107.890625Q22.81625 108.171875 23.3475 108.171875ZM31.925625 107.3125Q31.925625 106.875 31.581875 106.640625Q31.25375 106.390625 30.425625 106.21875Q29.613125 106.046875 29.12875 105.796875Q28.644375 105.546875 28.41 105.21875Q28.19125 104.875 28.19125 104.40625Q28.19125 103.625 28.8475 103.09375Q29.50375 102.546875 30.535 102.546875Q31.613125 102.546875 32.269375 103.109375Q32.94125 103.65625 32.94125 104.515625L31.863125 104.515625Q31.863125 104.078125 31.4725 103.765625Q31.0975 103.4375 30.535 103.4375Q29.94125 103.4375 29.5975 103.703125Q29.269375 103.953125 29.269375 104.359375Q29.269375 104.75 29.581875 104.953125Q29.894375 105.15625 30.706875 105.34375Q31.519375 105.515625 32.019375 105.765625Q32.519375 106.015625 32.75375 106.375Q33.00375 106.734375 33.00375 107.234375Q33.00375 108.09375 32.31625 108.609375Q31.644375 109.125 30.56625 109.125Q29.800625 109.125 29.206875 108.859375Q28.62875 108.578125 28.300625 108.09375Q27.9725 107.609375 27.9725 107.046875L29.050625 107.046875Q29.081875 107.59375 29.488125 107.921875Q29.894375 108.234375 30.56625 108.234375Q31.175625 108.234375 31.550625 107.984375Q31.925625 107.734375 31.925625 107.3125ZM35.706875 101.125L35.706875 102.65625L36.87875 102.65625L36.87875 103.5L35.706875 103.5L35.706875 107.421875Q35.706875 107.8125 35.863125 108.0Q36.019375 108.1875 36.394375 108.1875Q36.581875 108.1875 36.91 108.125L36.91 109.0Q36.488125 109.125 36.081875 109.125Q35.363125 109.125 34.988125 108.6875Q34.613125 108.234375 34.613125 107.421875L34.613125 103.5L33.456875 103.5L33.456875 102.65625L34.613125 102.65625L34.613125 101.125L35.706875 101.125ZM40.863125 109.125Q39.56625 109.125 38.75375 108.28125Q37.956875 107.421875 37.956875 106.0L37.956875 105.8125Q37.956875 104.859375 38.31625 104.125Q38.675625 103.375 39.31625 102.96875Q39.9725 102.546875 40.7225 102.546875Q41.956875 102.546875 42.644375 103.359375Q43.331875 104.171875 43.331875 105.6875L43.331875 106.140625L39.035 106.140625Q39.06625 107.078125 39.581875 107.65625Q40.113125 108.234375 40.925625 108.234375Q41.488125 108.234375 41.87875 108.0Q42.285 107.765625 42.5975 107.375L43.25375 107.890625Q42.456875 109.125 40.863125 109.125ZM40.7225 103.4375Q40.06625 103.4375 39.613125 103.921875Q39.175625 104.390625 39.081875 105.25L42.25375 105.25L42.25375 105.171875Q42.206875 104.34375 41.800625 103.890625Q41.41 103.4375 40.7225 103.4375ZM47.300625 103.625Q47.050625 103.59375 46.769375 103.59375Q45.69125 103.59375 45.31625 104.5L45.31625 109.0L44.238125 109.0L44.238125 102.65625L45.285 102.65625L45.300625 103.390625Q45.831875 102.546875 46.81625 102.546875Q47.12875 102.546875 47.300625 102.625L47.300625 103.625ZM51.925625 107.3125Q51.925625 106.875 51.581875 106.640625Q51.25375 106.390625 50.425625 106.21875Q49.613125 106.046875 49.12875 105.796875Q48.644375 105.546875 48.41 105.21875Q48.19125 104.875 48.19125 104.40625Q48.19125 103.625 48.8475 103.09375Q49.50375 102.546875 50.535 102.546875Q51.613125 102.546875 52.269375 103.109375Q52.94125 103.65625 52.94125 104.515625L51.863125 104.515625Q51.863125 104.078125 51.4725 103.765625Q51.0975 103.4375 50.535 103.4375Q49.94125 103.4375 49.5975 103.703125Q49.269375 103.953125 49.269375 104.359375Q49.269375 104.75 49.581875 104.953125Q49.894375 105.15625 50.706875 105.34375Q51.519375 105.515625 52.019375 105.765625Q52.519375 106.015625 52.75375 106.375Q53.00375 106.734375 53.00375 107.234375Q53.00375 108.09375 52.31625 108.609375Q51.644375 109.125 50.56625 109.125Q49.800625 109.125 49.206875 108.859375Q48.62875 108.578125 48.300625 108.09375Q47.9725 107.609375 47.9725 107.046875L49.050625 107.046875Q49.081875 107.59375 49.488125 107.921875Q49.894375 108.234375 50.56625 108.234375Q51.175625 108.234375 51.550625 107.984375Q51.925625 107.734375 51.925625 107.3125ZM56.9725 105.78125Q56.9725 104.3125 57.66 103.4375Q58.3475 102.546875 59.4725 102.546875Q60.581875 102.546875 61.238125 103.296875L61.238125 100.0L62.31625 100.0L62.31625 109.0L61.31625 109.0L61.269375 108.3125Q60.613125 109.125 59.456875 109.125Q58.363125 109.125 57.66 108.21875Q56.9725 107.3125 56.9725 105.859375L56.9725 105.78125ZM58.050625 105.90625Q58.050625 106.984375 58.488125 107.59375Q58.94125 108.203125 59.7225 108.203125Q60.75375 108.203125 61.238125 107.265625L61.238125 104.359375Q60.75375 103.46875 59.738125 103.46875Q58.94125 103.46875 58.488125 104.078125Q58.050625 104.6875 58.050625 105.90625ZM66.86313 109.125Q65.56625 109.125 64.75375 108.28125Q63.956875 107.421875 63.956875 106.0L63.956875 105.8125Q63.956875 104.859375 64.31625 104.125Q64.67563 103.375 65.31625 102.96875Q65.9725 102.546875 66.7225 102.546875Q67.95688 102.546875 68.64438 103.359375Q69.33188 104.171875 69.33188 105.6875L69.33188 106.140625L65.035 106.140625Q65.06625 107.078125 65.58188 107.65625Q66.11313 108.234375 66.92563 108.234375Q67.48813 108.234375 67.87875 108.0Q68.285 107.765625 68.5975 107.375L69.25375 107.890625Q68.45688 109.125 66.86313 109.125ZM66.7225 103.4375Q66.06625 103.4375 65.61313 103.921875Q65.17563 104.390625 65.08188 105.25L68.25375 105.25L68.25375 105.171875Q68.20688 104.34375 67.80063 103.890625Q67.41 103.4375 66.7225 103.4375ZM69.9725 105.78125Q69.9725 104.296875 70.66 103.421875Q71.3475 102.546875 72.4725 102.546875Q73.62875 102.546875 74.285 103.359375L74.33188 102.65625L75.33188 102.65625L75.33188 108.84375Q75.33188 110.078125 74.5975 110.78125Q73.86313 111.5 72.64438 111.5Q71.95688 111.5 71.30063 111.203125Q70.64438 110.90625 70.30063 110.40625L70.86313 109.75Q71.55063 110.609375 72.56625 110.609375Q73.3475 110.609375 73.785 110.15625Q74.23813 109.71875 74.23813 108.90625L74.23813 108.359375Q73.58188 109.125 72.45688 109.125Q71.3475 109.125 70.66 108.234375Q69.9725 107.328125 69.9725 105.78125ZM71.06625 105.90625Q71.06625 106.96875 71.50375 107.59375Q71.94125 108.203125 72.73813 108.203125Q73.75375 108.203125 74.23813 107.265625L74.23813 104.375Q73.73813 103.46875 72.73813 103.46875Q71.95688 103.46875 71.50375 104.078125Q71.06625 104.6875 71.06625 105.90625ZM80.30063 103.625Q80.05063 103.59375 79.76938 103.59375Q78.69125 103.59375 78.31625 104.5L78.31625 109.0L77.23813 109.0L77.23813 102.65625L78.285 102.65625L78.30063 103.390625Q78.83188 102.546875 79.81625 102.546875Q80.12875 102.546875 80.30063 102.625L80.30063 103.625ZM83.86313 109.125Q82.56625 109.125 81.75375 108.28125Q80.95688 107.421875 80.95688 106.0L80.95688 105.8125Q80.95688 104.859375 81.31625 104.125Q81.67563 103.375 82.31625 102.96875Q82.9725 102.546875 83.7225 102.546875Q84.95688 102.546875 85.64438 103.359375Q86.33188 104.171875 86.33188 105.6875L86.33188 106.140625L82.035 106.140625Q82.06625 107.078125 82.58188 107.65625Q83.11313 108.234375 83.92563 108.234375Q84.48813 108.234375 84.87875 108.0Q85.285 107.765625 85.5975 107.375L86.25375 107.890625Q85.45688 109.125 83.86313 109.125ZM83.7225 103.4375Q83.06625 103.4375 82.61313 103.921875Q82.17563 104.390625 82.08188 105.25L85.25375 105.25L85.25375 105.171875Q85.20688 104.34375 84.80063 103.890625Q84.41 103.4375 83.7225 103.4375ZM89.86313 109.125Q88.56625 109.125 87.75375 108.28125Q86.95688 107.421875 86.95688 106.0L86.95688 105.8125Q86.95688 104.859375 87.31625 104.125Q87.67563 103.375 88.31625 102.96875Q88.9725 102.546875 89.7225 102.546875Q90.95688 102.546875 91.64438 103.359375Q92.33188 104.171875 92.33188 105.6875L92.33188 106.140625L88.035 106.140625Q88.06625 107.078125 88.58188 107.65625Q89.11313 108.234375 89.92563 108.234375Q90.48813 108.234375 90.87875 108.0Q91.285 107.765625 91.5975 107.375L92.25375 107.890625Q91.45688 109.125 89.86313 109.125ZM89.7225 103.4375Q89.06625 103.4375 88.61313 103.921875Q88.17563 104.390625 88.08188 105.25L91.25375 105.25L91.25375 105.171875Q91.20688 104.34375 90.80063 103.890625Q90.41 103.4375 89.7225 103.4375Z" fill-rule="nonzero"/><path fill="#757575" d="M51.44125 124.734375L50.519375 124.734375L54.081875 115.46875L55.00375 115.46875L51.44125 124.734375ZM59.925625 122.3125Q59.925625 121.875 59.581875 121.640625Q59.25375 121.390625 58.425625 121.21875Q57.613125 121.046875 57.12875 120.796875Q56.644375 120.546875 56.41 120.21875Q56.19125 119.875 56.19125 119.40625Q56.19125 118.625 56.8475 118.09375Q57.50375 117.546875 58.535 117.546875Q59.613125 117.546875 60.269375 118.109375Q60.94125 118.65625 60.94125 119.515625L59.863125 119.515625Q59.863125 119.078125 59.4725 118.765625Q59.0975 118.4375 58.535 118.4375Q57.94125 118.4375 57.5975 118.703125Q57.269375 118.953125 57.269375 119.359375Q57.269375 119.75 57.581875 119.953125Q57.894375 120.15625 58.706875 120.34375Q59.519375 120.515625 60.019375 120.765625Q60.519375 121.015625 60.75375 121.375Q61.00375 121.734375 61.00375 122.234375Q61.00375 123.09375 60.31625 123.609375Q59.644375 124.125 58.56625 124.125Q57.800625 124.125 57.206875 123.859375Q56.62875 123.578125 56.300625 123.09375Q55.9725 122.609375 55.9725 122.046875L57.050625 122.046875Q57.081875 122.59375 57.488125 122.921875Q57.894375 123.234375 58.56625 123.234375Q59.175625 123.234375 59.550625 122.984375Q59.925625 122.734375 59.925625 122.3125ZM63.41 124.0L62.331875 124.0L62.331875 117.65625L63.41 117.65625L63.41 124.0ZM62.238125 115.984375Q62.238125 115.71875 62.394375 115.53125Q62.56625 115.34375 62.87875 115.34375Q63.19125 115.34375 63.3475 115.53125Q63.519375 115.71875 63.519375 115.984375Q63.519375 116.234375 63.3475 116.421875Q63.19125 116.59375 62.87875 116.59375Q62.56625 116.59375 62.394375 116.421875Q62.238125 116.234375 62.238125 115.984375ZM66.25375 117.65625L66.285 118.359375Q66.9725 117.546875 68.16 117.546875Q69.48813 117.546875 69.9725 118.5625Q70.285 118.109375 70.785 117.828125Q71.30063 117.546875 71.98813 117.546875Q74.08188 117.546875 74.11313 119.75L74.11313 124.0L73.035 124.0L73.035 119.8125Q73.035 119.140625 72.7225 118.8125Q72.41 118.46875 71.67563 118.46875Q71.06625 118.46875 70.66 118.828125Q70.26938 119.1875 70.20688 119.796875L70.20688 124.0L69.12875 124.0L69.12875 119.84375Q69.12875 118.46875 67.76938 118.46875Q66.70688 118.46875 66.31625 119.375L66.31625 124.0L65.2225 124.0L65.2225 117.65625L66.25375 117.65625ZM77.41 124.0L76.33188 124.0L76.33188 117.65625L77.41 117.65625L77.41 124.0ZM76.23813 115.984375Q76.23813 115.71875 76.39438 115.53125Q76.56625 115.34375 76.87875 115.34375Q77.19125 115.34375 77.3475 115.53125Q77.51938 115.71875 77.51938 115.984375Q77.51938 116.234375 77.3475 116.421875Q77.19125 116.59375 76.87875 116.59375Q76.56625 116.59375 76.39438 116.421875Q76.23813 116.234375 76.23813 115.984375ZM80.41 124.0L79.33188 124.0L79.33188 115.0L80.41 115.0L80.41 124.0ZM86.14438 124.0Q86.05063 123.8125 85.98813 123.328125Q85.23813 124.125 84.19125 124.125Q83.25375 124.125 82.64438 123.59375Q82.05063 123.0625 82.05063 122.234375Q82.05063 121.25 82.80063 120.703125Q83.55063 120.15625 84.92563 120.15625L85.9725 120.15625L85.9725 119.65625Q85.9725 119.09375 85.62875 118.765625Q85.30063 118.421875 84.62875 118.421875Q84.05063 118.421875 83.66 118.71875Q83.26938 119.0 83.26938 119.421875L82.17563 119.421875Q82.17563 118.9375 82.50375 118.5Q82.8475 118.0625 83.42563 117.8125Q84.00375 117.546875 84.69125 117.546875Q85.80063 117.546875 86.41 118.09375Q87.035 118.640625 87.06625 119.59375L87.06625 122.515625Q87.06625 123.390625 87.285 123.90625L87.285 124.0L86.14438 124.0ZM84.3475 123.171875Q84.86313 123.171875 85.31625 122.90625Q85.76938 122.640625 85.9725 122.21875L85.9725 120.921875L85.12875 120.921875Q83.12875 120.921875 83.12875 122.09375Q83.12875 122.59375 83.4725 122.890625Q83.81625 123.171875 84.3475 123.171875ZM92.30063 118.625Q92.05063 118.59375 91.76938 118.59375Q90.69125 118.59375 90.31625 119.5L90.31625 124.0L89.23813 124.0L89.23813 117.65625L90.285 117.65625L90.30063 118.390625Q90.83188 117.546875 91.81625 117.546875Q92.12875 117.546875 92.30063 117.625L92.30063 118.625Z" fill-rule="nonzero"/><path fill="#757575" d="M71.51938 151.15625L71.51938 154.5L70.39438 154.5L70.39438 145.96875L73.55063 145.96875Q74.94125 145.96875 75.73813 146.6875Q76.535 147.39062 76.535 148.57812Q76.535 149.8125 75.75375 150.48438Q74.98813 151.15625 73.535 151.15625L71.51938 151.15625ZM71.51938 150.23438L73.55063 150.23438Q74.45688 150.23438 74.92563 149.8125Q75.41 149.39062 75.41 148.59375Q75.41 147.82812 74.92563 147.375Q74.45688 146.90625 73.61313 146.89062L71.51938 146.89062L71.51938 150.23438ZM79.31625 148.92188Q80.035 148.04688 81.19125 148.04688Q83.20688 148.04688 83.2225 150.3125L83.2225 154.5L82.12875 154.5L82.12875 150.29688Q82.12875 149.625 81.81625 149.29688Q81.51938 148.96875 80.86313 148.96875Q80.33188 148.96875 79.92563 149.25Q79.535 149.53125 79.31625 149.98438L79.31625 154.5L78.23813 154.5L78.23813 145.5L79.31625 145.5L79.31625 148.92188ZM85.39438 154.5L85.39438 145.96875L87.81625 145.96875Q88.92563 145.96875 89.76938 146.46875Q90.62875 146.95312 91.0975 147.85938Q91.56625 148.76562 91.56625 149.95312L91.56625 150.48438Q91.56625 151.70312 91.0975 152.60938Q90.64438 153.51562 89.76938 154.0Q88.91 154.48438 87.76938 154.5L85.39438 154.5ZM86.51938 146.89062L86.51938 153.57812L87.70688 153.57812Q89.00375 153.57812 89.7225 152.78125Q90.45688 151.96875 90.45688 150.46875L90.45688 149.96875Q90.45688 148.51562 89.76938 147.71875Q89.0975 146.90625 87.83188 146.89062L86.51938 146.89062Z" fill-rule="nonzero"/><path fill="#757575" d="M100.9725 190.00937Q100.9725 191.91562 100.31625 192.85312Q99.67563 193.775 98.285 193.775Q96.92563 193.775 96.26938 192.86874Q95.61313 191.9625 95.58188 190.15L95.58188 188.7125Q95.58188 186.82187 96.2225 185.91562Q96.87875 184.99374 98.26938 184.99374Q99.64438 184.99374 100.30063 185.88437Q100.95688 186.75937 100.9725 188.60312L100.9725 190.00937ZM99.87875 188.525Q99.87875 187.15 99.48813 186.525Q99.11313 185.88437 98.26938 185.88437Q97.44125 185.88437 97.05063 186.525Q96.67563 187.15 96.67563 188.44687L96.67563 190.18124Q96.67563 191.55624 97.06625 192.22812Q97.4725 192.88437 98.285 192.88437Q99.08188 192.88437 99.4725 192.25937Q99.86313 191.63437 99.87875 190.30624L99.87875 188.525Z" fill-rule="nonzero"/><path fill="#757575" d="M205.12021 193.65L199.52646 193.65L199.52646 192.86874L202.47958 189.5875Q203.13583 188.8375 203.38583 188.38437Q203.63583 187.91562 203.63583 187.41562Q203.63583 186.74374 203.22958 186.32187Q202.83896 185.88437 202.15146 185.88437Q201.35458 185.88437 200.90146 186.35312Q200.44833 186.80624 200.44833 187.63437L199.37021 187.63437Q199.37021 186.44687 200.12021 185.72812Q200.88583 184.99374 202.15146 184.99374Q203.35458 184.99374 204.04208 185.61874Q204.72958 186.24374 204.72958 187.29062Q204.72958 188.54062 203.12021 190.29062L200.83896 192.75937L205.12021 192.75937L205.12021 193.65ZM211.88583 190.00937Q211.88583 191.91562 211.22958 192.85312Q210.58896 193.775 209.19833 193.775Q207.83896 193.775 207.18271 192.86874Q206.52646 191.9625 206.49521 190.15L206.49521 188.7125Q206.49521 186.82187 207.13583 185.91562Q207.79208 184.99374 209.18271 184.99374Q210.55771 184.99374 211.21396 185.88437Q211.87021 186.75937 211.88583 188.60312L211.88583 190.00937ZM210.79208 188.525Q210.79208 187.15 210.40146 186.525Q210.02646 185.88437 209.18271 185.88437Q208.35458 185.88437 207.96396 186.525Q207.58896 187.15 207.58896 188.44687L207.58896 190.18124Q207.58896 191.55624 207.97958 192.22812Q208.38583 192.88437 209.19833 192.88437Q209.99521 192.88437 210.38583 192.25937Q210.77646 191.63437 210.79208 190.30624L210.79208 188.525Z" fill-rule="nonzero"/><path fill="#757575" d="M311.5179 190.79062L312.7054 190.79062L312.7054 191.66562L311.5179 191.66562L311.5179 193.65L310.4398 193.65L310.4398 191.66562L306.54916 191.66562L306.54916 191.025L310.36166 185.11874L311.5179 185.11874L311.5179 190.79062ZM307.78354 190.79062L310.4398 190.79062L310.4398 186.60312L310.29916 186.8375L307.78354 190.79062ZM319.29916 190.00937Q319.29916 191.91562 318.6429 192.85312Q318.0023 193.775 316.61166 193.775Q315.2523 193.775 314.59604 192.86874Q313.9398 191.9625 313.90854 190.15L313.90854 188.7125Q313.90854 186.82187 314.54916 185.91562Q315.2054 184.99374 316.59604 184.99374Q317.97104 184.99374 318.6273 185.88437Q319.28354 186.75937 319.29916 188.60312L319.29916 190.00937ZM318.2054 188.525Q318.2054 187.15 317.8148 186.525Q317.4398 185.88437 316.59604 185.88437Q315.7679 185.88437 315.3773 186.525Q315.0023 187.15 315.0023 188.44687L315.0023 190.18124Q315.0023 191.55624 315.3929 192.22812Q315.79916 192.88437 316.61166 192.88437Q317.40854 192.88437 317.79916 192.25937Q318.1898 191.63437 318.2054 190.30624L318.2054 188.525Z" fill-rule="nonzero"/><path fill="#757575" d="M418.61874 185.11874L418.61874 186.025L418.41562 186.025Q417.15 186.05624 416.4 186.79062Q415.65 187.50937 415.525 188.82187Q416.2125 188.05624 417.36874 188.05624Q418.47812 188.05624 419.15 188.8375Q419.82187 189.61874 419.82187 190.86874Q419.82187 192.18124 419.10312 192.97812Q418.38437 193.775 417.16562 193.775Q415.94687 193.775 415.18124 192.8375Q414.43124 191.88437 414.43124 190.4L414.43124 189.99374Q414.43124 187.63437 415.43124 186.38437Q416.43124 185.13437 418.41562 185.11874L418.61874 185.11874ZM417.19687 188.9625Q416.63437 188.9625 416.16562 189.29062Q415.69687 189.61874 415.50937 190.13437L415.50937 190.525Q415.50937 191.5875 415.97812 192.22812Q416.4625 192.86874 417.16562 192.86874Q417.9 192.86874 418.32187 192.3375Q418.74374 191.79062 418.74374 190.91562Q418.74374 190.04062 418.32187 189.50937Q417.9 188.9625 417.19687 188.9625ZM426.7125 190.00937Q426.7125 191.91562 426.05624 192.85312Q425.41562 193.775 424.025 193.775Q422.66562 193.775 422.00937 192.86874Q421.35312 191.9625 421.32187 190.15L421.32187 188.7125Q421.32187 186.82187 421.9625 185.91562Q422.61874 184.99374 424.00937 184.99374Q425.38437 184.99374 426.04062 185.88437Q426.69687 186.75937 426.7125 188.60312L426.7125 190.00937ZM425.61874 188.525Q425.61874 187.15 425.22812 186.525Q424.85312 185.88437 424.00937 185.88437Q423.18124 185.88437 422.79062 186.525Q422.41562 187.15 422.41562 188.44687L422.41562 190.18124Q422.41562 191.55624 422.80624 192.22812Q423.2125 192.88437 424.025 192.88437Q424.82187 192.88437 425.2125 192.25937Q425.60312 191.63437 425.61874 190.30624L425.61874 188.525Z" fill-rule="nonzero"/></svg>