<svg width="588" height="829" viewBox="0 0 588 829" fill="none" xmlns="http://www.w3.org/2000/svg">
<g clip-path="url(#clip0_503_1087)">
<path d="M40.9405 157.706C49.6542 150.859 51.6705 153.887 71.1682 147.4C73.6797 146.564 107.373 134.909 125.268 107.296C136.971 89.3238 131.813 85.7294 139.887 64.2172C148.889 40.2609 172.23 21.3456 197.858 21.0041C223.486 20.6627 248.654 41.465 249.942 67.0118C251.13 90.5459 233.973 111.133 215.015 125.168C201.054 135.475 184.301 145.504 180.242 162.37C176.479 178.005 185.22 193.74 194.527 206.85C203.835 219.961 214.52 233.538 215.312 249.596C216.419 272.106 196.562 291.38 174.805 297.221C153.048 303.062 129.832 298.641 107.787 293.627C87.7133 289.017 66.6854 283.329 52.1656 268.736C45.2343 261.763 41.4176 251.995 32.92 233.26C26.0608 218.154 22.6401 210.597 22.118 202.824C21.0198 186.596 27.609 168.175 40.9405 157.706Z" fill="#D69929"/>
<path d="M254.015 129.14C239.38 145.721 212.868 152.443 206.095 173.486C204.846 176.904 204.661 180.619 205.564 184.143C207.712 191.313 215.312 195.095 222.005 198.483C234.844 204.925 246.978 212.68 258.211 221.624C262.981 225.424 267.734 229.627 270.24 235.184C274.355 244.299 271.588 255.054 267.239 264.061C262.891 273.068 256.989 281.421 254.527 291.127C253.683 294.452 253.296 298.1 254.734 301.219C256.917 305.96 262.532 307.986 267.68 308.936C276.638 310.536 285.827 310.33 294.704 308.329C303.581 306.327 311.966 302.572 319.365 297.285C332.4 287.838 341.627 274.054 353.89 263.622C366.153 253.189 384.112 246.324 398.28 253.987C404.047 257.115 408.593 262.358 414.738 264.688C428.304 269.824 443.82 256.882 444.916 242.452C446.012 228.023 436.291 214.57 424.163 206.603C413.229 199.433 403.868 195.91 383.86 190.623C372.244 187.549 342.13 180.405 327.387 170.511C325.096 168.969 321.467 166.218 320.344 161.692C318.834 155.597 322.716 150.041 323.389 149.386C326.668 146.232 331.008 144.475 334.943 142.216C352.246 132.223 361.329 112.694 368.363 94.0344C373.852 79.4525 378.758 64.3508 378.758 48.81C378.758 33.2691 373.008 17.0292 360.592 7.63652C338.213 -9.28457 286.977 3.97088 271.372 27.2911C251.374 57.163 281.237 98.3005 254.015 129.14Z" fill="url(#paint0_linear_503_1087)"/>
<path d="M439.638 4.15995C431.152 7.0738 425.028 14.7092 416.659 25.1505C414.335 28.117 412.277 31.2829 410.508 34.6115C408.29 38.4066 406.829 42.5972 406.207 46.9504C404.6 60.0088 408.901 72.9503 408.434 84.4618C407.284 110.453 375.245 133.251 375.003 147.928C374.95 150.613 375.61 153.263 376.916 155.608C378.9 158.756 382.124 160.492 385.338 161.544C397.093 165.393 417.557 163.091 429.724 163.999C431.772 164.152 457.759 166.005 471.389 183.659C480.037 194.855 481.734 209.793 487.238 222.834C492.743 235.874 505.943 248.366 519.439 244.175C529.236 241.126 534.498 230.793 538.97 221.548C548.479 201.87 559.263 182.615 565.369 161.625C571.476 140.634 572.463 117.171 562.676 97.6281C554.926 82.1595 541.286 70.648 528.015 59.5411C497.017 33.6582 488.289 18.1716 466.954 8.58469C452.901 2.23537 445.474 2.15443 439.638 4.15995Z" fill="url(#paint1_linear_503_1087)"/>
<path d="M102.649 345.956C124.592 359.901 154.898 359.273 176.24 344.422C185.017 338.32 192.196 330.18 198.676 321.655C209.766 307.032 219 291.09 226.165 274.194C227.367 271.349 216.858 300.424 228.067 319.906C237.939 337.099 261.093 340.913 269.753 342.34C274.51 343.12 300.338 346.925 325.225 331.894C347.903 318.201 345.866 300.218 363.554 298.827C382.087 297.373 402.306 305.009 411.29 321.261C418.99 335.233 416.89 353.521 407.61 366.497C398.33 379.473 382.706 387.199 366.812 388.608C349.204 390.178 331.722 384.632 314.051 384.354C308.003 384.256 301.182 385.18 297.538 389.999C294.972 393.391 294.631 398.075 295.6 402.203C300.688 423.982 332.108 426.189 346.126 443.625C349.845 448.252 352.185 453.834 352.877 459.73C353.57 465.626 352.586 471.597 350.04 476.96C347.494 482.323 343.488 486.859 338.481 490.05C333.475 493.24 327.67 494.956 321.733 494.999C298.14 495.17 282.784 470.824 262.215 459.257C228.633 440.413 186.973 457.768 148.455 456.682C126.288 456.063 104.83 449.144 83.8387 442.046C62.8474 434.948 40.869 427.051 25.3432 411.078C13.5418 398.927 6.89173 381.465 9.60201 364.549C11.4687 352.884 14.0892 333.537 18.7111 322.616C36.1125 281.14 84.5746 334.488 102.649 345.956Z" fill="url(#paint2_linear_503_1087)"/>
<path d="M491.799 293.606C488.951 290.597 485.317 288.958 481.977 287.76C473.432 284.742 463.896 283.85 455.36 286.859C446.824 289.868 439.556 297.3 438.118 306.308C436.404 317.118 442.788 327.252 445.958 337.693C451.654 356.458 446.511 377.681 434.529 393.158C422.546 408.634 404.393 418.552 385.357 422.579C381.892 423.309 377.999 424.111 376.071 427.083C373.329 431.308 376.303 436.993 379.919 440.443C383.535 443.893 388.089 447.082 389.232 451.992C391.268 460.739 381.321 467.81 380.098 476.711C378.642 487.25 389.366 495.052 398.938 499.52C418.439 508.627 440.904 514.969 461.271 508.105C488.058 499.096 503.576 468.153 500.648 439.857C499.112 425.056 495.353 425.444 491.638 399.247C488.84 381.368 488.387 363.196 490.29 345.197C493.237 318.676 500.719 303.056 491.799 293.606Z" fill="url(#paint3_linear_503_1087)"/>
<path d="M41.153 456.941C67.9603 467.067 86.5995 492.915 113.56 502.627C149.543 515.582 189.124 496.636 227.185 499.78C234.885 500.41 242.973 502.194 248.541 507.564C258.805 517.474 255.791 535.492 246.454 546.303C240.085 553.655 230.819 559.943 229.911 569.646C229.218 576.998 233.734 583.71 238.007 589.701L264.994 627.341C270.05 634.378 275.33 643.18 271.912 651.144C270.239 655.027 266.766 657.793 263.429 660.396C246.967 673.216 227.347 686.802 207.044 682.018C193.928 678.928 183.897 668.757 172.995 660.829C160.176 651.515 145.549 644.999 130.058 641.702C115.899 638.693 100.93 638.351 87.8409 632.17C74.7521 625.99 63.9752 611.098 68.779 597.413C71.8825 588.503 80.4734 582.836 86.0418 575.25C97.1156 560.25 92.9685 534.907 75.7597 527.772C65.6664 523.582 53.4232 526.483 43.7168 521.465C34.5052 516.717 28.7659 505.302 23.1346 496.825C12.8974 481.392 13.3292 446.418 41.153 456.941Z" fill="url(#paint4_linear_503_1087)"/>
<path d="M259.13 570.857C257.487 583.027 271.852 590.16 279.932 599.406C292.304 613.591 290.095 635.331 298.283 652.286C307.657 671.733 332.005 682.508 352.655 676.338C359.955 674.161 367.191 670.114 374.715 671.355C382.238 672.596 387.823 678.802 394.467 682.625C405.626 689.074 419.327 688.643 432.058 686.844C446.872 684.775 463.617 679.468 469.156 665.544C471.517 659.599 471.374 652.898 470.054 646.656C468.132 637.805 464.083 629.558 458.258 622.632C452.433 615.705 445.008 610.307 436.628 606.908C415.52 598.588 389.645 604.21 369.992 591.896C348.75 578.602 343.785 545.07 330.362 524.832C319.373 508.272 297.44 490.607 279.797 511.546C270.191 522.952 280.273 534.159 275.856 546.626C272.543 556.088 260.539 560.325 259.13 570.857Z" fill="url(#paint5_linear_503_1087)"/>
<path d="M377.35 562.781C383.819 574.491 398.416 579.146 411.832 580.211C425.248 581.277 439.078 579.871 451.88 583.971C460.974 586.881 470.619 592.521 479.388 588.734C485.442 586.129 488.897 579.612 490.268 573.202C497.288 540.355 452.052 534.41 429.226 526.559C406.184 518.671 358.386 528.546 377.35 562.781Z" fill="#D69929"/>
<path d="M518.237 632.87C519.469 641.58 515.215 649.968 512.086 658.177C508.957 666.385 507.087 676.385 512.352 683.394C518.955 692.184 532.411 690.886 542.657 687.055C546.513 685.614 550.413 683.85 553.17 680.789C557.442 675.991 558.116 669.035 558.585 662.599C560.793 632.315 569.63 588.746 530.496 577.942C518.388 574.594 507.388 580.278 504.516 593.33C501.042 609.076 516.172 618.359 518.237 632.87Z" fill="#D69929"/>
<path d="M498.274 500.18C494.529 504.978 491.972 511.184 493.403 517.063C494.214 519.794 495.536 522.352 497.302 524.606C503.351 533.019 511.294 539.946 520.513 544.844C524.195 546.801 528.309 548.448 532.46 547.89C535.53 547.474 538.303 545.88 540.797 544.065C554.644 534.017 568.437 507.51 553.609 493.08C538.645 478.507 509.843 485.333 498.274 500.18Z" fill="#D69929"/>
<path d="M31.997 607.22C44.1314 623.794 34.6357 641.103 44.1583 651.737C46.4739 654.33 47.7484 655.865 68.2566 658.718C84.362 660.964 100.208 664.787 115.565 670.132C127.968 674.458 140.444 680.066 149.087 689.946C152.264 693.535 154.867 697.717 158.457 700.92C164.614 706.403 173.06 708.575 181.281 709.23C208.61 711.401 235.015 698.803 257.624 683.288C262.524 679.922 267.443 676.351 273.151 674.655C278.859 672.959 285.635 673.524 289.889 677.688C295.669 683.332 294.61 693.024 291.263 700.382C286.526 710.687 278.397 719.055 268.232 724.09C260.541 727.868 250.865 730.605 248.002 738.681C245.812 744.854 248.783 751.683 252.678 756.951C256.574 762.218 261.501 766.866 264.059 772.896C269.103 784.822 263.161 799.18 253.217 807.498C243.272 815.816 230.285 819.334 217.612 822.017C176.434 830.712 132.833 832.722 92.8576 819.675C52.8822 806.628 16.8648 776.782 3.76107 736.796C-1.42658 720.913 -2.38692 701.925 8.29353 689.102C12.835 683.646 19.4676 679.232 20.7511 672.223C21.8999 666.05 18.4175 660.109 15.6083 654.501C10.8799 645.041 7.77318 634.856 6.41772 624.368C5.33173 615.987 3.54567 604.034 9.95394 599.637C14.9531 596.209 22.5192 599.036 25.3284 600.274C27.8501 602.283 30.0927 604.618 31.997 607.22V607.22Z" fill="url(#paint6_linear_503_1087)"/>
<path d="M280.178 731.675C275.896 733.895 271.254 735.805 268.049 739.393C264.844 742.981 263.668 748.941 266.981 752.432C269.495 755.097 273.553 755.399 277.215 755.559C294.057 756.296 311.555 756.917 327.05 750.345C332.877 747.875 338.927 743.363 338.999 737.084C339.08 730.538 332.841 726.088 332.203 719.79C331.548 713.315 337.823 708.928 337.671 703.101C337.482 695.622 329.591 692.123 322.911 691.27C312.767 689.982 310.082 693.295 307.093 701.387C301.796 715.687 294.596 724.214 280.178 731.675Z" fill="url(#paint7_linear_503_1087)"/>
<path d="M353.965 704.967C356.199 698.701 361.513 693.841 367.574 691.021C372.023 688.954 377.481 687.96 381.668 690.565C385.271 692.803 386.865 697.09 389.774 700.089C397.168 707.599 409.587 704.931 419.908 702.613C426.213 701.199 432.679 700.125 439.083 700.93C445.486 701.736 451.853 704.636 455.591 709.881C461.535 718.179 459.193 730.343 452.52 738.086C445.846 745.828 435.903 749.964 426.033 752.738C412.058 756.658 397.558 758.406 383.046 757.921C376.652 757.706 368.636 756.668 363.548 752.443C361.747 750.957 357.874 747.547 358.099 744.763C358.487 740.01 362.44 742.472 364.277 738.981C371.491 725.286 348.057 721.544 353.965 704.967Z" fill="url(#paint8_linear_503_1087)"/>
<path d="M557.494 698.851C546.702 704.357 527.295 714.273 514.129 709.845C510.091 708.479 512.385 707.707 495.433 695.734C487.779 690.345 484.956 688.827 481.25 689.015C475.063 689.33 467.536 694.171 467.239 700.144C466.888 707.087 473.534 712.377 475.333 719.087C477.905 728.689 470.252 737.797 462.914 744.506C455.575 751.216 447.23 759.192 448.057 769.099C448.624 775.979 453.803 781.817 459.946 784.97C466.088 788.123 473.121 789.012 480 789.605C489.137 790.377 499.03 790.503 506.593 785.329C517.897 777.614 522.133 759.488 535.731 757.898C544.391 756.883 552.08 763.656 560.749 764.635C570.453 765.73 579.842 759.003 584.185 750.263C588.529 741.524 588.628 731.258 587.117 721.62C586.119 715.279 585.381 709.764 580.993 704.635C580.013 703.485 573.897 696.551 565.48 696.659C562.679 696.729 559.938 697.482 557.494 698.851Z" fill="#D69929"/>
<path d="M46.2541 38.0229C38.8117 39.7406 31.0656 43.7245 27.054 50.6132C25.3124 53.8437 24.1339 57.3508 23.5696 60.9822C21.0933 73.5243 21.5522 86.4744 24.9098 98.8071C26.2499 103.582 28.2244 108.412 32.2003 111.119C35.1397 113.124 38.9011 113.745 42.6088 113.942C63.2116 115.049 98.5025 100.156 98.9939 74.5348C99.4942 48.6437 69.2423 32.699 46.2541 38.0229Z" fill="#D69929"/>
</g>
<defs>
<linearGradient id="paint0_linear_503_1087" x1="204.981" y1="155.006" x2="445.005" y2="155.006" gradientUnits="userSpaceOnUse">
<stop offset="0.19" stop-color="#D29629"/>
<stop offset="0.98" stop-color="#864A70"/>
</linearGradient>
<linearGradient id="paint1_linear_503_1087" x1="375.003" y1="123.97" x2="569.994" y2="123.97" gradientUnits="userSpaceOnUse">
<stop offset="0.02" stop-color="#864A70"/>
<stop offset="0.57" stop-color="#D79629"/>
<stop offset="0.72" stop-color="#D69929"/>
</linearGradient>
<linearGradient id="paint2_linear_503_1087" x1="388.387" y1="281.615" x2="58.492" y2="472.089" gradientUnits="userSpaceOnUse">
<stop offset="0.02" stop-color="#864A70"/>
<stop offset="0.2" stop-color="#D79629"/>
<stop offset="0.72" stop-color="#D69929"/>
</linearGradient>
<linearGradient id="paint3_linear_503_1087" x1="392.911" y1="345.936" x2="512.321" y2="464.294" gradientUnits="userSpaceOnUse">
<stop offset="0.02" stop-color="#864A70"/>
<stop offset="0.57" stop-color="#D79629"/>
<stop offset="0.72" stop-color="#D69929"/>
</linearGradient>
<linearGradient id="paint4_linear_503_1087" x1="80.8513" y1="424.355" x2="229.903" y2="682.122" gradientUnits="userSpaceOnUse">
<stop offset="0.19" stop-color="#D29629"/>
<stop offset="0.7" stop-color="#D79629"/>
<stop offset="0.98" stop-color="#864A70"/>
</linearGradient>
<linearGradient id="paint5_linear_503_1087" x1="324.087" y1="675.897" x2="394.553" y2="554.077" gradientUnits="userSpaceOnUse">
<stop offset="0.02" stop-color="#864A70"/>
<stop offset="0.57" stop-color="#D79629"/>
<stop offset="0.72" stop-color="#D69929"/>
</linearGradient>
<linearGradient id="paint6_linear_503_1087" x1="294" y1="713.501" x2="0.000490665" y2="713.501" gradientUnits="userSpaceOnUse">
<stop offset="0.02" stop-color="#864A70"/>
<stop offset="0.84" stop-color="#D69929"/>
</linearGradient>
<linearGradient id="paint7_linear_503_1087" x1="342.366" y1="708.723" x2="266.949" y2="752.74" gradientUnits="userSpaceOnUse">
<stop offset="0.0989583" stop-color="#864A70"/>
<stop offset="0.385417" stop-color="#915F7E"/>
<stop offset="0.963542" stop-color="#D69929"/>
</linearGradient>
<linearGradient id="paint8_linear_503_1087" x1="367.177" y1="688.909" x2="434.255" y2="756.4" gradientUnits="userSpaceOnUse">
<stop offset="0.02" stop-color="#864A70"/>
<stop offset="0.369792" stop-color="#A4668D"/>
<stop offset="0.84" stop-color="#D69929"/>
</linearGradient>
<clipPath id="clip0_503_1087">
<path d="M0 0H588V779C588 806.614 565.614 829 538 829H30C13.4314 829 0 815.569 0 799V0Z" fill="white"/>
</clipPath>
</defs>
</svg>
