<svg version="1.1" viewBox="0.0 0.0 388.0 242.0" fill="none" stroke="none" stroke-linecap="square" stroke-miterlimit="10" width="388" height="242" xmlns:xlink="http://www.w3.org/1999/xlink" xmlns="http://www.w3.org/2000/svg"><path fill="#ffffff" fill-opacity="0.0" d="M0 0L388.0 0L388.0 242.0L0 242.0L0 0Z" fill-rule="nonzero"/><path fill="#976b18" d="M183.47707 36.872482C187.34537 36.402786 191.23853 36.167294 195.13524 36.167294L195.13524 84.52676C193.18689 84.52676 191.24031 84.6445 189.30615 84.87935Z" fill-rule="nonzero"/><path fill="#f5e5b9" d="M130.99873 60.491062C145.68985 47.475864 163.99304 39.238274 183.47707 36.872482L189.30615 84.87935C179.56415 86.06225 170.41255 90.181046 163.06699 96.688644Z" fill-rule="nonzero"/><path fill="#0e491d" d="M118.9997 73.23783C122.60584 68.63493 126.62196 64.36854 130.99873 60.491062L163.06699 96.688644C160.8786 98.62738 158.87054 100.760574 157.06747 103.06203Z" fill-rule="nonzero"/><path fill="#f4b400" d="M112.365 82.84986C114.38092 79.51512 116.59653 76.30526 118.9997 73.23783L157.06747 103.06203C155.86589 104.59574 154.75809 106.20067 153.75012 107.86804Z" fill-rule="nonzero"/><path fill="#d77622" d="M104.70148 98.58922C106.774956 93.121895 109.339966 87.853874 112.365 82.84986L153.75012 107.86804C152.23761 110.37005 150.95511 113.00406 149.91837 115.73772Z" fill-rule="nonzero"/><path fill="#d79922" d="M195.13524 36.167294C237.46753 36.167294 274.88083 63.69653 287.47482 104.112045C300.06882 144.52756 284.91666 188.43686 250.07785 212.48433C215.23907 236.53181 168.81013 235.12888 135.48686 209.02176C102.16358 182.91464 89.69024 138.1706 104.70148 98.58922L149.91837 115.73772C142.41275 135.5284 148.64941 157.90044 165.31105 170.954C181.97269 184.00755 205.18716 184.70901 222.60655 172.68527C240.02594 160.66154 247.60202 138.7069 241.30504 118.49913C235.00804 98.291374 216.30139 84.52676 195.13524 84.52676Z" fill-rule="nonzero"/><path fill="#757575" d="M16.096348 45.479794L16.268223 46.604794L16.502598 45.58917L18.190098 39.636044L19.143223 39.636044L20.783848 45.58917L21.018223 46.62042L21.205723 45.46417L22.533848 39.636044L23.658848 39.636044L21.596348 48.167294L20.565098 48.167294L18.799473 41.948544L18.674473 41.292294L18.533848 41.948544L16.721348 48.167294L15.690097 48.167294L13.627597 39.636044L14.752597 39.636044L16.096348 45.479794ZM24.799473 44.93292Q24.799473 44.011044 25.158848 43.261044Q25.533848 42.511044 26.190098 42.12042Q26.846348 41.71417 27.674473 41.71417Q28.971348 41.71417 29.768223 42.604794Q30.580723 43.49542 30.580723 44.99542L30.580723 45.073544Q30.580723 45.99542 30.221348 46.729794Q29.861973 47.46417 29.205723 47.886044Q28.549473 48.292294 27.690098 48.292294Q26.408848 48.292294 25.596348 47.40167Q24.799473 46.49542 24.799473 45.011044L24.799473 44.93292ZM25.893223 45.073544Q25.893223 46.12042 26.377598 46.761044Q26.877598 47.40167 27.690098 47.40167Q28.518223 47.40167 29.002598 46.761044Q29.486973 46.104794 29.486973 44.93292Q29.486973 43.90167 28.986973 43.261044Q28.502598 42.604794 27.674473 42.604794Q26.877598 42.604794 26.377598 43.24542Q25.893223 43.87042 25.893223 45.073544ZM35.158848 42.792294Q34.908848 42.761044 34.627598 42.761044Q33.549473 42.761044 33.174473 43.667294L33.174473 48.167294L32.096348 48.167294L32.096348 41.823544L33.143223 41.823544L33.158848 42.55792Q33.690098 41.71417 34.674473 41.71417Q34.986973 41.71417 35.158848 41.792294L35.158848 42.792294ZM37.861973 45.229794L37.174473 45.93292L37.174473 48.167294L36.096348 48.167294L36.096348 39.167294L37.174473 39.167294L37.174473 44.604794L37.752598 43.917294L39.736973 41.823544L41.049473 41.823544L38.580723 44.479794L41.346348 48.167294L40.065098 48.167294L37.861973 45.229794ZM44.721348 48.292294Q43.424473 48.292294 42.611973 47.448544Q41.815098 46.58917 41.815098 45.167294L41.815098 44.979794Q41.815098 44.02667 42.174473 43.292294Q42.533848 42.542294 43.174473 42.136044Q43.830723 41.71417 44.580723 41.71417Q45.815098 41.71417 46.502598 42.52667Q47.190098 43.33917 47.190098 44.854794L47.190098 45.30792L42.893223 45.30792Q42.924473 46.24542 43.440098 46.823544Q43.971348 47.40167 44.783848 47.40167Q45.346348 47.40167 45.736973 47.167294Q46.143223 46.93292 46.455723 46.542294L47.111973 47.05792Q46.315098 48.292294 44.721348 48.292294ZM44.580723 42.604794Q43.924473 42.604794 43.471348 43.08917Q43.033848 43.55792 42.940098 44.417294L46.111973 44.417294L46.111973 44.33917Q46.065098 43.511044 45.658848 43.05792Q45.268223 42.604794 44.580723 42.604794ZM51.158848 42.792294Q50.908848 42.761044 50.627598 42.761044Q49.549473 42.761044 49.174473 43.667294L49.174473 48.167294L48.096348 48.167294L48.096348 41.823544L49.143223 41.823544L49.158848 42.55792Q49.690098 41.71417 50.674473 41.71417Q50.986973 41.71417 51.158848 41.792294L51.158848 42.792294Z" fill-rule="nonzero"/><path fill="#9e9e9e" d="M18.127598 62.41729Q17.799473 62.82354 17.315098 63.07354Q16.846348 63.307915 16.283848 63.307915Q15.549472 63.307915 15.002597 62.94854Q14.455722 62.589165 14.158847 61.932915Q13.861972 61.26104 13.861972 60.464165Q13.861972 59.620415 14.174472 58.932915Q14.502597 58.245415 15.096347 57.88604Q15.705722 57.51104 16.502598 57.51104Q17.768223 57.51104 18.486973 58.464165Q19.221348 59.41729 19.221348 61.04229L19.221348 61.35479Q19.221348 63.85479 18.236973 64.995415Q17.252598 66.13604 15.268222 66.16729L15.049472 66.16729L15.049472 65.26104L15.283847 65.26104Q16.627598 65.22979 17.346348 64.557915Q18.065098 63.88604 18.127598 62.41729ZM16.455723 62.41729Q17.002598 62.41729 17.455723 62.089165Q17.924473 61.745415 18.143223 61.26104L18.143223 60.82354Q18.143223 59.76104 17.674473 59.089165Q17.205723 58.41729 16.502598 58.41729Q15.783847 58.41729 15.346347 58.964165Q14.924472 59.51104 14.924472 60.41729Q14.924472 61.29229 15.330722 61.85479Q15.752597 62.41729 16.455723 62.41729ZM21.111973 65.60479Q21.111973 65.32354 21.268223 65.13604Q21.440098 64.94854 21.768223 64.94854Q22.111973 64.94854 22.283848 65.13604Q22.455723 65.32354 22.455723 65.60479Q22.455723 65.870415 22.283848 66.057915Q22.111973 66.22979 21.768223 66.22979Q21.440098 66.22979 21.268223 66.057915Q21.111973 65.870415 21.111973 65.60479ZM28.236973 57.63604L28.236973 58.54229L28.033848 58.54229Q26.768223 58.57354 26.018223 59.307915Q25.268223 60.026665 25.143223 61.339165Q25.830723 60.57354 26.986973 60.57354Q28.096348 60.57354 28.768223 61.35479Q29.440098 62.13604 29.440098 63.38604Q29.440098 64.69854 28.721348 65.495415Q28.002598 66.29229 26.783848 66.29229Q25.565098 66.29229 24.799473 65.35479Q24.049473 64.401665 24.049473 62.91729L24.049473 62.51104Q24.049473 60.151665 25.049473 58.901665Q26.049473 57.651665 28.033848 57.63604L28.236973 57.63604ZM26.815098 61.47979Q26.252598 61.47979 25.783848 61.807915Q25.315098 62.13604 25.127598 62.651665L25.127598 63.04229Q25.127598 64.10479 25.596348 64.745415Q26.080723 65.38604 26.783848 65.38604Q27.518223 65.38604 27.940098 64.85479Q28.361973 64.307915 28.361973 63.432915Q28.361973 62.557915 27.940098 62.026665Q27.518223 61.47979 26.815098 61.47979ZM30.877598 59.276665Q30.877598 58.51104 31.361973 58.01104Q31.861973 57.51104 32.627598 57.51104Q33.408848 57.51104 33.893223 58.01104Q34.377598 58.51104 34.377598 59.307915L34.377598 59.72979Q34.377598 60.495415 33.877598 60.995415Q33.393223 61.47979 32.643223 61.47979Q31.877598 61.47979 31.377598 60.995415Q30.877598 60.495415 30.877598 59.682915L30.877598 59.276665ZM31.690098 59.72979Q31.690098 60.182915 31.940098 60.47979Q32.205723 60.776665 32.643223 60.776665Q33.065098 60.776665 33.315098 60.495415Q33.565098 60.19854 33.565098 59.69854L33.565098 59.276665Q33.565098 58.82354 33.315098 58.526665Q33.065098 58.214165 32.627598 58.214165Q32.190098 58.214165 31.940098 58.526665Q31.690098 58.82354 31.690098 59.29229L31.690098 59.72979ZM35.033848 64.07354Q35.033848 63.307915 35.518223 62.82354Q36.018223 62.32354 36.783848 62.32354Q37.549473 62.32354 38.033848 62.82354Q38.533848 63.307915 38.533848 64.120415L38.533848 64.526665Q38.533848 65.29229 38.049473 65.79229Q37.565098 66.29229 36.799473 66.29229Q36.033848 66.29229 35.533848 65.807915Q35.033848 65.307915 35.033848 64.495415L35.033848 64.07354ZM35.846348 64.526665Q35.846348 64.995415 36.096348 65.29229Q36.361973 65.589165 36.799473 65.589165Q37.221348 65.589165 37.471348 65.307915Q37.721348 65.01104 37.721348 64.51104L37.721348 64.07354Q37.721348 63.60479 37.455723 63.32354Q37.205723 63.026665 36.783848 63.026665Q36.361973 63.026665 36.096348 63.32354Q35.846348 63.60479 35.846348 64.10479L35.846348 64.526665ZM32.893223 65.526665L32.268223 65.13604L36.440098 58.464165L37.049473 58.85479L32.893223 65.526665Z" fill-rule="nonzero"/><path stroke="#757575" stroke-width="1.0" stroke-linecap="butt" d="M13.268222 52.667294L92.41632 52.667294L157.4253 49.098145" fill-rule="nonzero"/><path fill="#9e9e9e" d="M159.4253 49.098145C159.4253 47.993572 158.52986 47.098145 157.4253 47.098145C156.32072 47.098145 155.4253 47.993572 155.4253 49.098145C155.4253 50.202713 156.32072 51.098145 157.4253 51.098145C158.52986 51.098145 159.4253 50.202713 159.4253 49.098145" fill-rule="nonzero"/><path fill="#757575" d="M15.705722 72.63604L18.502598 79.589165L21.283848 72.63604L22.752598 72.63604L22.752598 81.16729L21.627598 81.16729L21.627598 77.839165L21.736973 74.26104L18.924473 81.16729L18.065098 81.16729L15.268222 74.276665L15.377597 77.839165L15.377597 81.16729L14.252597 81.16729L14.252597 72.63604L15.705722 72.63604ZM28.002598 81.16729Q27.908848 80.97979 27.846348 80.495415Q27.096348 81.29229 26.049473 81.29229Q25.111973 81.29229 24.502598 80.76104Q23.908848 80.22979 23.908848 79.401665Q23.908848 78.41729 24.658848 77.870415Q25.408848 77.32354 26.783848 77.32354L27.830723 77.32354L27.830723 76.82354Q27.830723 76.26104 27.486973 75.932915Q27.158848 75.589165 26.486973 75.589165Q25.908848 75.589165 25.518223 75.88604Q25.127598 76.16729 25.127598 76.589165L24.033848 76.589165Q24.033848 76.10479 24.361973 75.66729Q24.705723 75.22979 25.283848 74.97979Q25.861973 74.714165 26.549473 74.714165Q27.658848 74.714165 28.268223 75.26104Q28.893223 75.807915 28.924473 76.76104L28.924473 79.682915Q28.924473 80.557915 29.143223 81.07354L29.143223 81.16729L28.002598 81.16729ZM26.205723 80.339165Q26.721348 80.339165 27.174473 80.07354Q27.627598 79.807915 27.830723 79.38604L27.830723 78.089165L26.986973 78.089165Q24.986973 78.089165 24.986973 79.26104Q24.986973 79.76104 25.330723 80.057915Q25.674473 80.339165 26.205723 80.339165ZM32.111973 74.82354L32.143223 75.620415Q32.877598 74.714165 34.049473 74.714165Q36.065098 74.714165 36.080723 76.97979L36.080723 81.16729L34.986973 81.16729L34.986973 76.964165Q34.986973 76.29229 34.674473 75.964165Q34.377598 75.63604 33.721348 75.63604Q33.190098 75.63604 32.783848 75.91729Q32.393223 76.19854 32.174473 76.651665L32.174473 81.16729L31.096348 81.16729L31.096348 74.82354L32.111973 74.82354ZM42.002598 81.16729Q41.908848 80.97979 41.846348 80.495415Q41.096348 81.29229 40.049473 81.29229Q39.111973 81.29229 38.502598 80.76104Q37.908848 80.22979 37.908848 79.401665Q37.908848 78.41729 38.658848 77.870415Q39.408848 77.32354 40.783848 77.32354L41.830723 77.32354L41.830723 76.82354Q41.830723 76.26104 41.486973 75.932915Q41.158848 75.589165 40.486973 75.589165Q39.908848 75.589165 39.518223 75.88604Q39.127598 76.16729 39.127598 76.589165L38.033848 76.589165Q38.033848 76.10479 38.361973 75.66729Q38.705723 75.22979 39.283848 74.97979Q39.861973 74.714165 40.549473 74.714165Q41.658848 74.714165 42.268223 75.26104Q42.893223 75.807915 42.924473 76.76104L42.924473 79.682915Q42.924473 80.557915 43.143223 81.07354L43.143223 81.16729L42.002598 81.16729ZM40.205723 80.339165Q40.721348 80.339165 41.174473 80.07354Q41.627598 79.807915 41.830723 79.38604L41.830723 78.089165L40.986973 78.089165Q38.986973 78.089165 38.986973 79.26104Q38.986973 79.76104 39.330723 80.057915Q39.674473 80.339165 40.205723 80.339165ZM44.830723 77.94854Q44.830723 76.464165 45.518223 75.589165Q46.205723 74.714165 47.330723 74.714165Q48.486973 74.714165 49.143223 75.526665L49.190098 74.82354L50.190098 74.82354L50.190098 81.01104Q50.190098 82.245415 49.455723 82.94854Q48.721348 83.66729 47.502598 83.66729Q46.815098 83.66729 46.158848 83.370415Q45.502598 83.07354 45.158848 82.57354L45.721348 81.91729Q46.408848 82.776665 47.424473 82.776665Q48.205723 82.776665 48.643223 82.32354Q49.096348 81.88604 49.096348 81.07354L49.096348 80.526665Q48.440098 81.29229 47.315098 81.29229Q46.205723 81.29229 45.518223 80.401665Q44.830723 79.495415 44.830723 77.94854ZM45.924473 78.07354Q45.924473 79.13604 46.361973 79.76104Q46.799473 80.370415 47.596348 80.370415Q48.611973 80.370415 49.096348 79.432915L49.096348 76.54229Q48.596348 75.63604 47.596348 75.63604Q46.815098 75.63604 46.361973 76.245415Q45.924473 76.85479 45.924473 78.07354ZM54.721348 81.29229Q53.424473 81.29229 52.611973 80.44854Q51.815098 79.589165 51.815098 78.16729L51.815098 77.97979Q51.815098 77.026665 52.174473 76.29229Q52.533848 75.54229 53.174473 75.13604Q53.830723 74.714165 54.580723 74.714165Q55.815098 74.714165 56.502598 75.526665Q57.190098 76.339165 57.190098 77.85479L57.190098 78.307915L52.893223 78.307915Q52.924473 79.245415 53.440098 79.82354Q53.971348 80.401665 54.783848 80.401665Q55.346348 80.401665 55.736973 80.16729Q56.143223 79.932915 56.455723 79.54229L57.111973 80.057915Q56.315098 81.29229 54.721348 81.29229ZM54.580723 75.60479Q53.924473 75.60479 53.471348 76.089165Q53.033848 76.557915 52.940098 77.41729L56.111973 77.41729L56.111973 77.339165Q56.065098 76.51104 55.658848 76.057915Q55.268223 75.60479 54.580723 75.60479ZM59.111973 74.82354L59.143223 75.526665Q59.830723 74.714165 61.018223 74.714165Q62.346348 74.714165 62.830723 75.72979Q63.143223 75.276665 63.643223 74.995415Q64.158844 74.714165 64.846344 74.714165Q66.940094 74.714165 66.971344 76.91729L66.971344 81.16729L65.89322 81.16729L65.89322 76.97979Q65.89322 76.307915 65.58072 75.97979Q65.26822 75.63604 64.533844 75.63604Q63.924473 75.63604 63.518223 75.995415Q63.127598 76.35479 63.065098 76.964165L63.065098 81.16729L61.986973 81.16729L61.986973 77.01104Q61.986973 75.63604 60.627598 75.63604Q59.565098 75.63604 59.174473 76.54229L59.174473 81.16729L58.080723 81.16729L58.080723 74.82354L59.111973 74.82354ZM71.721344 81.29229Q70.42447 81.29229 69.61197 80.44854Q68.815094 79.589165 68.815094 78.16729L68.815094 77.97979Q68.815094 77.026665 69.17447 76.29229Q69.533844 75.54229 70.17447 75.13604Q70.83072 74.714165 71.58072 74.714165Q72.815094 74.714165 73.502594 75.526665Q74.190094 76.339165 74.190094 77.85479L74.190094 78.307915L69.89322 78.307915Q69.92447 79.245415 70.440094 79.82354Q70.971344 80.401665 71.783844 80.401665Q72.346344 80.401665 72.73697 80.16729Q73.14322 79.932915 73.45572 79.54229L74.11197 80.057915Q73.315094 81.29229 71.721344 81.29229ZM71.58072 75.60479Q70.92447 75.60479 70.471344 76.089165Q70.033844 76.557915 69.940094 77.41729L73.11197 77.41729L73.11197 77.339165Q73.065094 76.51104 72.658844 76.057915Q72.26822 75.60479 71.58072 75.60479ZM76.11197 74.82354L76.14322 75.620415Q76.877594 74.714165 78.04947 74.714165Q80.065094 74.714165 80.08072 76.97979L80.08072 81.16729L78.98697 81.16729L78.98697 76.964165Q78.98697 76.29229 78.67447 75.964165Q78.377594 75.63604 77.721344 75.63604Q77.190094 75.63604 76.783844 75.91729Q76.39322 76.19854 76.17447 76.651665L76.17447 81.16729L75.096344 81.16729L75.096344 74.82354L76.11197 74.82354ZM83.565094 73.29229L83.565094 74.82354L84.73697 74.82354L84.73697 75.66729L83.565094 75.66729L83.565094 79.589165Q83.565094 79.97979 83.721344 80.16729Q83.877594 80.35479 84.252594 80.35479Q84.440094 80.35479 84.76822 80.29229L84.76822 81.16729Q84.346344 81.29229 83.940094 81.29229Q83.221344 81.29229 82.846344 80.85479Q82.471344 80.401665 82.471344 79.589165L82.471344 75.66729L81.315094 75.66729L81.315094 74.82354L82.471344 74.82354L82.471344 73.29229L83.565094 73.29229Z" fill-rule="nonzero"/><path fill="#9e9e9e" d="M19.565098 99.16729L13.971347 99.16729L13.971347 98.38604L16.924473 95.10479Q17.580723 94.35479 17.830723 93.901665Q18.080723 93.432915 18.080723 92.932915Q18.080723 92.26104 17.674473 91.839165Q17.283848 91.401665 16.596348 91.401665Q15.799472 91.401665 15.346347 91.870415Q14.893222 92.32354 14.893222 93.151665L13.815097 93.151665Q13.815097 91.964165 14.565097 91.245415Q15.330722 90.51104 16.596348 90.51104Q17.799473 90.51104 18.486973 91.13604Q19.174473 91.76104 19.174473 92.807915Q19.174473 94.057915 17.565098 95.807915L15.283847 98.276665L19.565098 98.276665L19.565098 99.16729ZM21.111973 98.60479Q21.111973 98.32354 21.268223 98.13604Q21.440098 97.94854 21.768223 97.94854Q22.111973 97.94854 22.283848 98.13604Q22.455723 98.32354 22.455723 98.60479Q22.455723 98.870415 22.283848 99.057915Q22.111973 99.22979 21.768223 99.22979Q21.440098 99.22979 21.268223 99.057915Q21.111973 98.870415 21.111973 98.60479ZM28.127598 95.41729Q27.799473 95.82354 27.315098 96.07354Q26.846348 96.307915 26.283848 96.307915Q25.549473 96.307915 25.002598 95.94854Q24.455723 95.589165 24.158848 94.932915Q23.861973 94.26104 23.861973 93.464165Q23.861973 92.620415 24.174473 91.932915Q24.502598 91.245415 25.096348 90.88604Q25.705723 90.51104 26.502598 90.51104Q27.768223 90.51104 28.486973 91.464165Q29.221348 92.41729 29.221348 94.04229L29.221348 94.35479Q29.221348 96.85479 28.236973 97.995415Q27.252598 99.13604 25.268223 99.16729L25.049473 99.16729L25.049473 98.26104L25.283848 98.26104Q26.627598 98.22979 27.346348 97.557915Q28.065098 96.88604 28.127598 95.41729ZM26.455723 95.41729Q27.002598 95.41729 27.455723 95.089165Q27.924473 94.745415 28.143223 94.26104L28.143223 93.82354Q28.143223 92.76104 27.674473 92.089165Q27.205723 91.41729 26.502598 91.41729Q25.783848 91.41729 25.346348 91.964165Q24.924473 92.51104 24.924473 93.41729Q24.924473 94.29229 25.330723 94.85479Q25.752598 95.41729 26.455723 95.41729ZM30.877598 92.276665Q30.877598 91.51104 31.361973 91.01104Q31.861973 90.51104 32.627598 90.51104Q33.408848 90.51104 33.893223 91.01104Q34.377598 91.51104 34.377598 92.307915L34.377598 92.72979Q34.377598 93.495415 33.877598 93.995415Q33.393223 94.47979 32.643223 94.47979Q31.877598 94.47979 31.377598 93.995415Q30.877598 93.495415 30.877598 92.682915L30.877598 92.276665ZM31.690098 92.72979Q31.690098 93.182915 31.940098 93.47979Q32.205723 93.776665 32.643223 93.776665Q33.065098 93.776665 33.315098 93.495415Q33.565098 93.19854 33.565098 92.69854L33.565098 92.276665Q33.565098 91.82354 33.315098 91.526665Q33.065098 91.214165 32.627598 91.214165Q32.190098 91.214165 31.940098 91.526665Q31.690098 91.82354 31.690098 92.29229L31.690098 92.72979ZM35.033848 97.07354Q35.033848 96.307915 35.518223 95.82354Q36.018223 95.32354 36.783848 95.32354Q37.549473 95.32354 38.033848 95.82354Q38.533848 96.307915 38.533848 97.120415L38.533848 97.526665Q38.533848 98.29229 38.049473 98.79229Q37.565098 99.29229 36.799473 99.29229Q36.033848 99.29229 35.533848 98.807915Q35.033848 98.307915 35.033848 97.495415L35.033848 97.07354ZM35.846348 97.526665Q35.846348 97.995415 36.096348 98.29229Q36.361973 98.589165 36.799473 98.589165Q37.221348 98.589165 37.471348 98.307915Q37.721348 98.01104 37.721348 97.51104L37.721348 97.07354Q37.721348 96.60479 37.455723 96.32354Q37.205723 96.026665 36.783848 96.026665Q36.361973 96.026665 36.096348 96.32354Q35.846348 96.60479 35.846348 97.10479L35.846348 97.526665ZM32.893223 98.526665L32.268223 98.13604L36.440098 91.464165L37.049473 91.85479L32.893223 98.526665Z" fill-rule="nonzero"/><path stroke="#757575" stroke-width="1.0" stroke-linecap="butt" d="M13.268222 85.66729L92.41632 85.66729L128.23149 69.907104" fill-rule="nonzero"/><path fill="#9e9e9e" d="M130.23149 69.907104C130.23149 68.802536 129.33606 67.907104 128.23149 67.907104C127.126915 67.907104 126.23148 68.802536 126.23148 69.907104C126.23148 71.01167 127.126915 71.907104 128.23149 71.907104C129.33606 71.907104 130.23149 71.01167 130.23149 69.907104" fill-rule="nonzero"/><path fill="#757575" d="M14.252597 114.16729L14.252597 105.63604L16.674473 105.63604Q17.783848 105.63604 18.627598 106.13604Q19.486973 106.620415 19.955723 107.526665Q20.424473 108.432915 20.424473 109.620415L20.424473 110.151665Q20.424473 111.370415 19.955723 112.276665Q19.502598 113.182915 18.627598 113.66729Q17.768223 114.151665 16.627598 114.16729L14.252597 114.16729ZM15.377597 106.557915L15.377597 113.245415L16.565098 113.245415Q17.861973 113.245415 18.580723 112.44854Q19.315098 111.63604 19.315098 110.13604L19.315098 109.63604Q19.315098 108.182915 18.627598 107.38604Q17.955723 106.57354 16.690098 106.557915L15.377597 106.557915ZM24.721348 114.29229Q23.424473 114.29229 22.611973 113.44854Q21.815098 112.589165 21.815098 111.16729L21.815098 110.97979Q21.815098 110.026665 22.174473 109.29229Q22.533848 108.54229 23.174473 108.13604Q23.830723 107.714165 24.580723 107.714165Q25.815098 107.714165 26.502598 108.526665Q27.190098 109.339165 27.190098 110.85479L27.190098 111.307915L22.893223 111.307915Q22.924473 112.245415 23.440098 112.82354Q23.971348 113.401665 24.783848 113.401665Q25.346348 113.401665 25.736973 113.16729Q26.143223 112.932915 26.455723 112.54229L27.111973 113.057915Q26.315098 114.29229 24.721348 114.29229ZM24.580723 108.60479Q23.924473 108.60479 23.471348 109.089165Q23.033848 109.557915 22.940098 110.41729L26.111973 110.41729L26.111973 110.339165Q26.065098 109.51104 25.658848 109.057915Q25.268223 108.60479 24.580723 108.60479ZM31.783848 112.47979Q31.783848 112.04229 31.440098 111.807915Q31.111973 111.557915 30.283848 111.38604Q29.471348 111.214165 28.986973 110.964165Q28.502598 110.714165 28.268223 110.38604Q28.049473 110.04229 28.049473 109.57354Q28.049473 108.79229 28.705723 108.26104Q29.361973 107.714165 30.393223 107.714165Q31.471348 107.714165 32.127598 108.276665Q32.799473 108.82354 32.799473 109.682915L31.721348 109.682915Q31.721348 109.245415 31.330723 108.932915Q30.955723 108.60479 30.393223 108.60479Q29.799473 108.60479 29.455723 108.870415Q29.127598 109.120415 29.127598 109.526665Q29.127598 109.91729 29.440098 110.120415Q29.752598 110.32354 30.565098 110.51104Q31.377598 110.682915 31.877598 110.932915Q32.377598 111.182915 32.611973 111.54229Q32.861973 111.901665 32.861973 112.401665Q32.861973 113.26104 32.174473 113.776665Q31.502598 114.29229 30.424473 114.29229Q29.658848 114.29229 29.065098 114.026665Q28.486973 113.745415 28.158848 113.26104Q27.830723 112.776665 27.830723 112.214165L28.908848 112.214165Q28.940098 112.76104 29.346348 113.089165Q29.752598 113.401665 30.424473 113.401665Q31.033848 113.401665 31.408848 113.151665Q31.783848 112.901665 31.783848 112.47979ZM35.268223 114.16729L34.190098 114.16729L34.190098 107.82354L35.268223 107.82354L35.268223 114.16729ZM34.096348 106.151665Q34.096348 105.88604 34.252598 105.69854Q34.424473 105.51104 34.736973 105.51104Q35.049473 105.51104 35.205723 105.69854Q35.377598 105.88604 35.377598 106.151665Q35.377598 106.401665 35.205723 106.589165Q35.049473 106.76104 34.736973 106.76104Q34.424473 106.76104 34.252598 106.589165Q34.096348 106.401665 34.096348 106.151665ZM36.830723 110.94854Q36.830723 109.464165 37.518223 108.589165Q38.205723 107.714165 39.330723 107.714165Q40.486973 107.714165 41.143223 108.526665L41.190098 107.82354L42.190098 107.82354L42.190098 114.01104Q42.190098 115.245415 41.455723 115.94854Q40.721348 116.66729 39.502598 116.66729Q38.815098 116.66729 38.158848 116.370415Q37.502598 116.07354 37.158848 115.57354L37.721348 114.91729Q38.408848 115.776665 39.424473 115.776665Q40.205723 115.776665 40.643223 115.32354Q41.096348 114.88604 41.096348 114.07354L41.096348 113.526665Q40.440098 114.29229 39.315098 114.29229Q38.205723 114.29229 37.518223 113.401665Q36.830723 112.495415 36.830723 110.94854ZM37.924473 111.07354Q37.924473 112.13604 38.361973 112.76104Q38.799473 113.370415 39.596348 113.370415Q40.611973 113.370415 41.096348 112.432915L41.096348 109.54229Q40.596348 108.63604 39.596348 108.63604Q38.815098 108.63604 38.361973 109.245415Q37.924473 109.85479 37.924473 111.07354ZM45.111973 107.82354L45.143223 108.620415Q45.877598 107.714165 47.049473 107.714165Q49.065098 107.714165 49.080723 109.97979L49.080723 114.16729L47.986973 114.16729L47.986973 109.964165Q47.986973 109.29229 47.674473 108.964165Q47.377598 108.63604 46.721348 108.63604Q46.190098 108.63604 45.783848 108.91729Q45.393223 109.19854 45.174473 109.651665L45.174473 114.16729L44.096348 114.16729L44.096348 107.82354L45.111973 107.82354ZM53.721348 114.29229Q52.424473 114.29229 51.611973 113.44854Q50.815098 112.589165 50.815098 111.16729L50.815098 110.97979Q50.815098 110.026665 51.174473 109.29229Q51.533848 108.54229 52.174473 108.13604Q52.830723 107.714165 53.580723 107.714165Q54.815098 107.714165 55.502598 108.526665Q56.190098 109.339165 56.190098 110.85479L56.190098 111.307915L51.893223 111.307915Q51.924473 112.245415 52.440098 112.82354Q52.971348 113.401665 53.783848 113.401665Q54.346348 113.401665 54.736973 113.16729Q55.143223 112.932915 55.455723 112.54229L56.111973 113.057915Q55.315098 114.29229 53.721348 114.29229ZM53.580723 108.60479Q52.924473 108.60479 52.471348 109.089165Q52.033848 109.557915 51.940098 110.41729L55.111973 110.41729L55.111973 110.339165Q55.065098 109.51104 54.658848 109.057915Q54.268223 108.60479 53.580723 108.60479ZM60.158848 108.79229Q59.908848 108.76104 59.627598 108.76104Q58.549473 108.76104 58.174473 109.66729L58.174473 114.16729L57.096348 114.16729L57.096348 107.82354L58.143223 107.82354L58.158848 108.557915Q58.690098 107.714165 59.674473 107.714165Q59.986973 107.714165 60.158848 107.79229L60.158848 108.79229Z" fill-rule="nonzero"/><path fill="#9e9e9e" d="M19.565098 132.1673L13.971347 132.1673L13.971347 131.38605L16.924473 128.1048Q17.580723 127.3548 17.830723 126.90167Q18.080723 126.43292 18.080723 125.93292Q18.080723 125.26105 17.674473 124.83917Q17.283848 124.40167 16.596348 124.40167Q15.799472 124.40167 15.346347 124.87042Q14.893222 125.32355 14.893222 126.15167L13.815097 126.15167Q13.815097 124.96417 14.565097 124.24542Q15.330722 123.51105 16.596348 123.51105Q17.799473 123.51105 18.486973 124.13605Q19.174473 124.76105 19.174473 125.80792Q19.174473 127.05792 17.565098 128.80792L15.283847 131.27667L19.565098 131.27667L19.565098 132.1673ZM21.111973 131.6048Q21.111973 131.32355 21.268223 131.13605Q21.440098 130.94855 21.768223 130.94855Q22.111973 130.94855 22.283848 131.13605Q22.455723 131.32355 22.455723 131.6048Q22.455723 131.87042 22.283848 132.05792Q22.111973 132.2298 21.768223 132.2298Q21.440098 132.2298 21.268223 132.05792Q21.111973 131.87042 21.111973 131.6048ZM28.127598 128.4173Q27.799473 128.82355 27.315098 129.07355Q26.846348 129.30792 26.283848 129.30792Q25.549473 129.30792 25.002598 128.94855Q24.455723 128.58917 24.158848 127.93292Q23.861973 127.26105 23.861973 126.46417Q23.861973 125.62042 24.174473 124.93292Q24.502598 124.24542 25.096348 123.88605Q25.705723 123.51105 26.502598 123.51105Q27.768223 123.51105 28.486973 124.46417Q29.221348 125.4173 29.221348 127.0423L29.221348 127.3548Q29.221348 129.8548 28.236973 130.99542Q27.252598 132.13605 25.268223 132.1673L25.049473 132.1673L25.049473 131.26105L25.283848 131.26105Q26.627598 131.2298 27.346348 130.55792Q28.065098 129.88605 28.127598 128.4173ZM26.455723 128.4173Q27.002598 128.4173 27.455723 128.08917Q27.924473 127.74542 28.143223 127.26105L28.143223 126.82355Q28.143223 125.76105 27.674473 125.08917Q27.205723 124.4173 26.502598 124.4173Q25.783848 124.4173 25.346348 124.96417Q24.924473 125.51105 24.924473 126.4173Q24.924473 127.2923 25.330723 127.8548Q25.752598 128.4173 26.455723 128.4173ZM30.877598 125.27667Q30.877598 124.51105 31.361973 124.01105Q31.861973 123.51105 32.627598 123.51105Q33.408848 123.51105 33.893223 124.01105Q34.377598 124.51105 34.377598 125.30792L34.377598 125.7298Q34.377598 126.49542 33.877598 126.99542Q33.393223 127.4798 32.643223 127.4798Q31.877598 127.4798 31.377598 126.99542Q30.877598 126.49542 30.877598 125.68292L30.877598 125.27667ZM31.690098 125.7298Q31.690098 126.18292 31.940098 126.4798Q32.205723 126.77667 32.643223 126.77667Q33.065098 126.77667 33.315098 126.49542Q33.565098 126.19855 33.565098 125.69855L33.565098 125.27667Q33.565098 124.82355 33.315098 124.52667Q33.065098 124.21417 32.627598 124.21417Q32.190098 124.21417 31.940098 124.52667Q31.690098 124.82355 31.690098 125.2923L31.690098 125.7298ZM35.033848 130.07355Q35.033848 129.30792 35.518223 128.82355Q36.018223 128.32355 36.783848 128.32355Q37.549473 128.32355 38.033848 128.82355Q38.533848 129.30792 38.533848 130.12042L38.533848 130.52667Q38.533848 131.2923 38.049473 131.7923Q37.565098 132.2923 36.799473 132.2923Q36.033848 132.2923 35.533848 131.80792Q35.033848 131.30792 35.033848 130.49542L35.033848 130.07355ZM35.846348 130.52667Q35.846348 130.99542 36.096348 131.2923Q36.361973 131.58917 36.799473 131.58917Q37.221348 131.58917 37.471348 131.30792Q37.721348 131.01105 37.721348 130.51105L37.721348 130.07355Q37.721348 129.6048 37.455723 129.32355Q37.205723 129.02667 36.783848 129.02667Q36.361973 129.02667 36.096348 129.32355Q35.846348 129.6048 35.846348 130.1048L35.846348 130.52667ZM32.893223 131.52667L32.268223 131.13605L36.440098 124.46417L37.049473 124.8548L32.893223 131.52667Z" fill-rule="nonzero"/><path stroke="#757575" stroke-width="1.0" stroke-linecap="butt" d="M13.268222 118.66729L92.41632 118.66729L112.524345 92.66282" fill-rule="nonzero"/><path fill="#9e9e9e" d="M114.524345 92.66282C114.524345 91.55825 113.62892 90.66282 112.524345 90.66282C111.41978 90.66282 110.524345 91.55825 110.524345 92.66282C110.524345 93.76739 111.41978 94.66282 112.524345 94.66282C113.62892 94.66282 114.524345 93.76739 114.524345 92.66282" fill-rule="nonzero"/><path fill="#757575" d="M338.50226 200.20755Q337.06476 199.78568 336.39288 199.1763Q335.73663 198.56693 335.73663 197.6763Q335.73663 196.6763 336.5335 196.02005Q337.346 195.34818 338.64288 195.34818Q339.51788 195.34818 340.20538 195.69193Q340.89288 196.03568 341.26788 196.62943Q341.6585 197.22318 341.6585 197.94193L340.51788 197.94193Q340.51788 197.16068 340.01788 196.72318Q339.5335 196.28568 338.64288 196.28568Q337.81476 196.28568 337.346 196.66068Q336.87726 197.02005 336.87726 197.66068Q336.87726 198.19193 337.31476 198.5513Q337.76788 198.91068 338.83038 199.20755Q339.89288 199.50443 340.48663 199.8638Q341.096 200.22318 341.37726 200.70755Q341.67413 201.19193 341.67413 201.83255Q341.67413 202.87943 340.86163 203.50443Q340.04913 204.12943 338.70538 204.12943Q337.81476 204.12943 337.04913 203.78568Q336.29913 203.44193 335.87726 202.8638Q335.471 202.27005 335.471 201.53568L336.596 201.53568Q336.596 202.3013 337.17413 202.75443Q337.75226 203.20755 338.70538 203.20755Q339.596 203.20755 340.06476 202.84818Q340.5335 202.47318 340.5335 201.84818Q340.5335 201.22318 340.096 200.87943Q339.6585 200.53568 338.50226 200.20755ZM344.29913 196.12943L344.29913 197.66068L345.471 197.66068L345.471 198.50443L344.29913 198.50443L344.29913 202.4263Q344.29913 202.81693 344.45538 203.00443Q344.61163 203.19193 344.98663 203.19193Q345.17413 203.19193 345.50226 203.12943L345.50226 204.00443Q345.08038 204.12943 344.67413 204.12943Q343.95538 204.12943 343.58038 203.69193Q343.20538 203.2388 343.20538 202.4263L343.20538 198.50443L342.04913 198.50443L342.04913 197.66068L343.20538 197.66068L343.20538 196.12943L344.29913 196.12943ZM350.73663 203.37943Q350.11163 204.12943 348.87726 204.12943Q347.86163 204.12943 347.33038 203.53568Q346.79913 202.94193 346.79913 201.78568L346.79913 197.66068L347.87726 197.66068L347.87726 201.75443Q347.87726 203.20755 349.04913 203.20755Q350.29913 203.20755 350.70538 202.27005L350.70538 197.66068L351.79913 197.66068L351.79913 204.00443L350.76788 204.00443L350.73663 203.37943ZM353.56476 200.78568Q353.56476 199.31693 354.25226 198.44193Q354.93976 197.5513 356.06476 197.5513Q357.17413 197.5513 357.83038 198.3013L357.83038 195.00443L358.9085 195.00443L358.9085 204.00443L357.9085 204.00443L357.86163 203.31693Q357.20538 204.12943 356.04913 204.12943Q354.95538 204.12943 354.25226 203.22318Q353.56476 202.31693 353.56476 200.8638L353.56476 200.78568ZM354.64288 200.91068Q354.64288 201.9888 355.08038 202.59818Q355.5335 203.20755 356.31476 203.20755Q357.346 203.20755 357.83038 202.27005L357.83038 199.3638Q357.346 198.47318 356.33038 198.47318Q355.5335 198.47318 355.08038 199.08255Q354.64288 199.69193 354.64288 200.91068ZM363.45538 204.12943Q362.1585 204.12943 361.346 203.28568Q360.54913 202.4263 360.54913 201.00443L360.54913 200.81693Q360.54913 199.8638 360.9085 199.12943Q361.26788 198.37943 361.9085 197.97318Q362.56476 197.5513 363.31476 197.5513Q364.54913 197.5513 365.23663 198.3638Q365.92413 199.1763 365.92413 200.69193L365.92413 201.14505L361.62726 201.14505Q361.6585 202.08255 362.17413 202.66068Q362.70538 203.2388 363.51788 203.2388Q364.08038 203.2388 364.471 203.00443Q364.87726 202.77005 365.18976 202.37943L365.846 202.89505Q365.04913 204.12943 363.45538 204.12943ZM363.31476 198.44193Q362.6585 198.44193 362.20538 198.9263Q361.76788 199.39505 361.67413 200.25443L364.846 200.25443L364.846 200.1763Q364.79913 199.34818 364.39288 198.89505Q364.00226 198.44193 363.31476 198.44193ZM367.846 197.66068L367.87726 198.45755Q368.61163 197.5513 369.7835 197.5513Q371.79913 197.5513 371.81476 199.81693L371.81476 204.00443L370.721 204.00443L370.721 199.8013Q370.721 199.12943 370.4085 198.8013Q370.11163 198.47318 369.45538 198.47318Q368.92413 198.47318 368.51788 198.75443Q368.12726 199.03568 367.9085 199.4888L367.9085 204.00443L366.83038 204.00443L366.83038 197.66068L367.846 197.66068ZM375.29913 196.12943L375.29913 197.66068L376.471 197.66068L376.471 198.50443L375.29913 198.50443L375.29913 202.4263Q375.29913 202.81693 375.45538 203.00443Q375.61163 203.19193 375.98663 203.19193Q376.17413 203.19193 376.50226 203.12943L376.50226 204.00443Q376.08038 204.12943 375.67413 204.12943Q374.95538 204.12943 374.58038 203.69193Q374.20538 203.2388 374.20538 202.4263L374.20538 198.50443L373.04913 198.50443L373.04913 197.66068L374.20538 197.66068L374.20538 196.12943L375.29913 196.12943Z" fill-rule="nonzero"/><path fill="#9e9e9e" d="M349.89288 215.69193Q349.89288 216.33255 349.54913 216.83255Q349.20538 217.33255 348.64288 217.6138Q349.29913 217.89505 349.68976 218.45755Q350.08038 219.00443 350.08038 219.70755Q350.08038 220.8013 349.33038 221.47318Q348.596 222.12943 347.37726 222.12943Q346.14288 222.12943 345.39288 221.47318Q344.6585 220.8013 344.6585 219.70755Q344.6585 219.00443 345.0335 218.45755Q345.4085 217.89505 346.08038 217.6138Q345.51788 217.33255 345.18976 216.83255Q344.86163 216.33255 344.86163 215.69193Q344.86163 214.6138 345.54913 213.9888Q346.23663 213.34818 347.37726 213.34818Q348.50226 213.34818 349.18976 213.9888Q349.89288 214.6138 349.89288 215.69193ZM349.00226 219.6763Q349.00226 218.95755 348.54913 218.52005Q348.096 218.06693 347.36163 218.06693Q346.62726 218.06693 346.17413 218.52005Q345.73663 218.95755 345.73663 219.69193Q345.73663 220.41068 346.17413 220.83255Q346.61163 221.2388 347.37726 221.2388Q348.12726 221.2388 348.56476 220.81693Q349.00226 220.39505 349.00226 219.6763ZM347.37726 214.2388Q346.73663 214.2388 346.33038 214.64505Q345.93976 215.03568 345.93976 215.72318Q345.93976 216.3638 346.33038 216.77005Q346.721 217.1763 347.36163 217.1763Q348.01788 217.1763 348.4085 216.77005Q348.79913 216.3638 348.79913 215.72318Q348.79913 215.06693 348.39288 214.66068Q347.98663 214.2388 347.37726 214.2388ZM357.06476 218.3638Q357.06476 220.27005 356.4085 221.20755Q355.76788 222.12943 354.37726 222.12943Q353.01788 222.12943 352.36163 221.22318Q351.70538 220.31693 351.67413 218.50443L351.67413 217.06693Q351.67413 215.1763 352.31476 214.27005Q352.971 213.34818 354.36163 213.34818Q355.73663 213.34818 356.39288 214.2388Q357.04913 215.1138 357.06476 216.95755L357.06476 218.3638ZM355.971 216.87943Q355.971 215.50443 355.58038 214.87943Q355.20538 214.2388 354.36163 214.2388Q353.5335 214.2388 353.14288 214.87943Q352.76788 215.50443 352.76788 216.8013L352.76788 218.53568Q352.76788 219.91068 353.1585 220.58255Q353.56476 221.2388 354.37726 221.2388Q355.17413 221.2388 355.56476 220.6138Q355.95538 219.9888 355.971 218.66068L355.971 216.87943ZM358.846 221.44193Q358.846 221.16068 359.00226 220.97318Q359.17413 220.78568 359.50226 220.78568Q359.846 220.78568 360.01788 220.97318Q360.18976 221.16068 360.18976 221.44193Q360.18976 221.70755 360.01788 221.89505Q359.846 222.06693 359.50226 222.06693Q359.17413 222.06693 359.00226 221.89505Q358.846 221.70755 358.846 221.44193ZM366.89288 215.69193Q366.89288 216.33255 366.54913 216.83255Q366.20538 217.33255 365.64288 217.6138Q366.29913 217.89505 366.68976 218.45755Q367.08038 219.00443 367.08038 219.70755Q367.08038 220.8013 366.33038 221.47318Q365.596 222.12943 364.37726 222.12943Q363.14288 222.12943 362.39288 221.47318Q361.6585 220.8013 361.6585 219.70755Q361.6585 219.00443 362.0335 218.45755Q362.4085 217.89505 363.08038 217.6138Q362.51788 217.33255 362.18976 216.83255Q361.86163 216.33255 361.86163 215.69193Q361.86163 214.6138 362.54913 213.9888Q363.23663 213.34818 364.37726 213.34818Q365.50226 213.34818 366.18976 213.9888Q366.89288 214.6138 366.89288 215.69193ZM366.00226 219.6763Q366.00226 218.95755 365.54913 218.52005Q365.096 218.06693 364.36163 218.06693Q363.62726 218.06693 363.17413 218.52005Q362.73663 218.95755 362.73663 219.69193Q362.73663 220.41068 363.17413 220.83255Q363.61163 221.2388 364.37726 221.2388Q365.12726 221.2388 365.56476 220.81693Q366.00226 220.39505 366.00226 219.6763ZM364.37726 214.2388Q363.73663 214.2388 363.33038 214.64505Q362.93976 215.03568 362.93976 215.72318Q362.93976 216.3638 363.33038 216.77005Q363.721 217.1763 364.36163 217.1763Q365.01788 217.1763 365.4085 216.77005Q365.79913 216.3638 365.79913 215.72318Q365.79913 215.06693 365.39288 214.66068Q364.98663 214.2388 364.37726 214.2388ZM368.61163 215.1138Q368.61163 214.34818 369.096 213.84818Q369.596 213.34818 370.36163 213.34818Q371.14288 213.34818 371.62726 213.84818Q372.11163 214.34818 372.11163 215.14505L372.11163 215.56693Q372.11163 216.33255 371.61163 216.83255Q371.12726 217.31693 370.37726 217.31693Q369.61163 217.31693 369.11163 216.83255Q368.61163 216.33255 368.61163 215.52005L368.61163 215.1138ZM369.42413 215.56693Q369.42413 216.02005 369.67413 216.31693Q369.93976 216.6138 370.37726 216.6138Q370.79913 216.6138 371.04913 216.33255Q371.29913 216.03568 371.29913 215.53568L371.29913 215.1138Q371.29913 214.66068 371.04913 214.3638Q370.79913 214.0513 370.36163 214.0513Q369.92413 214.0513 369.67413 214.3638Q369.42413 214.66068 369.42413 215.12943L369.42413 215.56693ZM372.76788 219.91068Q372.76788 219.14505 373.25226 218.66068Q373.75226 218.16068 374.51788 218.16068Q375.2835 218.16068 375.76788 218.66068Q376.26788 219.14505 376.26788 219.95755L376.26788 220.3638Q376.26788 221.12943 375.7835 221.62943Q375.29913 222.12943 374.5335 222.12943Q373.76788 222.12943 373.26788 221.64505Q372.76788 221.14505 372.76788 220.33255L372.76788 219.91068ZM373.58038 220.3638Q373.58038 220.83255 373.83038 221.12943Q374.096 221.4263 374.5335 221.4263Q374.95538 221.4263 375.20538 221.14505Q375.45538 220.84818 375.45538 220.34818L375.45538 219.91068Q375.45538 219.44193 375.18976 219.16068Q374.93976 218.8638 374.51788 218.8638Q374.096 218.8638 373.83038 219.16068Q373.58038 219.44193 373.58038 219.94193L373.58038 220.3638ZM370.62726 221.3638L370.00226 220.97318L374.17413 214.3013L374.7835 214.69193L370.62726 221.3638Z" fill-rule="nonzero"/><path stroke="#757575" stroke-width="1.0" stroke-linecap="butt" d="M377.00226 208.50443L297.8542 208.50443L247.33073 208.50443" fill-rule="nonzero"/><path fill="#9e9e9e" d="M249.33073 208.50443C249.33073 207.39986 248.4353 206.50443 247.33073 206.50443C246.22615 206.50443 245.33073 207.39986 245.33073 208.50443C245.33073 209.609 246.22615 210.50443 247.33073 210.50443C248.4353 210.50443 249.33073 209.609 249.33073 208.50443" fill-rule="nonzero"/></svg>