<svg version="1.1" viewBox="0.0 0.0 461.0 337.0" fill="none" stroke="none" stroke-linecap="square" stroke-miterlimit="10" width="461" height="337" xmlns:xlink="http://www.w3.org/1999/xlink" xmlns="http://www.w3.org/2000/svg"><path fill="#ffffff" fill-opacity="0.0" d="M0 0L461.0 0L461.0 337.0L0 337.0L0 0Z" fill-rule="nonzero"/><path stroke="#333333" stroke-width="1.0" stroke-linecap="butt" d="M43.5 299.5L444.5 299.5" fill-rule="nonzero"/><path stroke="#cccccc" stroke-width="1.0" stroke-linecap="butt" d="M43.5 237.5L444.5 237.5" fill-rule="nonzero"/><path stroke="#cccccc" stroke-width="1.0" stroke-linecap="butt" d="M43.5 174.5L444.5 174.5" fill-rule="nonzero"/><path stroke="#cccccc" stroke-width="1.0" stroke-linecap="butt" d="M43.5 112.5L444.5 112.5" fill-rule="nonzero"/><path stroke="#cccccc" stroke-width="1.0" stroke-linecap="butt" d="M43.5 50.5L444.5 50.5" fill-rule="nonzero"/><clipPath id="id_0"><path d="M43.85 50.583332L444.15 50.583332L444.15 299.15L43.85 299.15L43.85 50.583332Z" clip-rule="nonzero"/></clipPath><path stroke="#000000" stroke-width="0.0" stroke-linecap="butt" stroke-opacity="0.0" clip-path="url(#id_0)" d="M195.0 299.0L148.0 299.0L148.0 114.0C148.0 112.89543 148.89543 112.0 150.0 112.0L193.0 112.0C194.10457 112.0 195.0 112.89543 195.0 114.0Z" fill-rule="nonzero"/><path fill="#0e491d" clip-path="url(#id_0)" d="M195.0 299.0L148.0 299.0L148.0 114.0C148.0 112.89543 148.89543 112.0 150.0 112.0L193.0 112.0C194.10457 112.0 195.0 112.89543 195.0 114.0Z" fill-rule="nonzero"/><path stroke="#000000" stroke-width="0.0" stroke-linecap="butt" stroke-opacity="0.0" clip-path="url(#id_0)" d="M243.0 299.0L196.0 299.0L196.0 109.0C196.0 107.89543 196.89543 107.0 198.0 107.0L241.0 107.0C242.10457 107.0 243.0 107.89543 243.0 109.0Z" fill-rule="nonzero"/><path fill="#f5e5b9" clip-path="url(#id_0)" d="M243.0 299.0L196.0 299.0L196.0 109.0C196.0 107.89543 196.89543 107.0 198.0 107.0L241.0 107.0C242.10457 107.0 243.0 107.89543 243.0 109.0Z" fill-rule="nonzero"/><path stroke="#000000" stroke-width="0.0" stroke-linecap="butt" stroke-opacity="0.0" clip-path="url(#id_0)" d="M291.0 299.0L244.0 299.0L244.0 104.0C244.0 102.89543 244.89543 102.0 246.0 102.0L289.0 102.0C290.10458 102.0 291.0 102.89543 291.0 104.0Z" fill-rule="nonzero"/><path fill="#976b18" clip-path="url(#id_0)" d="M291.0 299.0L244.0 299.0L244.0 104.0C244.0 102.89543 244.89543 102.0 246.0 102.0L289.0 102.0C290.10458 102.0 291.0 102.89543 291.0 104.0Z" fill-rule="nonzero"/><path stroke="#000000" stroke-width="0.0" stroke-linecap="butt" stroke-opacity="0.0" clip-path="url(#id_0)" d="M339.0 299.0L292.0 299.0L292.0 86.0C292.0 84.89543 292.89542 84.0 294.0 84.0L337.0 84.0C338.10458 84.0 339.0 84.89543 339.0 86.0Z" fill-rule="nonzero"/><path fill="#d79922" clip-path="url(#id_0)" d="M339.0 299.0L292.0 299.0L292.0 86.0C292.0 84.89543 292.89542 84.0 294.0 84.0L337.0 84.0C338.10458 84.0 339.0 84.89543 339.0 86.0Z" fill-rule="nonzero"/><path stroke="#5c8466" stroke-width="1.0" stroke-linecap="butt" clip-path="url(#id_0)" d="M172.0 130.37555L172.0 92.87011" fill-rule="nonzero"/><path stroke="#5c8466" stroke-width="1.0" stroke-linecap="butt" clip-path="url(#id_0)" d="M166.0 130.37555L178.0 130.37555" fill-rule="nonzero"/><path stroke="#5c8466" stroke-width="1.0" stroke-linecap="butt" clip-path="url(#id_0)" d="M166.0 92.87011L178.0 92.87011" fill-rule="nonzero"/><path stroke="#aea384" stroke-width="1.0" stroke-linecap="butt" clip-path="url(#id_0)" d="M220.0 126.1243L220.0 87.67414" fill-rule="nonzero"/><path stroke="#aea384" stroke-width="1.0" stroke-linecap="butt" clip-path="url(#id_0)" d="M214.0 126.1243L226.0 126.1243" fill-rule="nonzero"/><path stroke="#aea384" stroke-width="1.0" stroke-linecap="butt" clip-path="url(#id_0)" d="M214.0 87.67414L226.0 87.67414" fill-rule="nonzero"/><path stroke="#c7af82" stroke-width="1.0" stroke-linecap="butt" clip-path="url(#id_0)" d="M268.0 122.03061L268.0 82.670746" fill-rule="nonzero"/><path stroke="#c7af82" stroke-width="1.0" stroke-linecap="butt" clip-path="url(#id_0)" d="M262.0 122.03061L274.0 122.03061" fill-rule="nonzero"/><path stroke="#c7af82" stroke-width="1.0" stroke-linecap="butt" clip-path="url(#id_0)" d="M262.0 82.670746L274.0 82.670746" fill-rule="nonzero"/><path stroke="#7d5914" stroke-width="1.0" stroke-linecap="butt" clip-path="url(#id_0)" d="M316.0 105.75647L316.0 62.78013" fill-rule="nonzero"/><path stroke="#7d5914" stroke-width="1.0" stroke-linecap="butt" clip-path="url(#id_0)" d="M310.0 105.75647L322.0 105.75647" fill-rule="nonzero"/><path stroke="#7d5914" stroke-width="1.0" stroke-linecap="butt" clip-path="url(#id_0)" d="M310.0 62.78013L322.0 62.78013" fill-rule="nonzero"/><path stroke="#0e491d" stroke-width="3.0" stroke-linejoin="round" stroke-linecap="round" d="M169.96875 119.89158L169.96875 120.79783L169.76562 120.79783Q168.5 120.82908 167.75 121.56345Q167.0 122.2822 166.875 123.5947Q167.5625 122.82908 168.71875 122.82908Q169.82812 122.82908 170.5 123.61033Q171.17188 124.39158 171.17188 125.64158Q171.17188 126.95408 170.45312 127.75095Q169.73438 128.54782 168.51562 128.54782Q167.29688 128.54782 166.53125 127.61033Q165.78125 126.6572 165.78125 125.17283L165.78125 124.76658Q165.78125 122.4072 166.78125 121.1572Q167.78125 119.9072 169.76562 119.89158L169.96875 119.89158ZM168.54688 123.73533Q167.98438 123.73533 167.51562 124.06345Q167.04688 124.39158 166.85938 124.9072L166.85938 125.29783Q166.85938 126.36033 167.32812 127.00095Q167.8125 127.64158 168.51562 127.64158Q169.25 127.64158 169.67188 127.11033Q170.09375 126.56345 170.09375 125.68845Q170.09375 124.81345 169.67188 124.2822Q169.25 123.73533 168.54688 123.73533ZM178.0625 124.7822Q178.0625 126.68845 177.40625 127.62595Q176.76562 128.54782 175.375 128.54782Q174.01562 128.54782 173.35938 127.64158Q172.70312 126.73533 172.67188 124.92283L172.67188 123.48533Q172.67188 121.5947 173.3125 120.68845Q173.96875 119.76658 175.35938 119.76658Q176.73438 119.76658 177.39062 120.6572Q178.04688 121.5322 178.0625 123.37595L178.0625 124.7822ZM176.96875 123.29783Q176.96875 121.92283 176.57812 121.29783Q176.20312 120.6572 175.35938 120.6572Q174.53125 120.6572 174.14062 121.29783Q173.76562 121.92283 173.76562 123.2197L173.76562 124.95408Q173.76562 126.32908 174.15625 127.00095Q174.5625 127.6572 175.375 127.6572Q176.17188 127.6572 176.5625 127.0322Q176.95312 126.4072 176.96875 125.07908L176.96875 123.29783Z" fill-rule="nonzero"/><path fill="#ffffff" d="M169.96875 119.89157L169.96875 120.79782L169.76562 120.79782Q168.5 120.82907 167.75 121.563446Q167.0 122.282196 166.875 123.594696Q167.5625 122.82907 168.71875 122.82907Q169.82812 122.82907 170.5 123.61032Q171.17188 124.39157 171.17188 125.64157Q171.17188 126.95407 170.45312 127.750946Q169.73438 128.54782 168.51562 128.54782Q167.29688 128.54782 166.53125 127.61032Q165.78125 126.657196 165.78125 125.17282L165.78125 124.76657Q165.78125 122.407196 166.78125 121.157196Q167.78125 119.907196 169.76562 119.89157L169.96875 119.89157ZM168.54688 123.73532Q167.98438 123.73532 167.51562 124.063446Q167.04688 124.39157 166.85938 124.907196L166.85938 125.29782Q166.85938 126.36032 167.32812 127.000946Q167.8125 127.64157 168.51562 127.64157Q169.25 127.64157 169.67188 127.11032Q170.09375 126.563446 170.09375 125.688446Q170.09375 124.813446 169.67188 124.282196Q169.25 123.73532 168.54688 123.73532ZM178.0625 124.782196Q178.0625 126.688446 177.40625 127.625946Q176.76562 128.54782 175.375 128.54782Q174.01562 128.54782 173.35938 127.64157Q172.70312 126.73532 172.67188 124.92282L172.67188 123.48532Q172.67188 121.594696 173.3125 120.688446Q173.96875 119.76657 175.35938 119.76657Q176.73438 119.76657 177.39062 120.657196Q178.04688 121.532196 178.0625 123.375946L178.0625 124.782196ZM176.96875 123.29782Q176.96875 121.92282 176.57812 121.29782Q176.20312 120.657196 175.35938 120.657196Q174.53125 120.657196 174.14062 121.29782Q173.76562 121.92282 173.76562 123.219696L173.76562 124.95407Q173.76562 126.32907 174.15625 127.000946Q174.5625 127.657196 175.375 127.657196Q176.17188 127.657196 176.5625 127.032196Q176.95312 126.407196 176.96875 125.07907L176.96875 123.29782Z" fill-rule="nonzero"/><path stroke="#f5e5b9" stroke-width="3.0" stroke-linejoin="round" stroke-linecap="round" d="M217.96875 115.16797L217.96875 116.07422L217.76562 116.07422Q216.5 116.10547 215.75 116.83984Q215.0 117.55859 214.875 118.87109Q215.5625 118.10547 216.71875 118.10547Q217.82812 118.10547 218.5 118.88672Q219.17188 119.66797 219.17188 120.91797Q219.17188 122.23047 218.45312 123.02734Q217.73438 123.82422 216.51562 123.82422Q215.29688 123.82422 214.53125 122.88672Q213.78125 121.93359 213.78125 120.44922L213.78125 120.04297Q213.78125 117.68359 214.78125 116.43359Q215.78125 115.18359 217.76562 115.16797L217.96875 115.16797ZM216.54688 119.01172Q215.98438 119.01172 215.51562 119.33984Q215.04688 119.66797 214.85938 120.18359L214.85938 120.57422Q214.85938 121.63672 215.32812 122.27734Q215.8125 122.91797 216.51562 122.91797Q217.25 122.91797 217.67188 122.38672Q218.09375 121.83984 218.09375 120.96484Q218.09375 120.08984 217.67188 119.55859Q217.25 119.01172 216.54688 119.01172ZM226.29688 123.69922L220.70312 123.69922L220.70312 122.91797L223.65625 119.63672Q224.3125 118.88672 224.5625 118.43359Q224.8125 117.96484 224.8125 117.46484Q224.8125 116.79297 224.40625 116.37109Q224.01562 115.93359 223.32812 115.93359Q222.53125 115.93359 222.07812 116.40234Q221.625 116.85547 221.625 117.68359L220.54688 117.68359Q220.54688 116.49609 221.29688 115.77734Q222.0625 115.04297 223.32812 115.04297Q224.53125 115.04297 225.21875 115.66797Q225.90625 116.29297 225.90625 117.33984Q225.90625 118.58984 224.29688 120.33984L222.01562 122.80859L226.29688 122.80859L226.29688 123.69922Z" fill-rule="nonzero"/><path fill="#000000" d="M217.96875 115.16797L217.96875 116.07422L217.76562 116.07422Q216.5 116.10547 215.75 116.83984Q215.0 117.55859 214.875 118.87109Q215.5625 118.10547 216.71875 118.10547Q217.82812 118.10547 218.5 118.88672Q219.17188 119.66797 219.17188 120.91797Q219.17188 122.23047 218.45312 123.02734Q217.73438 123.82422 216.51562 123.82422Q215.29688 123.82422 214.53125 122.88672Q213.78125 121.93359 213.78125 120.44922L213.78125 120.04297Q213.78125 117.68359 214.78125 116.43359Q215.78125 115.18359 217.76562 115.16797L217.96875 115.16797ZM216.54688 119.01172Q215.98438 119.01172 215.51562 119.33984Q215.04688 119.66797 214.85938 120.18359L214.85938 120.57422Q214.85938 121.63672 215.32812 122.27734Q215.8125 122.91797 216.51562 122.91797Q217.25 122.91797 217.67188 122.38672Q218.09375 121.83984 218.09375 120.96484Q218.09375 120.08984 217.67188 119.55859Q217.25 119.01172 216.54688 119.01172ZM226.29688 123.69922L220.70312 123.69922L220.70312 122.91797L223.65625 119.63672Q224.3125 118.88672 224.5625 118.43359Q224.8125 117.96484 224.8125 117.46484Q224.8125 116.79297 224.40625 116.37109Q224.01562 115.93359 223.32812 115.93359Q222.53125 115.93359 222.07812 116.40234Q221.625 116.85547 221.625 117.68359L220.54688 117.68359Q220.54688 116.49609 221.29688 115.77734Q222.0625 115.04297 223.32812 115.04297Q224.53125 115.04297 225.21875 115.66797Q225.90625 116.29297 225.90625 117.33984Q225.90625 118.58984 224.29688 120.33984L222.01562 122.80859L226.29688 122.80859L226.29688 123.69922Z" fill-rule="nonzero"/><path stroke="#976b18" stroke-width="3.0" stroke-linejoin="round" stroke-linecap="round" d="M265.96875 110.61943L265.96875 111.52568L265.76562 111.52568Q264.5 111.55693 263.75 112.291306Q263.0 113.010056 262.875 114.322556Q263.5625 113.55693 264.71875 113.55693Q265.82812 113.55693 266.5 114.33818Q267.17188 115.11943 267.17188 116.36943Q267.17188 117.68193 266.45312 118.478806Q265.73438 119.27568 264.51562 119.27568Q263.29688 119.27568 262.53125 118.33818Q261.78125 117.385056 261.78125 115.90068L261.78125 115.49443Q261.78125 113.135056 262.78125 111.885056Q263.78125 110.635056 265.76562 110.61943L265.96875 110.61943ZM264.54688 114.46318Q263.98438 114.46318 263.51562 114.791306Q263.04688 115.11943 262.85938 115.635056L262.85938 116.02568Q262.85938 117.08818 263.32812 117.728806Q263.8125 118.36943 264.51562 118.36943Q265.25 118.36943 265.67188 117.83818Q266.09375 117.291306 266.09375 116.416306Q266.09375 115.541306 265.67188 115.010056Q265.25 114.46318 264.54688 114.46318ZM270.28125 114.353806L271.09375 114.353806Q271.875 114.33818 272.3125 113.947556Q272.75 113.55693 272.75 112.885056Q272.75 111.385056 271.25 111.385056Q270.54688 111.385056 270.125 111.791306Q269.71875 112.197556 269.71875 112.853806L268.625 112.853806Q268.625 111.83818 269.35938 111.166306Q270.10938 110.49443 271.25 110.49443Q272.45312 110.49443 273.14062 111.135056Q273.82812 111.77568 273.82812 112.916306Q273.82812 113.478806 273.46875 113.99443Q273.10938 114.510056 272.48438 114.77568Q273.1875 114.99443 273.5625 115.510056Q273.95312 116.02568 273.95312 116.77568Q273.95312 117.916306 273.20312 118.603806Q272.45312 119.27568 271.25 119.27568Q270.0625 119.27568 269.29688 118.61943Q268.54688 117.96318 268.54688 116.90068L269.64062 116.90068Q269.64062 117.572556 270.07812 117.978806Q270.51562 118.385056 271.26562 118.385056Q272.04688 118.385056 272.45312 117.978806Q272.875 117.55693 272.875 116.791306Q272.875 116.05693 272.42188 115.666306Q271.96875 115.260056 271.09375 115.24443L270.28125 115.24443L270.28125 114.353806Z" fill-rule="nonzero"/><path fill="#ffffff" d="M265.96875 110.61943L265.96875 111.52568L265.76562 111.52568Q264.5 111.55693 263.75 112.291306Q263.0 113.010056 262.875 114.322556Q263.5625 113.55693 264.71875 113.55693Q265.82812 113.55693 266.5 114.33818Q267.17188 115.11943 267.17188 116.36943Q267.17188 117.68193 266.45312 118.478806Q265.73438 119.27568 264.51562 119.27568Q263.29688 119.27568 262.53125 118.33818Q261.78125 117.385056 261.78125 115.90068L261.78125 115.49443Q261.78125 113.135056 262.78125 111.885056Q263.78125 110.635056 265.76562 110.61943L265.96875 110.61943ZM264.54688 114.46318Q263.98438 114.46318 263.51562 114.791306Q263.04688 115.11943 262.85938 115.635056L262.85938 116.02568Q262.85938 117.08818 263.32812 117.728806Q263.8125 118.36943 264.51562 118.36943Q265.25 118.36943 265.67188 117.83818Q266.09375 117.291306 266.09375 116.416306Q266.09375 115.541306 265.67188 115.010056Q265.25 114.46318 264.54688 114.46318ZM270.28125 114.353806L271.09375 114.353806Q271.875 114.33818 272.3125 113.947556Q272.75 113.55693 272.75 112.885056Q272.75 111.385056 271.25 111.385056Q270.54688 111.385056 270.125 111.791306Q269.71875 112.197556 269.71875 112.853806L268.625 112.853806Q268.625 111.83818 269.35938 111.166306Q270.10938 110.49443 271.25 110.49443Q272.45312 110.49443 273.14062 111.135056Q273.82812 111.77568 273.82812 112.916306Q273.82812 113.478806 273.46875 113.99443Q273.10938 114.510056 272.48438 114.77568Q273.1875 114.99443 273.5625 115.510056Q273.95312 116.02568 273.95312 116.77568Q273.95312 117.916306 273.20312 118.603806Q272.45312 119.27568 271.25 119.27568Q270.0625 119.27568 269.29688 118.61943Q268.54688 117.96318 268.54688 116.90068L269.64062 116.90068Q269.64062 117.572556 270.07812 117.978806Q270.51562 118.385056 271.26562 118.385056Q272.04688 118.385056 272.45312 117.978806Q272.875 117.55693 272.875 116.791306Q272.875 116.05693 272.42188 115.666306Q271.96875 115.260056 271.09375 115.24443L270.28125 115.24443L270.28125 114.353806Z" fill-rule="nonzero"/><path stroke="#d79922" stroke-width="3.0" stroke-linejoin="round" stroke-linecap="round" d="M313.96875 92.53705L313.96875 93.4433L313.76562 93.4433Q312.5 93.47455 311.75 94.20892Q311.0 94.92767 310.875 96.24017Q311.5625 95.47455 312.71875 95.47455Q313.82812 95.47455 314.5 96.2558Q315.17188 97.03705 315.17188 98.28705Q315.17188 99.59955 314.45312 100.39642Q313.73438 101.1933 312.51562 101.1933Q311.29688 101.1933 310.53125 100.2558Q309.78125 99.30267 309.78125 97.8183L309.78125 97.41205Q309.78125 95.05267 310.78125 93.80267Q311.78125 92.55267 313.76562 92.53705L313.96875 92.53705ZM312.54688 96.3808Q311.98438 96.3808 311.51562 96.70892Q311.04688 97.03705 310.85938 97.55267L310.85938 97.9433Q310.85938 99.0058 311.32812 99.64642Q311.8125 100.28705 312.51562 100.28705Q313.25 100.28705 313.67188 99.7558Q314.09375 99.20892 314.09375 98.33392Q314.09375 97.45892 313.67188 96.92767Q313.25 96.3808 312.54688 96.3808ZM320.85938 97.3183Q320.53125 97.72455 320.04688 97.97455Q319.57812 98.20892 319.01562 98.20892Q318.28125 98.20892 317.73438 97.84955Q317.1875 97.49017 316.89062 96.83392Q316.59375 96.16205 316.59375 95.36517Q316.59375 94.52142 316.90625 93.83392Q317.23438 93.14642 317.82812 92.78705Q318.4375 92.41205 319.23438 92.41205Q320.5 92.41205 321.21875 93.36517Q321.95312 94.3183 321.95312 95.9433L321.95312 96.2558Q321.95312 98.7558 320.96875 99.89642Q319.98438 101.03705 318.0 101.0683L317.78125 101.0683L317.78125 100.16205L318.01562 100.16205Q319.35938 100.1308 320.07812 99.45892Q320.79688 98.78705 320.85938 97.3183ZM319.1875 97.3183Q319.73438 97.3183 320.1875 96.99017Q320.65625 96.64642 320.875 96.16205L320.875 95.72455Q320.875 94.66205 320.40625 93.99017Q319.9375 93.3183 319.23438 93.3183Q318.51562 93.3183 318.07812 93.86517Q317.65625 94.41205 317.65625 95.3183Q317.65625 96.1933 318.0625 96.7558Q318.48438 97.3183 319.1875 97.3183Z" fill-rule="nonzero"/><path fill="#000000" d="M313.96875 92.53705L313.96875 93.4433L313.76562 93.4433Q312.5 93.47455 311.75 94.20892Q311.0 94.92767 310.875 96.24017Q311.5625 95.47455 312.71875 95.47455Q313.82812 95.47455 314.5 96.2558Q315.17188 97.03705 315.17188 98.28705Q315.17188 99.59955 314.45312 100.39642Q313.73438 101.1933 312.51562 101.1933Q311.29688 101.1933 310.53125 100.2558Q309.78125 99.30267 309.78125 97.8183L309.78125 97.41205Q309.78125 95.05267 310.78125 93.80267Q311.78125 92.55267 313.76562 92.53705L313.96875 92.53705ZM312.54688 96.3808Q311.98438 96.3808 311.51562 96.70892Q311.04688 97.03705 310.85938 97.55267L310.85938 97.9433Q310.85938 99.0058 311.32812 99.64642Q311.8125 100.28705 312.51562 100.28705Q313.25 100.28705 313.67188 99.7558Q314.09375 99.20892 314.09375 98.33392Q314.09375 97.45892 313.67188 96.92767Q313.25 96.3808 312.54688 96.3808ZM320.85938 97.3183Q320.53125 97.72455 320.04688 97.97455Q319.57812 98.20892 319.01562 98.20892Q318.28125 98.20892 317.73438 97.84955Q317.1875 97.49017 316.89062 96.83392Q316.59375 96.16205 316.59375 95.36517Q316.59375 94.52142 316.90625 93.83392Q317.23438 93.14642 317.82812 92.78705Q318.4375 92.41205 319.23438 92.41205Q320.5 92.41205 321.21875 93.36517Q321.95312 94.3183 321.95312 95.9433L321.95312 96.2558Q321.95312 98.7558 320.96875 99.89642Q319.98438 101.03705 318.0 101.0683L317.78125 101.0683L317.78125 100.16205L318.01562 100.16205Q319.35938 100.1308 320.07812 99.45892Q320.79688 98.78705 320.85938 97.3183ZM319.1875 97.3183Q319.73438 97.3183 320.1875 96.99017Q320.65625 96.64642 320.875 96.16205L320.875 95.72455Q320.875 94.66205 320.40625 93.99017Q319.9375 93.3183 319.23438 93.3183Q318.51562 93.3183 318.07812 93.86517Q317.65625 94.41205 317.65625 95.3183Q317.65625 96.1933 318.0625 96.7558Q318.48438 97.3183 319.1875 97.3183Z" fill-rule="nonzero"/><path fill="#757575" d="M36.9125 300.00937Q36.9125 301.91562 36.25625 302.85312Q35.615623 303.775 34.225 303.775Q32.865623 303.775 32.209373 302.86874Q31.553125 301.9625 31.521875 300.15L31.521875 298.7125Q31.521875 296.82187 32.1625 295.91562Q32.81875 294.99374 34.209373 294.99374Q35.584373 294.99374 36.240623 295.88437Q36.896873 296.75937 36.9125 298.60312L36.9125 300.00937ZM35.81875 298.525Q35.81875 297.15 35.428123 296.525Q35.053123 295.88437 34.209373 295.88437Q33.38125 295.88437 32.990623 296.525Q32.615623 297.15 32.615623 298.44687L32.615623 300.18124Q32.615623 301.55624 33.00625 302.22812Q33.4125 302.88437 34.225 302.88437Q35.021873 302.88437 35.4125 302.25937Q35.803123 301.63437 35.81875 300.30624L35.81875 298.525Z" fill-rule="nonzero"/><path fill="#757575" d="M30.146875 241.50833L24.553125 241.50833L24.553125 240.72708L27.50625 237.44583Q28.1625 236.69583 28.4125 236.2427Q28.6625 235.77396 28.6625 235.27396Q28.6625 234.60208 28.25625 234.1802Q27.865625 233.7427 27.178125 233.7427Q26.38125 233.7427 25.928125 234.21146Q25.475 234.66458 25.475 235.4927L24.396875 235.4927Q24.396875 234.3052 25.146875 233.58646Q25.9125 232.85208 27.178125 232.85208Q28.38125 232.85208 29.06875 233.47708Q29.75625 234.10208 29.75625 235.14896Q29.75625 236.39896 28.146875 238.14896L25.865625 240.6177L30.146875 240.6177L30.146875 241.50833ZM36.9125 237.8677Q36.9125 239.77396 36.25625 240.71146Q35.615623 241.63333 34.225 241.63333Q32.865623 241.63333 32.209373 240.72708Q31.553125 239.82083 31.521875 238.00833L31.521875 236.57083Q31.521875 234.6802 32.1625 233.77396Q32.81875 232.85208 34.209373 232.85208Q35.584373 232.85208 36.240623 233.7427Q36.896873 234.6177 36.9125 236.46146L36.9125 237.8677ZM35.81875 236.38333Q35.81875 235.00833 35.428123 234.38333Q35.053123 233.7427 34.209373 233.7427Q33.38125 233.7427 32.990623 234.38333Q32.615623 235.00833 32.615623 236.3052L32.615623 238.03958Q32.615623 239.41458 33.00625 240.08646Q33.4125 240.7427 34.225 240.7427Q35.021873 240.7427 35.4125 240.1177Q35.803123 239.4927 35.81875 238.16458L35.81875 236.38333Z" fill-rule="nonzero"/><path fill="#757575" d="M29.13125 176.5073L30.31875 176.5073L30.31875 177.3823L29.13125 177.3823L29.13125 179.36667L28.053125 179.36667L28.053125 177.3823L24.1625 177.3823L24.1625 176.74167L27.975 170.83542L29.13125 170.83542L29.13125 176.5073ZM25.396875 176.5073L28.053125 176.5073L28.053125 172.3198L27.9125 172.55417L25.396875 176.5073ZM36.9125 175.72604Q36.9125 177.6323 36.25625 178.5698Q35.615623 179.49167 34.225 179.49167Q32.865623 179.49167 32.209373 178.58542Q31.553125 177.67917 31.521875 175.86667L31.521875 174.42917Q31.521875 172.53854 32.1625 171.6323Q32.81875 170.71042 34.209373 170.71042Q35.584373 170.71042 36.240623 171.60104Q36.896873 172.47604 36.9125 174.3198L36.9125 175.72604ZM35.81875 174.24167Q35.81875 172.86667 35.428123 172.24167Q35.053123 171.60104 34.209373 171.60104Q33.38125 171.60104 32.990623 172.24167Q32.615623 172.86667 32.615623 174.16354L32.615623 175.89792Q32.615623 177.27292 33.00625 177.9448Q33.4125 178.60104 34.225 178.60104Q35.021873 178.60104 35.4125 177.97604Q35.803123 177.35104 35.81875 176.02292L35.81875 174.24167Z" fill-rule="nonzero"/><path fill="#757575" d="M28.81875 108.69375L28.81875 109.6L28.615625 109.6Q27.35 109.63125 26.6 110.36562Q25.85 111.08437 25.725 112.39687Q26.4125 111.63125 27.56875 111.63125Q28.678125 111.63125 29.35 112.4125Q30.021875 113.19375 30.021875 114.44375Q30.021875 115.75625 29.303125 116.55312Q28.584375 117.35 27.365625 117.35Q26.146875 117.35 25.38125 116.4125Q24.63125 115.45937 24.63125 113.975L24.63125 113.56875Q24.63125 111.20937 25.63125 109.95937Q26.63125 108.70937 28.615625 108.69375L28.81875 108.69375ZM27.396875 112.5375Q26.834375 112.5375 26.365625 112.86562Q25.896875 113.19375 25.709375 113.70937L25.709375 114.1Q25.709375 115.1625 26.178125 115.80312Q26.6625 116.44375 27.365625 116.44375Q28.1 116.44375 28.521875 115.9125Q28.94375 115.36562 28.94375 114.49062Q28.94375 113.61562 28.521875 113.08437Q28.1 112.5375 27.396875 112.5375ZM36.9125 113.58437Q36.9125 115.49062 36.25625 116.42812Q35.615623 117.35 34.225 117.35Q32.865623 117.35 32.209373 116.44375Q31.553125 115.5375 31.521875 113.725L31.521875 112.2875Q31.521875 110.39687 32.1625 109.49062Q32.81875 108.56875 34.209373 108.56875Q35.584373 108.56875 36.240623 109.45937Q36.896873 110.33437 36.9125 112.17812L36.9125 113.58437ZM35.81875 112.1Q35.81875 110.725 35.428123 110.1Q35.053123 109.45937 34.209373 109.45937Q33.38125 109.45937 32.990623 110.1Q32.615623 110.725 32.615623 112.02187L32.615623 113.75625Q32.615623 115.13125 33.00625 115.80312Q33.4125 116.45937 34.225 116.45937Q35.021873 116.45937 35.4125 115.83437Q35.803123 115.20937 35.81875 113.88125L35.81875 112.1Z" fill-rule="nonzero"/><path fill="#757575" d="M29.740625 48.770832Q29.740625 49.411457 29.396875 49.911457Q29.053125 50.411457 28.490625 50.692707Q29.146875 50.973957 29.5375 51.536457Q29.928125 52.083332 29.928125 52.786457Q29.928125 53.880207 29.178125 54.552082Q28.44375 55.208332 27.225 55.208332Q25.990625 55.208332 25.240625 54.552082Q24.50625 53.880207 24.50625 52.786457Q24.50625 52.083332 24.88125 51.536457Q25.25625 50.973957 25.928125 50.692707Q25.365625 50.411457 25.0375 49.911457Q24.709375 49.411457 24.709375 48.770832Q24.709375 47.692707 25.396875 47.067707Q26.084375 46.427082 27.225 46.427082Q28.35 46.427082 29.0375 47.067707Q29.740625 47.692707 29.740625 48.770832ZM28.85 52.755207Q28.85 52.036457 28.396875 51.598957Q27.94375 51.145832 27.209375 51.145832Q26.475 51.145832 26.021875 51.598957Q25.584375 52.036457 25.584375 52.770832Q25.584375 53.489582 26.021875 53.911457Q26.459375 54.317707 27.225 54.317707Q27.975 54.317707 28.4125 53.895832Q28.85 53.473957 28.85 52.755207ZM27.225 47.317707Q26.584375 47.317707 26.178125 47.723957Q25.7875 48.114582 25.7875 48.802082Q25.7875 49.442707 26.178125 49.848957Q26.56875 50.255207 27.209375 50.255207Q27.865625 50.255207 28.25625 49.848957Q28.646875 49.442707 28.646875 48.802082Q28.646875 48.145832 28.240625 47.739582Q27.834375 47.317707 27.225 47.317707ZM36.9125 51.442707Q36.9125 53.348957 36.25625 54.286457Q35.615623 55.208332 34.225 55.208332Q32.865623 55.208332 32.209373 54.302082Q31.553125 53.395832 31.521875 51.583332L31.521875 50.145832Q31.521875 48.255207 32.1625 47.348957Q32.81875 46.427082 34.209373 46.427082Q35.584373 46.427082 36.240623 47.317707Q36.896873 48.192707 36.9125 50.036457L36.9125 51.442707ZM35.81875 49.958332Q35.81875 48.583332 35.428123 47.958332Q35.053123 47.317707 34.209373 47.317707Q33.38125 47.317707 32.990623 47.958332Q32.615623 48.583332 32.615623 49.880207L32.615623 51.614582Q32.615623 52.989582 33.00625 53.661457Q33.4125 54.317707 34.225 54.317707Q35.021873 54.317707 35.4125 53.692707Q35.803123 53.067707 35.81875 51.739582L35.81875 49.958332Z" fill-rule="nonzero"/><path fill="#757575" d="M213.0 313.35312Q211.5625 312.93124 210.89062 312.32187Q210.23438 311.7125 210.23438 310.82187Q210.23438 309.82187 211.03125 309.16562Q211.84375 308.49374 213.14062 308.49374Q214.01562 308.49374 214.70312 308.8375Q215.39062 309.18124 215.76562 309.775Q216.15625 310.36874 216.15625 311.0875L215.01562 311.0875Q215.01562 310.30624 214.51562 309.86874Q214.03125 309.43124 213.14062 309.43124Q212.3125 309.43124 211.84375 309.80624Q211.375 310.16562 211.375 310.80624Q211.375 311.3375 211.8125 311.69687Q212.26562 312.05624 213.32812 312.35312Q214.39062 312.65 214.98438 313.00937Q215.59375 313.36874 215.875 313.85312Q216.17188 314.3375 216.17188 314.97812Q216.17188 316.025 215.35938 316.65Q214.54688 317.275 213.20312 317.275Q212.3125 317.275 211.54688 316.93124Q210.79688 316.5875 210.375 316.00937Q209.96875 315.41562 209.96875 314.68124L211.09375 314.68124Q211.09375 315.44687 211.67188 315.9Q212.25 316.35312 213.20312 316.35312Q214.09375 316.35312 214.5625 315.99374Q215.03125 315.61874 215.03125 314.99374Q215.03125 314.36874 214.59375 314.025Q214.15625 313.68124 213.0 313.35312ZM223.5 308.61874L223.5 314.41562Q223.48438 315.61874 222.73438 316.4Q221.98438 317.16562 220.70312 317.25937L220.39062 317.275Q219.0 317.275 218.15625 316.525Q217.32812 315.75937 217.32812 314.43124L217.32812 308.61874L218.4375 308.61874L218.4375 314.4Q218.4375 315.32187 218.9375 315.8375Q219.45312 316.35312 220.39062 316.35312Q221.35938 316.35312 221.85938 315.8375Q222.35938 315.32187 222.35938 314.4L222.35938 308.61874L223.5 308.61874ZM228.0 313.35312Q226.5625 312.93124 225.89062 312.32187Q225.23438 311.7125 225.23438 310.82187Q225.23438 309.82187 226.03125 309.16562Q226.84375 308.49374 228.14062 308.49374Q229.01562 308.49374 229.70312 308.8375Q230.39062 309.18124 230.76562 309.775Q231.15625 310.36874 231.15625 311.0875L230.01562 311.0875Q230.01562 310.30624 229.51562 309.86874Q229.03125 309.43124 228.14062 309.43124Q227.3125 309.43124 226.84375 309.80624Q226.375 310.16562 226.375 310.80624Q226.375 311.3375 226.8125 311.69687Q227.26562 312.05624 228.32812 312.35312Q229.39062 312.65 229.98438 313.00937Q230.59375 313.36874 230.875 313.85312Q231.17188 314.3375 231.17188 314.97812Q231.17188 316.025 230.35938 316.65Q229.54688 317.275 228.20312 317.275Q227.3125 317.275 226.54688 316.93124Q225.79688 316.5875 225.375 316.00937Q224.96875 315.41562 224.96875 314.68124L226.09375 314.68124Q226.09375 315.44687 226.67188 315.9Q227.25 316.35312 228.20312 316.35312Q229.09375 316.35312 229.5625 315.99374Q230.03125 315.61874 230.03125 314.99374Q230.03125 314.36874 229.59375 314.025Q229.15625 313.68124 228.0 313.35312ZM240.20312 314.91562L236.625 314.91562L235.82812 317.15L234.67188 317.15L237.92188 308.61874L238.90625 308.61874L242.17188 317.15L241.01562 317.15L240.20312 314.91562ZM236.96875 313.99374L239.875 313.99374L238.42188 310.00937L236.96875 313.99374ZM245.40625 315.68124L246.98438 310.80624L248.09375 310.80624L245.8125 317.15L244.98438 317.15L242.6875 310.80624L243.79688 310.80624L245.40625 315.68124ZM251.95312 317.275Q250.65625 317.275 249.84375 316.43124Q249.04688 315.57187 249.04688 314.15L249.04688 313.9625Q249.04688 313.00937 249.40625 312.275Q249.76562 311.525 250.40625 311.11874Q251.0625 310.69687 251.8125 310.69687Q253.04688 310.69687 253.73438 311.50937Q254.42188 312.32187 254.42188 313.8375L254.42188 314.29062L250.125 314.29062Q250.15625 315.22812 250.67188 315.80624Q251.20312 316.38437 252.01562 316.38437Q252.57812 316.38437 252.96875 316.15Q253.375 315.91562 253.6875 315.525L254.34375 316.04062Q253.54688 317.275 251.95312 317.275ZM251.8125 311.5875Q251.15625 311.5875 250.70312 312.07187Q250.26562 312.54062 250.17188 313.4L253.34375 313.4L253.34375 313.32187Q253.29688 312.49374 252.89062 312.04062Q252.5 311.5875 251.8125 311.5875ZM258.39062 311.775Q258.14062 311.74374 257.85938 311.74374Q256.78125 311.74374 256.40625 312.65L256.40625 317.15L255.32812 317.15L255.32812 310.80624L256.375 310.80624L256.39062 311.54062Q256.92188 310.69687 257.90625 310.69687Q258.21875 310.69687 258.39062 310.775L258.39062 311.775ZM263.23438 317.15Q263.14062 316.9625 263.07812 316.47812Q262.32812 317.275 261.28125 317.275Q260.34375 317.275 259.73438 316.74374Q259.14062 316.2125 259.14062 315.38437Q259.14062 314.4 259.89062 313.85312Q260.64062 313.30624 262.01562 313.30624L263.0625 313.30624L263.0625 312.80624Q263.0625 312.24374 262.71875 311.91562Q262.39062 311.57187 261.71875 311.57187Q261.14062 311.57187 260.75 311.86874Q260.35938 312.15 260.35938 312.57187L259.26562 312.57187Q259.26562 312.0875 259.59375 311.65Q259.9375 311.2125 260.51562 310.9625Q261.09375 310.69687 261.78125 310.69687Q262.89062 310.69687 263.5 311.24374Q264.125 311.79062 264.15625 312.74374L264.15625 315.66562Q264.15625 316.54062 264.375 317.05624L264.375 317.15L263.23438 317.15ZM261.4375 316.32187Q261.95312 316.32187 262.40625 316.05624Q262.85938 315.79062 263.0625 315.36874L263.0625 314.07187L262.21875 314.07187Q260.21875 314.07187 260.21875 315.24374Q260.21875 315.74374 260.5625 316.04062Q260.90625 316.32187 261.4375 316.32187ZM266.0625 313.93124Q266.0625 312.44687 266.75 311.57187Q267.4375 310.69687 268.5625 310.69687Q269.71875 310.69687 270.375 311.50937L270.42188 310.80624L271.42188 310.80624L271.42188 316.99374Q271.42188 318.22812 270.6875 318.93124Q269.95312 319.65 268.73438 319.65Q268.04688 319.65 267.39062 319.35312Q266.73438 319.05624 266.39062 318.55624L266.95312 317.9Q267.64062 318.75937 268.65625 318.75937Q269.4375 318.75937 269.875 318.30624Q270.32812 317.86874 270.32812 317.05624L270.32812 316.50937Q269.67188 317.275 268.54688 317.275Q267.4375 317.275 266.75 316.38437Q266.0625 315.47812 266.0625 313.93124ZM267.15625 314.05624Q267.15625 315.11874 267.59375 315.74374Q268.03125 316.35312 268.82812 316.35312Q269.84375 316.35312 270.32812 315.41562L270.32812 312.525Q269.82812 311.61874 268.82812 311.61874Q268.04688 311.61874 267.59375 312.22812Q267.15625 312.8375 267.15625 314.05624ZM275.95312 317.275Q274.65625 317.275 273.84375 316.43124Q273.04688 315.57187 273.04688 314.15L273.04688 313.9625Q273.04688 313.00937 273.40625 312.275Q273.76562 311.525 274.40625 311.11874Q275.0625 310.69687 275.8125 310.69687Q277.04688 310.69687 277.73438 311.50937Q278.42188 312.32187 278.42188 313.8375L278.42188 314.29062L274.125 314.29062Q274.15625 315.22812 274.67188 315.80624Q275.20312 316.38437 276.01562 316.38437Q276.57812 316.38437 276.96875 316.15Q277.375 315.91562 277.6875 315.525L278.34375 316.04062Q277.54688 317.275 275.95312 317.275ZM275.8125 311.5875Q275.15625 311.5875 274.70312 312.07187Q274.26562 312.54062 274.17188 313.4L277.34375 313.4L277.34375 313.32187Q277.29688 312.49374 276.89062 312.04062Q276.5 311.5875 275.8125 311.5875Z" fill-rule="nonzero"/><path fill="#0e491d" d="M110.5 19.35C110.5 18.797716 110.947716 18.35 111.5 18.35L121.5 18.35C122.052284 18.35 122.5 18.797716 122.5 19.35L122.5 29.35C122.5 29.902285 122.052284 30.35 121.5 30.35L111.5 30.35C110.947716 30.35 110.5 29.902285 110.5 29.35Z" fill-rule="nonzero"/><path fill="#757575" d="M136.79688 28.85L131.20312 28.85L131.20312 28.06875L134.15625 24.7875Q134.8125 24.0375 135.0625 23.584375Q135.3125 23.115625 135.3125 22.615625Q135.3125 21.94375 134.90625 21.521875Q134.51562 21.084375 133.82812 21.084375Q133.03125 21.084375 132.57812 21.553125Q132.125 22.00625 132.125 22.834375L131.04688 22.834375Q131.04688 21.646875 131.79688 20.928125Q132.5625 20.19375 133.82812 20.19375Q135.03125 20.19375 135.71875 20.81875Q136.40625 21.44375 136.40625 22.490625Q136.40625 23.740625 134.79688 25.490625L132.51562 27.959375L136.79688 27.959375L136.79688 28.85ZM143.5625 25.209375Q143.5625 27.115625 142.90625 28.053125Q142.26562 28.975 140.875 28.975Q139.51562 28.975 138.85938 28.06875Q138.20312 27.1625 138.17188 25.35L138.17188 23.9125Q138.17188 22.021875 138.8125 21.115625Q139.46875 20.19375 140.85938 20.19375Q142.23438 20.19375 142.89062 21.084375Q143.54688 21.959375 143.5625 23.803125L143.5625 25.209375ZM142.46875 23.725Q142.46875 22.35 142.07812 21.725Q141.70312 21.084375 140.85938 21.084375Q140.03125 21.084375 139.64062 21.725Q139.26562 22.35 139.26562 23.646875L139.26562 25.38125Q139.26562 26.75625 139.65625 27.428125Q140.0625 28.084375 140.875 28.084375Q141.67188 28.084375 142.0625 27.459375Q142.45312 26.834375 142.46875 25.50625L142.46875 23.725ZM148.76562 28.85L147.6875 28.85L147.6875 21.63125L145.5 22.428125L145.5 21.44375L148.60938 20.271875L148.76562 20.271875L148.76562 28.85ZM156.46875 20.31875L156.46875 21.225L156.26562 21.225Q155.0 21.25625 154.25 21.990625Q153.5 22.709375 153.375 24.021875Q154.0625 23.25625 155.21875 23.25625Q156.32812 23.25625 157.0 24.0375Q157.67188 24.81875 157.67188 26.06875Q157.67188 27.38125 156.95312 28.178125Q156.23438 28.975 155.01562 28.975Q153.79688 28.975 153.03125 28.0375Q152.28125 27.084375 152.28125 25.6L152.28125 25.19375Q152.28125 22.834375 153.28125 21.584375Q154.28125 20.334375 156.26562 20.31875L156.46875 20.31875ZM155.04688 24.1625Q154.48438 24.1625 154.01562 24.490625Q153.54688 24.81875 153.35938 25.334375L153.35938 25.725Q153.35938 26.7875 153.82812 27.428125Q154.3125 28.06875 155.01562 28.06875Q155.75 28.06875 156.17188 27.5375Q156.59375 26.990625 156.59375 26.115625Q156.59375 25.240625 156.17188 24.709375Q155.75 24.1625 155.04688 24.1625Z" fill-rule="nonzero"/><path fill="#f5e5b9" d="M174.5 19.35C174.5 18.797716 174.94771 18.35 175.5 18.35L185.5 18.35C186.05229 18.35 186.5 18.797716 186.5 19.35L186.5 29.35C186.5 29.902285 186.05229 30.35 185.5 30.35L175.5 30.35C174.94771 30.35 174.5 29.902285 174.5 29.35Z" fill-rule="nonzero"/><path fill="#757575" d="M200.79688 28.85L195.20312 28.85L195.20312 28.06875L198.15625 24.7875Q198.8125 24.0375 199.0625 23.584375Q199.3125 23.115625 199.3125 22.615625Q199.3125 21.94375 198.90625 21.521875Q198.51562 21.084375 197.82812 21.084375Q197.03125 21.084375 196.57812 21.553125Q196.125 22.00625 196.125 22.834375L195.04688 22.834375Q195.04688 21.646875 195.79688 20.928125Q196.5625 20.19375 197.82812 20.19375Q199.03125 20.19375 199.71875 20.81875Q200.40625 21.44375 200.40625 22.490625Q200.40625 23.740625 198.79688 25.490625L196.51562 27.959375L200.79688 27.959375L200.79688 28.85ZM207.5625 25.209375Q207.5625 27.115625 206.90625 28.053125Q206.26562 28.975 204.875 28.975Q203.51562 28.975 202.85938 28.06875Q202.20312 27.1625 202.17188 25.35L202.17188 23.9125Q202.17188 22.021875 202.8125 21.115625Q203.46875 20.19375 204.85938 20.19375Q206.23438 20.19375 206.89062 21.084375Q207.54688 21.959375 207.5625 23.803125L207.5625 25.209375ZM206.46875 23.725Q206.46875 22.35 206.07812 21.725Q205.70312 21.084375 204.85938 21.084375Q204.03125 21.084375 203.64062 21.725Q203.26562 22.35 203.26562 23.646875L203.26562 25.38125Q203.26562 26.75625 203.65625 27.428125Q204.0625 28.084375 204.875 28.084375Q205.67188 28.084375 206.0625 27.459375Q206.45312 26.834375 206.46875 25.50625L206.46875 23.725ZM212.76562 28.85L211.6875 28.85L211.6875 21.63125L209.5 22.428125L209.5 21.44375L212.60938 20.271875L212.76562 20.271875L212.76562 28.85ZM221.71875 20.928125L218.1875 28.85L217.04688 28.85L220.5625 21.209375L215.95312 21.209375L215.95312 20.31875L221.71875 20.31875L221.71875 20.928125Z" fill-rule="nonzero"/><path fill="#976b18" d="M238.5 19.35C238.5 18.797716 238.94771 18.35 239.5 18.35L249.5 18.35C250.05229 18.35 250.5 18.797716 250.5 19.35L250.5 29.35C250.5 29.902285 250.05229 30.35 249.5 30.35L239.5 30.35C238.94771 30.35 238.5 29.902285 238.5 29.35Z" fill-rule="nonzero"/><path fill="#757575" d="M264.79688 28.85L259.20312 28.85L259.20312 28.06875L262.15625 24.7875Q262.8125 24.0375 263.0625 23.584375Q263.3125 23.115625 263.3125 22.615625Q263.3125 21.94375 262.90625 21.521875Q262.51562 21.084375 261.82812 21.084375Q261.03125 21.084375 260.57812 21.553125Q260.125 22.00625 260.125 22.834375L259.04688 22.834375Q259.04688 21.646875 259.79688 20.928125Q260.5625 20.19375 261.82812 20.19375Q263.03125 20.19375 263.71875 20.81875Q264.40625 21.44375 264.40625 22.490625Q264.40625 23.740625 262.79688 25.490625L260.51562 27.959375L264.79688 27.959375L264.79688 28.85ZM271.5625 25.209375Q271.5625 27.115625 270.90625 28.053125Q270.26562 28.975 268.875 28.975Q267.51562 28.975 266.85938 28.06875Q266.20312 27.1625 266.17188 25.35L266.17188 23.9125Q266.17188 22.021875 266.8125 21.115625Q267.46875 20.19375 268.85938 20.19375Q270.23438 20.19375 270.89062 21.084375Q271.54688 21.959375 271.5625 23.803125L271.5625 25.209375ZM270.46875 23.725Q270.46875 22.35 270.07812 21.725Q269.70312 21.084375 268.85938 21.084375Q268.03125 21.084375 267.64062 21.725Q267.26562 22.35 267.26562 23.646875L267.26562 25.38125Q267.26562 26.75625 267.65625 27.428125Q268.0625 28.084375 268.875 28.084375Q269.67188 28.084375 270.0625 27.459375Q270.45312 26.834375 270.46875 25.50625L270.46875 23.725ZM276.76562 28.85L275.6875 28.85L275.6875 21.63125L273.5 22.428125L273.5 21.44375L276.60938 20.271875L276.76562 20.271875L276.76562 28.85ZM285.39062 22.5375Q285.39062 23.178125 285.04688 23.678125Q284.70312 24.178125 284.14062 24.459375Q284.79688 24.740625 285.1875 25.303125Q285.57812 25.85 285.57812 26.553125Q285.57812 27.646875 284.82812 28.31875Q284.09375 28.975 282.875 28.975Q281.64062 28.975 280.89062 28.31875Q280.15625 27.646875 280.15625 26.553125Q280.15625 25.85 280.53125 25.303125Q280.90625 24.740625 281.57812 24.459375Q281.01562 24.178125 280.6875 23.678125Q280.35938 23.178125 280.35938 22.5375Q280.35938 21.459375 281.04688 20.834375Q281.73438 20.19375 282.875 20.19375Q284.0 20.19375 284.6875 20.834375Q285.39062 21.459375 285.39062 22.5375ZM284.5 26.521875Q284.5 25.803125 284.04688 25.365625Q283.59375 24.9125 282.85938 24.9125Q282.125 24.9125 281.67188 25.365625Q281.23438 25.803125 281.23438 26.5375Q281.23438 27.25625 281.67188 27.678125Q282.10938 28.084375 282.875 28.084375Q283.625 28.084375 284.0625 27.6625Q284.5 27.240625 284.5 26.521875ZM282.875 21.084375Q282.23438 21.084375 281.82812 21.490625Q281.4375 21.88125 281.4375 22.56875Q281.4375 23.209375 281.82812 23.615625Q282.21875 24.021875 282.85938 24.021875Q283.51562 24.021875 283.90625 23.615625Q284.29688 23.209375 284.29688 22.56875Q284.29688 21.9125 283.89062 21.50625Q283.48438 21.084375 282.875 21.084375Z" fill-rule="nonzero"/><path fill="#d79922" d="M302.5 19.35C302.5 18.797716 302.94772 18.35 303.5 18.35L313.5 18.35C314.05228 18.35 314.5 18.797716 314.5 19.35L314.5 29.35C314.5 29.902285 314.05228 30.35 313.5 30.35L303.5 30.35C302.94772 30.35 302.5 29.902285 302.5 29.35Z" fill-rule="nonzero"/><path fill="#757575" d="M328.79688 28.85L323.20312 28.85L323.20312 28.06875L326.15625 24.7875Q326.8125 24.0375 327.0625 23.584375Q327.3125 23.115625 327.3125 22.615625Q327.3125 21.94375 326.90625 21.521875Q326.51562 21.084375 325.82812 21.084375Q325.03125 21.084375 324.57812 21.553125Q324.125 22.00625 324.125 22.834375L323.04688 22.834375Q323.04688 21.646875 323.79688 20.928125Q324.5625 20.19375 325.82812 20.19375Q327.03125 20.19375 327.71875 20.81875Q328.40625 21.44375 328.40625 22.490625Q328.40625 23.740625 326.79688 25.490625L324.51562 27.959375L328.79688 27.959375L328.79688 28.85ZM335.5625 25.209375Q335.5625 27.115625 334.90625 28.053125Q334.26562 28.975 332.875 28.975Q331.51562 28.975 330.85938 28.06875Q330.20312 27.1625 330.17188 25.35L330.17188 23.9125Q330.17188 22.021875 330.8125 21.115625Q331.46875 20.19375 332.85938 20.19375Q334.23438 20.19375 334.89062 21.084375Q335.54688 21.959375 335.5625 23.803125L335.5625 25.209375ZM334.46875 23.725Q334.46875 22.35 334.07812 21.725Q333.70312 21.084375 332.85938 21.084375Q332.03125 21.084375 331.64062 21.725Q331.26562 22.35 331.26562 23.646875L331.26562 25.38125Q331.26562 26.75625 331.65625 27.428125Q332.0625 28.084375 332.875 28.084375Q333.67188 28.084375 334.0625 27.459375Q334.45312 26.834375 334.46875 25.50625L334.46875 23.725ZM340.76562 28.85L339.6875 28.85L339.6875 21.63125L337.5 22.428125L337.5 21.44375L340.60938 20.271875L340.76562 20.271875L340.76562 28.85ZM348.35938 25.1Q348.03125 25.50625 347.54688 25.75625Q347.07812 25.990625 346.51562 25.990625Q345.78125 25.990625 345.23438 25.63125Q344.6875 25.271875 344.39062 24.615625Q344.09375 23.94375 344.09375 23.146875Q344.09375 22.303125 344.40625 21.615625Q344.73438 20.928125 345.32812 20.56875Q345.9375 20.19375 346.73438 20.19375Q348.0 20.19375 348.71875 21.146875Q349.45312 22.1 349.45312 23.725L349.45312 24.0375Q349.45312 26.5375 348.46875 27.678125Q347.48438 28.81875 345.5 28.85L345.28125 28.85L345.28125 27.94375L345.51562 27.94375Q346.85938 27.9125 347.57812 27.240625Q348.29688 26.56875 348.35938 25.1ZM346.6875 25.1Q347.23438 25.1 347.6875 24.771875Q348.15625 24.428125 348.375 23.94375L348.375 23.50625Q348.375 22.44375 347.90625 21.771875Q347.4375 21.1 346.73438 21.1Q346.01562 21.1 345.57812 21.646875Q345.15625 22.19375 345.15625 23.1Q345.15625 23.975 345.5625 24.5375Q345.98438 25.1 346.6875 25.1Z" fill-rule="nonzero"/></svg>