<svg version="1.1" viewBox="0.0 0.0 383.0 281.0" fill="none" stroke="none" stroke-linecap="square" stroke-miterlimit="10" width="383" height="281" xmlns:xlink="http://www.w3.org/1999/xlink" xmlns="http://www.w3.org/2000/svg"><path fill="#ffffff" fill-opacity="0.0" d="M0 0L383.0 0L383.0 281.0L0 281.0L0 0Z" fill-rule="nonzero"/><path fill="#d79922" d="M139.6033 255.80974C85.24597 231.34549 55.355656 172.24174 67.86643 113.96053C80.37721 55.67933 131.89111 14.05 191.5 14.05L191.5 77.275C161.69556 77.275 135.9386 98.08966 129.68321 127.23027C123.427826 156.37086 138.37299 185.92274 165.55165 198.15486Z" fill-rule="nonzero"/><path fill="#976b18" d="M191.5 14.05C243.10808 14.05 289.5374 45.412354 308.80588 93.288445C328.07434 141.16454 316.31488 195.94588 279.095 231.69604C241.87512 267.44623 186.6647 276.99036 139.6033 255.80974L165.55165 198.15486C189.08235 208.74518 216.68756 203.97311 235.2975 186.09802C253.90744 168.22295 259.78717 140.83226 250.15294 116.89422C240.5187 92.95618 217.30403 77.275 191.5 77.275Z" fill-rule="nonzero"/><path fill="#757575" d="M19.753124 107.02188L16.159374 107.02188L16.159374 110.787506L15.034375 110.787506L15.034375 102.256256L20.33125 102.256256L20.33125 103.17813L16.159374 103.17813L16.159374 106.100006L19.753124 106.100006L19.753124 107.02188ZM24.503124 110.912506Q23.20625 110.912506 22.39375 110.068756Q21.596874 109.20938 21.596874 107.787506L21.596874 107.600006Q21.596874 106.64688 21.95625 105.912506Q22.315624 105.162506 22.95625 104.756256Q23.6125 104.33438 24.3625 104.33438Q25.596874 104.33438 26.284374 105.14688Q26.971874 105.95938 26.971874 107.475006L26.971874 107.92813L22.675 107.92813Q22.70625 108.86563 23.221874 109.443756Q23.753124 110.02188 24.565624 110.02188Q25.128124 110.02188 25.51875 109.787506Q25.925 109.55313 26.2375 109.162506L26.89375 109.67813Q26.096874 110.912506 24.503124 110.912506ZM24.3625 105.225006Q23.70625 105.225006 23.253124 105.70938Q22.815624 106.17813 22.721874 107.037506L25.89375 107.037506L25.89375 106.95938Q25.846874 106.131256 25.440624 105.67813Q25.05 105.225006 24.3625 105.225006ZM28.89375 104.443756L28.925 105.14688Q29.6125 104.33438 30.8 104.33438Q32.128124 104.33438 32.6125 105.350006Q32.925 104.89688 33.425 104.61563Q33.940624 104.33438 34.628124 104.33438Q36.721874 104.33438 36.753124 106.537506L36.753124 110.787506L35.675 110.787506L35.675 106.600006Q35.675 105.92813 35.3625 105.600006Q35.05 105.256256 34.315624 105.256256Q33.70625 105.256256 33.3 105.61563Q32.909374 105.975006 32.846874 106.58438L32.846874 110.787506L31.76875 110.787506L31.76875 106.631256Q31.76875 105.256256 30.409374 105.256256Q29.346874 105.256256 28.95625 106.162506L28.95625 110.787506L27.8625 110.787506L27.8625 104.443756L28.89375 104.443756ZM42.784374 110.787506Q42.690624 110.600006 42.628124 110.11563Q41.878124 110.912506 40.83125 110.912506Q39.89375 110.912506 39.284374 110.381256Q38.690624 109.850006 38.690624 109.02188Q38.690624 108.037506 39.440624 107.49063Q40.190624 106.943756 41.565624 106.943756L42.6125 106.943756L42.6125 106.443756Q42.6125 105.881256 42.26875 105.55313Q41.940624 105.20938 41.26875 105.20938Q40.690624 105.20938 40.3 105.506256Q39.909374 105.787506 39.909374 106.20938L38.815624 106.20938Q38.815624 105.725006 39.14375 105.287506Q39.4875 104.850006 40.065624 104.600006Q40.64375 104.33438 41.33125 104.33438Q42.440624 104.33438 43.05 104.881256Q43.675 105.42813 43.70625 106.381256L43.70625 109.30313Q43.70625 110.17813 43.925 110.693756L43.925 110.787506L42.784374 110.787506ZM40.9875 109.95938Q41.503124 109.95938 41.95625 109.693756Q42.409374 109.42813 42.6125 109.006256L42.6125 107.70938L41.76875 107.70938Q39.76875 107.70938 39.76875 108.881256Q39.76875 109.381256 40.1125 109.67813Q40.45625 109.95938 40.9875 109.95938ZM47.05 110.787506L45.971874 110.787506L45.971874 101.787506L47.05 101.787506L47.05 110.787506ZM51.503124 110.912506Q50.20625 110.912506 49.39375 110.068756Q48.596874 109.20938 48.596874 107.787506L48.596874 107.600006Q48.596874 106.64688 48.95625 105.912506Q49.315624 105.162506 49.95625 104.756256Q50.6125 104.33438 51.3625 104.33438Q52.596874 104.33438 53.284374 105.14688Q53.971874 105.95938 53.971874 107.475006L53.971874 107.92813L49.675 107.92813Q49.70625 108.86563 50.221874 109.443756Q50.753124 110.02188 51.565624 110.02188Q52.128124 110.02188 52.51875 109.787506Q52.925 109.55313 53.2375 109.162506L53.89375 109.67813Q53.096874 110.912506 51.503124 110.912506ZM51.3625 105.225006Q50.70625 105.225006 50.253124 105.70938Q49.815624 106.17813 49.721874 107.037506L52.89375 107.037506L52.89375 106.95938Q52.846874 106.131256 52.440624 105.67813Q52.05 105.225006 51.3625 105.225006Z" fill-rule="nonzero"/><path fill="#9e9e9e" d="M19.33125 125.92813L20.51875 125.92813L20.51875 126.80313L19.33125 126.80313L19.33125 128.7875L18.253124 128.7875L18.253124 126.80313L14.3625 126.80313L14.3625 126.162506L18.175 120.256256L19.33125 120.256256L19.33125 125.92813ZM15.596875 125.92813L18.253124 125.92813L18.253124 121.74063L18.1125 121.975006L15.596875 125.92813ZM23.33125 123.99063L24.14375 123.99063Q24.925 123.975006 25.3625 123.58438Q25.8 123.193756 25.8 122.52188Q25.8 121.02188 24.3 121.02188Q23.596874 121.02188 23.175 121.42813Q22.76875 121.83438 22.76875 122.49063L21.675 122.49063Q21.675 121.475006 22.409374 120.80313Q23.159374 120.131256 24.3 120.131256Q25.503124 120.131256 26.190624 120.77188Q26.878124 121.412506 26.878124 122.55313Q26.878124 123.11563 26.51875 123.631256Q26.159374 124.14688 25.534374 124.412506Q26.2375 124.631256 26.6125 125.14688Q27.003124 125.662506 27.003124 126.412506Q27.003124 127.55313 26.253124 128.24063Q25.503124 128.9125 24.3 128.9125Q23.1125 128.9125 22.346874 128.25626Q21.596874 127.600006 21.596874 126.537506L22.690624 126.537506Q22.690624 127.20938 23.128124 127.61563Q23.565624 128.02188 24.315624 128.02188Q25.096874 128.02188 25.503124 127.61563Q25.925 127.193756 25.925 126.42813Q25.925 125.693756 25.471874 125.30313Q25.01875 124.89688 24.14375 124.881256L23.33125 124.881256L23.33125 123.99063ZM28.89375 128.225Q28.89375 127.943756 29.05 127.756256Q29.221874 127.568756 29.55 127.568756Q29.89375 127.568756 30.065624 127.756256Q30.2375 127.943756 30.2375 128.225Q30.2375 128.49063 30.065624 128.67813Q29.89375 128.85 29.55 128.85Q29.221874 128.85 29.05 128.67813Q28.89375 128.49063 28.89375 128.225ZM33.33125 123.99063L34.14375 123.99063Q34.925 123.975006 35.3625 123.58438Q35.8 123.193756 35.8 122.52188Q35.8 121.02188 34.3 121.02188Q33.596874 121.02188 33.175 121.42813Q32.76875 121.83438 32.76875 122.49063L31.675 122.49063Q31.675 121.475006 32.409374 120.80313Q33.159374 120.131256 34.3 120.131256Q35.503124 120.131256 36.190624 120.77188Q36.878124 121.412506 36.878124 122.55313Q36.878124 123.11563 36.51875 123.631256Q36.159374 124.14688 35.534374 124.412506Q36.2375 124.631256 36.6125 125.14688Q37.003124 125.662506 37.003124 126.412506Q37.003124 127.55313 36.253124 128.24063Q35.503124 128.9125 34.3 128.9125Q33.1125 128.9125 32.346874 128.25626Q31.596874 127.600006 31.596874 126.537506L32.690624 126.537506Q32.690624 127.20938 33.128124 127.61563Q33.565624 128.02188 34.315624 128.02188Q35.096874 128.02188 35.503124 127.61563Q35.925 127.193756 35.925 126.42813Q35.925 125.693756 35.471874 125.30313Q35.01875 124.89688 34.14375 124.881256L33.33125 124.881256L33.33125 123.99063ZM38.659374 121.89688Q38.659374 121.131256 39.14375 120.631256Q39.64375 120.131256 40.409374 120.131256Q41.190624 120.131256 41.675 120.631256Q42.159374 121.131256 42.159374 121.92813L42.159374 122.350006Q42.159374 123.11563 41.659374 123.61563Q41.175 124.100006 40.425 124.100006Q39.659374 124.100006 39.159374 123.61563Q38.659374 123.11563 38.659374 122.30313L38.659374 121.89688ZM39.471874 122.350006Q39.471874 122.80313 39.721874 123.100006Q39.9875 123.39688 40.425 123.39688Q40.846874 123.39688 41.096874 123.11563Q41.346874 122.818756 41.346874 122.318756L41.346874 121.89688Q41.346874 121.443756 41.096874 121.14688Q40.846874 120.83438 40.409374 120.83438Q39.971874 120.83438 39.721874 121.14688Q39.471874 121.443756 39.471874 121.912506L39.471874 122.350006ZM42.815624 126.693756Q42.815624 125.92813 43.3 125.443756Q43.8 124.943756 44.565624 124.943756Q45.33125 124.943756 45.815624 125.443756Q46.315624 125.92813 46.315624 126.74063L46.315624 127.14688Q46.315624 127.912506 45.83125 128.4125Q45.346874 128.9125 44.58125 128.9125Q43.815624 128.9125 43.315624 128.42813Q42.815624 127.92813 42.815624 127.11563L42.815624 126.693756ZM43.628124 127.14688Q43.628124 127.61563 43.878124 127.912506Q44.14375 128.20938 44.58125 128.20938Q45.003124 128.20938 45.253124 127.92813Q45.503124 127.631256 45.503124 127.131256L45.503124 126.693756Q45.503124 126.225006 45.2375 125.943756Q44.9875 125.64688 44.565624 125.64688Q44.14375 125.64688 43.878124 125.943756Q43.628124 126.225006 43.628124 126.725006L43.628124 127.14688ZM40.675 128.14688L40.05 127.756256L44.221874 121.08438L44.83125 121.475006L40.675 128.14688Z" fill-rule="nonzero"/><path stroke="#757575" stroke-width="1.0" stroke-linecap="butt" d="M14.05 115.287506L59.05 115.287506L74.04811 115.287506" fill-rule="nonzero"/><path fill="#9e9e9e" d="M76.04811 115.287506C76.04811 114.18294 75.15268 113.287506 74.04811 113.287506C72.94354 113.287506 72.04811 114.18294 72.04811 115.287506C72.04811 116.392075 72.94354 117.287506 74.04811 117.287506C75.15268 117.287506 76.04811 116.392075 76.04811 115.287506" fill-rule="nonzero"/><path fill="#757575" d="M345.3875 152.68124L348.1844 159.63437L350.96564 152.68124L352.4344 152.68124L352.4344 161.2125L351.3094 161.2125L351.3094 157.88437L351.41876 154.30624L348.60626 161.2125L347.7469 161.2125L344.95 154.32187L345.0594 157.88437L345.0594 161.2125L343.9344 161.2125L343.9344 152.68124L345.3875 152.68124ZM357.6844 161.2125Q357.59064 161.025 357.52814 160.54062Q356.77814 161.3375 355.73126 161.3375Q354.79376 161.3375 354.1844 160.80624Q353.59064 160.275 353.59064 159.44687Q353.59064 158.4625 354.34064 157.91562Q355.09064 157.36874 356.46564 157.36874L357.5125 157.36874L357.5125 156.86874Q357.5125 156.30624 357.16876 155.97812Q356.84064 155.63437 356.16876 155.63437Q355.59064 155.63437 355.2 155.93124Q354.8094 156.2125 354.8094 156.63437L353.71564 156.63437Q353.71564 156.15 354.04376 155.7125Q354.3875 155.275 354.96564 155.025Q355.54376 154.75937 356.23126 154.75937Q357.34064 154.75937 357.95 155.30624Q358.575 155.85312 358.60626 156.80624L358.60626 159.72812Q358.60626 160.60312 358.825 161.11874L358.825 161.2125L357.6844 161.2125ZM355.8875 160.38437Q356.40314 160.38437 356.85626 160.11874Q357.3094 159.85312 357.5125 159.43124L357.5125 158.13437L356.66876 158.13437Q354.66876 158.13437 354.66876 159.30624Q354.66876 159.80624 355.0125 160.10312Q355.35626 160.38437 355.8875 160.38437ZM361.95 161.2125L360.8719 161.2125L360.8719 152.2125L361.95 152.2125L361.95 161.2125ZM366.40314 161.3375Q365.10626 161.3375 364.29376 160.49374Q363.4969 159.63437 363.4969 158.2125L363.4969 158.025Q363.4969 157.07187 363.85626 156.3375Q364.21564 155.5875 364.85626 155.18124Q365.5125 154.75937 366.2625 154.75937Q367.4969 154.75937 368.1844 155.57187Q368.8719 156.38437 368.8719 157.9L368.8719 158.35312L364.575 158.35312Q364.60626 159.29062 365.1219 159.86874Q365.65314 160.44687 366.46564 160.44687Q367.02814 160.44687 367.41876 160.2125Q367.825 159.97812 368.1375 159.5875L368.79376 160.10312Q367.9969 161.3375 366.40314 161.3375ZM366.2625 155.65Q365.60626 155.65 365.15314 156.13437Q364.71564 156.60312 364.6219 157.4625L367.79376 157.4625L367.79376 157.38437Q367.7469 156.55624 367.34064 156.10312Q366.95 155.65 366.2625 155.65Z" fill-rule="nonzero"/><path fill="#9e9e9e" d="M337.15314 174.93124L337.59064 170.68124L341.96564 170.68124L341.96564 171.68124L338.5125 171.68124L338.2469 174.00937Q338.8875 173.63437 339.6844 173.63437Q340.84064 173.63437 341.52814 174.41562Q342.21564 175.18124 342.21564 176.49374Q342.21564 177.80624 341.4969 178.57187Q340.79376 179.3375 339.5125 179.3375Q338.3875 179.3375 337.66876 178.7125Q336.95 178.07187 336.85626 176.9625L337.8719 176.9625Q337.98126 177.69687 338.40314 178.07187Q338.825 178.44687 339.5125 178.44687Q340.2625 178.44687 340.7 177.93124Q341.1375 177.41562 341.1375 176.50937Q341.1375 175.65 340.66876 175.13437Q340.2 174.61874 339.41876 174.61874Q338.71564 174.61874 338.3094 174.91562L338.02814 175.15L337.15314 174.93124ZM347.91876 170.68124L347.91876 171.5875L347.71564 171.5875Q346.45 171.61874 345.7 172.35312Q344.95 173.07187 344.825 174.38437Q345.5125 173.61874 346.66876 173.61874Q347.77814 173.61874 348.45 174.4Q349.1219 175.18124 349.1219 176.43124Q349.1219 177.74374 348.40314 178.54062Q347.6844 179.3375 346.46564 179.3375Q345.2469 179.3375 344.48126 178.4Q343.73126 177.44687 343.73126 175.9625L343.73126 175.55624Q343.73126 173.19687 344.73126 171.94687Q345.73126 170.69687 347.71564 170.68124L347.91876 170.68124ZM346.4969 174.525Q345.9344 174.525 345.46564 174.85312Q344.9969 175.18124 344.8094 175.69687L344.8094 176.0875Q344.8094 177.15 345.27814 177.79062Q345.7625 178.43124 346.46564 178.43124Q347.2 178.43124 347.6219 177.9Q348.04376 177.35312 348.04376 176.47812Q348.04376 175.60312 347.6219 175.07187Q347.2 174.525 346.4969 174.525ZM350.79376 178.65Q350.79376 178.36874 350.95 178.18124Q351.1219 177.99374 351.45 177.99374Q351.79376 177.99374 351.96564 178.18124Q352.1375 178.36874 352.1375 178.65Q352.1375 178.91562 351.96564 179.10312Q351.79376 179.275 351.45 179.275Q351.1219 179.275 350.95 179.10312Q350.79376 178.91562 350.79376 178.65ZM359.16876 171.29062L355.6375 179.2125L354.4969 179.2125L358.0125 171.57187L353.40314 171.57187L353.40314 170.68124L359.16876 170.68124L359.16876 171.29062ZM360.5594 172.32187Q360.5594 171.55624 361.04376 171.05624Q361.54376 170.55624 362.3094 170.55624Q363.09064 170.55624 363.575 171.05624Q364.0594 171.55624 364.0594 172.35312L364.0594 172.775Q364.0594 173.54062 363.5594 174.04062Q363.075 174.525 362.325 174.525Q361.5594 174.525 361.0594 174.04062Q360.5594 173.54062 360.5594 172.72812L360.5594 172.32187ZM361.3719 172.775Q361.3719 173.22812 361.6219 173.525Q361.8875 173.82187 362.325 173.82187Q362.7469 173.82187 362.9969 173.54062Q363.2469 173.24374 363.2469 172.74374L363.2469 172.32187Q363.2469 171.86874 362.9969 171.57187Q362.7469 171.25937 362.3094 171.25937Q361.8719 171.25937 361.6219 171.57187Q361.3719 171.86874 361.3719 172.3375L361.3719 172.775ZM364.71564 177.11874Q364.71564 176.35312 365.2 175.86874Q365.7 175.36874 366.46564 175.36874Q367.23126 175.36874 367.71564 175.86874Q368.21564 176.35312 368.21564 177.16562L368.21564 177.57187Q368.21564 178.3375 367.73126 178.8375Q367.2469 179.3375 366.48126 179.3375Q365.71564 179.3375 365.21564 178.85312Q364.71564 178.35312 364.71564 177.54062L364.71564 177.11874ZM365.52814 177.57187Q365.52814 178.04062 365.77814 178.3375Q366.04376 178.63437 366.48126 178.63437Q366.90314 178.63437 367.15314 178.35312Q367.40314 178.05624 367.40314 177.55624L367.40314 177.11874Q367.40314 176.65 367.1375 176.36874Q366.8875 176.07187 366.46564 176.07187Q366.04376 176.07187 365.77814 176.36874Q365.52814 176.65 365.52814 177.15L365.52814 177.57187ZM362.575 178.57187L361.95 178.18124L366.1219 171.50937L366.73126 171.9L362.575 178.57187Z" fill-rule="nonzero"/><path stroke="#757575" stroke-width="1.0" stroke-linecap="butt" d="M368.95 165.7125L323.95 165.7125L308.9519 165.7125" fill-rule="nonzero"/><path fill="#9e9e9e" d="M310.9519 165.7125C310.9519 164.60793 310.05646 163.7125 308.9519 163.7125C307.84732 163.7125 306.9519 164.60793 306.9519 165.7125C306.9519 166.81706 307.84732 167.7125 308.9519 167.7125C310.05646 167.7125 310.9519 166.81706 310.9519 165.7125" fill-rule="nonzero"/></svg>